<svg xmlns="http://www.w3.org/2000/svg" class="icon icon-tabler icon-tabler-sort-descending-2" width="16px" height="16px" viewBox="0 0 24 24" stroke-width="2" stroke="currentColor" fill="none" stroke-linecap="round" stroke-linejoin="round"><path stroke="none" d="M0 0h24v24H0z" fill="none"></path><path d="M5 5m0 .5a.5 .5 0 0 1 .5 -.5h4a.5 .5 0 0 1 .5 .5v4a.5 .5 0 0 1 -.5 .5h-4a.5 .5 0 0 1 -.5 -.5z"></path><path d="M5 14m0 .5a.5 .5 0 0 1 .5 -.5h4a.5 .5 0 0 1 .5 .5v4a.5 .5 0 0 1 -.5 .5h-4a.5 .5 0 0 1 -.5 -.5z"></path><path d="M14 15l3 3l3 -3"></path><path d="M17 18v-12"></path></svg>