<?xml version="1.0" encoding="UTF-8" standalone="no"?>
<svg
   viewBox="0 0 500 500"
   version="1.1"
   id="svg1"
   sodipodi:docname="AdventOfCode.svg"
   inkscape:version="1.3 (0e150ed6c4, 2023-07-21)"
   xmlns:inkscape="http://www.inkscape.org/namespaces/inkscape"
   xmlns:sodipodi="http://sodipodi.sourceforge.net/DTD/sodipodi-0.dtd"
   xmlns="http://www.w3.org/2000/svg"
   xmlns:svg="http://www.w3.org/2000/svg"
   xmlns:bx="https://boxy-svg.com">
  <defs
     id="defs1">
    <inkscape:path-effect
       effect="powerclip"
       id="path-effect2"
       is_visible="true"
       lpeversion="1"
       inverse="true"
       flatten="false"
       hide_clip="false"
       message="Use fill-rule evenodd on &lt;b&gt;fill and stroke&lt;/b&gt; dialog if no flatten result after convert clip to paths." />
    <clipPath
       clipPathUnits="userSpaceOnUse"
       id="clipPath2">
      <path
         d="m 250,286.741 -69.45,92.03 -24.311,-17.362 62.5,-95.492 -93.739,-40.514 9.251,-26.635 96.655,31.831 5.196,-109.369 h 27.796 l 5.196,109.369 96.655,-31.831 9.251,26.635 -93.739,40.514 62.5,95.492 -24.312,17.362 z"
         style="white-space:pre;display:none;fill:#ffff66"
         bx:origin="0.5 0.523295"
         id="path2" />
      <path
         id="lpe_path-effect2"
         style="white-space:pre;fill:#ffff66"
         class="powerclip"
         d="M -5,-5 H 505 V 505 H -5 Z m 255,291.741 69.449,92.03 24.312,-17.362 -62.5,-95.492 93.739,-40.514 -9.251,-26.635 -96.655,31.831 -5.196,-109.369 h -27.796 l -5.196,109.369 -96.655,-31.831 -9.251,26.635 93.739,40.514 -62.5,95.492 24.311,17.362 z" />
    </clipPath>
  </defs>
  <sodipodi:namedview
     id="namedview1"
     pagecolor="#ffffff"
     bordercolor="#000000"
     borderopacity="0.25"
     inkscape:showpageshadow="2"
     inkscape:pageopacity="0.0"
     inkscape:pagecheckerboard="0"
     inkscape:deskcolor="#d1d1d1"
     inkscape:zoom="1.554"
     inkscape:cx="249.67825"
     inkscape:cy="250"
     inkscape:window-width="1920"
     inkscape:window-height="991"
     inkscape:window-x="-9"
     inkscape:window-y="-9"
     inkscape:window-maximized="1"
     inkscape:current-layer="svg1" />
  <path
     width="500"
     height="500"
     id="rect1"
     clip-path="url(#clipPath2)"
     inkscape:path-effect="#path-effect2"
     sodipodi:type="rect"
     x="0"
     y="0"
     d="M 0,0 H 500 V 500 H 0 Z" />
</svg>
