<?xml version="1.0" encoding="UTF-8" standalone="no"?>
<svg
   version="1.0"
   width="31.140745pt"
   height="29.754519pt"
   viewBox="0 0 31.140745 29.754519"
   preserveAspectRatio="xMidYMid"
   id="svg2"
   sodipodi:docname="CppReference.svg"
   inkscape:version="1.3 (0e150ed6c4, 2023-07-21)"
   xmlns:inkscape="http://www.inkscape.org/namespaces/inkscape"
   xmlns:sodipodi="http://sodipodi.sourceforge.net/DTD/sodipodi-0.dtd"
   xmlns="http://www.w3.org/2000/svg"
   xmlns:svg="http://www.w3.org/2000/svg">
  <defs
     id="defs2" />
  <sodipodi:namedview
     id="namedview2"
     pagecolor="#ffffff"
     bordercolor="#000000"
     borderopacity="0.25"
     inkscape:showpageshadow="2"
     inkscape:pageopacity="0.0"
     inkscape:pagecheckerboard="0"
     inkscape:deskcolor="#d1d1d1"
     inkscape:document-units="pt"
     inkscape:zoom="9.1054688"
     inkscape:cx="16.30888"
     inkscape:cy="24.545689"
     inkscape:window-width="1920"
     inkscape:window-height="991"
     inkscape:window-x="-9"
     inkscape:window-y="-9"
     inkscape:window-maximized="1"
     inkscape:current-layer="svg2" />
  <g
     transform="matrix(0.1,0,0,-0.1,0.14975349,29.718174)"
     fill="currentColor"
     stroke="none"
     id="g2"
     style="display:none">
    <path
       d="M 80,278 C 20,237 5,207 5,129 5,67 8,58 33,33 56,9 69,5 115,5 c 48,0 58,4 87,33 27,27 30,34 18,42 -10,6 -21,3 -36,-11 C 172,58 147,47 127,43 32,28 9,170 95,238 c 35,27 86,29 109,3 19,-21 46,-18 46,5 0,22 -61,54 -101,54 -21,0 -50,-9 -69,-22 z"
       id="path1" />
    <path
       d="m 126,185 c -5,-18 -13,-25 -31,-25 -14,0 -25,-4 -25,-10 0,-5 9,-10 20,-10 15,0 20,-7 20,-25 0,-32 18,-32 30,0 8,22 16,25 55,25 41,0 45,-2 45,-25 0,-32 18,-32 30,0 5,14 16,25 25,25 8,0 15,5 15,10 0,6 -7,10 -15,10 -9,0 -15,9 -15,25 0,32 -16,33 -24,1 -11,-42 -106,-39 -106,4 0,28 -17,25 -24,-5 z"
       id="path2" />
  </g>
  <path
     style="color:currentColor;fill:currentColor;-inkscape-stroke:none"
     d="M 17.433631,0.15439425 C 14.559894,-0.32516835 11.395334,0.34266365 8.8379272,1.7383787 6.0943851,3.2356781 3.897679,5.8201788 2.4199585,8.5743159 0.78136758,11.628279 -0.21384654,15.238867 0.03909904,18.69541 c 0.18838032,2.574248 1.21291556,5.204958 2.85156256,7.199219 1.4661169,1.784289 5.8242187,3.751953 5.8242187,3.751953 0,0 4.1051527,0.366801 6.0136727,-0.251953 3.19673,-1.036399 6.140992,-3.084279 8.404296,-5.56836 0.804676,-0.88317 -0.134268,-1.063127 -0.476562,-1.43164 -0.496045,-0.53404 -1.289353,-0.849705 -2.018183,-0.841591 -0.653509,0.0073 -1.219229,0.480641 -1.792364,0.794716 -1.847941,1.012661 -3.265055,2.842229 -5.269531,3.492187 -1.228526,0.398354 -2.624723,0.500517 -3.8710943,0.16211 C 8.2150241,25.59747 6.7907296,24.687288 5.8105834,23.494238 4.6558904,22.088726 3.9353459,20.234186 3.802771,18.420019 3.6010217,15.659263 4.3945964,12.775324 5.7031616,10.336035 6.8425482,8.2121099 8.5366545,6.2190895 10.652381,5.0645505 12.482271,4.0659907 14.734194,3.6736561 16.802771,3.931738 19.684525,4.2912742 22.325629,9.2093229 24.720534,7.5667031 25.664645,6.9191556 25.115887,5.1087966 24.507849,4.1387693 23.070469,1.8456578 20.103084,0.59986635 17.433631,0.15439425 Z"
     id="path3"
     sodipodi:nodetypes="aaaaacasaaaaaaaaaaaaa" />
  <path
     style="fill-opacity:1;stroke:none;stroke-width:3.6;stroke-dasharray:none;stroke-opacity:1;fill:currentColor"
     d="m 7.2540006,14.809551 c 3.951e-4,-1.59707 3.3099574,-0.598828 4.4881134,-1.677058 0.783317,-0.71688 1.00967,-2.033673 1.374434,-2.873752 0.458004,-1.0548171 0.871044,-1.2973241 0.871044,-1.2973241 0.251344,-0.379661 0.628437,-0.02865 0.939271,0.456644 0.23545,0.367599 0.170688,2.1652851 0.359794,2.4536251 0.370886,0.565512 0.605724,0.80326 0.954235,1.073263 0.273226,0.211678 0.592511,0.47889 1.261272,0.700485 0.240666,0.07974 1.041107,0.285015 1.334849,0.371325 1.771914,-0.02746 3.833204,0.03775 4.375804,-0.401546 0.600596,-0.230361 1.522034,-0.638602 2.065663,-1.536699 0.843709,-1.393841 1.042403,-3.6708681 1.986093,-3.2442231 1.62172,0.733186 -0.07323,4.0653611 1.735329,4.6964111 l 1.133169,0.292284 0.539275,0.230569 0.468399,0.550071 c 0,0 -0.144399,0.526612 -0.259878,0.599643 -0.223853,0.141569 -0.410186,0.276036 -0.603909,0.369451 -0.332225,0.160201 -0.909021,0.0534 -1.268633,0.261637 -0.501607,0.290466 -0.895901,0.684223 -1.12112,0.96232 -0.728341,0.899349 -0.825288,1.686737 -1.518117,2.853443 -0.165928,0.279418 -0.429954,0.63679 -0.680494,0.785749 -0.233908,0.139069 -0.319972,0.13206 -0.509239,0.139443 -0.208692,0.0081 -0.475156,0.03398 -0.791909,-0.951192 -0.166608,-0.518187 -0.145748,-1.302223 -0.223177,-1.939998 -0.200356,-1.033223 -0.04895,-1.280921 -0.704348,-1.669942 l -0.997625,-0.233775 -2.039777,-0.112547 -2.017993,0.0297 -1.081027,0.07981 c 0,0 -1.481041,0.160694 -2.03861,0.597169 -0.916094,0.717136 -1.015013,2.119533 -1.756585,3.01596 -0.363567,0.439488 -0.738689,1.265323 -1.291034,1.123035 -1.528766,-0.39382 -0.514652,-3.327423 -1.626769,-4.447876 -0.8415593,-0.847867 -3.3567959,-0.06149 -3.3565004,-1.256105 z"
     id="path4"
     sodipodi:nodetypes="aascssssccssccccssssssssscccccaaaaa" />
</svg>
