<?xml version="1.0" encoding="UTF-8" standalone="no"?>
<svg
   version="1.1"
   id="Layer_1"
   x="0px"
   y="0px"
   viewBox="0 0 73 51.4"
   style="enable-background:new 0 0 73 51.4;"
   xml:space="preserve"
   sodipodi:docname="codility.svg"
   inkscape:version="1.3 (0e150ed6c4, 2023-07-21)"
   xmlns:inkscape="http://www.inkscape.org/namespaces/inkscape"
   xmlns:sodipodi="http://sodipodi.sourceforge.net/DTD/sodipodi-0.dtd"
   xmlns="http://www.w3.org/2000/svg"
   xmlns:svg="http://www.w3.org/2000/svg"
   xmlns:ns="ns_sfw;"><defs
   id="defs2" /><sodipodi:namedview
   id="namedview2"
   pagecolor="#ffffff"
   bordercolor="#000000"
   borderopacity="0.25"
   inkscape:showpageshadow="2"
   inkscape:pageopacity="0.0"
   inkscape:pagecheckerboard="0"
   inkscape:deskcolor="#d1d1d1"
   inkscape:zoom="15.116731"
   inkscape:cx="36.482755"
   inkscape:cy="25.700001"
   inkscape:window-width="1920"
   inkscape:window-height="991"
   inkscape:window-x="-9"
   inkscape:window-y="-9"
   inkscape:window-maximized="1"
   inkscape:current-layer="g2" />&#10; <style
   type="text/css"
   id="style1">&#10;  .st0{fill:currentColor;}&#10; </style>&#10; <metadata
   id="metadata1">&#10;  <ns:sfw>&#10;   <ns:slices>&#10;   </ns:slices>&#10;   <ns:sliceSourceBounds
   bottomLeftOrigin="true"
   height="51.4"
   width="73"
   x="264.5"
   y="274.3">&#10;   </ns:sliceSourceBounds>&#10;  </ns:sfw>&#10; </metadata>&#10; <g
   id="g2">&#10;  <path
   class="st0"
   d="M25,51.4c-13.8,0-25-11.5-25-25.7S11.2,0,25,0c5.2,0,10.2,1.6,14.4,4.7c0.3,0.2,0.5,0.5,0.5,0.9   c0,0.4,0,0.7-0.3,1c-1.5,1.9-3,3.8-4.4,5.5c-0.2,0.3-0.6,0.5-1,0.5c-0.3,0-0.6-0.1-0.8-0.3c-2.5-2-5.4-3-8.4-3   c-8.1,0-14.7,7.5-14.7,16.8S16.9,42.8,25,42.8c3.1,0,6.2-1.1,8.7-3.2c0.2-0.2,0.5-0.3,0.8-0.3c0.4,0,0.8,0.2,1.1,0.5   c1.3,1.6,2.7,3.4,4.1,5.1c0.2,0.3,0.3,0.6,0.3,1c0,0.4-0.2,0.7-0.5,0.9C35.2,49.8,30.2,51.4,25,51.4"
   id="path1">&#10;  </path>&#10;  <path
   class="st0"
   d="M71.4,35.6H54.1c-0.7,0-1.3,0.4-1.6,1.1l-2.5,6.6c-0.2,0.5-0.1,1.1,0.2,1.5c0.3,0.4,0.8,0.7,1.4,0.7h19.7   c0.2,0,0.3,0,0.5-0.1c0.6-0.2,1.1-0.8,1.1-1.5v-6.8C73,36.3,72.3,35.6,71.4,35.6z"
   id="path2"
   style="fill-rule:nonzero">&#10;  </path>&#10; </g>&#10;</svg>
