<?xml version="1.0" encoding="UTF-8" standalone="no"?>
<svg
   fill="none"
   viewBox="0 0 30 30"
   version="1.1"
   id="svg3"
   sodipodi:docname="obsidian.svg"
   inkscape:version="1.3 (0e150ed6c4, 2023-07-21)"
   xmlns:inkscape="http://www.inkscape.org/namespaces/inkscape"
   xmlns:sodipodi="http://sodipodi.sourceforge.net/DTD/sodipodi-0.dtd"
   xmlns="http://www.w3.org/2000/svg"
   xmlns:svg="http://www.w3.org/2000/svg">
  <defs
     id="defs3" />
  <sodipodi:namedview
     id="namedview3"
     pagecolor="#ffffff"
     bordercolor="#000000"
     borderopacity="0.25"
     inkscape:showpageshadow="2"
     inkscape:pageopacity="0.0"
     inkscape:pagecheckerboard="0"
     inkscape:deskcolor="#d1d1d1"
     inkscape:zoom="18.314066"
     inkscape:cx="17.254498"
     inkscape:cy="15.206891"
     inkscape:window-width="1920"
     inkscape:window-height="991"
     inkscape:window-x="-9"
     inkscape:window-y="-9"
     inkscape:window-maximized="1"
     inkscape:current-layer="svg3" />
  <path
     fill="currentColor"
     d="m 11.664672,17.519505 c 0.762473,-0.226359 2.001491,-0.571855 3.419214,-0.667164 a 12.032773,12.032773 0 0 1 -0.893523,-5.706632 c 0.190618,-1.9300091 0.881609,-3.5502637 1.548773,-4.920332 l 0.405063,-0.8339545 0.5242,-1.0722274 C 16.942413,3.7354269 17.144945,3.2231405 17.240254,2.7346814 17.335563,2.258136 17.335563,1.8411587 17.216427,1.436095 17.09729,1.0310314 16.859017,0.60214046 16.382472,0.12559498 A 1.9895774,1.9895774 0 0 0 14.535858,0.56639955 L 8.3645944,6.1181543 C 8.019099,6.4279089 7.7927399,6.8448862 7.7212581,7.309518 L 7.197058,10.835955 a 17.441564,17.441564 0 0 1 4.467614,6.68355 z M 6.9468717,12.444296 6.8277353,12.801705 3.5633987,20.069023 a 2.0253183,2.0253183 0 0 0 0.3812364,2.215937 l 5.1347776,5.277741 A 10.364864,10.364864 0 0 0 10.127813,17.221664 16.297855,16.297855 0 0 0 6.9468717,12.444296 Z"
     id="path1"
     style="stroke-width:1.19136" />
  <path
     fill="currentColor"
     d="m 10.270776,28.194124 0.274014,0.02383 c 0.965005,0.02383 2.609087,0.119136 3.9315,0.357409 1.084141,0.202532 3.240509,0.798214 5.003728,1.3105 1.346241,0.405064 2.740136,-0.679077 2.930754,-2.072973 0.142964,-1.012659 0.416978,-2.156368 0.905437,-3.216682 a 11.079682,11.079682 0 0 0 -3.026064,-4.789285 6.6001548,6.6001548 0 0 0 -3.454955,-1.560686 11.282214,11.282214 0 0 0 -4.789282,0.559941 11.556228,11.556228 0 0 1 -1.787045,9.387946 z"
     id="path2"
     style="stroke-width:1.19136" />
  <path
     fill="currentColor"
     d="m 24.173991,23.166569 c 1.107968,-1.667909 1.906181,-2.978409 2.311245,-3.693228 a 1.0126591,1.0126591 0 0 0 -0.07148,-1.107968 21.682819,21.682819 0 0 1 -2.549518,-4.1936 c -0.690991,-1.655995 -0.7863,-4.2174276 -0.798214,-5.4564458 0,-0.4765455 -0.142963,-0.9411774 -0.440804,-1.3105001 L 18.634149,2.3415314 c 0,0.2263591 -0.04765,0.4527182 -0.09531,0.6790773 a 8.9352277,8.9352277 0 0 1 -0.667163,1.8585274 l -0.548028,1.1437091 -0.39315,0.7863001 a 13.081173,13.081173 0 0 0 -1.405809,4.4676137 10.97246,10.97246 0 0 0 1.012659,5.59941 7.9344822,7.9344822 0 0 1 4.622491,1.930009 11.615796,11.615796 0 0 1 3.014152,4.360391 z"
     id="path3"
     style="stroke-width:1.19136" />
</svg>
