<?xml version="1.0" encoding="UTF-8" standalone="no"?>
<!-- Created with Inkscape (http://www.inkscape.org/) -->

<svg
   width="82.993729mm"
   height="112.70602mm"
   viewBox="0 0 82.993729 112.70602"
   version="1.1"
   id="svg1"
   xml:space="preserve"
   inkscape:version="1.3 (0e150ed6c4, 2023-07-21)"
   sodipodi:docname="physics.svg"
   xmlns:inkscape="http://www.inkscape.org/namespaces/inkscape"
   xmlns:sodipodi="http://sodipodi.sourceforge.net/DTD/sodipodi-0.dtd"
   xmlns="http://www.w3.org/2000/svg"
   xmlns:svg="http://www.w3.org/2000/svg"><sodipodi:namedview
     id="namedview1"
     pagecolor="#ffffff"
     bordercolor="currentColor"
     borderopacity="0.25"
     inkscape:showpageshadow="2"
     inkscape:pageopacity="0.0"
     inkscape:pagecheckerboard="0"
     inkscape:deskcolor="#d1d1d1"
     inkscape:document-units="mm"
     inkscape:zoom="0.69219276"
     inkscape:cx="41.173502"
     inkscape:cy="221.75904"
     inkscape:window-width="1920"
     inkscape:window-height="991"
     inkscape:window-x="-9"
     inkscape:window-y="-9"
     inkscape:window-maximized="1"
     inkscape:current-layer="svg1" /><defs
     id="defs1"><linearGradient
       id="swatch6"
       inkscape:swatch="solid"><stop
         style="stop-color:currentColor;stop-opacity:1;"
         offset="0"
         id="stop6" /></linearGradient><inkscape:path-effect
       effect="skeletal"
       id="path-effect4"
       is_visible="true"
       lpeversion="1"
       pattern="M 0,4.9921382 C 0,2.2364779 2.2364779,0 4.9921382,0 c 2.7556604,0 4.9921383,2.2364779 4.9921383,4.9921382 0,2.7556604 -2.2364779,4.9921383 -4.9921383,4.9921383 C 2.2364779,9.9842765 0,7.7477986 0,4.9921382 Z"
       copytype="single_stretched"
       prop_scale="1"
       scale_y_rel="false"
       spacing="0"
       normal_offset="0"
       tang_offset="0"
       prop_units="false"
       vertical_pattern="false"
       hide_knot="false"
       fuse_tolerance="0" /><inkscape:path-effect
       effect="bspline"
       id="path-effect3"
       is_visible="true"
       lpeversion="1.3"
       weight="33.333333"
       steps="2"
       helper_size="0"
       apply_no_weight="true"
       apply_with_weight="true"
       only_selected="false"
       uniform="false" /></defs><g
     inkscape:label="Layer 1"
     inkscape:groupmode="layer"
     id="layer1"
     transform="translate(-75.234273,-113.58622)"><path
       style="fill:none;stroke:currentColor;stroke-width:4.94679;stroke-linecap:round;stroke-dasharray:none;stroke-opacity:1"
       d="m 119.30425,121.32879 -0.0526,14.81049"
       id="path1-4-6" /><path
       style="fill:none;stroke:currentColor;stroke-width:4.97132;stroke-linecap:round;stroke-dasharray:none;stroke-opacity:1"
       d="m 103.17148,116.82001 -0.0281,28.02989"
       id="path1-4-6-5" /><path
       style="opacity:1;fill:none;fill-rule:evenodd;stroke:currentColor;stroke-width:2.569;stroke-linecap:round;stroke-dasharray:none;stroke-opacity:1"
       d="m 86.29054,182.5193 c -1.810935,3.50579 -5.692878,5.65658 -8.122586,8.02703"
       id="path7" /><path
       style="opacity:1;fill:none;fill-rule:evenodd;stroke:currentColor;stroke-width:2.569;stroke-linecap:round;stroke-dasharray:none;stroke-opacity:1"
       d="m 86.768338,190.54633 c -1.71219,2.98936 -4.827159,4.89239 -7.071428,7.16699"
       id="path8" /><path
       style="opacity:1;fill:none;fill-rule:evenodd;stroke:currentColor;stroke-width:2.569;stroke-linecap:round;stroke-dasharray:none;stroke-opacity:1"
       d="m 87.723937,195.89768 c -1.566442,2.32665 -4.185354,3.79298 -6.115831,5.54247"
       id="path9" /><path
       style="opacity:1;fill:none;fill-rule:evenodd;stroke:currentColor;stroke-width:2.569;stroke-linecap:round;stroke-dasharray:none;stroke-opacity:1"
       d="m 91.259651,200.48455 c -1.351592,2.84888 -4.134892,4.46306 -6.020271,6.49807"
       id="path10" /><path
       style="opacity:1;fill:none;fill-rule:evenodd;stroke:currentColor;stroke-width:2.569;stroke-linecap:round;stroke-dasharray:none;stroke-opacity:1"
       d="m 94.317567,205.07143 c -2.062207,1.43356 -3.640621,3.57442 -5.255791,5.16023"
       id="path11" /><path
       style="opacity:1;fill:none;fill-rule:evenodd;stroke:currentColor;stroke-width:2.569;stroke-linecap:round;stroke-dasharray:none;stroke-opacity:1"
       d="m 97.948841,208.89382 c -1.349978,1.85137 -3.188626,3.18863 -4.682434,4.68243"
       id="path12" /><path
       style="opacity:1;fill:none;fill-rule:evenodd;stroke:currentColor;stroke-width:2.569;stroke-linecap:round;stroke-dasharray:none;stroke-opacity:1"
       d="m 102.91795,211.47394 c -1.6979,2.00655 -4.272643,4.13022 -5.733588,5.54247"
       id="path13" /><path
       style="opacity:1;fill:none;fill-rule:evenodd;stroke:currentColor;stroke-width:2.569;stroke-linecap:round;stroke-dasharray:none;stroke-opacity:1"
       d="m 108.93822,212.62065 c -2.13977,2.72212 -4.7492,4.94174 -7.07143,7.35811"
       id="path14" /><path
       style="opacity:1;fill:none;fill-rule:evenodd;stroke:currentColor;stroke-width:2.569;stroke-linecap:round;stroke-dasharray:none;stroke-opacity:1"
       d="m 114.09845,215.39189 c -1.80484,2.81521 -4.95771,4.42889 -7.16698,6.40251"
       id="path15" /><path
       style="opacity:1;fill:none;fill-rule:evenodd;stroke:currentColor;stroke-width:2.569;stroke-linecap:round;stroke-dasharray:none;stroke-opacity:1"
       d="m 120.11873,216.72973 c -2.98193,1.50925 -4.61009,4.87733 -6.59364,6.97587"
       id="path16" /><path
       style="opacity:1;fill:none;fill-rule:evenodd;stroke:currentColor;stroke-width:2.569;stroke-linecap:round;stroke-dasharray:none;stroke-opacity:1"
       d="m 127.95463,215.96525 c -3.40916,2.1324 -5.8032,5.60758 -8.50482,8.21814"
       id="path17" /><path
       style="fill:none;stroke:currentColor;stroke-width:4.96869;stroke-linecap:round;stroke-dasharray:none;stroke-opacity:1"
       d="m 136.45265,117.49777 -0.0307,25.59997"
       id="path1-4-6-5-7" /></g><g
     id="g4"
     inkscape:label="apple"
     transform="translate(-75.234273,-113.58622)"><path
       style="stroke:currentColor;stroke-width:2.569;stroke-linecap:round;stroke-dasharray:none;stroke-opacity:1"
       d="m 96.356267,167.03555 c -0.01235,0.006 1.786054,-5.63988 5.469773,-10.10649 3.63747,-4.41052 9.13345,-7.63392 13.37663,-8.92819 6.96773,-2.12533 15.06742,0.74953 21.42592,4.3042 5.41534,3.0274 9.71158,9.3688 12.68046,13.62445 10.35942,14.84937 12.89277,37.51777 -9.97762,42.1892"
       id="path4"
       sodipodi:nodetypes="cssasc" /><path
       style="stroke:currentColor;stroke-width:2.61874;stroke-linecap:round;stroke-dasharray:none;stroke-opacity:1"
       d="m 97.321913,166.13132 c 0.0072,-0.0121 -2.72383,-0.43003 -7.590739,2.93067 -4.805793,3.3185 -8.549271,8.60944 -10.2183,12.79045 -2.016379,5.05114 -1.974244,11.67248 -0.200368,17.09268 0.637218,1.94707 1.980799,3.55365 2.855309,5.3024 2.68547,5.37009 8.731271,9.03053 13.035358,12.12258 8.076577,5.80219 17.157567,8.10107 24.662927,8.5633 10.02549,0.61744 19.22904,-4.51472 20.94856,-16.75025"
       id="path5"
       sodipodi:nodetypes="cssssssc" /><path
       style="opacity:1;fill-rule:evenodd;stroke:currentColor;stroke-width:2.34355;stroke-linecap:round;stroke-dasharray:none;stroke-opacity:1;fill-opacity:1"
       d="m 81.916615,148.74744 c -1.599221,1.94451 -3.58684,3.34765 -5.164677,4.82027 4.642942,7.15689 11.791524,8.64632 18.322307,11.86527 -3.996081,-5.83471 -9.029555,-11.61434 -13.15763,-16.68554 z"
       id="path6" /></g></svg>
