<?xml version="1.0" encoding="UTF-8" standalone="no"?>
<!-- Created with Inkscape (http://www.inkscape.org/) -->

<svg version="1.1" id="svg1" width="442.58969" height="565.50189" viewBox="0 0 442.58969 565.50189"
   sodipodi:docname="ScribbleNotes.svg" inkscape:version="1.3 (0e150ed6c4, 2023-07-21)"
   xmlns:inkscape="http://www.inkscape.org/namespaces/inkscape"
   xmlns:sodipodi="http://sodipodi.sourceforge.net/DTD/sodipodi-0.dtd" xmlns="http://www.w3.org/2000/svg"
   xmlns:svg="http://www.w3.org/2000/svg">
   <defs id="defs1">
      <inkscape:path-effect effect="spiro" id="path-effect4" is_visible="true" lpeversion="1" />
      <inkscape:path-effect effect="spiro" id="path-effect4-0" is_visible="true" lpeversion="1" />
      <inkscape:path-effect effect="spiro" id="path-effect4-0-9" is_visible="true" lpeversion="1" />
   </defs>
   <sodipodi:namedview id="namedview1" pagecolor="#ffffff" bordercolor="currentColor" borderopacity="0.25"
      inkscape:showpageshadow="2" inkscape:pageopacity="0.0" inkscape:pagecheckerboard="0" inkscape:deskcolor="#d1d1d1"
      showgrid="false" inkscape:zoom="0.80481731" inkscape:cx="124.2518" inkscape:cy="282.67285"
      inkscape:window-width="1920" inkscape:window-height="991" inkscape:window-x="-9" inkscape:window-y="-9"
      inkscape:window-maximized="1" inkscape:current-layer="g1" />
   <g inkscape:groupmode="layer" inkscape:label="Image" id="g1" transform="translate(-120.91714,-55.113369)">
      <circle style="fill:none;stroke:currentColor;stroke-width:41;stroke-dasharray:none;stroke-opacity:1" id="path1"
         cx="467.41144" cy="111.5813" r="45.596119" />
      <rect style="fill:none;stroke:currentColor;stroke-width:41;stroke-dasharray:none;stroke-opacity:1" id="rect2"
         width="139.45865" height="2.2556028" x="63.417225" y="410.8064"
         transform="matrix(0.69031888,-0.72350525,0.71425975,0.69988071,0,0)" />
      <path id="rect3" style="fill:none;stroke:currentColor;stroke-width:41"
         d="m 161.78894,188.89748 h 359.96741 c 16.62,0 29.94802,13.38008 30,30 l 0.87859,280.89405 c 0.052,16.61991 -49.40231,109.95195 -116.1021,109.95195 h -274.7439 c -16.62,0 -30,-13.38 -30,-30 v -360.846 c 0,-16.62 13.38,-30 30,-30 z"
         sodipodi:nodetypes="sssssssss" />
      <path style="fill:none;stroke:currentColor;stroke-width:41;stroke-dasharray:none;stroke-opacity:1"
         d="m 443.29468,605.61798 13.18467,-108.45896 95.58894,-2.66702 1.64808,1.77802" id="path3" />
      <path style="fill:none;stroke:currentColor;stroke-width:41;stroke-dasharray:none;stroke-opacity:1"
         d="m 193.29044,323.32219 c 0.38696,3.76713 2.58169,7.30761 5.78352,9.32982 3.20182,2.0222 7.34186,2.48262 10.90974,1.21329 2.2344,-0.79493 4.20285,-2.20973 5.94584,-3.81797 1.74299,-1.60824 3.28542,-3.41824 4.90031,-5.15508 1.61489,-1.73683 3.32161,-3.41675 5.31637,-4.69947 1.99477,-1.28271 4.30935,-2.15563 6.6809,-2.14215 2.6065,0.0148 5.11518,1.09641 7.25213,2.58889 2.13696,1.49248 3.95532,3.38718 5.78305,5.24553 1.82774,1.85835 3.70022,3.70959 5.91166,5.08931 2.21143,1.37972 4.81692,2.26743 7.41095,2.01235 2.37281,-0.23333 4.57426,-1.40432 6.41635,-2.91805 1.84208,-1.51373 3.37041,-3.36644 4.90149,-5.19413 1.53108,-1.82769 3.0927,-3.65762 4.98373,-5.10974 1.89103,-1.45213 4.15881,-2.51644 6.54184,-2.59275 2.47646,-0.0793 4.89216,0.91437 6.92049,2.3374 2.02833,1.42303 3.72332,3.26152 5.39813,5.08749 1.67481,1.82596 3.36316,3.6694 5.38219,5.10559 2.01904,1.43619 4.42251,2.45268 6.89979,2.4056 2.2971,-0.0437 4.50278,-0.99821 6.38371,-2.31757 1.88092,-1.31935 3.47886,-2.99518 5.05981,-4.66227 1.58094,-1.66709 3.17151,-3.3487 5.04185,-4.68301 1.87034,-1.33431 4.06194,-2.31436 6.35805,-2.39464 2.62646,-0.0918 5.18521,1.00371 7.29583,2.5696 2.11062,1.56588 3.83537,3.58473 5.52715,5.59586 1.69177,2.01112 3.38722,4.04978 5.45621,5.67028 2.06898,1.6205 4.57233,2.81202 7.2,2.85753 2.54143,0.044 5.00738,-0.98692 7.09192,-2.44139 2.08454,-1.45447 3.84158,-3.32076 5.59165,-5.16414 1.75006,-1.84338 3.52784,-3.69365 5.64115,-5.10599 2.1133,-1.41235 4.61687,-2.37052 7.15448,-2.22456 2.22419,0.12793 4.33501,1.09453 6.14349,2.39561 1.80847,1.30108 3.35108,2.93076 4.87616,4.55479 1.52509,1.62404 3.05578,3.26303 4.84682,4.58802 1.79103,1.32498 3.87835,2.33209 6.09835,2.51906 2.48807,0.20955 4.97626,-0.62773 7.11281,-1.91983 2.13655,-1.2921 3.96929,-3.02209 5.76132,-4.76078 1.79203,-1.73868 3.57483,-3.51108 5.64246,-4.91083 2.06762,-1.39975 4.46615,-2.42015 6.9626,-2.46604 2.09992,-0.0386 4.1686,0.61448 6.02806,1.59099 1.85945,0.9765 3.53219,2.26938 5.16345,3.5923 1.63127,1.32291 3.23713,2.68676 4.99954,3.82915 1.76241,1.14238 3.70193,2.06494 5.77378,2.40927 2.11475,0.35146 4.30003,0.0867 6.35346,-0.52896 2.05344,-0.61569 3.98813,-1.5737 5.858,-2.62218 3.73972,-2.09695 7.3477,-4.60842 11.51055,-5.63479 3.39904,-0.83805 7.05187,-0.6145 10.32335,0.63178 3.27148,1.24628 6.14719,3.50979 8.1271,6.39696"
         id="path4" transform="translate(0,-3.5143716)"
         inkscape:original-d="m 193.29044,323.32219 c 4.97869,3.51437 11.12884,7.02874 16.69326,10.54311 5.56443,3.51438 15.22895,-10.54311 22.84342,-15.81467 7.61447,-5.27156 17.57186,9.95739 26.35779,14.93608 8.78593,4.97869 15.22894,-10.54311 22.84341,-15.81467 7.61447,-5.27156 16.4004,9.95738 24.6006,14.93608 8.2002,4.97869 15.22895,-9.37166 22.84342,-14.05749 7.61447,-4.68583 16.98613,11.12884 25.47919,16.69327 8.49307,5.56442 16.98613,-9.95739 25.4792,-14.93608 8.49306,-4.9787 14.64321,9.37165 21.96482,14.05748 7.32161,4.68583 16.98613,-9.37165 25.47919,-14.05748 8.49307,-4.68583 14.64322,7.61447 21.96483,11.42171 7.3216,3.80723 15.81467,-5.85729 23.72201,-8.78593 7.90733,-2.92865 12.3003,4.68582 18.45045,7.02874"
         inkscape:path-effect="#path-effect4" />
      <path style="fill:none;stroke:currentColor;stroke-width:41;stroke-dasharray:none;stroke-opacity:1"
         d="m 193.29044,323.32219 c 0.38696,3.76713 2.58169,7.30761 5.78352,9.32982 3.20182,2.0222 7.34186,2.48262 10.90974,1.21329 2.2344,-0.79493 4.20285,-2.20973 5.94584,-3.81797 1.74299,-1.60824 3.28542,-3.41824 4.90031,-5.15508 1.61489,-1.73683 3.32161,-3.41675 5.31637,-4.69947 1.99477,-1.28271 4.30935,-2.15563 6.6809,-2.14215 2.6065,0.0148 5.11518,1.09641 7.25213,2.58889 2.13696,1.49248 3.95532,3.38718 5.78305,5.24553 1.82774,1.85835 3.70022,3.70959 5.91166,5.08931 2.21143,1.37972 4.81692,2.26743 7.41095,2.01235 2.37281,-0.23333 4.57426,-1.40432 6.41635,-2.91805 1.84208,-1.51373 3.37041,-3.36644 4.90149,-5.19413 1.53108,-1.82769 3.0927,-3.65762 4.98373,-5.10974 1.89103,-1.45213 4.15881,-2.51644 6.54184,-2.59275 2.47646,-0.0793 4.89216,0.91437 6.92049,2.3374 2.02833,1.42303 3.72332,3.26152 5.39813,5.08749 1.67481,1.82596 3.36316,3.6694 5.38219,5.10559 2.01904,1.43619 4.42251,2.45268 6.89979,2.4056 2.2971,-0.0437 4.50278,-0.99821 6.38371,-2.31757 1.88092,-1.31935 3.47886,-2.99518 5.05981,-4.66227 1.58094,-1.66709 3.17151,-3.3487 5.04185,-4.68301 1.87034,-1.33431 4.06194,-2.31436 6.35805,-2.39464 2.62646,-0.0918 5.18521,1.00371 7.29583,2.5696 2.11062,1.56588 3.83537,3.58473 5.52715,5.59586 1.69177,2.01112 3.38722,4.04978 5.45621,5.67028 2.06898,1.6205 4.57233,2.81202 7.2,2.85753 2.54143,0.044 5.00738,-0.98692 7.09192,-2.44139 2.08454,-1.45447 3.84158,-3.32076 5.59165,-5.16414 1.75006,-1.84338 3.52784,-3.69365 5.64115,-5.10599 2.1133,-1.41235 4.61687,-2.37052 7.15448,-2.22456 2.22419,0.12793 4.33501,1.09453 6.14349,2.39561 1.80847,1.30108 3.35108,2.93076 4.87616,4.55479 1.52509,1.62404 3.05578,3.26303 4.84682,4.58802 1.79103,1.32498 3.87835,2.33209 6.09835,2.51906 2.48807,0.20955 4.97626,-0.62773 7.11281,-1.91983 2.13655,-1.2921 3.96929,-3.02209 5.76132,-4.76078 1.79203,-1.73868 3.57483,-3.51108 5.64246,-4.91083 2.06762,-1.39975 4.46615,-2.42015 6.9626,-2.46604 2.09992,-0.0386 4.1686,0.61448 6.02806,1.59099 1.85945,0.9765 3.53219,2.26938 5.16345,3.5923 1.63127,1.32291 3.23713,2.68676 4.99954,3.82915 1.76241,1.14238 3.70193,2.06494 5.77378,2.40927 2.11475,0.35146 4.30003,0.0867 6.35346,-0.52896 2.05344,-0.61569 3.98813,-1.5737 5.858,-2.62218 3.73972,-2.09695 7.3477,-4.60842 11.51055,-5.63479 3.39904,-0.83805 7.05187,-0.6145 10.32335,0.63178 3.27148,1.24628 6.14719,3.50979 8.1271,6.39696"
         id="path4-2" transform="translate(1.3326881,77.535486)"
         inkscape:original-d="m 193.29044,323.32219 c 4.97869,3.51437 11.12884,7.02874 16.69326,10.54311 5.56443,3.51438 15.22895,-10.54311 22.84342,-15.81467 7.61447,-5.27156 17.57186,9.95739 26.35779,14.93608 8.78593,4.97869 15.22894,-10.54311 22.84341,-15.81467 7.61447,-5.27156 16.4004,9.95738 24.6006,14.93608 8.2002,4.97869 15.22895,-9.37166 22.84342,-14.05749 7.61447,-4.68583 16.98613,11.12884 25.47919,16.69327 8.49307,5.56442 16.98613,-9.95739 25.4792,-14.93608 8.49306,-4.9787 14.64321,9.37165 21.96482,14.05748 7.32161,4.68583 16.98613,-9.37165 25.47919,-14.05748 8.49307,-4.68583 14.64322,7.61447 21.96483,11.42171 7.3216,3.80723 15.81467,-5.85729 23.72201,-8.78593 7.90733,-2.92865 12.3003,4.68582 18.45045,7.02874"
         inkscape:path-effect="#path-effect4-0" />
      <path style="fill:none;stroke:currentColor;stroke-width:41;stroke-dasharray:none;stroke-opacity:1"
         d="m 193.29044,323.32219 c 0.38696,3.76713 2.58169,7.30761 5.78352,9.32982 3.20182,2.0222 7.34186,2.48262 10.90974,1.21329 2.2344,-0.79493 4.20285,-2.20973 5.94584,-3.81797 1.74299,-1.60824 3.28542,-3.41824 4.90031,-5.15508 1.61489,-1.73683 3.32161,-3.41675 5.31637,-4.69947 1.99477,-1.28271 4.30935,-2.15563 6.6809,-2.14215 2.6065,0.0148 5.11518,1.09641 7.25213,2.58889 2.13696,1.49248 3.95532,3.38718 5.78305,5.24553 1.82774,1.85835 3.70022,3.70959 5.91166,5.08931 2.21143,1.37972 4.81692,2.26743 7.41095,2.01235 2.37281,-0.23333 4.57426,-1.40432 6.41635,-2.91805 1.84208,-1.51373 3.37041,-3.36644 4.90149,-5.19413 1.53108,-1.82769 3.0927,-3.65762 4.98373,-5.10974 1.89103,-1.45213 4.15881,-2.51644 6.54184,-2.59275 2.47646,-0.0793 4.89216,0.91437 6.92049,2.3374 2.02833,1.42303 3.72332,3.26152 5.39813,5.08749 1.67481,1.82596 3.36316,3.6694 5.38219,5.10559 2.01904,1.43619 4.42251,2.45268 6.89979,2.4056 2.2971,-0.0437 4.50278,-0.99821 6.38371,-2.31757 1.88092,-1.31935 3.47886,-2.99518 5.05981,-4.66227 1.58094,-1.66709 3.17151,-3.3487 5.04185,-4.68301 1.87034,-1.33431 4.06194,-2.31436 6.35805,-2.39464 2.62646,-0.0918 5.18521,1.00371 7.29583,2.5696 2.11062,1.56588 3.83537,3.58473 5.52715,5.59586 1.69177,2.01112 3.38722,4.04978 5.45621,5.67028 2.06898,1.6205 4.57233,2.81202 7.2,2.85753 2.54143,0.044 5.00738,-0.98692 7.09192,-2.44139 2.08454,-1.45447 3.84158,-3.32076 5.59165,-5.16414 1.75006,-1.84338 3.52784,-3.69365 5.64115,-5.10599 2.1133,-1.41235 4.61687,-2.37052 7.15448,-2.22456 2.22419,0.12793 4.33501,1.09453 6.14349,2.39561 1.80847,1.30108 3.35108,2.93076 4.87616,4.55479 1.52509,1.62404 3.05578,3.26303 4.84682,4.58802 1.79103,1.32498 3.87835,2.33209 6.09835,2.51906 2.48807,0.20955 4.97626,-0.62773 7.11281,-1.91983 2.13655,-1.2921 3.96929,-3.02209 5.76132,-4.76078 1.79203,-1.73868 3.57483,-3.51108 5.64246,-4.91083 2.06762,-1.39975 4.46615,-2.42015 6.9626,-2.46604 2.09992,-0.0386 4.1686,0.61448 6.02806,1.59099 1.85945,0.9765 3.53219,2.26938 5.16345,3.5923 1.63127,1.32291 3.23713,2.68676 4.99954,3.82915 1.76241,1.14238 3.70193,2.06494 5.77378,2.40927 2.11475,0.35146 4.30003,0.0867 6.35346,-0.52896 2.05344,-0.61569 3.98813,-1.5737 5.858,-2.62218 3.73972,-2.09695 7.3477,-4.60842 11.51055,-5.63479 3.39904,-0.83805 7.05187,-0.6145 10.32335,0.63178 3.27148,1.24628 6.14719,3.50979 8.1271,6.39696"
         id="path4-2-7" transform="translate(-2.0186568,166.43338)"
         inkscape:original-d="m 193.29044,323.32219 c 4.97869,3.51437 11.12884,7.02874 16.69326,10.54311 5.56443,3.51438 15.22895,-10.54311 22.84342,-15.81467 7.61447,-5.27156 17.57186,9.95739 26.35779,14.93608 8.78593,4.97869 15.22894,-10.54311 22.84341,-15.81467 7.61447,-5.27156 16.4004,9.95738 24.6006,14.93608 8.2002,4.97869 15.22895,-9.37166 22.84342,-14.05749 7.61447,-4.68583 16.98613,11.12884 25.47919,16.69327 8.49307,5.56442 16.98613,-9.95739 25.4792,-14.93608 8.49306,-4.9787 14.64321,9.37165 21.96482,14.05748 7.32161,4.68583 16.98613,-9.37165 25.47919,-14.05748 8.49307,-4.68583 14.64322,7.61447 21.96483,11.42171 7.3216,3.80723 15.81467,-5.85729 23.72201,-8.78593 7.90733,-2.92865 12.3003,4.68582 18.45045,7.02874"
         inkscape:path-effect="#path-effect4-0-9" />
   </g>
</svg>