<?xml version="1.0" encoding="UTF-8" standalone="no"?>
<svg
   version="1.0"
   width="165.94521pt"
   height="141.78665pt"
   viewBox="0 0 165.94521 141.78665"
   preserveAspectRatio="xMidYMid"
   id="svg7"
   sodipodi:docname="ZoteroItem.svg"
   inkscape:version="1.3 (0e150ed6c4, 2023-07-21)"
   xmlns:inkscape="http://www.inkscape.org/namespaces/inkscape"
   xmlns:sodipodi="http://sodipodi.sourceforge.net/DTD/sodipodi-0.dtd"
   xmlns="http://www.w3.org/2000/svg"
   xmlns:svg="http://www.w3.org/2000/svg">
  <defs
     id="defs7" />
  <sodipodi:namedview
     id="namedview7"
     pagecolor="#ffffff"
     bordercolor="#000000"
     borderopacity="0.25"
     inkscape:showpageshadow="2"
     inkscape:pageopacity="0.0"
     inkscape:pagecheckerboard="0"
     inkscape:deskcolor="#d1d1d1"
     inkscape:document-units="pt"
     inkscape:zoom="0.34338873"
     inkscape:cx="4.3682272"
     inkscape:cy="449.9274"
     inkscape:window-width="1920"
     inkscape:window-height="991"
     inkscape:window-x="-9"
     inkscape:window-y="-9"
     inkscape:window-maximized="1"
     inkscape:current-layer="svg7" />
  <metadata
     id="metadata1">&#10;Created by potrace 1.10, written by Peter Selinger 2001-2011&#10;</metadata>
  <g
     transform="matrix(0.1,0,0,-0.1,-67.127864,220.90962)"
     fill="currentColor"
     stroke="none"
     id="g7">
    <path
       d="m 793,2199 c -53,-15 -100,-70 -113,-131 -8,-37 -10,-214 -8,-598 3,-615 1,-595 81,-648 l 41,-27 509,-3 c 467,-2 511,-1 528,14 24,22 24,66 1,87 -11,10 -35,17 -58,17 h -39 v 60 60 h 38 c 78,0 77,-2 77,200 0,193 -4,210 -55,210 -48,0 -55,-20 -55,-163 v -132 h -355 -355 v 473 472 h 98 c 109,0 132,11 132,63 0,51 -25,57 -240,56 -107,0 -210,-5 -227,-10 z m 406,-38 c 30,-19 -2,-31 -81,-31 -70,0 -85,-3 -105,-22 l -23,-21 v -463 c 0,-254 3,-470 6,-479 16,-42 47,-45 394,-45 l 330,1 27,24 c 27,23 28,26 31,145 3,86 7,120 15,117 9,-3 12,-49 12,-158 v -154 l -30,-3 c -52,-6 -75,-37 -75,-101 0,-62 26,-101 66,-101 28,0 42,-19 23,-31 -8,-5 -224,-8 -494,-7 -533,3 -525,2 -562,71 -17,30 -18,72 -15,601 3,474 6,574 18,597 15,29 38,46 83,60 36,10 363,11 380,0 z"
       id="path1" />
    <path
       d="m 801,2114 c -49,-35 -51,-51 -51,-519 v -437 l 29,-29 c 39,-39 96,-40 140,-3 l 31,26 v 463 c 0,453 0,463 -21,489 -16,21 -29,26 -63,26 -23,0 -52,-7 -65,-16 z m 109,-497 v -472 h -60 -60 v 450 c 0,514 -3,495 76,495 h 44 z"
       id="path2" />
    <path
       d="m 775,1044 c -29,-31 -32,-71 -10,-114 32,-61 22,-60 456,-60 374,0 397,1 413,19 35,39 33,124 -4,161 -19,19 -35,20 -425,20 H 799 Z m 845,-74 V 910 H 1221 821 l -15,22 c -9,12 -16,39 -16,60 v 38 h 415 415 z"
       id="path3" />
    <path
       d="m 1284,2016 c -17,-13 -19,-29 -22,-151 -4,-163 4,-185 68,-185 h 39 l -25,-91 c -29,-109 -29,-104 -4,-129 18,-18 33,-20 132,-20 h 112 l 49,51 c 27,28 61,76 75,108 25,54 27,63 27,229 0,160 -1,175 -19,188 -29,20 -403,20 -432,0 z m 393,-34 c 9,-6 13,-52 14,-165 1,-150 0,-160 -24,-210 -15,-29 -42,-68 -62,-87 -33,-32 -41,-35 -110,-38 -90,-5 -125,2 -125,26 0,9 7,49 17,89 19,82 14,95 -44,120 l -33,13 v 123 c 0,68 3,127 7,130 9,10 345,8 360,-1 z"
       id="path4" />
    <path
       d="m 1394,1950 c -34,-13 -54,-50 -54,-98 0,-35 6,-49 29,-73 16,-16 39,-29 50,-29 34,0 39,-25 19,-103 -18,-70 -18,-72 0,-97 14,-18 30,-26 60,-28 33,-3 46,2 77,29 62,55 78,98 83,230 4,112 4,116 -21,145 -25,28 -28,29 -124,31 -54,1 -108,-2 -119,-7 z m 226,-139 c 0,-120 -11,-166 -52,-215 -25,-30 -36,-36 -69,-36 -21,0 -39,3 -39,6 0,3 9,42 21,87 11,44 18,90 15,102 -7,28 -42,44 -83,38 l -33,-5 v 63 64 h 120 120 z"
       id="path5" />
    <path
       d="m 1874,2016 c -17,-13 -19,-29 -22,-148 -3,-161 4,-182 65,-186 l 41,-3 -24,-92 c -29,-112 -28,-103 -4,-127 18,-18 33,-20 132,-20 h 112 l 49,51 c 27,28 61,76 75,108 24,52 27,69 30,222 6,225 24,209 -236,209 -155,0 -202,-3 -218,-14 z m 404,-195 c 2,-158 1,-167 -22,-215 -14,-28 -41,-67 -61,-86 -33,-32 -41,-35 -110,-38 -134,-7 -139,-1 -108,120 19,76 14,90 -44,115 l -33,13 v 123 c 0,68 3,127 7,131 4,3 88,5 187,4 l 181,-3 z"
       id="path6" />
    <path
       d="m 1984,1951 c -34,-15 -54,-52 -54,-99 0,-35 6,-49 29,-73 16,-16 39,-29 51,-29 31,0 35,-24 17,-104 -15,-67 -15,-72 2,-96 14,-19 29,-26 61,-28 37,-3 47,1 77,30 63,60 77,99 81,229 4,111 3,117 -21,144 -24,28 -28,30 -123,32 -55,1 -109,-1 -120,-6 z m 226,-141 c 0,-124 -9,-162 -51,-212 -26,-32 -37,-38 -70,-38 -21,0 -39,3 -39,6 0,3 9,42 21,87 11,44 18,90 15,102 -7,28 -42,44 -83,38 l -33,-5 v 63 64 h 120 120 z"
       id="path7" />
  </g>
  <path
     d="m 41.956242,183.131 c -18.245927,-0.38662 -25.331508,-1.17768 -28.86338,-3.22242 -1.552848,-0.899 -3.1598743,-2.82455 -4.4121637,-5.28669 -2.4664526,-4.8493 -2.4839177,-5.35344 -2.2909164,-66.12768 0.198168,-62.401186 0.5734764,-83.701651 1.5979817,-90.692766 0.4476817,-3.054932 1.1929401,-4.579196 3.2258914,-6.597858 1.814033,-1.8012815 3.647853,-2.8876097 6.740464,-3.9929513 3.82227,-1.3661322 6.945598,-1.5373359 28.120527,-1.541413 21.990597,-0.00423 24.421526,0.1818841 25.363454,1.9418915 0.368961,0.689406 0.05853,1.1860667 -1.008072,1.6128369 -1.857995,0.7434216 -4.096548,0.9731659 -11.742769,1.2051669 -10.103241,0.306552 -10.423465,0.394264 -14.342875,3.928605 l -2.060976,1.858494 0.15329,55.598456 c 0.08431,30.579148 0.260993,58.855038 0.392625,62.835298 0.215591,6.51889 0.291941,7.33996 0.769609,8.27626 1.585495,3.10783 5.263742,4.11919 17.031364,4.68286 3.214353,0.15398 20.93731,0.26509 42.414094,0.26593 l 36.89253,0.001 2.58639,-2.30074 c 1.42251,-1.26541 2.85699,-2.68433 3.18772,-3.15315 1.29512,-1.83585 1.45383,-3.33778 2.16917,-20.52834 0.41114,-9.88008 1.03953,-13.49647 2.02517,-11.65479 0.73357,1.3707 0.88052,4.73236 0.98829,22.60853 l 0.11035,18.30484 -2.14293,0.18118 c -7.45433,0.63026 -10.51992,3.27301 -11.56313,9.96823 -0.3703,2.37652 -0.15874,7.56382 0.39019,9.56729 0.95755,3.49488 2.84612,6.12177 5.12628,7.1304 0.59839,0.26469 1.89526,0.55709 2.88195,0.64978 3.11496,0.2926 4.61432,1.35906 4.11639,2.9279 -0.27137,0.855 -1.0603,1.0996 -4.36255,1.35254 -3.99398,0.30593 -90.602926,0.47404 -103.493968,0.20088 z m 63.577868,-4.62295 c 14.56976,-0.21736 18.6091,-0.4302 20.84324,-1.09828 2.05528,-0.6146 3.9378,-3.34053 4.93051,-7.1395 0.95719,-3.66299 0.39408,-9.48119 -1.22873,-12.6958 -1.70943,-3.38618 -3.41167,-4.58896 -7.17051,-5.06659 -4.32438,-0.54949 -21.16777,-0.75226 -63.235868,-0.76127 l -42.772553,-0.009 -2.199259,2.43505 c -3.880254,4.29625 -4.8778108,7.40249 -3.88846,12.10807 0.515578,2.4522 2.644306,6.76473 4.115592,8.33765 2.713981,2.90147 6.981082,3.58167 24.325467,3.87761 15.464533,0.26387 48.997648,0.27005 66.280571,0.0122 z M 26.871786,147.73811 c 2.368336,-0.55826 4.67145,-1.87436 7.684199,-4.39106 l 2.638352,-2.20396 -0.0057,-54.998827 c -0.0065,-63.220627 -0.0964,-67.079161 -1.641194,-70.442847 -0.860165,-1.872956 -2.718664,-3.811154 -4.31147,-4.496361 -3.48428,-1.4988967 -11.024996,-0.690026 -14.226251,1.526009 -3.491107,2.416681 -4.767876,5.11395 -5.548661,11.72196 -0.771995,6.533614 -0.847922,11.526034 -0.959179,63.068757 l -0.113912,52.772749 2.785403,2.70114 c 2.932404,2.8437 4.807722,4.05603 7.31882,4.73134 1.818182,0.48897 4.333701,0.49335 6.379553,0.0111 z"
     id="path8"
     style="stroke-width:7.05733333;stroke-dasharray:none;fill:currentColor;stroke:currentColor;stroke-opacity:1"
     transform="scale(0.75)" />
  <path
     style="stroke:currentColor;stroke-width:1.81656;fill:currentColor;stroke-dasharray:none;stroke-opacity:1"
     d="m 177.69024,96.919722 c -2.34759,-0.238808 -4.19023,-1.051338 -4.85201,-2.139542 -1.12309,-1.84678 -0.91674,-4.225959 1.07655,-12.412098 1.63865,-6.729714 1.92432,-10.16506 1.00348,-12.067269 -0.99845,-2.062527 -2.79212,-3.247886 -8.25159,-5.453135 l -2.70271,-1.091701 -0.0759,-5.623164 c -0.092,-6.810226 0.38368,-25.268223 0.69076,-26.804535 0.12139,-0.607286 0.28771,-1.17116 0.3696,-1.253056 0.41769,-0.417685 17.69746,-0.593863 32.60378,-0.332415 8.84673,0.155166 16.10235,0.302573 16.1236,0.327572 0.0213,0.025 0.16284,7.690239 0.31465,17.033868 0.30372,18.693601 0.15558,24.408448 -0.72004,27.776893 -1.4596,5.614984 -7.21579,14.545439 -11.87413,18.422152 -1.87614,1.561344 -3.49577,2.413612 -5.32378,2.801442 -2.92462,0.620491 -15.02179,1.156826 -18.38221,0.814988 z m 18.1624,-6.186131 c 1.87614,-1.130839 6.54988,-5.688325 8.44691,-8.236808 4.39925,-5.909959 5.55784,-11.127676 6.11565,-27.541828 0.30892,-9.090243 0.12801,-12.147008 -0.84157,-14.219822 -0.83541,-1.785957 -3.45079,-4.804182 -4.83911,-5.584459 -2.216,-1.245462 -3.25639,-1.353068 -14.3879,-1.488106 -11.57885,-0.140466 -14.12708,0.02826 -16.18629,1.071743 -4.22823,2.142605 -6.73024,7.637918 -6.39168,14.038399 0.17553,3.318336 0.75112,4.988942 2.442,7.087813 2.45501,3.047364 5.66286,5.120803 8.55492,5.529593 1.9718,0.278713 2.68064,0.876999 3.09742,2.614327 0.43015,1.793073 0.15392,4.169294 -1.32409,11.390082 -1.48983,7.278538 -1.58642,9.048471 -0.60002,10.99504 1.40589,2.774381 3.81572,4.578335 6.80501,5.0941 0.77863,0.134345 2.81034,0.223239 4.5149,0.197545 3.04967,-0.04597 3.12308,-0.06111 4.59385,-0.947619 z"
     id="path9"
     transform="scale(0.75)" />
  <path
     d="m 97.601431,96.64234 c -1.691484,-0.28409 -3.569723,-1.260175 -4.025722,-2.09209 -0.499264,-0.910847 -0.161518,-3.307501 1.546304,-10.97261 2.223971,-9.981712 2.270283,-12.332245 0.286248,-14.528335 -1.311255,-1.451403 -2.483495,-2.142381 -6.476472,-3.81757 L 85.456886,63.773894 85.4753,49.132765 c 0.01834,-14.580293 0.206376,-18.470376 0.913957,-18.907685 0.80838,-0.499606 5.409227,-0.623224 22.748453,-0.611216 19.68304,0.01363 24.39145,0.21655 25.03744,1.079047 1.17469,1.568389 1.46608,6.426294 1.47072,24.519444 0.004,14.335493 -0.0401,16.03669 -0.46374,18.018018 -1.20015,5.613038 -5.72541,13.308425 -10.83726,18.429197 -3.96272,3.96964 -5.23102,4.514404 -11.60356,4.983987 -4.15288,0.306021 -13.314954,0.305285 -15.139879,-0.0012 z m 19.030939,-5.86731 c 1.85617,-1.000682 5.58082,-4.183102 7.52271,-6.427578 5.20228,-6.012891 6.81517,-11.753689 7.49856,-26.689794 0.33267,-7.27074 0.33375,-13.075424 0.003,-14.820738 -0.39193,-2.066628 -1.13554,-3.373144 -3.14367,-5.523437 -3.20249,-3.429195 -3.45618,-3.487727 -15.82556,-3.651388 -14.789418,-0.195681 -17.123417,0.187481 -19.987748,3.281301 -2.109345,2.278344 -3.071598,4.61567 -3.516274,8.541081 -0.329724,2.910656 0.02387,6.20318 0.860403,8.011654 1.724738,3.728672 7.042199,7.891146 10.085149,7.89459 0.57777,6.54e-4 1.40351,0.229132 1.88164,0.520638 2.25689,1.375987 2.17327,4.6079 -0.38275,14.793918 -1.48638,5.923403 -1.58683,7.906643 -0.49459,9.764968 2.34421,3.988435 5.17313,5.333778 10.96481,5.21453 2.80243,-0.0577 3.04397,-0.10616 4.53456,-0.909745 z"
     id="path10"
     transform="scale(0.75)"
     style="stroke:currentColor;stroke-width:1.81656;fill:currentColor;stroke-dasharray:none;stroke-opacity:1" />
</svg>
