<?xml version="1.0" encoding="utf-8"?>
<svg version="1.1" width="354.82877" height="196.48625" viewBox="0 0 354.82877 196.48625" xmlns="http://www.w3.org/2000/svg" xmlns:xlink="http://www.w3.org/1999/xlink">
  <g transform="translate(177.414385 177.414385)" fill="none" stroke="#000" stroke-width=".5" stroke-linecap="round">
    <circle r="1.5"/>
    <path d="m-5.2,0h3.7 m3,0h3.7 m-5.2-5.2v3.7 m0,3v3.7"/>
    <path d="m-8.7,0a8.7,8.7 0 0 1 17.4,0"/>
    <path d="m-176.7,0a176.7,176.7 0 0 1 353.4,0v18.5h-353.4z" stroke-width="1"/>
    <g id="set">
      <path d="m-8.7,0h-124.1 m-26.9,0h-17 m176.7-8.7v-124.1 m0-26.9v-17"/>
      <path d="m-66.7,0h-66.1 m-26.9,0h-17 m176.7-66.7v-66.1 m0-26.9v-17" transform="rotate(5)"/>
      <path id="a" d="m-168.5,0h-8.2 m176.7-168.5v-8.2" transform="rotate(1)"/>
      <use xlink:href="#a" transform="rotate(1)"/>
      <use xlink:href="#a" transform="rotate(2)"/>
      <use xlink:href="#a" transform="rotate(3)"/>
      <use xlink:href="#a" transform="rotate(5)"/>
      <use xlink:href="#a" transform="rotate(6)"/>
      <use xlink:href="#a" transform="rotate(7)"/>
      <use xlink:href="#a" transform="rotate(8)"/>
    </g>
    <use xlink:href="#set" transform="rotate(10)"/>
    <use xlink:href="#set" transform="rotate(20)"/>
    <use xlink:href="#set" transform="rotate(30)"/>
    <use xlink:href="#set" transform="rotate(40)"/>
    <use xlink:href="#set" transform="rotate(50)"/>
    <use xlink:href="#set" transform="rotate(60)"/>
    <use xlink:href="#set" transform="rotate(70)"/>
    <use xlink:href="#set" transform="rotate(80)"/>
    <path d="m8.7,0h124.1 m26.9,0h17"/>
    <g font-family="Arial" font-size="10" text-anchor="middle" fill="#000" stroke="none">
      <g transform="rotate(-90)">
        <text y="-150.7">0</text>
        <text y="-136.5" fill="#00f">180</text>
      </g>
      <g transform="rotate(-80)">
        <text y="-150.7">10</text>
        <text y="-136.5" fill="#00f">170</text>
      </g>
      <g transform="rotate(-70)">
        <text y="-150.7">20</text>
        <text y="-136.5" fill="#00f">160</text>
      </g>
      <g transform="rotate(-60)">
        <text y="-150.7">30</text>
        <text y="-136.5" fill="#00f">150</text>
      </g>
      <g transform="rotate(-50)">
        <text y="-150.7">40</text>
        <text y="-136.5" fill="#00f">140</text>
      </g>
      <g transform="rotate(-40)">
        <text y="-150.7">50</text>
        <text y="-136.5" fill="#00f">130</text>
      </g>
      <g transform="rotate(-30)">
        <text y="-150.7">60</text>
        <text y="-136.5" fill="#00f">120</text>
      </g>
      <g transform="rotate(-20)">
        <text y="-150.7">70</text>
        <text y="-136.5" fill="#00f">110</text>
      </g>
      <g transform="rotate(-10)">
        <text y="-150.7">80</text>
        <text y="-136.5" fill="#00f">100</text>
      </g>
      <g>
        <text y="-150.7">90</text>
        <text y="-136.5" fill="#00f">90</text>
      </g>
      <g transform="rotate(10)">
        <text y="-150.7">100</text>
        <text y="-136.5" fill="#00f">80</text>
      </g>
      <g transform="rotate(20)">
        <text y="-150.7">110</text>
        <text y="-136.5" fill="#00f">70</text>
      </g>
      <g transform="rotate(30)">
        <text y="-150.7">120</text>
        <text y="-136.5" fill="#00f">60</text>
      </g>
      <g transform="rotate(40)">
        <text y="-150.7">130</text>
        <text y="-136.5" fill="#00f">50</text>
      </g>
      <g transform="rotate(50)">
        <text y="-150.7">140</text>
        <text y="-136.5" fill="#00f">40</text>
      </g>
      <g transform="rotate(60)">
        <text y="-150.7">150</text>
        <text y="-136.5" fill="#00f">30</text>
      </g>
      <g transform="rotate(70)">
        <text y="-150.7">160</text>
        <text y="-136.5" fill="#00f">20</text>
      </g>
      <g transform="rotate(80)">
        <text y="-150.7">170</text>
        <text y="-136.5" fill="#00f">10</text>
      </g>
      <g transform="rotate(90)">
        <text y="-150.7">180</text>
        <text y="-136.5" fill="#00f">0</text>
      </g>
    </g>
  </g>
</svg>
