<svg version="1.1" xmlns="http://www.w3.org/2000/svg" viewBox="0 0 230 263" width="230" height="263" filter="invert(93%) hue-rotate(180deg)">
  <!-- svg-source:excalidraw -->
  
  <defs>
    <style class="style-fonts">
      @font-face {
        font-family: "Virgil";
        src: url("https://excalidraw.com/Virgil.woff2");
      }
      @font-face {
        font-family: "Cascadia";
        src: url("https://excalidraw.com/Cascadia.woff2");
      }
    </style>
    
  </defs>
  <g transform="translate(92 119) rotate(0 -7 28.5)" stroke="none"><path fill="#1e1e1e" d="M 1.77,0 Q 1.77,0 1.71,2.30 1.65,4.60 1.01,8.29 0.38,11.97 -1.05,17.02 -2.50,22.06 -4.55,28.78 -6.61,35.49 -7.77,39.76 -8.93,44.02 -10.02,47.31 -11.11,50.60 -11.62,53.37 -12.13,56.13 -12.23,56.37 -12.33,56.61 -12.50,56.81 -12.67,57.01 -12.90,57.14 -13.13,57.28 -13.38,57.33 -13.64,57.38 -13.90,57.35 -14.16,57.32 -14.40,57.21 -14.63,57.10 -14.82,56.91 -15.01,56.73 -15.13,56.50 -15.25,56.27 -15.29,56.01 -15.33,55.75 -15.29,55.49 -15.24,55.23 -15.12,55.00 -14.99,54.77 -14.80,54.59 -14.61,54.41 -14.37,54.30 -14.13,54.20 -13.87,54.17 -13.61,54.14 -13.35,54.20 -13.10,54.26 -12.87,54.40 -12.65,54.54 -12.48,54.74 -12.31,54.94 -12.22,55.19 -12.12,55.43 -12.11,55.69 -12.10,55.95 -12.17,56.21 -12.25,56.46 -12.40,56.67 -12.54,56.89 -12.76,57.05 -12.97,57.20 -13.22,57.29 -13.46,57.37 -13.73,57.36 -13.99,57.36 -14.24,57.27 -14.49,57.19 -14.69,57.03 -14.90,56.87 -15.04,56.65 -15.19,56.43 -15.26,56.18 -15.33,55.92 -15.31,55.66 -15.29,55.40 -15.29,55.40 -15.29,55.40 -14.51,52.57 -13.74,49.75 -12.70,46.52 -11.65,43.29 -10.51,38.97 -9.38,34.66 -7.37,27.95 -5.37,21.25 -4.03,16.36 -2.68,11.48 -2.16,8.03 -1.65,4.59 -1.71,2.29 -1.77,0 -1.75,-0.21 -1.72,-0.42 -1.64,-0.62 -1.57,-0.82 -1.45,-1.00 -1.32,-1.17 -1.16,-1.31 -1.00,-1.46 -0.81,-1.56 -0.62,-1.66 -0.42,-1.71 -0.21,-1.76 0.00,-1.76 0.21,-1.76 0.42,-1.71 0.62,-1.66 0.81,-1.56 1.00,-1.46 1.16,-1.31 1.32,-1.17 1.45,-1.00 1.57,-0.82 1.64,-0.62 1.72,-0.42 1.75,-0.21 1.77,0.00 1.77,0.00 L 1.77,0 Z"/></g><g transform="translate(139 139) rotate(0 -6.5 22)" stroke="none"><path fill="#1e1e1e" d="M 2.02,0.20 Q 2.02,0.20 1.64,3.07 1.26,5.93 -0.10,10.73 -1.47,15.54 -2.65,18.98 -3.83,22.43 -4.61,25.27 -5.40,28.11 -6.00,29.97 -6.61,31.83 -7.09,33.24 -7.57,34.66 -7.69,35.93 -7.80,37.19 -8.52,38.91 -9.23,40.63 -10.11,42.63 -10.99,44.63 -11.20,44.88 -11.42,45.13 -11.70,45.30 -11.99,45.47 -12.31,45.54 -12.63,45.61 -12.96,45.58 -13.29,45.54 -13.59,45.40 -13.89,45.26 -14.13,45.03 -14.37,44.80 -14.52,44.51 -14.68,44.22 -14.73,43.89 -14.78,43.56 -14.73,43.24 -14.67,42.91 -14.52,42.62 -14.36,42.33 -14.12,42.10 -13.88,41.87 -13.58,41.74 -13.28,41.60 -12.95,41.56 -12.62,41.53 -12.30,41.60 -11.97,41.67 -11.69,41.84 -11.41,42.02 -11.20,42.27 -10.98,42.52 -10.86,42.83 -10.74,43.14 -10.72,43.47 -10.71,43.80 -10.80,44.12 -10.88,44.44 -11.07,44.71 -11.26,44.98 -11.52,45.18 -11.79,45.38 -12.10,45.49 -12.41,45.59 -12.74,45.59 -13.08,45.59 -13.39,45.48 -13.70,45.37 -13.96,45.17 -14.23,44.97 -14.41,44.70 -14.60,44.42 -14.68,44.10 -14.77,43.78 -14.75,43.45 -14.73,43.12 -14.61,42.82 -14.49,42.51 -14.49,42.51 -14.49,42.51 -13.63,40.76 -12.76,39.01 -12.13,37.79 -11.50,36.56 -11.15,34.96 -10.80,33.36 -10.19,32.10 -9.57,30.83 -8.96,29.08 -8.34,27.33 -7.60,24.39 -6.86,21.44 -5.81,18.04 -4.76,14.64 -3.58,10.10 -2.41,5.56 -2.21,2.67 -2.02,-0.20 -1.97,-0.44 -1.92,-0.68 -1.81,-0.90 -1.70,-1.12 -1.54,-1.30 -1.38,-1.49 -1.18,-1.64 -0.98,-1.78 -0.75,-1.87 -0.52,-1.96 -0.28,-2.00 -0.04,-2.03 0.20,-2.01 0.44,-1.98 0.67,-1.90 0.90,-1.82 1.11,-1.68 1.31,-1.55 1.48,-1.37 1.65,-1.19 1.77,-0.97 1.89,-0.76 1.95,-0.52 2.01,-0.28 2.02,-0.04 2.02,0.20 2.02,0.20 L 2.02,0.20 Z"/></g><g transform="translate(10 183) rotate(0 105 25.5)" stroke="none"><path fill="#1e1e1e" d="M 1.48,-0.49 Q 1.48,-0.49 3.74,6.41 6.01,13.32 9.24,20.51 12.47,27.69 15.82,33.59 19.18,39.49 23.17,45.14 27.16,50.78 30.81,54.56 34.46,58.34 37.69,60.78 40.91,63.22 43.37,64.51 45.83,65.81 49.07,66.62 52.31,67.43 56.52,67.78 60.73,68.13 64.55,68.29 68.36,68.44 74.51,67.94 80.66,67.43 90.05,64.09 99.44,60.75 110.05,55.88 120.67,51.02 130.65,46.08 140.63,41.14 149.15,36.18 157.68,31.22 163.31,27.68 168.94,24.14 174.45,19.79 179.95,15.45 185.11,9.64 190.27,3.83 193.62,-0.36 196.98,-4.57 199.85,-8.09 202.73,-11.62 205.18,-15.04 207.62,-18.46 207.81,-18.63 207.99,-18.81 208.22,-18.91 208.45,-19.02 208.70,-19.05 208.95,-19.07 209.20,-19.02 209.45,-18.97 209.66,-18.83 209.88,-18.70 210.04,-18.51 210.21,-18.32 210.30,-18.08 210.39,-17.85 210.41,-17.60 210.42,-17.34 210.35,-17.10 210.29,-16.86 210.14,-16.65 210.00,-16.44 209.80,-16.28 209.60,-16.13 209.36,-16.05 209.12,-15.97 208.87,-15.97 208.61,-15.97 208.37,-16.05 208.13,-16.13 207.93,-16.29 207.73,-16.44 207.59,-16.65 207.45,-16.86 207.38,-17.10 207.31,-17.34 207.33,-17.60 207.34,-17.85 207.43,-18.09 207.53,-18.32 207.69,-18.51 207.86,-18.71 208.07,-18.84 208.29,-18.97 208.54,-19.02 208.78,-19.07 209.03,-19.05 209.29,-19.02 209.52,-18.91 209.75,-18.81 209.93,-18.63 210.11,-18.46 210.23,-18.23 210.35,-18.01 210.39,-17.76 210.43,-17.51 210.39,-17.26 210.35,-17.01 210.23,-16.79 210.11,-16.57 210.11,-16.57 210.11,-16.57 207.44,-13.26 204.77,-9.96 201.90,-6.44 199.03,-2.93 195.63,1.32 192.23,5.57 186.91,11.54 181.59,17.51 175.96,21.93 170.34,26.36 164.67,29.93 159.00,33.49 150.40,38.49 141.80,43.49 131.78,48.45 121.77,53.42 111.04,58.32 100.32,63.23 90.61,66.65 80.90,70.06 74.58,70.57 68.26,71.09 64.38,70.93 60.51,70.78 56.08,70.39 51.66,70.01 48.13,69.10 44.60,68.19 41.95,66.78 39.29,65.38 35.90,62.81 32.51,60.24 28.71,56.31 24.90,52.38 20.82,46.64 16.74,40.89 13.29,34.89 9.83,28.88 6.51,21.57 3.18,14.27 0.85,7.38 -1.48,0.49 -1.51,0.30 -1.55,0.12 -1.54,-0.06 -1.54,-0.25 -1.48,-0.43 -1.43,-0.61 -1.34,-0.77 -1.24,-0.93 -1.11,-1.07 -0.98,-1.21 -0.82,-1.31 -0.66,-1.41 -0.49,-1.47 -0.31,-1.53 -0.12,-1.54 0.06,-1.56 0.24,-1.53 0.43,-1.50 0.60,-1.42 0.78,-1.35 0.93,-1.23 1.08,-1.12 1.20,-0.98 1.32,-0.83 1.40,-0.66 1.48,-0.49 1.48,-0.49 L 1.48,-0.49 Z"/></g><g transform="translate(220 164) rotate(0 -103 27)" stroke="none"><path fill="#1e1e1e" d="M 1.00,1.19 Q 1.00,1.19 -2.75,4.32 -6.50,7.46 -10.69,11.08 -14.87,14.70 -18.37,17.94 -21.86,21.19 -24.57,23.19 -27.27,25.20 -30.18,26.93 -33.09,28.66 -35.15,29.94 -37.22,31.22 -40.13,32.93 -43.04,34.64 -46.60,36.52 -50.15,38.40 -52.76,40.04 -55.37,41.67 -58.80,43.81 -62.23,45.95 -65.48,47.47 -68.73,49.00 -71.29,49.94 -73.84,50.87 -76.59,52.11 -79.34,53.35 -81.79,53.92 -84.25,54.49 -86.47,54.73 -88.69,54.97 -90.49,55.14 -92.30,55.31 -93.93,55.43 -95.57,55.55 -97.99,55.53 -100.42,55.50 -103.17,55.48 -105.93,55.46 -108.53,55.44 -111.14,55.42 -114.55,55.41 -117.96,55.39 -121.13,55.38 -124.30,55.37 -126.52,55.36 -128.73,55.35 -131.39,55.35 -134.06,55.34 -136.34,55.34 -138.62,55.33 -141.11,55.04 -143.60,54.74 -146.43,54.03 -149.26,53.31 -151.31,52.72 -153.36,52.13 -155.70,51.30 -158.04,50.46 -160.06,50.14 -162.08,49.81 -164.31,48.74 -166.54,47.67 -168.26,47.02 -169.97,46.37 -171.81,45.82 -173.64,45.27 -175.65,44.40 -177.66,43.53 -180.50,42.30 -183.34,41.07 -190.03,37.95 -196.71,34.83 -199.54,33.50 -202.38,32.17 -202.56,32.05 -202.74,31.93 -202.87,31.75 -203.00,31.58 -203.07,31.37 -203.14,31.16 -203.14,30.94 -203.14,30.72 -203.07,30.51 -203.00,30.31 -202.87,30.13 -202.73,29.96 -202.55,29.84 -202.37,29.71 -202.16,29.65 -201.95,29.60 -201.73,29.61 -201.51,29.62 -201.31,29.70 -201.10,29.78 -200.94,29.93 -200.77,30.07 -200.66,30.26 -200.54,30.45 -200.50,30.66 -200.45,30.87 -200.47,31.09 -200.50,31.31 -200.59,31.51 -200.68,31.71 -200.83,31.87 -200.99,32.03 -201.18,32.13 -201.37,32.23 -201.59,32.27 -201.81,32.30 -202.02,32.26 -202.24,32.23 -202.43,32.13 -202.63,32.02 -202.78,31.86 -202.93,31.70 -203.02,31.50 -203.11,31.30 -203.13,31.09 -203.16,30.87 -203.11,30.65 -203.06,30.44 -202.95,30.25 -202.84,30.06 -202.67,29.92 -202.50,29.78 -202.30,29.70 -202.09,29.62 -201.87,29.61 -201.65,29.60 -201.44,29.66 -201.23,29.72 -201.23,29.72 -201.23,29.72 -198.39,31.03 -195.56,32.34 -188.90,35.42 -182.25,38.51 -179.40,39.71 -176.55,40.91 -174.66,41.69 -172.77,42.47 -170.83,43.11 -168.89,43.74 -167.13,44.52 -165.38,45.31 -163.50,46.26 -161.62,47.21 -159.39,47.59 -157.15,47.96 -154.89,48.77 -152.63,49.58 -150.62,50.16 -148.61,50.74 -145.94,51.42 -143.28,52.10 -140.95,52.38 -138.62,52.66 -136.34,52.65 -134.06,52.65 -131.39,52.64 -128.73,52.64 -126.52,52.63 -124.30,52.62 -121.13,52.61 -117.96,52.60 -114.55,52.58 -111.14,52.56 -108.54,52.54 -105.93,52.51 -103.19,52.47 -100.44,52.44 -98.04,52.38 -95.65,52.32 -94.05,52.36 -92.45,52.40 -90.71,52.37 -88.97,52.35 -86.90,52.14 -84.83,51.92 -82.62,51.43 -80.41,50.94 -77.58,49.67 -74.75,48.40 -72.30,47.50 -69.85,46.60 -66.74,45.15 -63.63,43.71 -60.21,41.56 -56.78,39.42 -54.09,37.73 -51.40,36.05 -47.90,34.19 -44.40,32.33 -41.52,30.63 -38.65,28.93 -36.57,27.62 -34.49,26.31 -31.70,24.65 -28.92,22.98 -26.35,21.05 -23.78,19.13 -20.28,15.82 -16.77,12.52 -12.60,8.85 -8.44,5.18 -4.72,1.99 -1.00,-1.19 -0.85,-1.29 -0.69,-1.39 -0.51,-1.46 -0.33,-1.52 -0.15,-1.54 0.03,-1.56 0.22,-1.53 0.40,-1.50 0.58,-1.43 0.75,-1.36 0.90,-1.25 1.06,-1.14 1.18,-1.00 1.30,-0.85 1.38,-0.68 1.47,-0.52 1.51,-0.33 1.55,-0.15 1.55,0.03 1.54,0.22 1.49,0.40 1.44,0.58 1.35,0.75 1.26,0.91 1.13,1.05 1.00,1.19 1.00,1.19 L 1.00,1.19 Z"/></g><g transform="translate(93 61) rotate(0 -14.5 21.5)" stroke="none"><path fill="#e03131" d="M 1.64,0.94 Q 1.64,0.94 0.43,2.91 -0.78,4.88 -1.89,6.61 -2.99,8.34 -4.61,11.30 -6.23,14.26 -9.02,17.93 -11.81,21.60 -14.10,25.08 -16.38,28.56 -18.30,30.71 -20.22,32.86 -21.20,34.30 -22.19,35.74 -22.81,36.94 -23.44,38.13 -24.01,39.05 -24.58,39.97 -26.07,42.19 -27.57,44.40 -27.85,44.55 -28.14,44.70 -28.46,44.75 -28.77,44.80 -29.09,44.74 -29.40,44.69 -29.69,44.53 -29.97,44.38 -30.19,44.14 -30.40,43.91 -30.54,43.62 -30.67,43.33 -30.70,43.01 -30.73,42.69 -30.66,42.37 -30.59,42.06 -30.42,41.79 -30.25,41.52 -30.00,41.31 -29.76,41.11 -29.46,40.99 -29.16,40.88 -28.84,40.86 -28.52,40.85 -28.21,40.94 -27.90,41.02 -27.64,41.21 -27.38,41.39 -27.18,41.65 -26.99,41.90 -26.89,42.21 -26.79,42.51 -26.80,42.83 -26.80,43.16 -26.91,43.46 -27.01,43.76 -27.21,44.01 -27.40,44.27 -27.67,44.44 -27.94,44.62 -28.25,44.70 -28.56,44.79 -28.88,44.77 -29.20,44.75 -29.50,44.62 -29.79,44.50 -30.03,44.29 -30.28,44.08 -30.44,43.81 -30.60,43.53 -30.67,43.22 -30.73,42.90 -30.69,42.58 -30.66,42.26 -30.52,41.98 -30.38,41.69 -30.16,41.46 -29.94,41.22 -29.94,41.22 -29.94,41.23 -28.15,38.77 -26.35,36.32 -25.50,35.13 -24.64,33.94 -23.49,32.46 -22.34,30.99 -20.58,28.98 -18.82,26.97 -16.52,23.38 -14.22,19.79 -11.62,16.28 -9.02,12.77 -7.44,9.67 -5.85,6.57 -4.83,4.86 -3.81,3.16 -2.73,1.10 -1.64,-0.94 -1.51,-1.12 -1.37,-1.31 -1.19,-1.45 -1.02,-1.60 -0.81,-1.70 -0.60,-1.79 -0.38,-1.84 -0.16,-1.89 0.06,-1.88 0.29,-1.87 0.51,-1.81 0.73,-1.75 0.93,-1.63 1.13,-1.52 1.30,-1.36 1.46,-1.20 1.58,-1.01 1.71,-0.82 1.78,-0.60 1.85,-0.38 1.87,-0.15 1.89,0.06 1.86,0.29 1.82,0.52 1.73,0.73 1.64,0.94 1.64,0.94 L 1.64,0.94 Z"/></g><g transform="translate(121 73) rotate(0 -5.5 11)" stroke="none"><path fill="#e03131" d="M 2.42,0.80 Q 2.42,0.80 1.77,2.50 1.12,4.20 0.55,5.79 -0.00,7.37 -0.54,9.41 -1.08,11.45 -1.53,12.53 -1.98,13.60 -2.51,14.97 -3.04,16.35 -3.52,17.38 -4.00,18.41 -6.33,21.13 -8.66,23.86 -9.07,24.10 -9.48,24.33 -9.94,24.43 -10.41,24.52 -10.88,24.46 -11.34,24.40 -11.77,24.19 -12.20,23.98 -12.53,23.65 -12.87,23.32 -13.08,22.90 -13.30,22.47 -13.36,22.01 -13.43,21.54 -13.35,21.07 -13.26,20.61 -13.03,20.19 -12.80,19.78 -12.45,19.46 -12.10,19.14 -11.67,18.95 -11.23,18.76 -10.76,18.72 -10.29,18.68 -9.83,18.79 -9.37,18.90 -8.97,19.15 -8.57,19.41 -8.27,19.77 -7.97,20.14 -7.80,20.58 -7.64,21.03 -7.62,21.50 -7.61,21.97 -7.74,22.42 -7.88,22.88 -8.15,23.26 -8.42,23.65 -8.81,23.93 -9.19,24.21 -9.64,24.35 -10.09,24.49 -10.56,24.48 -11.04,24.47 -11.48,24.31 -11.93,24.15 -12.30,23.86 -12.67,23.56 -12.93,23.17 -13.19,22.77 -13.30,22.31 -13.42,21.85 -13.39,21.38 -13.35,20.91 -13.17,20.47 -12.98,20.04 -12.67,19.68 -12.35,19.33 -12.35,19.33 -12.36,19.33 -10.35,17.19 -8.35,15.05 -7.51,13.25 -6.68,11.45 -5.86,9.73 -5.03,8.01 -4.72,6.96 -4.42,5.90 -3.92,4.29 -3.42,2.69 -2.92,0.94 -2.42,-0.80 -2.28,-1.08 -2.15,-1.36 -1.96,-1.60 -1.76,-1.83 -1.52,-2.02 -1.27,-2.20 -0.99,-2.33 -0.71,-2.45 -0.40,-2.50 -0.10,-2.55 0.20,-2.52 0.50,-2.50 0.80,-2.40 1.09,-2.30 1.35,-2.14 1.61,-1.97 1.82,-1.75 2.03,-1.53 2.19,-1.26 2.34,-1.00 2.43,-0.70 2.51,-0.41 2.53,-0.10 2.54,0.20 2.48,0.50 2.42,0.80 2.42,0.80 L 2.42,0.80 Z"/></g><g transform="translate(101 30) rotate(0 50 -10)" stroke="none"><path fill="#e03131" d="M -1.12,-1.68 Q -1.12,-1.68 0.64,-2.76 2.41,-3.85 4.58,-5.40 6.75,-6.94 10.36,-9.08 13.97,-11.21 18.67,-13.82 23.36,-16.43 26.25,-17.83 29.15,-19.23 31.01,-19.90 32.87,-20.57 33.95,-20.95 35.04,-21.33 36.16,-21.55 37.28,-21.77 38.51,-21.85 39.74,-21.93 41.03,-21.27 42.32,-20.60 43.45,-19.84 44.58,-19.08 47.27,-17.22 49.96,-15.35 53.60,-13.41 57.25,-11.46 60.03,-9.69 62.81,-7.92 65.33,-6.63 67.84,-5.33 70.27,-4.50 72.70,-3.67 74.81,-3.32 76.92,-2.96 78.36,-2.90 79.80,-2.83 81.24,-3.57 82.68,-4.30 85.09,-5.70 87.51,-7.11 89.87,-9.60 92.23,-12.10 93.55,-13.74 94.88,-15.37 96.40,-17.68 97.92,-19.98 98.12,-20.17 98.31,-20.36 98.55,-20.48 98.79,-20.59 99.06,-20.63 99.33,-20.66 99.59,-20.61 99.85,-20.56 100.09,-20.43 100.32,-20.29 100.50,-20.09 100.68,-19.89 100.79,-19.64 100.89,-19.39 100.91,-19.13 100.93,-18.86 100.87,-18.60 100.80,-18.33 100.66,-18.11 100.51,-17.88 100.30,-17.71 100.09,-17.55 99.83,-17.45 99.58,-17.36 99.31,-17.36 99.04,-17.35 98.78,-17.43 98.53,-17.51 98.31,-17.67 98.09,-17.83 97.93,-18.05 97.78,-18.27 97.70,-18.52 97.62,-18.78 97.63,-19.05 97.64,-19.32 97.73,-19.57 97.83,-19.83 98.00,-20.03 98.17,-20.24 98.39,-20.39 98.62,-20.53 98.88,-20.60 99.15,-20.66 99.41,-20.64 99.68,-20.61 99.93,-20.51 100.18,-20.40 100.38,-20.22 100.58,-20.04 100.71,-19.80 100.84,-19.57 100.89,-19.30 100.94,-19.04 100.90,-18.77 100.86,-18.50 100.74,-18.26 100.62,-18.02 100.62,-18.02 100.62,-18.02 98.87,-15.81 97.13,-13.59 95.75,-11.83 94.38,-10.07 91.75,-7.27 89.12,-4.48 86.56,-2.90 84.00,-1.33 81.84,-0.46 79.69,0.39 78.08,0.15 76.47,-0.07 74.11,-0.43 71.76,-0.78 69.10,-1.62 66.44,-2.46 63.74,-3.74 61.04,-5.01 58.31,-6.59 55.58,-8.17 51.67,-10.04 47.77,-11.91 44.86,-13.61 41.96,-15.31 39.83,-16.60 37.69,-17.90 35.77,-17.78 33.85,-17.65 32.15,-17.13 30.45,-16.60 27.66,-15.19 24.87,-13.77 20.25,-11.12 15.64,-8.47 12.23,-6.33 8.82,-4.20 6.65,-2.47 4.48,-0.74 2.80,0.46 1.12,1.68 0.90,1.79 0.68,1.90 0.45,1.96 0.21,2.01 -0.03,2.01 -0.27,2.00 -0.51,1.94 -0.74,1.88 -0.96,1.76 -1.17,1.65 -1.35,1.48 -1.53,1.32 -1.67,1.11 -1.81,0.91 -1.89,0.68 -1.97,0.45 -2.00,0.21 -2.02,-0.03 -1.99,-0.27 -1.96,-0.51 -1.87,-0.74 -1.78,-0.97 -1.63,-1.17 -1.49,-1.36 -1.31,-1.52 -1.12,-1.68 -1.12,-1.68 L -1.12,-1.68 Z"/></g></svg>