<?xml version="1.0" encoding="UTF-8" standalone="no"?>
<svg
   id="svg"
   version="1.1"
   width="163.86641"
   height="163.52386"
   viewBox="0 0 163.86641 163.52387"
   sodipodi:docname="image2vector.svg"
   inkscape:version="1.3 (0e150ed6c4, 2023-07-21)"
   xmlns:inkscape="http://www.inkscape.org/namespaces/inkscape"
   xmlns:sodipodi="http://sodipodi.sourceforge.net/DTD/sodipodi-0.dtd"
   xmlns="http://www.w3.org/2000/svg"
   xmlns:svg="http://www.w3.org/2000/svg">
  <defs
     id="defs1" />
  <sodipodi:namedview
     id="namedview1"
     pagecolor="#ffffff"
     bordercolor="currentColor"
     borderopacity="0.25"
     inkscape:showpageshadow="2"
     inkscape:pageopacity="0.0"
     inkscape:pagecheckerboard="0"
     inkscape:deskcolor="#d1d1d1"
     inkscape:zoom="4.0693995"
     inkscape:cx="112.67019"
     inkscape:cy="87.359326"
     inkscape:window-width="1920"
     inkscape:window-height="991"
     inkscape:window-x="-9"
     inkscape:window-y="-9"
     inkscape:window-maximized="1"
     inkscape:current-layer="svgg" />
  <g
     id="svgg"
     transform="translate(-22.191763,-63.67188)">
    <path
       id="path0"
       d="m 95.345,67.894 c -1.426,0.103 -3.07,0.297 -3.654,0.431 -0.583,0.135 -1.75,0.359 -2.593,0.499 -1.999,0.331 -7.205,1.631 -8.213,2.05 -0.434,0.181 -1.707,0.579 -2.829,0.886 -1.992,0.543 -5.658,1.93 -6.908,2.612 -0.344,0.187 -0.786,0.341 -0.982,0.341 -0.196,0 -0.392,0.083 -0.435,0.183 -0.043,0.101 -0.768,0.49 -1.611,0.864 -0.842,0.375 -2.021,0.982 -2.619,1.349 -0.597,0.368 -1.191,0.668 -1.32,0.668 -0.128,0 -0.647,0.299 -1.152,0.664 -0.506,0.366 -1.65,1.072 -2.542,1.571 -0.893,0.498 -2.263,1.419 -3.044,2.046 -0.782,0.627 -1.51,1.141 -1.618,1.141 -0.109,0 -0.383,0.163 -0.61,0.364 -0.227,0.2 -0.89,0.73 -1.473,1.177 -0.583,0.448 -1.22,0.957 -1.414,1.13 -0.195,0.174 -1.202,1.049 -2.24,1.944 -1.985,1.713 -7.894,7.643 -7.895,7.923 -10e-4,0.09 -0.381,0.567 -0.844,1.061 -0.464,0.493 -1.122,1.321 -1.461,1.84 -0.34,0.518 -0.816,1.108 -1.059,1.309 -0.243,0.202 -0.673,0.744 -0.955,1.204 -0.283,0.46 -1.429,2.204 -2.547,3.876 -1.118,1.671 -2.365,3.675 -2.771,4.453 -0.406,0.778 -0.836,1.574 -0.955,1.768 -0.412,0.676 -1.902,3.81 -1.902,4.003 0,0.106 -0.417,1.079 -0.926,2.161 -0.51,1.083 -1.004,2.286 -1.098,2.675 -0.095,0.389 -0.328,0.949 -0.52,1.245 -0.191,0.296 -0.285,0.601 -0.208,0.678 0.078,0.077 -0.035,0.472 -0.25,0.877 -0.361,0.678 -1.393,4.215 -1.969,6.746 -0.133,0.584 -0.338,1.273 -0.456,1.533 -0.33,0.725 -1.229,6.634 -1.291,8.485 -0.031,0.908 -0.17,2.057 -0.309,2.554 -0.152,0.542 -0.261,3.699 -0.273,7.882 -0.011,3.837 -0.085,7.239 -0.166,7.559 -0.096,0.384 -0.024,0.671 0.212,0.843 0.449,0.328 0.922,2.465 0.657,2.962 -0.114,0.211 -0.095,0.553 0.043,0.799 0.132,0.237 0.332,1.159 0.444,2.048 0.111,0.89 0.354,2.126 0.539,2.746 0.185,0.62 0.622,2.242 0.973,3.603 0.797,3.097 2.219,7.566 2.53,7.952 0.13,0.161 0.177,0.445 0.105,0.631 -0.071,0.187 0.017,0.462 0.198,0.611 0.18,0.15 0.454,0.661 0.61,1.137 0.155,0.476 0.479,1.235 0.719,1.687 0.24,0.452 0.436,0.952 0.436,1.111 0,0.16 0.319,0.792 0.708,1.405 0.389,0.613 0.707,1.197 0.707,1.298 0,0.1 0.512,1.06 1.137,2.134 0.626,1.073 1.428,2.52 1.784,3.215 0.831,1.625 2.479,4.04 2.756,4.04 0.119,0 0.215,0.112 0.215,0.248 0,0.274 0.891,1.659 1.659,2.581 0.27,0.324 0.967,1.225 1.548,2.003 1.772,2.37 7.269,8.155 9.661,10.166 0.636,0.536 1.763,1.512 2.503,2.17 0.74,0.657 1.658,1.357 2.041,1.555 0.383,0.198 0.732,0.45 0.776,0.561 0.044,0.11 0.669,0.522 1.389,0.914 l 1.308,0.713 -0.185,-1.675 c -0.102,-0.922 -0.286,-2.047 -0.409,-2.501 -0.727,-2.673 -0.953,-20.462 -0.294,-23.217 0.123,-0.519 0.385,-1.738 0.581,-2.711 0.623,-3.095 1.983,-6.566 2.857,-7.291 0.205,-0.17 0.372,-0.505 0.372,-0.744 0,-1.09 4.719,-6.603 6.942,-8.111 0.382,-0.259 1.135,-0.803 1.673,-1.208 2.79,-2.104 11.818,-5.745 14.243,-5.745 0.545,0 0.573,0.088 0.233,0.722 -0.134,0.251 -0.197,0.456 -0.14,0.456 0.17,0 1.298,-2.013 2.558,-4.563 0.649,-1.314 1.285,-2.456 1.414,-2.537 0.219,-0.138 -0.35,-0.29 -3.588,-0.961 -3.68,-0.762 -6.941,-3.837 -9.945,-9.381 -2.527,-4.663 -2.78,-5.607 -1.758,-6.566 2.134,-2.005 14.266,-0.371 19.778,2.664 1.284,0.707 2.208,1.132 2.052,0.944 -0.284,-0.342 -0.199,-0.496 1.419,-2.568 0.543,-0.694 3.251,-3.281 4.088,-3.905 0.365,-0.272 0.463,-0.269 0.645,0.017 0.365,0.577 0.26,-0.15 -0.233,-1.613 -1.09,-3.234 -6.669,-14.679 -9.275,-19.026 -2.307,-3.848 -3.817,-6.026 -5.75,-8.294 -2.682,-3.147 -4.859,-6.43 -5.393,-8.131 -0.094,-0.301 -0.414,-1.08 -0.711,-1.732 -0.297,-0.652 -0.768,-2.031 -1.047,-3.064 -0.28,-1.033 -0.679,-2.515 -0.889,-3.293 -0.559,-2.078 -0.531,-8.284 0.044,-9.9 1.251,-3.511 3.389,-6.663 5.132,-7.565 0.985,-0.509 1.134,0.076 0.226,0.887 -2.881,2.574 -3.847,11.731 -1.687,15.989 0.23,0.453 0.535,1.09 0.678,1.414 0.142,0.324 0.524,1.013 0.847,1.532 0.324,0.519 0.765,1.261 0.98,1.65 0.367,0.663 2.255,3.144 3.889,5.111 0.397,0.477 1.631,1.75 2.744,2.828 3.468,3.361 4.609,4.552 6.087,6.349 1.797,2.185 5.116,6.96 5.863,8.433 0.311,0.613 0.721,1.245 0.912,1.403 0.19,0.158 0.485,0.629 0.655,1.046 0.169,0.417 0.643,1.288 1.052,1.937 0.41,0.648 1.823,3.353 3.14,6.01 2.314,4.666 3.358,6.501 2.982,5.241 -0.184,-0.618 1.369,-0.583 3.801,0.083 1.775,0.487 2.073,0.443 2.151,-0.315 0.226,-2.218 0.294,-13.778 0.086,-14.791 -0.133,-0.648 -0.353,-1.868 -0.489,-2.71 -0.464,-2.874 -4.364,-11.791 -6.602,-15.094 -0.392,-0.579 -0.715,-1.121 -0.718,-1.206 -0.005,-0.175 -1.043,-1.737 -2.642,-3.976 -2.08,-2.913 -2.949,-6.016 -3.264,-11.663 -0.243,-4.347 -0.296,-4.831 -0.724,-6.6 -0.157,-0.648 -0.295,-1.514 -0.306,-1.925 -0.012,-0.411 -0.117,-0.729 -0.234,-0.707 -0.117,0.021 -0.529,-0.421 -0.914,-0.985 -0.386,-0.563 -1.015,-1.214 -1.398,-1.447 -0.891,-0.541 -0.446,-0.857 0.511,-0.363 1,0.518 2.367,1.76 2.367,2.151 0,0.181 0.099,0.33 0.219,0.33 0.447,0 1.491,2.735 1.924,5.042 1.909,10.157 2.578,11.654 7.444,16.643 1.454,1.491 3.207,3.42 3.895,4.288 1.749,2.207 3.961,5.28 3.961,5.504 0,0.104 0.152,0.357 0.338,0.562 1.158,1.279 3.963,7.879 4.616,10.86 0.157,0.713 0.378,1.538 0.492,1.834 0.971,2.518 0.987,17.73 0.019,17.73 -0.42,0 -0.156,0.2 2.627,1.99 2.303,1.482 4.046,3.2 5.63,5.55 0.302,0.449 1.001,1.136 1.553,1.529 3.336,2.37 7.254,6.068 8.871,8.373 2.752,3.923 5.789,9.035 5.789,9.744 0,0.078 0.251,0.702 0.558,1.387 0.574,1.279 1.826,4.993 2.248,6.665 1.282,5.083 1.306,5.153 2.156,6.247 1.827,2.353 1.582,5.178 -0.545,6.278 -1.225,0.634 -2.995,1.047 -2.849,0.666 0.098,-0.254 -0.114,-0.25 -1.137,0.023 -2.036,0.542 -4.761,0.464 -4.606,-0.132 0.161,-0.614 -0.184,-0.604 -0.62,0.019 -0.189,0.27 -0.54,0.462 -0.78,0.428 -0.499,-0.071 -1.97,0.234 -2.321,0.481 -0.231,0.163 -1.306,0.503 -2.947,0.934 l -0.825,0.217 0.88,0.021 c 0.714,0.018 0.899,0.121 0.986,0.552 0.558,2.772 1.223,7.14 1.658,10.902 0.196,1.685 0.461,3.647 0.59,4.36 0.128,0.713 0.398,2.941 0.598,4.95 0.2,2.01 0.412,3.873 0.472,4.142 0.361,1.635 0.582,7.018 0.302,7.364 -0.252,0.311 -0.243,0.336 0.053,0.155 0.195,-0.119 0.479,-0.235 0.633,-0.258 0.933,-0.142 4.072,-2.068 7.853,-4.817 0.713,-0.518 1.843,-1.308 2.512,-1.754 0.669,-0.446 1.252,-0.894 1.296,-0.995 0.045,-0.101 0.505,-0.537 1.024,-0.969 2.826,-2.355 6.479,-5.869 8.406,-8.086 0.604,-0.695 1.572,-1.794 2.151,-2.442 0.578,-0.649 1.357,-1.613 1.73,-2.143 0.372,-0.53 1.183,-1.643 1.802,-2.475 1.519,-2.042 3.013,-4.316 3.945,-6.005 0.425,-0.769 0.969,-1.68 1.21,-2.024 0.241,-0.344 0.438,-0.676 0.438,-0.737 0,-0.061 0.572,-1.318 1.27,-2.792 2.267,-4.784 2.973,-6.394 2.973,-6.787 0,-0.212 0.141,-0.595 0.314,-0.851 0.607,-0.895 2.322,-6.609 3.112,-10.364 0.624,-2.97 1.093,-5.36 1.2,-6.129 0.055,-0.389 0.223,-1.556 0.375,-2.593 0.362,-2.469 0.354,-16.522 -0.011,-19.21 -0.288,-2.118 -0.561,-3.764 -0.978,-5.893 -0.14,-0.713 -0.298,-1.561 -0.351,-1.885 -0.053,-0.325 -0.173,-0.961 -0.267,-1.415 -0.094,-0.453 -0.181,-0.931 -0.193,-1.06 -0.012,-0.13 -0.195,-0.713 -0.407,-1.297 -0.211,-0.583 -0.672,-2.015 -1.024,-3.182 -0.999,-3.318 -1.147,-3.756 -1.347,-3.995 -0.103,-0.123 -0.188,-0.393 -0.188,-0.599 0,-0.205 -0.209,-0.785 -0.466,-1.288 -0.256,-0.503 -0.589,-1.295 -0.74,-1.759 -0.15,-0.465 -0.471,-1.126 -0.712,-1.47 -0.241,-0.344 -0.439,-0.84 -0.439,-1.103 0,-0.262 -0.155,-0.632 -0.345,-0.823 -0.19,-0.19 -0.528,-0.807 -0.75,-1.372 -0.222,-0.564 -0.465,-1.079 -0.539,-1.144 -0.073,-0.065 -0.505,-0.843 -0.959,-1.729 -1.351,-2.64 -1.779,-3.372 -2.739,-4.683 -0.503,-0.687 -0.992,-1.44 -1.088,-1.673 -0.095,-0.234 -0.489,-0.817 -0.875,-1.297 -0.387,-0.479 -1.443,-1.826 -2.347,-2.993 -0.905,-1.167 -1.836,-2.329 -2.071,-2.583 -0.234,-0.253 -0.664,-0.777 -0.955,-1.163 -0.712,-0.945 -5.336,-5.676 -6.66,-6.813 -0.583,-0.501 -1.586,-1.354 -2.228,-1.894 -0.643,-0.54 -1.384,-1.195 -1.649,-1.454 -0.264,-0.259 -1.106,-0.896 -1.87,-1.414 -0.765,-0.519 -1.78,-1.209 -2.257,-1.534 -0.477,-0.325 -1.213,-0.882 -1.635,-1.238 -0.423,-0.355 -1.026,-0.711 -1.34,-0.789 -0.314,-0.079 -0.571,-0.233 -0.571,-0.343 0,-0.109 -0.451,-0.415 -1.002,-0.678 -0.551,-0.263 -1.638,-0.853 -2.416,-1.31 -2.311,-1.358 -7.299,-3.825 -8.08,-3.997 -0.399,-0.087 -0.853,-0.311 -1.007,-0.498 -0.154,-0.186 -0.507,-0.339 -0.782,-0.339 -0.276,-10e-4 -0.82,-0.171 -1.209,-0.378 -0.389,-0.208 -1.343,-0.567 -2.121,-0.8 -0.778,-0.232 -2.157,-0.654 -3.065,-0.936 -2.607,-0.812 -6.715,-1.821 -8.132,-1.998 -0.713,-0.089 -1.826,-0.308 -2.475,-0.488 -2.568,-0.711 -15.53,-1.043 -22.156,-0.568 m 13.776,72.052 -0.812,0.884 0.884,-0.813 c 0.822,-0.756 0.992,-0.955 0.812,-0.955 -0.039,0 -0.437,0.398 -0.884,0.884 m -34.951,1.866 c -0.232,0.232 -0.184,1.321 0.076,1.728 0.153,0.242 0.179,0.066 0.079,-0.554 -0.104,-0.647 -0.051,-0.967 0.184,-1.116 0.181,-0.114 0.214,-0.21 0.074,-0.212 -0.141,-0.002 -0.326,0.067 -0.413,0.154 m 4.793,0.716 c 0.194,0.07 0.672,0.407 1.061,0.747 l 0.707,0.619 -0.693,-0.766 c -0.38,-0.421 -0.858,-0.758 -1.06,-0.748 -0.318,0.016 -0.32,0.037 -0.015,0.148 m 3.55,3.741 c 0.446,0.529 0.858,0.923 0.917,0.876 0.058,-0.046 -0.307,-0.479 -0.811,-0.961 l -0.916,-0.876 0.81,0.961 m 14.953,1.043 c 0.506,0.518 0.974,0.943 1.039,0.943 0.064,0 -0.297,-0.425 -0.803,-0.943 -0.507,-0.519 -0.974,-0.943 -1.039,-0.943 -0.065,0 0.297,0.424 0.803,0.943 m -13.789,0.309 c 0,0.041 0.345,0.385 0.766,0.766 l 0.766,0.693 -0.692,-0.767 c -0.645,-0.714 -0.84,-0.874 -0.84,-0.692 m -5.706,1.694 c 0.134,0.26 0.598,0.79 1.031,1.178 l 0.786,0.707 -0.824,-0.942 c -0.454,-0.519 -0.918,-1.049 -1.031,-1.178 -0.114,-0.13 -0.096,-0.024 0.038,0.235 m 33.756,0.126 c -0.384,0.128 -0.151,0.149 0.664,0.062 l 1.254,-0.135 1.208,1.27 c 0.664,0.699 0.974,0.934 0.688,0.523 -1.204,-1.731 -2.3,-2.225 -3.814,-1.72 m -0.236,1.134 c 0.665,0.125 0.821,0.26 0.805,0.693 -0.013,0.379 0.055,0.464 0.231,0.288 0.43,-0.431 -0.175,-1.058 -1.06,-1.1 l -0.801,-0.037 0.825,0.156 m -1.237,0.331 c -0.15,0.408 0.044,0.884 0.361,0.884 0.193,0 0.193,-0.07 -10e-4,-0.264 -0.146,-0.146 -0.209,-0.411 -0.14,-0.589 0.068,-0.179 0.071,-0.325 0.007,-0.325 -0.065,0 -0.167,0.132 -0.227,0.294 m -9.031,0.962 c 0.363,0.476 0.707,0.865 0.766,0.865 0.163,0 -0.857,-1.379 -1.159,-1.565 -0.147,-0.091 0.03,0.224 0.393,0.7 m 3.448,0.73 c -0.296,0.315 -0.482,0.713 -0.413,0.884 0.096,0.242 0.129,0.236 0.143,-0.027 0.01,-0.186 0.249,-0.583 0.531,-0.884 0.282,-0.3 0.46,-0.545 0.395,-0.545 -0.065,0 -0.36,0.258 -0.656,0.572 m -17.75,2.659 c 0.293,0.056 0.717,0.054 0.943,-0.005 0.225,-0.059 -0.015,-0.105 -0.533,-0.102 -0.519,0.002 -0.703,0.05 -0.41,0.107 m 20.327,0.294 c 0.195,0.131 0.557,0.241 0.805,0.243 0.603,0.004 0.415,-0.13 -0.451,-0.324 -0.517,-0.116 -0.612,-0.094 -0.354,0.081 m 2.18,0.415 c 0.357,0.054 0.94,0.054 1.297,0 0.356,-0.054 0.065,-0.098 -0.648,-0.098 -0.713,0 -1.005,0.044 -0.649,0.098 m -20.742,1.644 c 0.227,0.059 0.598,0.059 0.825,0 0.227,-0.06 0.041,-0.108 -0.413,-0.108 -0.453,0 -0.639,0.048 -0.412,0.108 m 44.254,23.29 c 0.44,0.454 0.853,0.825 0.918,0.825 0.065,0 -0.242,-0.371 -0.682,-0.825 -0.44,-0.453 -0.852,-0.825 -0.917,-0.825 -0.065,0 0.242,0.372 0.681,0.825 m 17.467,1.804 c -0.83,0.788 -1.307,1.322 -1.061,1.188 0.442,-0.242 2.89,-2.646 2.678,-2.63 -0.06,0.005 -0.788,0.653 -1.617,1.442 m -15.345,0.318 c 0.44,0.454 0.853,0.825 0.917,0.825 0.065,0 -0.242,-0.371 -0.681,-0.825 -0.44,-0.454 -0.853,-0.825 -0.918,-0.825 -0.065,0 0.242,0.371 0.682,0.825 m -12.434,0.752 c 0.227,0.059 0.598,0.059 0.825,0 0.227,-0.06 0.041,-0.108 -0.412,-0.108 -0.454,0 -0.64,0.048 -0.413,0.108 m 5.009,0.78 c 0.259,0.111 0.631,0.202 0.825,0.202 0.223,0 0.179,-0.074 -0.118,-0.202 -0.259,-0.111 -0.63,-0.203 -0.825,-0.203 -0.223,0 -0.179,0.075 0.118,0.203 m 19.859,0.135 c -0.882,0.478 -0.828,0.677 0.059,0.218 0.388,-0.201 0.707,-0.415 0.707,-0.477 0,-0.152 -0.026,-0.143 -0.766,0.259 m -17.738,0.609 c 0.26,0.142 1.006,0.749 1.659,1.348 1.055,0.969 1.038,0.939 -0.154,-0.265 -0.737,-0.746 -1.483,-1.352 -1.658,-1.348 -0.179,0.004 -0.113,0.119 0.153,0.265 m 7.366,1.072 c 0.292,0.056 0.769,0.056 1.061,0 0.292,-0.056 0.053,-0.102 -0.53,-0.102 -0.584,0 -0.822,0.046 -0.531,0.102 m -31.833,0.997 c -0.22,0.373 -0.4,0.767 -0.399,0.877 0,0.109 0.218,-0.158 0.484,-0.594 0.266,-0.435 0.445,-0.83 0.399,-0.876 -0.046,-0.046 -0.264,0.221 -0.484,0.593 m 29.535,1.434 c 0.585,0.183 3.233,0.31 3.045,0.146 -0.054,-0.047 -0.894,-0.14 -1.866,-0.207 -0.998,-0.07 -1.511,-0.043 -1.179,0.061 m -30.743,1.545 c -0.087,0.345 -0.112,0.673 -0.057,0.729 0.056,0.055 0.172,-0.182 0.259,-0.527 0.087,-0.346 0.112,-0.674 0.056,-0.729 -0.055,-0.056 -0.171,0.181 -0.258,0.527 m -32.06,4.71 c -0.089,0.473 -0.115,0.907 -0.057,0.965 0.058,0.058 0.177,-0.282 0.266,-0.755 0.089,-0.473 0.114,-0.908 0.057,-0.965 -0.058,-0.058 -0.178,0.282 -0.266,0.755 m 29.951,3.906 c -0.196,0.982 -0.006,1.173 0.206,0.206 0.09,-0.408 0.114,-0.79 0.054,-0.85 -0.06,-0.06 -0.177,0.23 -0.26,0.644 m -1.898,7.176 c -0.087,0.346 -0.112,0.674 -0.057,0.729 0.056,0.056 0.172,-0.181 0.259,-0.527 0.087,-0.345 0.112,-0.673 0.056,-0.729 -0.055,-0.055 -0.172,0.182 -0.258,0.527 m -30.003,2.105 c 0.002,0.648 0.048,0.885 0.102,0.527 0.054,-0.358 0.053,-0.889 -0.003,-1.179 -0.056,-0.29 -0.1,0.004 -0.099,0.652 m -0.232,2.475 c 0,0.713 0.044,1.004 0.098,0.648 0.054,-0.357 0.054,-0.94 0,-1.296 -0.054,-0.357 -0.098,-0.065 -0.098,0.648 m -0.217,6.6 c 0,1.49 0.038,2.1 0.085,1.355 0.046,-0.745 0.046,-1.965 0,-2.711 -0.047,-0.745 -0.085,-0.135 -0.085,1.356 m 28.341,-0.562 c -0.087,0.734 -0.11,1.382 -0.053,1.44 0.058,0.057 0.179,-0.493 0.27,-1.223 0.092,-0.73 0.115,-1.378 0.053,-1.44 -0.062,-0.062 -0.184,0.488 -0.27,1.223 m -0.539,7.986 c 0.001,0.908 0.043,1.25 0.094,0.761 0.051,-0.489 0.05,-1.231 -0.002,-1.65 -0.052,-0.418 -0.093,-0.018 -0.092,0.889 m 4.46,6.423 c 1.393,0.041 3.674,0.041 5.067,0 1.394,-0.042 0.254,-0.076 -2.533,-0.076 -2.788,0 -3.928,0.034 -2.534,0.076"
       stroke="none"
       fill-rule="evenodd"
       fill="currentColor"
       sodipodi:nodetypes="ccccccscccscccsccccccccccscscccccccccscccccscccccssssccssccccsccccccccsccscscccccsccccccccsccccccccccccccccccccccccccccccccsscccscccsccccscccccccsccccccccccccccscccccccsscsccccccccccccsccssccccccccccccccsccssccccccccccccsscccccscccccccccscccssscccccccccscccccccccccccccsscsccsccccccscccccccccccscccsccscsccccccscscccsccscscccscccccccssccccscccccccccccssscccsccscsccssccccccccccccsccsccccsc"
       style="opacity:1" />
    <path
       id="path4"
       d="m 113.75043,140.10334 c 0.38127,1.21377 0.34979,1.59416 -0.21862,2.63915 -2.3532,4.32427 -7.2039,4.70029 -8.64153,0.66985 -0.21249,-0.59552 -0.47221,-1.0826 -0.57715,-1.0826 -0.33405,0 -2.88138,2.47738 -4.09078,3.97885 l -1.168288,1.44987 0.756417,0.55617 c 2.488741,1.83026 6.630241,6.87159 6.630241,8.07137 0,1.08871 -2.15994,2.01478 -5.35963,2.29811 -0.73631,0.0656 -2.034899,0.30606 -2.885759,0.53517 -0.897208,0.24136 -2.204543,0.41713 -3.118365,0.41975 -1.550438,0.005 -1.575797,0.014 -1.82852,0.6235 -0.14079,0.34017 -0.337546,0.61825 -0.437235,0.61825 -0.09882,0 -0.181016,0.14166 -0.181016,0.31568 0,0.34804 -1.134189,2.70037 -1.538195,3.18833 -0.14079,0.17052 -0.906827,1.5618 -1.702596,3.09213 -0.795769,1.53032 -1.723583,3.29238 -2.060254,3.91588 -2.494867,4.61109 -4.581356,9.85791 -5.697181,14.32559 -0.169647,0.68034 -0.542172,2.13371 -0.82725,3.22942 -0.782652,3.00993 -1.830268,8.71148 -2.417039,13.1573 -0.764288,5.79424 -0.40488,15.9521 0.550917,15.58483 0.161778,-0.0621 0.293823,-0.0411 0.293823,0.0463 0,0.0874 0.464344,0.32618 1.031001,0.52993 0.566658,0.20375 1.030128,0.45385 1.030128,0.55529 0,0.10231 0.149534,0.18539 0.332299,0.18539 0.182764,0 1.179662,0.31743 2.21591,0.70482 2.082116,0.77828 6.192132,1.94833 8.582936,2.44415 4.121384,0.85523 5.259071,1.038 7.986546,1.28285 l 1.28897,0.11543 0.004,-2.42841 c 0.0149,-7.27735 0.84911,-12.70257 3.44717,-22.42144 0.27283,-1.02051 0.6646,-2.59718 0.86922,-3.50401 0.2055,-0.90683 0.47134,-1.92733 0.59114,-2.2675 0.11981,-0.34017 0.46697,-1.7778 0.77304,-3.19445 1.37817,-6.39501 3.36846,-7.94457 10.18584,-7.92708 7.3578,0.0184 12.61338,1.11233 14.29586,2.97408 1.52858,1.6921 4.82009,2.55695 6.44048,1.69385 0.836,-0.44511 4.01995,-1.3187 4.42308,-1.21289 0.24747,0.0647 0.46784,-8.8e-4 0.5273,-0.15566 0.12505,-0.3253 1.64226,-1.44113 3.09913,-2.278 0.59202,-0.34017 1.74195,-1.22076 2.55521,-1.95794 2.13808,-1.9387 2.82017,-2.08736 3.40431,-0.74505 0.15391,0.35329 0.28333,0.51507 0.2877,0.35854 0.004,-0.15566 -0.36465,-0.84037 -0.82025,-1.52246 -0.45473,-0.68121 -0.88059,-1.48135 -0.9453,-1.7778 -0.0656,-0.29645 -0.2536,-1.04849 -0.418,-1.67199 -0.16528,-0.6235 -0.43724,-1.7297 -0.60426,-2.45814 -0.1679,-0.72756 -0.38215,-1.42364 -0.47659,-1.54519 -0.0953,-0.12242 -0.27895,-0.66022 -0.41013,-1.1954 -0.42849,-1.75681 -2.86564,-7.02288 -3.86079,-8.34071 -0.27283,-0.36028 -0.49582,-0.73805 -0.49582,-0.83862 0,-0.1644 -1.12107,-1.78829 -1.95707,-2.83328 -0.18189,-0.22649 -0.40488,-0.53518 -0.4967,-0.68559 -0.76079,-1.25049 -6.01199,-6.21924 -6.57165,-6.21924 -0.32093,0 -2.31123,-1.86175 -2.31123,-2.16257 0,-0.14691 -0.39438,-0.69608 -0.87622,-1.21814 -0.48183,-0.52293 -0.97853,-1.06598 -1.10446,-1.20677 -0.70482,-0.79052 -1.8906,-1.67811 -3.53286,-2.64702 -0.59551,-0.35066 -1.0826,-0.70657 -1.0826,-0.7914 0,-0.48008 -5.90355,-2.64265 -7.93495,-2.90761 -0.68034,-0.0883 -1.60815,-0.25185 -2.06113,-0.36291 -2.1031,-0.51681 -3.05627,-0.51594 -2.89362,0 m -31.978548,6.47021 c 0.326178,2.01041 4.925023,7.9507 7.285221,9.41019 2.335713,1.44375 3.946489,1.67549 6.722936,0.96629 2.751087,-0.7022 2.977575,-0.90071 1.515459,-1.3257 -3.554726,-1.03362 -6.357407,-3.15334 -9.613938,-7.27035 -1.470861,-1.86088 -2.793936,-2.52023 -5.055319,-2.52023 H 81.65211 l 0.119802,0.7398 m 35.164248,6.28395 c 1.35193,1.23476 3.25653,4.24819 3.04141,4.8096 -0.22911,0.59726 -0.68996,0.34192 -1.45163,-0.80539 -0.88933,-1.33969 -0.90332,-1.34231 -1.59678,-0.33842 -1.45774,2.11097 -6.41774,2.22028 -8.57944,0.18888 -1.17442,-1.1027 0.19151,-2.41616 3.84593,-3.69988 2.87089,-1.0074 3.77422,-1.03713 4.74051,-0.15479 m -3.3501,0.74068 c -0.35854,0.35853 -0.0962,0.68734 0.55004,0.68734 0.81588,0 1.04237,-0.17053 0.72843,-0.5483 -0.2396,-0.28857 -1.04149,-0.37602 -1.27847,-0.13904 m 17.89868,23.19273 c 1.38953,-0.008 1.44025,0.0455 0.7739,0.82288 -0.16702,0.19501 -0.24048,0.52206 -0.1679,0.74942 0.31044,0.97766 5.12965,5.29318 6.57166,5.88432 0.39876,0.16352 -0.21775,0.48008 -1.19628,0.61388 -2.57794,0.35328 -4.83583,-1.69211 -5.8747,-5.32204 -0.28245,-0.98727 -0.45035,-1.25486 -0.84561,-1.34843 -0.27196,-0.0638 -0.70133,-0.42499 -0.9558,-0.80277 -0.48358,-0.71706 -0.44423,-1.24787 0.0612,-0.82899 0.15828,0.13204 0.89371,0.2361 1.63352,0.23173 m 21.01966,4.93727 c -0.16615,0.98115 -1.38428,2.45026 -2.37156,2.85864 -0.33667,0.13992 -0.61301,0.34717 -0.61301,0.46085 0,0.13729 0.0866,0.13642 0.25797,-0.002 0.14167,-0.11368 0.56316,-0.27284 0.93656,-0.35241 1.2365,-0.26409 2.30948,-1.6134 2.30948,-2.90237 0,-1.01002 -0.35241,-1.05287 -0.51944,-0.063"
       stroke="none"
       fill-rule="evenodd"
       fill="currentColor"
       style="display:inline;opacity:1;stroke-width:0.874471"
       sodipodi:nodetypes="cccscccsccccsscscccccsssscccccscscccccccccscccccccsccsscccsccccccccsccccccccccsccccccccccccccsccsc" />
  </g>
</svg>
