<svg width="16px" height="16px" viewBox="0 0 456 456" fill="none" version="1.1" id="svg4" sodipodi:docname="MicrosoftNET.svg" inkscape:version="1.3 (0e150ed6c4, 2023-07-21)" xmlns:inkscape="http://www.inkscape.org/namespaces/inkscape" xmlns:sodipodi="http://sodipodi.sourceforge.net/DTD/sodipodi-0.dtd" xmlns="http://www.w3.org/2000/svg" xmlns:svg="http://www.w3.org/2000/svg"><defs id="defs4"><inkscape:path-effect effect="powerclip" id="path-effect12" is_visible="true" lpeversion="1" inverse="true" flatten="false" hide_clip="false" message="Use fill-rule evenodd on <b>fill and stroke</b> dialog if no flatten result after convert clip to paths."></inkscape:path-effect><clipPath clipPathUnits="userSpaceOnUse" id="clipPath5"><g inkscape:label="Clip" id="use5"></g></clipPath><clipPath clipPathUnits="userSpaceOnUse" id="clipPath9"><g id="g12" style="display:none"><path d="m 81.2738,291.333 c -3.2242,0 -5.9648,-1.074 -8.2218,-3.223 -2.257,-2.204 -3.3855,-4.821 -3.3855,-7.851 0,-3.086 1.1285,-5.73 3.3855,-7.934 2.257,-2.204 4.9976,-3.306 8.2218,-3.306 3.278,0 6.0455,1.102 8.3025,3.306 2.3107,2.204 3.4661,4.848 3.4661,7.934 0,3.03 -1.1554,5.647 -3.4661,7.851 -2.257,2.149 -5.0245,3.223 -8.3025,3.223 z" fill="#ffffff" id="path9"></path><path d="m 210.167,289.515 h -20.958 l -55.215,-87.109 c -1.397,-2.204 -2.553,-4.491 -3.466,-6.86 h -0.484 c 0.43,2.535 0.645,7.962 0.645,16.281 v 77.688 h -18.54 V 171 h 22.328 l 53.362,85.043 c 2.257,3.527 3.708,5.951 4.353,7.273 h 0.322 c -0.537,-3.14 -0.806,-8.457 -0.806,-15.951 V 171 h 18.459 z" fill="#ffffff" id="path10"></path><path d="M 300.449,289.515 H 235.561 V 171 h 62.309 v 16.695 h -43.124 v 33.554 h 39.739 v 16.612 h -39.739 v 35.042 h 45.703 z" fill="#ffffff" id="path11"></path><path d="m 392.667,187.695 h -33.21 v 101.82 H 340.272 V 187.695 H 307.143 V 171 h 85.524 z" fill="#ffffff" id="path12"></path></g><path id="lpe_path-effect12" class="powerclip" d="M -5,-5 H 461 V 461 H -5 Z m 86.2738,296.333 c 3.278,0 6.0455,-1.074 8.3025,-3.223 2.3107,-2.204 3.4661,-4.821 3.4661,-7.851 0,-3.086 -1.1554,-5.73 -3.4661,-7.934 -2.257,-2.204 -5.0245,-3.306 -8.3025,-3.306 -3.2242,0 -5.9648,1.102 -8.2218,3.306 -2.257,2.204 -3.3855,4.848 -3.3855,7.934 0,3.03 1.1285,5.647 3.3855,7.851 2.257,2.149 4.9976,3.223 8.2218,3.223 z M 210.167,289.515 V 171 h -18.459 v 76.365 c 0,7.494 0.269,12.811 0.806,15.951 h -0.322 c -0.645,-1.322 -2.096,-3.746 -4.353,-7.273 L 134.477,171 h -22.328 v 118.515 h 18.54 v -77.688 c 0,-8.319 -0.215,-13.746 -0.645,-16.281 h 0.484 c 0.913,2.369 2.069,4.656 3.466,6.86 l 55.215,87.109 z m 90.282,0 v -16.612 h -45.703 v -35.042 h 39.739 V 221.249 H 254.746 V 187.695 H 297.87 V 171 h -62.309 v 118.515 z m 92.218,-101.82 V 171 h -85.524 v 16.695 h 33.129 v 101.82 h 19.185 v -101.82 z"></path></clipPath></defs><sodipodi:namedview id="namedview4" pagecolor="#ffffff" bordercolor="#000000" borderopacity="0.25" inkscape:showpageshadow="2" inkscape:pageopacity="0.0" inkscape:pagecheckerboard="true" inkscape:deskcolor="#d1d1d1" labelstyle="below" inkscape:zoom="0.85197368" inkscape:cx="352.71042" inkscape:cy="222.42471" inkscape:window-width="1920" inkscape:window-height="991" inkscape:window-x="-9" inkscape:window-y="-9" inkscape:window-maximized="1" inkscape:current-layer="svg4"></sodipodi:namedview><path width="456" height="456" fill="currentColor" id="rect1" clip-path="url(#clipPath9)" inkscape:path-effect="#path-effect12" sodipodi:type="rect" x="0" y="0" d="M 0,0 H 456 V 456 H 0 Z"></path></svg>