<?xml version="1.0" encoding="UTF-8" standalone="no"?>
<!-- Created with Inkscape (http://www.inkscape.org/) -->

<svg
   width="71.94931mm"
   height="71.94931mm"
   viewBox="0 0 71.94931 71.94931"
   version="1.1"
   id="svg1"
   xml:space="preserve"
   inkscape:version="1.3 (0e150ed6c4, 2023-07-21)"
   sodipodi:docname="PragmatiCoders.svg"
   xmlns:inkscape="http://www.inkscape.org/namespaces/inkscape"
   xmlns:sodipodi="http://sodipodi.sourceforge.net/DTD/sodipodi-0.dtd"
   xmlns="http://www.w3.org/2000/svg"
   xmlns:svg="http://www.w3.org/2000/svg"><sodipodi:namedview
     id="namedview1"
     pagecolor="#ffffff"
     bordercolor="currentColor"
     borderopacity="0.25"
     inkscape:showpageshadow="2"
     inkscape:pageopacity="0.0"
     inkscape:pagecheckerboard="0"
     inkscape:deskcolor="#d1d1d1"
     inkscape:document-units="mm"
     inkscape:zoom="1.3843855"
     inkscape:cx="-13.363329"
     inkscape:cy="141.94023"
     inkscape:window-width="1920"
     inkscape:window-height="991"
     inkscape:window-x="-9"
     inkscape:window-y="-9"
     inkscape:window-maximized="1"
     inkscape:current-layer="layer1"
     showgrid="false" /><defs
     id="defs1"><inkscape:path-effect
       effect="powerclip"
       id="path-effect2"
       is_visible="true"
       lpeversion="1"
       inverse="true"
       flatten="false"
       hide_clip="false"
       message="Use fill-rule evenodd on &lt;b&gt;fill and stroke&lt;/b&gt; dialog if no flatten result after convert clip to paths." /><inkscape:path-effect
       effect="powerclip"
       id="path-effect3"
       is_visible="true"
       lpeversion="1"
       inverse="true"
       flatten="false"
       hide_clip="false"
       message="Use fill-rule evenodd on &lt;b&gt;fill and stroke&lt;/b&gt; dialog if no flatten result after convert clip to paths." /><filter
       id="mask-powermask-path-effect2_inverse"
       inkscape:label="filtermask-powermask-path-effect2"
       style="color-interpolation-filters:sRGB"
       height="100"
       width="100"
       x="-50"
       y="-50"><feColorMatrix
         id="mask-powermask-path-effect2_primitive1"
         values="1"
         type="saturate"
         result="fbSourceGraphic" /><feColorMatrix
         id="mask-powermask-path-effect2_primitive2"
         values="-1 0 0 0 1 0 -1 0 0 1 0 0 -1 0 1 0 0 0 1 0 "
         in="fbSourceGraphic" /></filter><clipPath
       clipPathUnits="userSpaceOnUse"
       id="clipPath1"><path
         id="path2"
         style="font-size:16.9653px;font-family:'CaskaydiaCove Nerd Font';-inkscape-font-specification:'CaskaydiaCove Nerd Font';text-align:center;text-anchor:middle;display:none;stroke:currentColor;stroke-width:0.394184"
         d="m 118.50004,15.333864 c -2.60683,0.0492 -4.86521,2.311176 -5.06158,4.885335 -0.39437,2.371146 -0.11342,5.144948 1.70595,6.887944 1.90156,1.605885 4.69933,1.652789 6.957,0.87984 1.1704,-0.58948 0.49593,-2.631085 -0.79473,-2.403119 -1.53984,0.550648 -3.70497,0.454109 -4.62066,-1.117855 -0.81423,-1.77062 -0.85273,-4.066624 0.32659,-5.68089 0.9289,-1.035684 2.68899,-1.209749 3.71576,-0.222071 1.16592,0.745367 2.75301,-0.942225 1.84198,-2.031918 -1.0137,-1.090306 -2.66478,-1.270477 -4.07031,-1.197266 z m -11.46484,0.142578 c -1.02539,10e-7 -2.05078,0 -3.07617,0 0,4.179037 0,8.358073 0,12.53711 0.85423,0.472175 2.27498,0.52798 2.68554,-0.546875 0.21385,-0.915658 0.0492,-1.879662 0.0937,-2.814453 1.87498,0.07898 4.13278,-0.03956 5.33456,-1.71051 1.33303,-1.879234 1.25326,-4.822185 -0.50448,-6.406678 -1.25973,-1.031163 -2.98147,-1.097331 -4.5332,-1.058594 z m 0.79883,2.617188 c 0.9488,-0.03042 2.21046,0.289575 2.31222,1.41844 0.25973,1.114641 -0.46513,2.512505 -1.72629,2.474138 -0.53407,0.0238 -1.21345,0.100467 -1.67968,-0.0059 0.0391,-1.29344 -0.0241,-2.587244 -0.002,-3.88086 0.36795,0.06963 0.72742,-0.006 1.09571,-0.0059 z"
         inkscape:label="path3" /><path
         id="lpe_path-effect2"
         style="font-size:16.9653px;font-family:'CaskaydiaCove Nerd Font';-inkscape-font-specification:'CaskaydiaCove Nerd Font';text-align:center;text-anchor:middle;display:block;stroke:currentColor;stroke-width:0.394184"
         class="powerclip"
         d="M 72.347381,8.7123058 H 129.41102 V 71.628926 H 72.347381 Z m 46.152659,6.6215582 c -2.60683,0.0492 -4.86521,2.311176 -5.06158,4.885335 -0.39437,2.371146 -0.11342,5.144948 1.70595,6.887944 1.90156,1.605885 4.69933,1.652789 6.957,0.87984 1.1704,-0.58948 0.49593,-2.631085 -0.79473,-2.403119 -1.53984,0.550648 -3.70497,0.454109 -4.62066,-1.117855 -0.81423,-1.77062 -0.85273,-4.066624 0.32659,-5.68089 0.9289,-1.035684 2.68899,-1.209749 3.71576,-0.222071 1.16592,0.745367 2.75301,-0.942225 1.84198,-2.031918 -1.0137,-1.090306 -2.66478,-1.270477 -4.07031,-1.197266 z m -11.46484,0.142578 c -1.02539,10e-7 -2.05078,0 -3.07617,0 0,4.179037 0,8.358073 0,12.53711 0.85423,0.472175 2.27498,0.52798 2.68554,-0.546875 0.21385,-0.915658 0.0492,-1.879662 0.0937,-2.814453 1.87498,0.07898 4.13278,-0.03956 5.33456,-1.71051 1.33303,-1.879234 1.25326,-4.822185 -0.50448,-6.406678 -1.25973,-1.031163 -2.98147,-1.097331 -4.5332,-1.058594 z m 0.79883,2.617188 -4e-5,-8.2e-5 c -0.36829,-10e-5 -0.72776,0.07553 -1.09571,0.0059 -0.0221,1.293616 0.0411,2.58742 0.002,3.88086 0.46623,0.106367 1.14561,0.0297 1.67968,0.0059 1.26116,0.03837 1.98602,-1.359497 1.72629,-2.474138 -0.10176,-1.128865 -1.36342,-1.44886 -2.31222,-1.41844 z" /></clipPath></defs><g
     inkscape:label="Layer 1"
     inkscape:groupmode="layer"
     id="layer1"
     transform="translate(-85.389481,-21.372902)"><rect
       style="fill:none;stroke:currentColor;stroke-width:6;stroke-dasharray:none"
       id="rect1"
       width="65.94931"
       height="65.94931"
       x="88.389481"
       y="24.372902"
       rx="4"
       ry="4" /><circle
       style="stroke:currentColor;stroke-width:3.69271;stroke-dasharray:none"
       id="path1"
       r="4.6161265"
       cy="78.745552"
       cx="100.46034" /><g
       id="g3"><path
         id="rect1-1"
         style="display:inline;stroke:none;stroke-width:2.41726"
         d="M 81.922857,13.726852 H 121.6676 c 0.75993,0 1.44578,0.355988 1.94166,0.933072 0.49587,0.577085 0.80176,1.375265 0.80176,2.259648 V 40.04657 63.173567 c 0,0.884384 -0.26035,1.65633 -0.73345,2.220297 -0.4731,0.563968 -1.15894,0.919956 -2.00997,0.972424 -0.85102,0.05247 -9.00247,1.894484 -10.14194,-4.975441 -0.073,-0.440426 -8.86542,-5.054141 -8.86542,-5.054141 -0.6921,-0.365203 -4.512106,-2.969193 -8.207908,-5.695551 -3.695804,-2.726359 -7.267406,-5.575087 -7.462705,-6.429766 0,0 -2.833482,-4.786464 -2.558509,-11.19666 0.274973,-6.410198 -6.812779,-8.270438 -7.069564,-14.057899 -0.256785,-5.78746 3.041397,-5.229978 4.561303,-5.229978 z"
         sodipodi:nodetypes="sssscssssssszzs"
         clip-path="url(#clipPath1)"
         transform="translate(22.169883,18.15637)"
         inkscape:original-d="M 81.922857,13.726852 H 121.6676 c 0.75993,0 1.44578,0.355988 1.94166,0.933072 0.49587,0.577085 0.80176,1.375265 0.80176,2.259648 V 40.04657 63.173567 c 0,0.884384 -0.26035,1.65633 -0.73345,2.220297 -0.4731,0.563968 -1.15894,0.919956 -2.00997,0.972424 -0.85102,0.05247 -9.00247,1.894484 -10.14194,-4.975441 -0.073,-0.440426 -8.86542,-5.054141 -8.86542,-5.054141 -0.6921,-0.365203 -4.512106,-2.969193 -8.207908,-5.695551 -3.695804,-2.726359 -7.267406,-5.575087 -7.462705,-6.429766 0,0 -2.833482,-4.786464 -2.558509,-11.19666 0.274973,-6.410198 -6.812779,-8.270438 -7.069564,-14.057899 -0.256785,-5.78746 3.041397,-5.229978 4.561303,-5.229978 z"
         inkscape:path-effect="#path-effect2" /></g></g></svg>
