<?xml version="1.0" encoding="UTF-8" standalone="no"?>
<svg
   width="38.568298"
   height="20"
   viewBox="0 0 38.568298 20"
   fill="none"
   version="1.1"
   id="svg15"
   sodipodi:docname="stratascratch.svg"
   inkscape:version="1.3 (0e150ed6c4, 2023-07-21)"
   xmlns:inkscape="http://www.inkscape.org/namespaces/inkscape"
   xmlns:sodipodi="http://sodipodi.sourceforge.net/DTD/sodipodi-0.dtd"
   xmlns="http://www.w3.org/2000/svg"
   xmlns:svg="http://www.w3.org/2000/svg">
  <defs
     id="defs15" />
  <sodipodi:namedview
     id="namedview15"
     pagecolor="#ffffff"
     bordercolor="#000000"
     borderopacity="0.25"
     inkscape:showpageshadow="2"
     inkscape:pageopacity="0.0"
     inkscape:pagecheckerboard="0"
     inkscape:deskcolor="#d1d1d1"
     inkscape:zoom="7.0520833"
     inkscape:cx="36.017725"
     inkscape:cy="9.9970458"
     inkscape:window-width="1920"
     inkscape:window-height="991"
     inkscape:window-x="-9"
     inkscape:window-y="-9"
     inkscape:window-maximized="1"
     inkscape:current-layer="svg15" />
  <path
     d="m 24.159,7.89505 0.0157,0.56785 v 3.3053 l -0.0039,0.3211 c -0.0276,3.0272 -2.2178,5.4944 -4.8806,5.4944 -2.6629,0 -4.853,-2.4633 -4.8806,-5.4944 l -0.004,-2.11867 -2.3241,0.02741 0.0079,2.10296 c 0.0355,4.3548 3.2656,7.8951 7.2008,7.8951 3.9352,0 7.1653,-3.5403 7.2007,-7.8951 L 26.4791,7.9068 c 0.0276,-3.02722 2.2178,-5.49051 4.8806,-5.49051 2.6629,0 4.853,2.46329 4.8806,5.49051 l 0.0236,2.09124 h 2.3044 L 38.5605,7.89505 C 38.529,3.54024 35.2989,0 31.3597,0 27.4245,0 24.1944,3.54024 24.159,7.89505 Z"
     fill="currentColor"
     opacity="0.75"
     id="path1" />
  <path
     d="m 12.0774,7.89505 -0.0039,0.48169 h -0.004 v 3.39536 0.3798 c -0.0275,3.0234 -2.198,5.4318 -4.86086,5.4318 -2.66287,0 -4.85303,-2.4633 -4.8806,-5.4944 L 2.3241,9.97063 0,9.99804 0.00393915,12.101 C 0.0433306,16.4598 3.27343,20 7.20864,20 11.1438,20 14.3739,16.4598 14.4094,12.105 L 14.3936,7.91071 c 0.0316,-3.02722 2.2217,-5.4905 4.8806,-5.4905 2.6629,0 4.8531,2.46328 4.8806,5.4905 l 0.0237,2.09129 h 2.3044 L 26.4789,7.89896 C 26.4435,3.54024 23.2134,0 19.2782,0 15.343,0 12.1129,3.54024 12.0774,7.89505 Z"
     fill="currentColor"
     id="path2" />
</svg>
