<?xml version="1.0" encoding="UTF-8" standalone="no"?>
<!-- Created with Inkscape (http://www.inkscape.org/) -->

<svg
   width="52.975674mm"
   height="52.975674mm"
   viewBox="0 0 52.975674 52.975674"
   version="1.1"
   id="svg1"
   xml:space="preserve"
   inkscape:version="1.3 (0e150ed6c4, 2023-07-21)"
   sodipodi:docname="typst.svg"
   xmlns:inkscape="http://www.inkscape.org/namespaces/inkscape"
   xmlns:sodipodi="http://sodipodi.sourceforge.net/DTD/sodipodi-0.dtd"
   xmlns="http://www.w3.org/2000/svg"
   xmlns:svg="http://www.w3.org/2000/svg"><sodipodi:namedview
     id="namedview1"
     pagecolor="#ffffff"
     bordercolor="#000000"
     borderopacity="0.25"
     inkscape:showpageshadow="2"
     inkscape:pageopacity="0.0"
     inkscape:pagecheckerboard="0"
     inkscape:deskcolor="#d1d1d1"
     inkscape:document-units="mm"
     inkscape:zoom="1.3843855"
     inkscape:cx="136.88384"
     inkscape:cy="170.11157"
     inkscape:window-width="1920"
     inkscape:window-height="991"
     inkscape:window-x="-9"
     inkscape:window-y="-9"
     inkscape:window-maximized="1"
     inkscape:current-layer="layer1" /><defs
     id="defs1"><inkscape:path-effect
       effect="powerclip"
       id="path-effect2"
       is_visible="true"
       lpeversion="1"
       inverse="true"
       flatten="false"
       hide_clip="false"
       message="Use fill-rule evenodd on &lt;b&gt;fill and stroke&lt;/b&gt; dialog if no flatten result after convert clip to paths." /><clipPath
       clipPathUnits="userSpaceOnUse"
       id="clipPath2"><path
         style="display:none;stroke-width:7.9375;stroke-linecap:round"
         d="m 80.341936,128.24979 -6.351675,2.70284 v 2.77041 l -3.378552,0.94599 0.405426,2.09471 h 2.973126 v 17.02789 c 0.562234,2.78963 2.164122,4.12375 4.527256,4.39212 2.911586,0.78443 5.395061,-0.28628 7.770667,-1.82442 l 2.364986,-1.82442 -1.013566,-1.82441 -2.973123,1.28384 c -0.765804,0.37613 -1.531609,0.49983 -2.297414,0.33786 -0.615616,-0.22542 -1.247772,-0.48676 -1.689277,-1.75685 l -0.06757,-15.54133 5.811107,0.13514 0.743281,-3.37855 -6.892245,0.40543 z"
         id="path2"
         sodipodi:nodetypes="ccccccccccccccccccc" /><path
         id="lpe_path-effect2"
         style="stroke-width:7.9375;stroke-linecap:round"
         class="powerclip"
         d="m 47.299965,112.57356 h 62.975675 v 62.97568 H 47.299965 Z m 33.041971,15.67623 -6.351675,2.70284 v 2.77041 l -3.378552,0.94599 0.405426,2.09471 h 2.973126 v 17.02789 c 0.562234,2.78963 2.164122,4.12375 4.527256,4.39212 2.911586,0.78443 5.395061,-0.28628 7.770667,-1.82442 l 2.364986,-1.82442 -1.013566,-1.82441 -2.973123,1.28384 c -0.765804,0.37613 -1.531609,0.49983 -2.297414,0.33786 -0.615616,-0.22542 -1.247772,-0.48676 -1.689277,-1.75685 l -0.06757,-15.54133 5.811107,0.13514 0.743281,-3.37855 -6.892245,0.40543 z" /></clipPath></defs><g
     inkscape:label="Layer 1"
     inkscape:groupmode="layer"
     id="layer1"
     transform="translate(-52.299965,-117.57356)"><path
       style="stroke-width:7.23605;stroke-linecap:round"
       id="rect1"
       width="52.975674"
       height="52.975674"
       x="52.299965"
       y="117.57356"
       rx="4.5581393"
       clip-path="url(#clipPath2)"
       inkscape:path-effect="#path-effect2"
       sodipodi:type="rect"
       d="M 56.858104,117.57356 H 100.7175 c 2.52521,0 4.55814,2.03293 4.55814,4.55814 v 43.8594 c 0,2.52521 -2.03293,4.55814 -4.55814,4.55814 H 56.858104 c -2.525209,0 -4.558139,-2.03293 -4.558139,-4.55814 v -43.8594 c 0,-2.52521 2.03293,-4.55814 4.558139,-4.55814 z" /></g></svg>
