<?xml version="1.0" encoding="UTF-8" standalone="no"?>
<!-- Uploaded to: SVG Repo, www.svgrepo.com, Generator: SVG Repo Mixer Tools -->

<svg
   fill="currentColor"
   height="800px"
   width="800px"
   version="1.1"
   id="Layer_1"
   viewBox="0 0 503.607 503.607"
   xml:space="preserve"
   sodipodi:docname="vimium.svg"
   inkscape:version="1.3 (0e150ed6c4, 2023-07-21)"
   xmlns:inkscape="http://www.inkscape.org/namespaces/inkscape"
   xmlns:sodipodi="http://sodipodi.sourceforge.net/DTD/sodipodi-0.dtd"
   xmlns="http://www.w3.org/2000/svg"
   xmlns:svg="http://www.w3.org/2000/svg">&#10;  <defs
   id="defs6">&#10;    <inkscape:perspective
   sodipodi:type="inkscape:persp3d"
   inkscape:vp_x="0 : 526.18109 : 1"
   inkscape:vp_y="0 : 1000 : 0"
   inkscape:vp_z="744.09448 : 526.18109 : 1"
   inkscape:persp3d-origin="372.04724 : 350.78739 : 1"
   id="perspective10" />&#10;    <inkscape:perspective
   id="perspective2884"
   inkscape:persp3d-origin="0.5 : 0.33333333 : 1"
   inkscape:vp_z="1 : 0.5 : 1"
   inkscape:vp_y="0 : 1000 : 0"
   inkscape:vp_x="0 : 0.5 : 1"
   sodipodi:type="inkscape:persp3d" />&#10;  <filter
   id="mask-powermask-path-effect47_inverse"
   inkscape:label="filtermask-powermask-path-effect47"
   style="color-interpolation-filters:sRGB"
   height="100"
   width="100"
   x="-50"
   y="-50"><feColorMatrix
     id="mask-powermask-path-effect47_primitive1"
     values="1"
     type="saturate"
     result="fbSourceGraphic" /><feColorMatrix
     id="mask-powermask-path-effect47_primitive2"
     values="-1 0 0 0 1 0 -1 0 0 1 0 0 -1 0 1 0 0 0 1 0 "
     in="fbSourceGraphic" /></filter><filter
   id="mask-powermask-path-effect48_inverse"
   inkscape:label="filtermask-powermask-path-effect48"
   style="color-interpolation-filters:sRGB"
   height="100"
   width="100"
   x="-50"
   y="-50"><feColorMatrix
     id="mask-powermask-path-effect48_primitive1"
     values="1"
     type="saturate"
     result="fbSourceGraphic" /><feColorMatrix
     id="mask-powermask-path-effect48_primitive2"
     values="-1 0 0 0 1 0 -1 0 0 1 0 0 -1 0 1 0 0 0 1 0 "
     in="fbSourceGraphic" /></filter><filter
   id="mask-powermask-path-effect62_inverse"
   inkscape:label="filtermask-powermask-path-effect62"
   style="color-interpolation-filters:sRGB"
   height="100"
   width="100"
   x="-50"
   y="-50"><feColorMatrix
     id="mask-powermask-path-effect62_primitive1"
     values="1"
     type="saturate"
     result="fbSourceGraphic" /><feColorMatrix
     id="mask-powermask-path-effect62_primitive2"
     values="-1 0 0 0 1 0 -1 0 0 1 0 0 -1 0 1 0 0 0 1 0 "
     in="fbSourceGraphic" /></filter><filter
   id="mask-powermask-path-effect63_inverse"
   inkscape:label="filtermask-powermask-path-effect63"
   style="color-interpolation-filters:sRGB"
   height="100"
   width="100"
   x="-50"
   y="-50"><feColorMatrix
     id="mask-powermask-path-effect63_primitive1"
     values="1"
     type="saturate"
     result="fbSourceGraphic" /><feColorMatrix
     id="mask-powermask-path-effect63_primitive2"
     values="-1 0 0 0 1 0 -1 0 0 1 0 0 -1 0 1 0 0 0 1 0 "
     in="fbSourceGraphic" /></filter></defs>&#10;  <sodipodi:namedview
   id="namedview6"
   pagecolor="#ffffff"
   bordercolor="#000000"
   borderopacity="0.25"
   inkscape:showpageshadow="2"
   inkscape:pageopacity="0.0"
   inkscape:pagecheckerboard="true"
   inkscape:deskcolor="#d1d1d1"
   inkscape:zoom="0.97125"
   inkscape:cx="400"
   inkscape:cy="400"
   inkscape:window-width="1920"
   inkscape:window-height="991"
   inkscape:window-x="-9"
   inkscape:window-y="-9"
   inkscape:window-maximized="1"
   inkscape:current-layer="Layer_1" />&#10;<g
   id="g4"
   inkscape:label="Google Chrome"
   transform="translate(1,1)">&#10;        &#10;&#10;        <path
   opacity="1"
   d="M281.02,362.436c-6.715,1.679-16.787,5.036-29.377,5.036c-22.662,0-44.485-5.875-62.951-18.466     c-18.466-12.59-32.734-28.538-42.807-48.682L38.449,112.311l-7.554,12.59C9.911,162.672-1,204.639-1,250.803     c0,62.951,20.984,118.348,61.272,165.351c40.289,46.164,92.328,74.702,152.761,83.934l5.875,0.839l84.774-145.207L281.02,362.436     z M209.675,481.623c-53.718-9.233-99.882-35.252-136.813-77.22c-37.771-43.646-57.075-94.846-57.075-153.6     c0-37.771,7.554-73.023,22.662-104.079l90.649,161.154c10.911,21.823,26.859,40.289,48.682,54.557     c21.823,13.43,46.164,20.984,72.184,20.984c6.715,0,12.59-0.839,17.626-1.679L209.675,481.623z"
   id="path1" />&#10;&#10;        <path
   opacity="1"
   d="M137.492,219.748c5.875-25.18,20.144-46.164,41.967-62.951c20.144-15.948,43.646-23.502,71.344-23.502h223.266     l-7.554-12.59c-20.984-36.092-50.361-64.63-90.649-88.131C338.095,9.911,296.128-1,250.803-1c-38.61,0-76.38,8.393-109.954,25.18     c-36.092,17.626-67.148,42.807-88.97,72.184l-3.357,4.197l83.934,137.652L137.492,219.748z M68.666,102.239     c20.144-26.02,47.003-47.003,79.738-62.951c31.056-15.948,65.469-23.502,102.4-23.502c41.967,0,81.416,10.911,115.829,31.895     c33.574,19.305,57.915,41.967,77.22,69.666H249.964c-31.056,0-57.915,8.393-81.416,26.859     c-19.305,15.108-33.574,32.734-41.967,53.718L68.666,102.239z"
   id="path2" />&#10;&#10;        <path
   opacity="1"
   d="M484.141,155.957l-2.518-5.036H314.593l14.269,14.269c25.18,25.18,38.61,55.397,38.61,85.613     c0,24.341-6.715,47.003-20.984,67.148L239.052,502.607h14.269c68.826-0.839,127.58-26.02,176.262-74.702     c48.682-48.682,73.023-108.275,73.023-177.102C502.607,225.623,499.249,189.531,484.141,155.957z M417.833,416.154     c-41.967,41.967-91.489,64.63-149.403,68.826l91.489-157.797c15.948-23.502,23.502-48.682,23.502-76.38     c0-29.377-10.072-57.915-30.216-83.095h117.508c12.59,29.377,15.108,61.272,15.108,83.095     C485.82,314.593,463.157,369.99,417.833,416.154z"
   id="path3" />&#10;&#10;        <path
   opacity="1"
   d="M150.082,250.803c0,54.557,46.164,100.721,100.721,100.721s100.721-46.164,100.721-100.721     s-46.164-100.721-100.721-100.721S150.082,196.246,150.082,250.803z M250.803,166.869c45.325,0,83.934,38.61,83.934,83.934     s-38.61,83.934-83.934,83.934s-83.934-38.61-83.934-83.934S205.479,166.869,250.803,166.869z"
   id="path4" />&#10;&#10;      </g><g
   inkscape:label="Vimium"
   id="layer1"
   transform="matrix(2.0516424,0,0,2.0516424,-16.559589,-1631.2282)"
   style="display:inline;stroke-width:0.999964;stroke-dasharray:none"
   clip-path="none">&#10;    <!-- <path
       style="fill:#19953f;fill-opacity:1;stroke:#000000;stroke-width:5;stroke-linecap:butt;stroke-linejoin:miter;stroke-miterlimit:4;stroke-opacity:1;stroke-dasharray:none"
       d="M 128.02596,805.31213 8.0259779,926.7407 127.31168,1046.0264 l 120,-120.71427 -119.28572,-120 z"
       id="path2890" /> -->&#10;    <path
   style="fill:currentColor;fill-opacity:1;stroke:none;stroke-width:0;stroke-linecap:butt;stroke-linejoin:miter;stroke-miterlimit:4;stroke-dasharray:none;stroke-opacity:1"
   d="m 26.24294,816.92274 -5,5 v 19.28572 l 5.446429,5.26785 7.232142,0.17858 0.178571,168.12501 7.142857,7.1429 H 63.385797 L 240.52865,841.92274 v -18.57143 l -5,-5 -80,-0.71428 -5,7.14285 v 15.71429 l 5,6.42857 h 6.42857 l -62.142855,60.00001 0.625005,-59.73215 7.14285,-10e-6 5.80357,-5.98214 v -15.71429 l -6.42857,-7.14286 -80.71428,-1.42857 z"
   id="path3664"
   sodipodi:nodetypes="cccccccccccccccccccccccc" />&#10;    <path
   style="fill:currentColor;fill-opacity:1;stroke:none;stroke-width:0;stroke-linecap:butt;stroke-linejoin:miter;stroke-miterlimit:4;stroke-dasharray:none;stroke-opacity:1"
   d="m 136.90826,933.24978 4.28572,-3.57143 12.14285,0.35715 3.92857,3.92857 -4.28571,12.14286 -3.57143,3.21428 -12.64794,-0.14794 -3.42349,-4.13777 z"
   id="path3666"
   sodipodi:nodetypes="ccccccccc" />&#10;    <path
   style="fill:currentColor;fill-opacity:1;stroke:none;stroke-width:0;stroke-linecap:butt;stroke-linejoin:miter;stroke-miterlimit:4;stroke-dasharray:none;stroke-opacity:1"
   d="m 121.90826,956.10693 28.57143,0.35714 -15,45.00003 h 5.35714 l -3.21428,8.9285 -26.78572,-0.3571 14.64286,-43.21429 -7.14286,0.35714 z"
   id="path3668" />&#10;    <path
   style="display:inline;fill:currentColor;fill-opacity:1;stroke:none;stroke-width:0;stroke-linecap:butt;stroke-linejoin:miter;stroke-miterlimit:4;stroke-dasharray:none;stroke-opacity:1"
   d="m 157.2654,956.46407 -3.71936,9.68618 h 6.82905 l -15.25254,44.24235 h 23.57143 l 3.40554,-8.7193 -6.11475,-0.4005 8.42349,-26.2373 15,-0.35715 -11.07143,34.99995 23.15301,0.3572 2.91579,-8.2576 -5.56371,-0.1633 9.13777,-26.5791 h 12.85714 l -11.07143,35 24.32904,0.2525 3.00508,-8.2729 -5.81626,-0.1939 11.69643,-37.14285 -4.64286,-7.5 h -14.64285 l -5.71429,5.71429 h -5.71429 l -6.07142,-6.07143 h -12.5 l -5.35715,5.35714 h -6.07143 l -6.07142,-5.71428 z"
   id="path3670"
   sodipodi:nodetypes="cccccccccccccccccccccccccccccc" />&#10;  </g><g
   inkscape:label="Vimium Clipper"
   id="g20"
   style="display:none;fill:none;stroke-width:4.60247;stroke-dasharray:none"
   transform="matrix(2.0516424,0,0,2.0516424,-16.559589,-1631.2282)">&#10;    <!-- <path
       style="fill:#19953f;fill-opacity:1;stroke:#000000;stroke-width:5;stroke-linecap:butt;stroke-linejoin:miter;stroke-miterlimit:4;stroke-opacity:1;stroke-dasharray:none"
       d="M 128.02596,805.31213 8.0259779,926.7407 127.31168,1046.0264 l 120,-120.71427 -119.28572,-120 z"
       id="path2890" /> -->&#10;    <path
   style="fill:none;fill-opacity:1;stroke:#ffffff;stroke-width:4.60247;stroke-linecap:butt;stroke-linejoin:miter;stroke-miterlimit:4;stroke-dasharray:none;stroke-opacity:1"
   d="m 26.24294,816.92274 -5,5 v 19.28572 l 5.446429,5.26785 7.232142,0.17858 0.178571,168.12501 7.142857,7.1429 H 63.385797 L 240.52865,841.92274 v -18.57143 l -5,-5 -80,-0.71428 -5,7.14285 v 15.71429 l 5,6.42857 h 6.42857 l -62.142855,60.00001 0.625005,-59.73215 7.14285,-10e-6 5.80357,-5.98214 v -15.71429 l -6.42857,-7.14286 -80.71428,-1.42857 z"
   id="path17"
   sodipodi:nodetypes="cccccccccccccccccccccccc" />&#10;    <path
   style="fill:none;fill-opacity:1;stroke:#ffffff;stroke-width:4.60247;stroke-linecap:butt;stroke-linejoin:miter;stroke-miterlimit:4;stroke-dasharray:none;stroke-opacity:1"
   d="m 136.90826,933.24978 4.28572,-3.57143 12.14285,0.35715 3.92857,3.92857 -4.28571,12.14286 -3.57143,3.21428 -12.64794,-0.14794 -3.42349,-4.13777 z"
   id="path18"
   sodipodi:nodetypes="ccccccccc" />&#10;    <path
   style="fill:none;fill-opacity:1;stroke:#ffffff;stroke-width:4.60247;stroke-linecap:butt;stroke-linejoin:miter;stroke-miterlimit:4;stroke-dasharray:none;stroke-opacity:1"
   d="m 121.90826,956.10693 28.57143,0.35714 -15,45.00003 h 5.35714 l -3.21428,8.9285 -26.78572,-0.3571 14.64286,-43.21429 -7.14286,0.35714 z"
   id="path19" />&#10;    <path
   style="display:inline;fill:none;fill-opacity:1;stroke:#ffffff;stroke-width:4.60247;stroke-linecap:butt;stroke-linejoin:miter;stroke-miterlimit:4;stroke-dasharray:none;stroke-opacity:1"
   d="m 157.2654,956.46407 -3.71936,9.68618 h 6.82905 l -15.25254,44.24235 h 23.57143 l 3.40554,-8.7193 -6.11475,-0.4005 8.42349,-26.2373 15,-0.35715 -11.07143,34.99995 23.15301,0.3572 2.91579,-8.2576 -5.56371,-0.1633 9.13777,-26.5791 h 12.85714 l -11.07143,35 24.32904,0.2525 3.00508,-8.2729 -5.81626,-0.1939 11.69643,-37.14285 -4.64286,-7.5 h -14.64285 l -5.71429,5.71429 h -5.71429 l -6.07142,-6.07143 h -12.5 l -5.35715,5.35714 h -6.07143 l -6.07142,-5.71428 z"
   id="path20"
   sodipodi:nodetypes="cccccccccccccccccccccccccccccc" />&#10;  </g>&#10;&#10;</svg>
