<?xml version="1.0" encoding="UTF-8" standalone="no"?>
<!-- Uploaded to: SVG Repo, www.svgrepo.com, Generator: SVG Repo Mixer Tools -->

<svg
   fill="currentColor"
   height="800px"
   width="800px"
   version="1.1"
   id="Capa_1"
   viewBox="0 0 242.667 242.667"
   xml:space="preserve"
   sodipodi:docname="wikipedia.svg"
   inkscape:version="1.3 (0e150ed6c4, 2023-07-21)"
   xmlns:inkscape="http://www.inkscape.org/namespaces/inkscape"
   xmlns:sodipodi="http://sodipodi.sourceforge.net/DTD/sodipodi-0.dtd"
   xmlns="http://www.w3.org/2000/svg"
   xmlns:svg="http://www.w3.org/2000/svg"><defs
   id="defs1"><inkscape:path-effect
     effect="fillet_chamfer"
     id="path-effect1"
     is_visible="true"
     lpeversion="1"
     nodesatellites_param="F,0,0,1,0,27.848501,0,1 @ F,0,0,1,0,28.743951,0,1 @ F,0,0,1,0,28.146984,0,1 @ F,0,0,1,0,30.236368,0,1 | F,0,0,1,0,0,0,1 @ F,0,0,1,0,0,0,1 @ F,0,0,1,0,0,0,1 @ F,0,0,1,0,0,0,1 @ F,0,0,1,0,0,0,1 @ F,0,0,1,0,0,0,1 @ F,0,0,1,0,0,0,1 @ F,0,0,1,0,0,0,1 @ F,0,0,1,0,0,0,1 @ F,0,0,1,0,0,0,1 @ F,0,0,1,0,0,0,1 @ F,0,0,1,0,0,0,1 @ F,0,0,1,0,0,0,1 @ F,0,0,1,0,0,0,1 @ F,0,0,1,0,0,0,1 @ F,0,0,1,0,0,0,1 @ F,0,0,1,0,0,0,1 @ F,0,0,1,0,0,0,1 @ F,0,0,1,0,0,0,1 @ F,0,0,1,0,0,0,1 @ F,0,0,1,0,0,0,1 @ F,0,0,1,0,0,0,1 @ F,0,0,1,0,0,0,1 @ F,0,0,1,0,0,0,1 @ F,0,0,1,0,0,0,1 @ F,0,0,1,0,0,0,1 @ F,0,0,1,0,0,0,1 @ F,0,0,1,0,0,0,1 @ F,0,0,1,0,0,0,1 @ F,0,0,1,0,0,0,1 @ F,0,0,1,0,0,0,1 @ F,0,0,1,0,0,0,1 @ F,0,0,1,0,0,0,1 @ F,0,0,1,0,0,0,1 @ F,0,0,1,0,0,0,1 @ F,0,0,1,0,0,0,1 @ F,0,0,1,0,0,0,1 @ F,0,0,1,0,0,0,1 @ F,0,0,1,0,0,0,1 @ F,0,0,1,0,0,0,1 @ F,0,0,1,0,0,0,1 @ F,0,0,1,0,0,0,1 @ F,0,0,1,0,0,0,1 @ F,0,0,1,0,0,0,1 @ F,0,0,1,0,0,0,1 @ F,0,0,1,0,0,0,1 @ F,0,0,1,0,0,0,1 @ F,0,0,1,0,0,0,1"
     radius="0"
     unit="px"
     method="auto"
     mode="F"
     chamfer_steps="1"
     flexible="false"
     use_knot_distance="true"
     apply_no_radius="true"
     apply_with_radius="true"
     only_selected="false"
     hide_knots="false" /></defs><sodipodi:namedview
   id="namedview1"
   pagecolor="#ffffff"
   bordercolor="#currentColor"
   borderopacity="0.25"
   inkscape:showpageshadow="2"
   inkscape:pageopacity="0.0"
   inkscape:pagecheckerboard="0"
   inkscape:deskcolor="#d1d1d1"
   inkscape:zoom="0.35929863"
   inkscape:cx="1184.2517"
   inkscape:cy="811.30284"
   inkscape:window-width="1920"
   inkscape:window-height="1009"
   inkscape:window-x="-8"
   inkscape:window-y="-8"
   inkscape:window-maximized="1"
   inkscape:current-layer="Capa_1" />&#10;<path
   d="M 0,27.848501 V 213.92305 A 28.743951,28.743951 45 0 0 28.743951,242.667 l 185.776069,0 A 28.146984,28.146984 135 0 0 242.667,214.52002 l 0,-184.283652 A 30.236368,30.236368 45 0 0 212.43063,0 H 27.848501 A 27.848501,27.848501 135 0 0 0,27.848501 Z M 211.542,58.694 c 0,1.1 -0.892,1.992 -1.992,1.992 h -5.575 c -2.033,0 -3.863,1.23 -4.63,3.113 L 148.477,188.608 122.857,131.097 95.445,188.608 42.983,63.75 c -0.78,-1.856 -2.597,-3.063 -4.61,-3.063 h -5.256 c -1.1,0 -1.992,-0.892 -1.992,-1.992 v -4.637 h 45.328 l -0.127,4.691 c -0.029,1.079 -0.912,1.939 -1.992,1.939 h -7.586 c -2.823,0 -4.758,2.845 -3.72,5.47 L 99.86,159.333 118.488,118.96 94.948,63.726 c -0.786,-1.843 -2.596,-3.04 -4.6,-3.04 h -3.662 c -1.1,0 -1.992,-0.892 -1.992,-1.992 v -4.637 h 34.041 v 4.637 c 0,1.1 -0.892,1.992 -1.992,1.992 -2.873,0 -4.809,2.938 -3.676,5.578 l 13.91,32.405 14.203,-32.375 c 1.159,-2.643 -0.777,-5.607 -3.663,-5.607 h -5.322 c -1.1,0 -1.992,-0.892 -1.992,-1.992 v -4.637 h 35.653 v 4.637 c 0,1.1 -0.892,1.992 -1.992,1.992 h -5.934 c -1.941,0 -3.707,1.124 -4.529,2.882 l -21.943,46.925 20.488,48.145 35.85,-92.526 c 0.999,-2.618 -0.935,-5.425 -3.737,-5.425 h -8.863 c -1.1,0 -1.992,-0.892 -1.992,-1.992 v -4.637 h 38.341 v 4.635 z"
   id="path1"
   sodipodi:nodetypes="ccccccsscccccssscccssccccsssccsscccsssccsssccccssscccc"
   inkscape:path-effect="#path-effect1"
   inkscape:original-d="M 0,0 V 242.667 H 242.667 V 0 Z m 211.542,58.694 c 0,1.1 -0.892,1.992 -1.992,1.992 h -5.575 c -2.033,0 -3.863,1.23 -4.63,3.113 L 148.477,188.608 122.857,131.097 95.445,188.608 42.983,63.75 c -0.78,-1.856 -2.597,-3.063 -4.61,-3.063 h -5.256 c -1.1,0 -1.992,-0.892 -1.992,-1.992 v -4.637 h 45.328 l -0.127,4.691 c -0.029,1.079 -0.912,1.939 -1.992,1.939 h -7.586 c -2.823,0 -4.758,2.845 -3.72,5.47 L 99.86,159.333 118.488,118.96 94.948,63.726 c -0.786,-1.843 -2.596,-3.04 -4.6,-3.04 h -3.662 c -1.1,0 -1.992,-0.892 -1.992,-1.992 v -4.637 h 34.041 v 4.637 c 0,1.1 -0.892,1.992 -1.992,1.992 -2.873,0 -4.809,2.938 -3.676,5.578 l 13.91,32.405 14.203,-32.375 c 1.159,-2.643 -0.777,-5.607 -3.663,-5.607 h -5.322 c -1.1,0 -1.992,-0.892 -1.992,-1.992 v -4.637 h 35.653 v 4.637 c 0,1.1 -0.892,1.992 -1.992,1.992 h -5.934 c -1.941,0 -3.707,1.124 -4.529,2.882 l -21.943,46.925 20.488,48.145 35.85,-92.526 c 0.999,-2.618 -0.935,-5.425 -3.737,-5.425 h -8.863 c -1.1,0 -1.992,-0.892 -1.992,-1.992 v -4.637 h 38.341 v 4.635 z" />&#10;</svg>
