<svg version="1.1" xmlns="http://www.w3.org/2000/svg" viewBox="0 0 10020 646.5875244140625" width="10020" height="646.5875244140625">
  <!-- svg-source:excalidraw -->
  
  <defs>
    <style>
      @font-face {
        font-family: "Virgil";
        src: url("https://excalidraw.com/Virgil.woff2");
      }
      @font-face {
        font-family: "Cascadia";
        src: url("https://excalidraw.com/Cascadia.woff2");
      }
    </style>
  </defs>
  <rect x="0" y="0" width="10020" height="646.5875244140625" fill="#fff0"></rect><g stroke-linecap="round" transform="translate(10 10) rotate(0 5000 0.5)"><path d="M-0.52 -0.26 C3022.65 -30.2, 6044.59 -29.2, 9999.32 0.22 M0.38 -0.31 C3948.03 -0.44, 7895.41 0.2, 9999.95 0.08 M10000.08 -0.06 C10000.09 0.27, 10000.05 0.48, 10000.09 0.92 M9999.97 0.01 C9999.95 0.33, 9999.98 0.72, 10000 0.99 M10000.22 1.51 C7095.77 35.76, 4193.15 34.95, -0.25 0.75 M10000.01 1.13 C7827.97 2.74, 5656.23 3.35, -0.33 0.84 M-0.04 1.01 C0 0.63, -0.06 0.15, 0.05 -0.03 M-0.04 0.95 C-0.04 0.73, -0.03 0.59, -0.05 -0.02" stroke="transparent" stroke-width="1" fill="none"></path></g><g transform="translate(1024.4000244140625 554.1875) rotate(0 13.999969482421875 40.80000305175781)" stroke="none"><path fill="#d9480f" d="M 1.46,-1.46 Q 1.46,-1.46 4.15,1.36 6.84,4.19 9.57,7.03 12.30,9.87 15.72,13.14 19.14,16.41 21.96,18.96 24.78,21.51 26.44,23.07 28.11,24.64 29.05,25.14 29.99,25.65 31.03,26.59 32.07,27.54 34.31,27.81 36.55,28.07 39.76,27.99 42.97,27.91 47.71,27.01 52.45,26.11 56.83,25.29 61.21,24.46 63.56,24.13 65.92,23.79 67.18,23.53 68.44,23.27 69.81,24.05 71.18,24.84 71.45,26.11 71.71,27.38 71.21,29.23 70.71,31.08 69.18,33.74 67.66,36.39 63.71,41.23 59.76,46.07 54.10,51.14 48.44,56.20 39.03,61.39 29.61,66.58 22.14,69.68 14.68,72.78 9.42,74.56 4.15,76.33 -1.11,77.55 -6.39,78.76 -10.04,79.28 -13.69,79.79 -16.41,80.01 -19.13,80.23 -21.38,80.54 -23.63,80.85 -25.32,81.08 -27.01,81.30 -28.56,81.65 -30.10,81.99 -31.30,82.22 -32.50,82.45 -33.81,82.78 -35.13,83.11 -36.51,83.31 -37.90,83.50 -39.90,83.63 -41.91,83.76 -42.26,83.71 -42.61,83.67 -42.92,83.51 -43.24,83.36 -43.49,83.11 -43.74,82.86 -43.90,82.55 -44.06,82.23 -44.11,81.88 -44.16,81.53 -44.09,81.19 -44.03,80.84 -43.86,80.54 -43.69,80.23 -43.42,79.99 -43.16,79.75 -42.84,79.61 -42.52,79.47 -42.17,79.44 -41.82,79.41 -41.47,79.49 -41.13,79.58 -40.84,79.77 -40.54,79.95 -40.32,80.23 -40.09,80.50 -39.97,80.83 -39.85,81.16 -39.83,81.51 -39.82,81.86 -39.92,82.20 -40.03,82.54 -40.23,82.82 -40.43,83.11 -40.72,83.32 -41.00,83.53 -41.34,83.63 -41.68,83.74 -42.03,83.73 -42.38,83.72 -42.71,83.60 -43.04,83.48 -43.32,83.26 -43.59,83.04 -43.78,82.75 -43.98,82.45 -44.06,82.11 -44.15,81.77 -44.12,81.42 -44.10,81.07 -43.96,80.74 -43.82,80.42 -43.59,80.16 -43.35,79.89 -43.05,79.72 -42.74,79.54 -42.40,79.47 -42.05,79.41 -42.05,79.41 -42.05,79.41 -40.17,79.37 -38.28,79.33 -37.09,79.29 -35.90,79.25 -34.39,79.01 -32.89,78.78 -31.78,78.76 -30.68,78.74 -28.97,78.51 -27.26,78.28 -25.63,78.23 -24.00,78.18 -21.68,77.85 -19.35,77.52 -16.72,77.29 -14.08,77.07 -10.55,76.55 -7.02,76.04 -1.89,74.82 3.23,73.61 8.38,71.83 13.53,70.06 20.83,66.97 28.12,63.88 37.20,58.83 46.27,53.78 51.66,48.84 57.04,43.89 60.68,39.24 64.31,34.58 65.49,32.22 66.66,29.87 67.71,28.33 68.76,26.80 67.60,26.85 66.43,26.91 64.15,27.33 61.88,27.75 57.53,28.71 53.18,29.66 48.21,30.78 43.23,31.89 39.82,32.22 36.41,32.55 34.33,32.52 32.25,32.50 30.69,31.42 29.14,30.33 28.58,29.37 28.02,28.41 27.07,27.61 26.13,26.81 24.44,25.30 22.75,23.80 19.85,21.28 16.95,18.76 13.41,15.53 9.87,12.30 7.03,9.57 4.19,6.84 1.36,4.15 -1.46,1.46 -1.61,1.26 -1.77,1.07 -1.87,0.84 -1.97,0.61 -2.02,0.37 -2.06,0.12 -2.05,-0.12 -2.03,-0.37 -1.96,-0.61 -1.88,-0.84 -1.75,-1.06 -1.62,-1.27 -1.45,-1.45 -1.27,-1.62 -1.06,-1.75 -0.84,-1.88 -0.61,-1.96 -0.37,-2.03 -0.12,-2.05 0.12,-2.06 0.37,-2.02 0.61,-1.97 0.84,-1.87 1.07,-1.77 1.26,-1.61 1.46,-1.46 1.46,-1.46 L 1.46,-1.46 Z"></path></g><g transform="translate(942.9000244140625 590.9874877929688) rotate(0 -108 22.800018310546875)" stroke="none"><path fill="#d9480f" d="M 0.69,1.44 Q 0.69,1.44 -4.61,3.93 -9.92,6.43 -20.49,10.94 -31.05,15.45 -45.71,20.37 -60.37,25.28 -76.72,30.12 -93.07,34.96 -104.17,37.94 -115.26,40.91 -122.54,42.41 -129.82,43.91 -135.70,44.78 -141.57,45.64 -145.09,45.55 -148.61,45.46 -150.72,44.95 -152.83,44.43 -155.52,41.75 -158.21,39.06 -161.15,34.67 -164.08,30.29 -167.81,25.03 -171.54,19.78 -175.10,16.73 -178.65,13.68 -182.40,11.49 -186.16,9.29 -190.17,8.16 -194.19,7.03 -197.00,6.78 -199.80,6.52 -202.09,6.63 -204.38,6.74 -206.12,7.45 -207.85,8.16 -209.35,8.79 -210.84,9.43 -212.51,10.44 -214.18,11.44 -214.35,11.65 -214.53,11.86 -214.76,12.01 -214.99,12.15 -215.26,12.21 -215.53,12.28 -215.80,12.25 -216.07,12.22 -216.32,12.11 -216.57,12.00 -216.77,11.81 -216.97,11.63 -217.11,11.39 -217.24,11.15 -217.28,10.88 -217.33,10.61 -217.29,10.34 -217.25,10.07 -217.12,9.82 -217.00,9.58 -216.80,9.39 -216.61,9.20 -216.36,9.08 -216.11,8.96 -215.84,8.93 -215.57,8.90 -215.30,8.95 -215.03,9.01 -214.79,9.15 -214.56,9.28 -214.38,9.49 -214.20,9.70 -214.09,9.95 -213.99,10.20 -213.97,10.48 -213.95,10.75 -214.02,11.02 -214.09,11.28 -214.25,11.51 -214.40,11.74 -214.61,11.91 -214.83,12.07 -215.09,12.16 -215.35,12.25 -215.62,12.26 -215.89,12.26 -216.15,12.18 -216.41,12.09 -216.63,11.93 -216.85,11.77 -217.01,11.54 -217.17,11.32 -217.24,11.05 -217.32,10.79 -217.31,10.52 -217.30,10.24 -217.20,9.99 -217.10,9.73 -217.10,9.73 -217.10,9.73 -214.49,8.14 -211.88,6.55 -210.34,6.10 -208.81,5.65 -206.68,4.88 -204.54,4.11 -202.05,4.00 -199.55,3.89 -196.51,4.18 -193.47,4.48 -189.15,5.73 -184.83,6.99 -180.87,9.32 -176.91,11.65 -173.14,14.93 -169.36,18.20 -165.59,23.49 -161.83,28.78 -159.02,32.97 -156.22,37.16 -154.08,39.50 -151.93,41.83 -150.23,42.32 -148.52,42.80 -145.24,42.89 -141.96,42.99 -136.17,42.12 -130.37,41.26 -123.17,39.76 -115.98,38.26 -104.92,35.28 -93.86,32.29 -77.57,27.44 -61.27,22.58 -46.74,17.67 -32.21,12.76 -21.72,8.22 -11.23,3.68 -5.96,1.12 -0.69,-1.44 -0.50,-1.50 -0.32,-1.56 -0.13,-1.58 0.05,-1.59 0.24,-1.56 0.44,-1.53 0.61,-1.46 0.79,-1.38 0.95,-1.27 1.10,-1.15 1.22,-1.00 1.34,-0.85 1.43,-0.68 1.51,-0.51 1.55,-0.32 1.59,-0.13 1.58,0.05 1.57,0.25 1.52,0.43 1.47,0.62 1.37,0.78 1.28,0.95 1.14,1.09 1.01,1.23 0.85,1.33 0.69,1.44 0.69,1.44 L 0.69,1.44 Z"></path></g><g transform="translate(842.1000366210938 535.7875061035156) rotate(0 1.5999755859375 4.79998779296875)" stroke="none"><path fill="#d9480f" d="M 2.49,0 Q 2.49,0 2.50,1.37 2.50,2.74 3.16,4.01 3.82,5.28 4.52,6.53 5.22,7.78 5.40,8.18 5.58,8.57 5.63,9.01 5.67,9.44 5.58,9.87 5.48,10.29 5.26,10.66 5.03,11.03 4.70,11.32 4.37,11.60 3.96,11.76 3.56,11.92 3.12,11.94 2.69,11.96 2.27,11.84 1.85,11.72 1.49,11.48 1.13,11.23 0.87,10.89 0.61,10.54 0.47,10.13 0.33,9.71 0.33,9.28 0.33,8.84 0.47,8.43 0.61,8.02 0.88,7.67 1.14,7.33 1.50,7.08 1.87,6.84 2.29,6.73 2.71,6.61 3.14,6.64 3.57,6.66 3.98,6.82 4.38,6.99 4.71,7.27 5.04,7.55 5.27,7.93 5.49,8.30 5.58,8.72 5.67,9.15 5.63,9.58 5.58,10.02 5.39,10.41 5.21,10.80 4.91,11.12 4.61,11.43 4.22,11.64 3.84,11.84 3.41,11.91 2.98,11.98 2.55,11.91 2.12,11.83 1.74,11.63 1.35,11.42 1.05,11.11 0.75,10.79 0.76,10.79 0.76,10.79 0.04,9.41 -0.67,8.04 -1.35,6.74 -2.03,5.45 -2.27,4.11 -2.50,2.77 -2.50,1.38 -2.49,0 -2.46,-0.29 -2.42,-0.59 -2.31,-0.87 -2.21,-1.16 -2.03,-1.40 -1.86,-1.65 -1.64,-1.85 -1.41,-2.05 -1.15,-2.19 -0.88,-2.33 -0.59,-2.40 -0.30,-2.47 0.00,-2.47 0.30,-2.47 0.59,-2.40 0.88,-2.33 1.15,-2.19 1.41,-2.05 1.64,-1.85 1.86,-1.65 2.03,-1.40 2.21,-1.15 2.31,-0.87 2.42,-0.59 2.46,-0.29 2.49,0.00 2.49,0.00 L 2.49,0 Z"></path></g><g transform="translate(861.2999877929688 535.7875061035156) rotate(0 1.20001220703125 2.79998779296875)" stroke="none"><path fill="#d9480f" d="M 2.01,-1.34 Q 2.01,-1.34 2.52,-0.65 3.03,0.02 3.43,1.12 3.84,2.22 1.14,2.57 -1.56,2.92 -1.66,2.52 -1.76,2.11 -1.73,1.69 -1.70,1.27 -1.53,0.88 -1.37,0.49 -1.09,0.18 -0.81,-0.12 -0.45,-0.33 -0.08,-0.54 0.32,-0.62 0.74,-0.70 1.15,-0.65 1.57,-0.60 1.95,-0.41 2.33,-0.22 2.63,0.06 2.92,0.36 3.11,0.73 3.30,1.11 3.36,1.53 3.42,1.94 3.34,2.36 3.26,2.77 3.06,3.14 2.85,3.51 2.54,3.79 2.23,4.07 1.84,4.24 1.46,4.41 1.04,4.44 0.62,4.48 0.21,4.38 -0.19,4.28 -0.54,4.05 -0.90,3.83 -1.17,3.50 -1.43,3.17 -1.58,2.78 -1.72,2.39 -1.74,1.97 -1.75,1.55 -1.63,1.14 -1.51,0.74 -1.26,0.40 -1.02,0.05 -0.68,-0.18 -0.34,-0.43 0.05,-0.56 0.46,-0.68 0.88,-0.67 1.30,-0.66 1.69,-0.52 2.09,-0.37 2.42,-0.11 2.75,0.14 2.98,0.49 3.20,0.85 3.20,0.85 3.20,0.85 1.00,1.79 -1.19,2.73 -1.60,2.03 -2.01,1.34 -2.14,1.08 -2.27,0.82 -2.33,0.53 -2.40,0.25 -2.39,-0.03 -2.39,-0.33 -2.31,-0.61 -2.24,-0.89 -2.10,-1.14 -1.96,-1.40 -1.76,-1.61 -1.57,-1.83 -1.33,-1.99 -1.08,-2.15 -0.81,-2.25 -0.54,-2.35 -0.25,-2.38 0.03,-2.41 0.32,-2.37 0.61,-2.33 0.88,-2.22 1.15,-2.12 1.39,-1.95 1.63,-1.78 1.82,-1.56 2.01,-1.34 2.01,-1.34 L 2.01,-1.34 Z"></path></g><g transform="translate(830.9000244140625 559.7875061035156) rotate(0 24 5.5999908447265625)" stroke="none"><path fill="#d9480f" d="M 1.47,-0.73 Q 1.47,-0.73 2.22,0.61 2.97,1.95 3.88,3.05 4.80,4.15 7.04,5.71 9.28,7.27 11.52,8.18 13.77,9.09 16.46,9.49 19.15,9.88 22.74,9.62 26.33,9.36 29.37,8.37 32.41,7.38 35.28,5.85 38.14,4.32 40.03,3.01 41.92,1.69 43.18,0.78 44.44,-0.12 45.69,-1.11 46.93,-2.11 47.18,-2.19 47.44,-2.28 47.71,-2.28 47.98,-2.28 48.23,-2.19 48.48,-2.11 48.70,-1.94 48.91,-1.78 49.06,-1.56 49.21,-1.34 49.28,-1.08 49.35,-0.82 49.34,-0.55 49.32,-0.28 49.22,-0.03 49.12,0.21 48.95,0.41 48.78,0.62 48.55,0.75 48.31,0.89 48.05,0.95 47.79,1.01 47.52,0.98 47.26,0.95 47.01,0.83 46.77,0.72 46.58,0.53 46.38,0.35 46.26,0.11 46.13,-0.12 46.09,-0.38 46.04,-0.65 46.09,-0.91 46.13,-1.18 46.26,-1.41 46.39,-1.65 46.58,-1.83 46.78,-2.02 47.02,-2.13 47.26,-2.24 47.53,-2.27 47.80,-2.30 48.06,-2.24 48.32,-2.18 48.55,-2.04 48.78,-1.90 48.95,-1.70 49.13,-1.49 49.23,-1.24 49.33,-0.99 49.34,-0.73 49.35,-0.46 49.28,-0.20 49.21,0.05 49.06,0.27 48.91,0.49 48.69,0.65 48.48,0.82 48.48,0.82 48.48,0.82 47.31,1.67 46.13,2.52 44.81,3.23 43.50,3.94 41.48,5.36 39.46,6.78 36.38,8.44 33.30,10.09 29.94,11.19 26.57,12.29 22.65,12.60 18.74,12.91 15.68,12.50 12.62,12.09 9.99,11.11 7.36,10.12 4.62,8.29 1.88,6.47 0.83,5.01 -0.21,3.56 -0.84,2.14 -1.47,0.73 -1.54,0.54 -1.60,0.36 -1.62,0.16 -1.64,-0.03 -1.62,-0.22 -1.59,-0.42 -1.51,-0.61 -1.44,-0.79 -1.32,-0.95 -1.21,-1.11 -1.06,-1.24 -0.90,-1.37 -0.73,-1.46 -0.55,-1.55 -0.36,-1.59 -0.16,-1.63 0.03,-1.63 0.23,-1.63 0.42,-1.58 0.61,-1.52 0.78,-1.43 0.96,-1.33 1.10,-1.20 1.25,-1.06 1.36,-0.90 1.47,-0.73 1.47,-0.73 L 1.47,-0.73 Z"></path></g></svg>