<?xml version="1.0" encoding="UTF-8" standalone="no"?>
<!-- Created with Inkscape (http://www.inkscape.org/) -->

<svg
   width="121.31577mm"
   height="121.31577mm"
   viewBox="0 0 121.31577 121.31577"
   version="1.1"
   id="svg1"
   xml:space="preserve"
   inkscape:version="1.3 (0e150ed6c4, 2023-07-21)"
   sodipodi:docname="mermaidjs.svg"
   xmlns:inkscape="http://www.inkscape.org/namespaces/inkscape"
   xmlns:sodipodi="http://sodipodi.sourceforge.net/DTD/sodipodi-0.dtd"
   xmlns="http://www.w3.org/2000/svg"
   xmlns:svg="http://www.w3.org/2000/svg"><sodipodi:namedview
     id="namedview1"
     pagecolor="#ffffff"
     bordercolor="#000000"
     borderopacity="0.25"
     inkscape:showpageshadow="2"
     inkscape:pageopacity="0.0"
     inkscape:pagecheckerboard="0"
     inkscape:deskcolor="#d1d1d1"
     inkscape:document-units="mm"
     inkscape:zoom="1.3843855"
     inkscape:cx="221.39787"
     inkscape:cy="170.11157"
     inkscape:window-width="1920"
     inkscape:window-height="991"
     inkscape:window-x="-9"
     inkscape:window-y="-9"
     inkscape:window-maximized="1"
     inkscape:current-layer="layer1" /><defs
     id="defs1"><inkscape:path-effect
       effect="powerclip"
       id="path-effect4"
       is_visible="true"
       lpeversion="1"
       inverse="true"
       flatten="false"
       hide_clip="false"
       message="Use fill-rule evenodd on &lt;b&gt;fill and stroke&lt;/b&gt; dialog if no flatten result after convert clip to paths." /><inkscape:path-effect
       effect="bspline"
       id="path-effect3"
       is_visible="true"
       lpeversion="1.3"
       weight="33.333333"
       steps="2"
       helper_size="0"
       apply_no_weight="true"
       apply_with_weight="true"
       only_selected="false"
       uniform="false" /><inkscape:path-effect
       effect="bspline"
       id="path-effect2"
       is_visible="true"
       lpeversion="1.3"
       weight="33.333333"
       steps="2"
       helper_size="0"
       apply_no_weight="true"
       apply_with_weight="true"
       only_selected="false"
       uniform="false" /><inkscape:path-effect
       effect="bspline"
       id="path-effect1"
       is_visible="true"
       lpeversion="1.3"
       weight="33.333333"
       steps="2"
       helper_size="0"
       apply_no_weight="true"
       apply_with_weight="true"
       only_selected="false"
       uniform="false" /><clipPath
       clipPathUnits="userSpaceOnUse"
       id="clipPath4"><path
         style="display:none;stroke:#000000;stroke-width:0.337;stroke-linecap:round"
         d="m 64.407336,115.24517 c 12.815125,0.0853 30.301014,5.58576 40.326254,26.94788 9.24311,-17.43271 22.23157,-27.1544 40.13513,-26.75676 0.23965,14.02515 -5.41825,26.87079 -20.4498,37.8417 -4.08511,4.39688 -6.36276,8.53555 -6.88031,12.42278 v 16.24517 H 91.928569 l 0.191122,-14.71621 c -0.441934,-3.82641 -1.600753,-6.93593 -3.057914,-9.74711 -8.847754,-12.86489 -22.542246,-11.92728 -24.654441,-42.23745 z"
         id="path4"
         sodipodi:nodetypes="cccccccccc" /><path
         id="lpe_path-effect4"
         style="stroke:#000000;stroke-width:0.337;stroke-linecap:round"
         class="powerclip"
         d="M 38.980155,82.746554 H 170.29592 V 214.06232 H 38.980155 Z m 25.427181,32.498616 c 2.112195,30.31017 15.806687,29.37256 24.654441,42.23745 1.457161,2.81118 2.61598,5.9207 3.057914,9.74711 l -0.191122,14.71621 h 25.610041 v -16.24517 c 0.51755,-3.88723 2.7952,-8.0259 6.88031,-12.42278 15.03155,-10.97091 20.68945,-23.81655 20.4498,-37.8417 -17.90356,-0.39764 -30.89202,9.32405 -40.13513,26.75676 C 94.70835,120.83093 77.222461,115.33047 64.407336,115.24517 Z" /></clipPath></defs><g
     inkscape:label="Layer 1"
     inkscape:groupmode="layer"
     id="layer1"
     transform="translate(-43.980155,-87.746554)"><path
       style="stroke:currentColor;stroke-width:0.337;stroke-linecap:round;fill:currentColor"
       id="rect1"
       width="120.97877"
       height="120.97877"
       x="44.148655"
       y="87.915054"
       rx="20"
       clip-path="url(#clipPath4)"
       inkscape:path-effect="#path-effect4"
       sodipodi:type="rect"
       d="m 64.148655,87.915054 h 80.978765 c 11.08,0 20,8.92 20,19.999996 v 80.97877 c 0,11.08 -8.92,20 -20,20 H 64.148655 c -11.08,0 -20,-8.92 -20,-20 v -80.97877 c 0,-11.079996 8.92,-19.999996 20,-19.999996 z" /></g></svg>
