<?xml version="1.0" encoding="UTF-8" standalone="no"?>
<svg enable-background="new 0 0 334.371 380.563" version="1.1" viewBox="0 0 14 16" xml:space="preserve" id="svg7"
  sodipodi:docname="pdf.svg" inkscape:version="1.3 (0e150ed6c4, 2023-07-21)"
  xmlns:inkscape="http://www.inkscape.org/namespaces/inkscape"
  xmlns:sodipodi="http://sodipodi.sourceforge.net/DTD/sodipodi-0.dtd" xmlns="http://www.w3.org/2000/svg"
  xmlns:svg="http://www.w3.org/2000/svg">
  <defs id="defs7">
    <inkscape:path-effect effect="powerclip" id="path-effect46" is_visible="true" lpeversion="1" inverse="true"
      flatten="false" hide_clip="false"
      message="Use fill-rule evenodd on &lt;b&gt;fill and stroke&lt;/b&gt; dialog if no flatten result after convert clip to paths." />
    <inkscape:path-effect effect="powerclip" id="path-effect44" is_visible="true" lpeversion="1" inverse="true"
      flatten="false" hide_clip="false"
      message="Use fill-rule evenodd on &lt;b&gt;fill and stroke&lt;/b&gt; dialog if no flatten result after convert clip to paths." />
    <inkscape:path-effect effect="powerclip" id="path-effect42" is_visible="true" lpeversion="1" inverse="true"
      flatten="false" hide_clip="false"
      message="Use fill-rule evenodd on &lt;b&gt;fill and stroke&lt;/b&gt; dialog if no flatten result after convert clip to paths." />
    <inkscape:path-effect effect="powerclip" id="path-effect35" is_visible="true" lpeversion="1" inverse="true"
      flatten="false" hide_clip="false"
      message="Use fill-rule evenodd on &lt;b&gt;fill and stroke&lt;/b&gt; dialog if no flatten result after convert clip to paths." />
    <filter id="mask-powermask-path-effect22_inverse" inkscape:label="filtermask-powermask-path-effect22"
      style="color-interpolation-filters:sRGB" height="100" width="100" x="-50" y="-50">
      <feColorMatrix id="mask-powermask-path-effect22_primitive1" values="1" type="saturate" result="fbSourceGraphic" />
      <feColorMatrix id="mask-powermask-path-effect22_primitive2" values="-1 0 0 0 1 0 -1 0 0 1 0 0 -1 0 1 0 0 0 1 0 "
        in="fbSourceGraphic" />
    </filter>
    <filter id="mask-powermask-path-effect26_inverse" inkscape:label="filtermask-powermask-path-effect26"
      style="color-interpolation-filters:sRGB" height="100" width="100" x="-50" y="-50">
      <feColorMatrix id="mask-powermask-path-effect26_primitive1" values="1" type="saturate" result="fbSourceGraphic" />
      <feColorMatrix id="mask-powermask-path-effect26_primitive2" values="-1 0 0 0 1 0 -1 0 0 1 0 0 -1 0 1 0 0 0 1 0 "
        in="fbSourceGraphic" />
    </filter>
    <filter id="mask-powermask-path-effect27_inverse" inkscape:label="filtermask-powermask-path-effect27"
      style="color-interpolation-filters:sRGB" height="100" width="100" x="-50" y="-50">
      <feColorMatrix id="mask-powermask-path-effect27_primitive1" values="1" type="saturate" result="fbSourceGraphic" />
      <feColorMatrix id="mask-powermask-path-effect27_primitive2" values="-1 0 0 0 1 0 -1 0 0 1 0 0 -1 0 1 0 0 0 1 0 "
        in="fbSourceGraphic" />
    </filter>
    <filter id="mask-powermask-path-effect28_inverse" inkscape:label="filtermask-powermask-path-effect28"
      style="color-interpolation-filters:sRGB" height="100" width="100" x="-50" y="-50">
      <feColorMatrix id="mask-powermask-path-effect28_primitive1" values="1" type="saturate" result="fbSourceGraphic" />
      <feColorMatrix id="mask-powermask-path-effect28_primitive2" values="-1 0 0 0 1 0 -1 0 0 1 0 0 -1 0 1 0 0 0 1 0 "
        in="fbSourceGraphic" />
    </filter>
    <filter id="mask-powermask-path-effect31_inverse" inkscape:label="filtermask-powermask-path-effect31"
      style="color-interpolation-filters:sRGB" height="100" width="100" x="-50" y="-50">
      <feColorMatrix id="mask-powermask-path-effect31_primitive1" values="1" type="saturate" result="fbSourceGraphic" />
      <feColorMatrix id="mask-powermask-path-effect31_primitive2" values="-1 0 0 0 1 0 -1 0 0 1 0 0 -1 0 1 0 0 0 1 0 "
        in="fbSourceGraphic" />
    </filter>
    <filter id="mask-powermask-path-effect33_inverse" inkscape:label="filtermask-powermask-path-effect33"
      style="color-interpolation-filters:sRGB" height="100" width="100" x="-50" y="-50">
      <feColorMatrix id="mask-powermask-path-effect33_primitive1" values="1" type="saturate" result="fbSourceGraphic" />
      <feColorMatrix id="mask-powermask-path-effect33_primitive2" values="-1 0 0 0 1 0 -1 0 0 1 0 0 -1 0 1 0 0 0 1 0 "
        in="fbSourceGraphic" />
    </filter>
    <filter id="mask-powermask-path-effect39_inverse" inkscape:label="filtermask-powermask-path-effect39"
      style="color-interpolation-filters:sRGB" height="100" width="100" x="-50" y="-50">
      <feColorMatrix id="mask-powermask-path-effect39_primitive1" values="1" type="saturate" result="fbSourceGraphic" />
      <feColorMatrix id="mask-powermask-path-effect39_primitive2" values="-1 0 0 0 1 0 -1 0 0 1 0 0 -1 0 1 0 0 0 1 0 "
        in="fbSourceGraphic" />
    </filter>
    <mask maskUnits="userSpaceOnUse" id="mask39">
      <g transform="translate(50.749488,268.52574)" fill="#000000" stroke-width="21.791" id="g41" style="display:block">
        <path
          d="M 9.216,0 V -83.2 H 39.68 q 6.784,0 12.928,1.408 6.144,1.28 10.752,4.608 4.608,3.2 7.296,8.576 2.816,5.248 2.816,13.056 0,7.68 -2.816,13.184 -2.688,5.504 -7.296,9.088 -4.608,3.456 -10.624,5.248 -6.016,1.664 -12.544,1.664 h -8.96 V 0 Z m 22.016,-43.776 h 7.936 q 6.528,0 9.6,-3.072 3.2,-3.072 3.2,-8.704 0,-5.632 -3.456,-7.936 -3.456,-2.304 -9.856,-2.304 h -7.424 z"
          id="path39" style="display:inline;fill:#ffffff;fill-opacity:1" />
        <path
          d="m 87.04,0 v -83.2 h 24.576 q 9.472,0 17.28,2.304 7.936,2.304 13.568,7.296 5.632,4.992 8.704,12.8 3.2,7.808 3.2,18.816 0,11.008 -3.072,18.944 -3.072,7.936 -8.704,13.056 -5.504,5.12 -13.184,7.552 Q 121.856,0 112.896,0 Z m 22.016,-17.664 h 1.28 q 4.48,0 8.448,-1.024 3.968,-1.152 6.784,-3.84 2.944,-2.688 4.608,-7.424 1.664,-4.736 1.664,-12.032 0,-7.296 -1.664,-11.904 -1.664,-4.608 -4.608,-7.168 -2.816,-2.56 -6.784,-3.456 -3.968,-1.024 -8.448,-1.024 h -1.28 z"
          id="path40" style="fill:#ffffff;fill-opacity:1" />
        <path d="m 169.22,0 v -83.2 h 54.272 v 18.432 h -32.256 v 15.872 h 27.648 v 18.432 H 191.236 V 0 Z" id="path41"
          style="fill:#ffffff;fill-opacity:1" />
      </g>
    </mask>
    <clipPath clipPathUnits="userSpaceOnUse" id="clipPath42">
      <rect style="display:none;fill:#ffffff;fill-opacity:1;stroke-width:104.598" id="rect42" width="259.54892"
        height="99.94854" x="38.370598" y="178.44623" d="M 38.370598,178.44623 H 297.91952 v 99.94854 H 38.370598 Z" />
      <path id="lpe_path-effect42" style="fill:#ffffff;fill-opacity:1;stroke-width:104.598" class="powerclip"
        d="m 38.793,10.983 h 256.85 v 358.66 H 38.793 Z m -0.422402,167.46323 v 99.94854 H 297.91952 v -99.94854 z" />
    </clipPath>
    <clipPath clipPathUnits="userSpaceOnUse" id="clipPath43">
      <rect style="display:none;fill:#ffffff;fill-opacity:1;stroke-width:104.598" id="rect44" width="256.05865"
        height="100.58314" x="40.591679" y="177.81165"
        d="M 40.591679,177.81165 H 296.65033 V 278.39478 H 40.591679 Z" />
      <path id="lpe_path-effect44" style="fill:#ffffff;fill-opacity:1;stroke-width:104.598" class="powerclip"
        d="M 46.791,18.99 H 287.65 V 361.65 H 46.791 Z M 40.591679,177.81165 V 278.39478 H 296.65033 V 177.81165 Z" />
    </clipPath>
    <clipPath clipPathUnits="userSpaceOnUse" id="clipPath45">
      <rect style="display:none;fill:#ffffff;fill-opacity:1;stroke-width:104.598" id="rect46" width="260.81812"
        height="100.26583" x="39.005192" y="177.81165"
        d="M 39.005192,177.81165 H 299.82331 V 278.07748 H 39.005192 Z" />
      <path id="lpe_path-effect46" style="fill:#ffffff;fill-opacity:1;stroke-width:104.598" class="powerclip"
        d="m 38.787,10.987 h 256.85 v 358.66 H 38.787 Z m 0.218192,166.82465 V 278.07748 H 299.82331 V 177.81165 Z" />
    </clipPath>
  </defs>
  <sodipodi:namedview id="namedview7" pagecolor="#ffffff" bordercolor="#000000" borderopacity="0.25"
    inkscape:showpageshadow="2" inkscape:pageopacity="0.0" inkscape:pagecheckerboard="true" inkscape:deskcolor="#d1d1d1"
    showgrid="false" inkscape:zoom="24.28125" inkscape:cx="-0.37065637" inkscape:cy="7.969112"
    inkscape:window-width="1920" inkscape:window-height="991" inkscape:window-x="-9" inkscape:window-y="-9"
    inkscape:window-maximized="1" inkscape:current-layer="g4" />&#10;&#10; <g
    transform="matrix(.04589 0 0 .04589 -.66877 -.73379)" id="g1">&#10; &#10;
    <polygon points="204.5,23.99 282.65,102.07 282.65,356.65 51.791,356.65 51.791,23.99 " fill="none"
      stroke-width="212.65" id="polygon1" clip-path="url(#clipPath43)" inkscape:path-effect="#path-effect44"
      d="M 51.791,356.65 V 23.99 H 204.5 l 78.15,78.08 v 254.58 z" style="display:inline" />
    <path
      d="m 201.19,31.99 73.46,73.393 v 243.26 H 59.79 V 31.983 h 141.4 m 6.623,-16 H 43.793 v 348.66 h 246.85 v -265.9 z"
      fill="currentColor" stroke-width="21.791" id="path1" style="display:inline" clip-path="url(#clipPath42)"
      inkscape:path-effect="#path-effect42"
      inkscape:original-d="m 201.19,31.99 73.46,73.393 v 243.26 H 59.79 V 31.983 h 141.4 m 6.623,-16 H 43.793 v 348.66 h 246.85 v -265.9 z" />
    &#10;
  </g>&#10; <g transform="matrix(.04589 0 0 .04589 -.66877 -.73379)" id="g2">&#10;
    <polygon
      points="280.9,100.33 282.65,102.07 282.65,356.65 51.791,356.65 51.791,23.99 204.5,23.99 206.31,25.8 206.31,100.33 "
      fill="none" stroke-width="212.65" id="polygon2" style="display:inline" />&#10;
    <path
      d="m 198.31,31.99 v 76.337 h 76.337 v 240.32 H 59.787 V 31.987 h 138.52 m -154.52,332.66 h 246.85 v -265.9 l -6.43,-6.424 H 214.3 V 22.481 l -6.493,-6.494 H 43.787 v 348.66"
      stroke-width="21.791" fill="currentColor" id="path2" sodipodi:nodetypes="cccccccccccccccc" style="display:inline"
      clip-path="url(#clipPath45)" inkscape:path-effect="#path-effect46"
      inkscape:original-d="m 198.31,31.99 v 76.337 h 76.337 v 240.32 H 59.787 V 31.987 h 138.52 m -154.52,332.66 h 246.85 v -265.9 l -6.43,-6.424 H 214.3 V 22.481 l -6.493,-6.494 H 43.787 v 348.66" />
    &#10;
  </g>&#10; <g transform="matrix(.04589 0 0 .04589 -.66877 -.73379)" stroke-width="21.791" id="g3">&#10;
    <polygon points="258.31 87.75 219.64 87.75 219.64 48.667 258.31 86.38" id="polygon3" />&#10;
    <path d="m227.64 67.646 12.41 12.104h-12.41v-12.104m-5.002-27.229h-10.998v55.333h54.666v-12.742z"
      fill="currentColor" id="path3" />&#10;
  </g>&#10; <g transform="matrix(.04589 0 0 .04589 -.66877 -.73379)" fill="currentColor" stroke-width="212.65" id="g4"
    clip-path="none" inkscape:label="g4">&#10;
    <path id="path5" mask="url(#mask39)" style="display:inline"
      d="M 311.89,284.49 H 22.544 V 167.68 l 14.747,-14.74 v 18.55 H 297.15 v -18.55 l 14.74,14.74 z" />&#10;
    <path
      d="m 303.65,168.63 1.747,1.747 v 107.62 H 29.047 v -107.62 l 1.747,-1.747 v 9.362 h 272.85 v -9.362 m -12.999,-31.385 v 27.747 H 43.785 v -27.747 l -27.747,27.747 v 126 h 302.35 v -126 z"
      id="path4" style="display:inline" inkscape:label="path4" />&#10;
  </g>&#10; &#10; &#10;&#10;
</svg>