<?xml version="1.0" encoding="iso-8859-1"?>
<!-- Uploaded to: SVG Repo, www.svgrepo.com, Generator: SVG Repo Mixer Tools -->
<svg fill="#000000" height="800px" width="800px" version="1.1" id="Capa_1" xmlns="http://www.w3.org/2000/svg" xmlns:xlink="http://www.w3.org/1999/xlink" 
	 viewBox="0 0 612 612" xml:space="preserve">
<g>
	<path d="M517.002,127.269c34.795-48.858,48.567-97.321,49.136-99.359c1.588-5.689,0.565-11.789-2.793-16.647
		c-3.36-4.86-8.703-7.972-14.587-8.499C528.185,0.93,508.54,0,490.369,0c-91.523,0-153.357,23.368-183.782,69.456
		c-31.759,48.104-18.893,105.348-8.956,134.088c-0.016,0.027-0.031,0.053-0.046,0.078c-6.111-4.977-12.544-8.849-18.563-11.7
		c-8.083-43.785-36.625-88.232-96.018-88.232c-35.876,0-80.007,16.408-131.173,48.769c-3.615,2.286-6.027,6.063-6.579,10.303
		c-0.554,4.242,0.808,8.511,3.715,11.649c2.623,2.831,65.198,69.347,147.254,69.347c20.353,0,40.183-4.142,59.18-12.339
		c4.999,1.786,19.32,8.008,23.498,21.693c-3.719,16.277-6.058,34.191-6.92,53.19H90.676c-12.338,0-22.338,10.001-22.338,22.338
		v23.308c0,12.338,10.001,22.337,22.338,22.337h15.216L137.81,592.89c1.602,10.974,11.012,19.11,22.103,19.11h286.694
		c11.091,0,20.501-8.136,22.103-19.11l31.911-218.604h15.22c12.338,0,22.338-10.001,22.338-22.337v-23.31
		c0-12.338-10.001-22.338-22.338-22.338H317.43c1.71-33.528,8.615-60.571,18.14-77.553
		C407.427,228.128,470.132,193.082,517.002,127.269z M83.253,167.056c39.467-22.953,72.967-34.572,99.751-34.572
		c36.966,0,54.318,23.243,62.463,45.171c-1.169-0.658-2.375-1.327-3.646-2.009c-12.044-6.528-28.857-13.734-46.45-17.672
		c-4.373-1.028-8.808-1.792-13.163-2.425c-2.18-0.31-4.362-0.507-6.493-0.758c-2.144-0.149-4.262-0.295-6.344-0.443
		c-2.082-0.047-4.127-0.095-6.129-0.14c-1.996,0.046-3.947,0.093-5.848,0.139c-3.794,0.232-7.348,0.503-10.606,0.975
		c-1.632,0.175-3.181,0.436-4.65,0.718c-1.467,0.272-2.857,0.496-4.154,0.766c-2.581,0.629-4.824,1.107-6.646,1.617
		c-3.613,1.077-5.678,1.694-5.678,1.694s2.138-0.171,5.881-0.472c1.865-0.118,4.142-0.12,6.723-0.197
		c1.296,0.007,2.676,0.077,4.122,0.113c1.444,0.029,2.96,0.093,4.539,0.257c3.157,0.206,6.548,0.667,10.099,1.194
		c1.763,0.332,3.575,0.673,5.427,1.023c1.825,0.432,3.69,0.875,5.587,1.323c1.867,0.538,3.764,1.081,5.688,1.633
		c1.896,0.645,3.819,1.236,5.726,1.938c3.81,1.413,7.625,2.935,11.339,4.69c14.93,6.852,28.318,16.354,37.485,24.19
		c4.61,3.897,8.196,7.367,10.575,9.8c0.37,0.377,0.7,0.722,1.012,1.048c-14.128,5.511-28.733,8.305-43.634,8.305
		C146.748,214.965,103.918,184.633,83.253,167.056z M339.763,91.36c22.604-34.242,73.277-51.604,150.604-51.604
		c9.277,0,18.986,0.263,29.049,0.78c-18.246,44.301-67.983,137.118-167.304,147.514c0.177-0.598,0.365-1.229,0.58-1.927
		c1.385-4.488,3.597-11.014,6.796-18.712c1.573-3.861,3.44-7.988,5.5-12.334c2.109-4.309,4.384-8.865,6.991-13.437
		c2.556-4.607,5.401-9.255,8.437-13.905c1.562-2.282,3.077-4.661,4.756-6.909l2.477-3.434l2.59-3.354
		c3.451-4.501,7.173-8.777,10.96-12.921c1.9-2.062,3.885-4.001,5.806-5.994c2.013-1.892,3.998-3.759,5.954-5.596
		c2.044-1.752,4.056-3.473,6.025-5.157c2.053-1.597,4.063-3.159,6.018-4.679c2.033-1.435,4.009-2.827,5.921-4.176
		c1.918-1.364,3.885-2.481,5.722-3.67c0.93-0.574,1.83-1.165,2.733-1.695c0.915-0.507,1.808-1.004,2.68-1.488
		c1.752-0.959,3.402-1.914,4.988-2.74c3.217-1.537,6.016-2.973,8.38-4.007c4.783-1.994,7.518-3.134,7.518-3.134
		s-2.924,0.549-8.043,1.509c-2.558,0.525-5.615,1.351-9.182,2.211c-1.763,0.489-3.613,1.088-5.587,1.683
		c-0.986,0.304-2,0.613-3.035,0.932c-1.028,0.343-2.06,0.742-3.126,1.125c-2.113,0.804-4.386,1.531-6.636,2.503
		c-2.26,0.968-4.599,1.969-7.004,2.999c-2.363,1.145-4.789,2.321-7.266,3.524c-2.432,1.322-4.913,2.671-7.438,4.043
		c-2.466,1.495-4.973,3.013-7.509,4.55c-2.461,1.653-5.013,3.274-7.494,5.031c-4.946,3.527-9.908,7.266-14.629,11.291
		c-4.798,3.958-9.324,8.22-13.729,12.502c-4.355,4.322-8.524,8.717-12.38,13.136c-3.907,4.386-7.45,8.818-10.785,13.069
		c-3.279,4.286-6.315,8.411-8.982,12.323c-1.054,1.528-2.045,3.006-3.001,4.453C324.619,133.264,327.418,110.06,339.763,91.36z"/>
</g>
</svg>