<svg xmlns="http://www.w3.org/2000/svg" xmlns:xlink="http://www.w3.org/1999/xlink" width="180" height="130"
    contentScriptType="text/ecmascript" contentStyleType="text/css" preserveAspectRatio="xMidYMid meet" version="1.0"
    zoomAndPan="magnify">
    <style xml:space="preserve" type="text/css">
        #text path {
            fill: currentColor;
        }
    </style>
    <!-- <defs>
        <filter id="contrastglow" filterUnits="objectBoundingBox">
            <feComponentTransfer in="SourceAlpha" out="SourceGreen">
                <feFuncB tableValues="1" type="discrete" />
                <feFuncR tableValues="1" type="discrete" />
                <feFuncG tableValues="1" type="discrete" />
            </feComponentTransfer>
            <feGaussianBlur result="blur" stdDeviation="2" />
        </filter>
        <g id="text">
            <g>
                <path
                    d="M284.055 33.535h-5.445l-4.18 22.99c-.825 4.565-3.63 8.855-8.745 8.855-3.905 0-5.83-2.42-5.83-6.215 0-.88.11-1.76.275-2.64l4.18-22.99h-5.445l-4.07 22.275c-.275 1.485-.44 2.97-.44 4.455 0 6.875 3.685 10.175 10.45 10.175 9.35 0 13.75-6.6 15.29-15.07l3.96-21.835zM312.363 34.14c-2.475-.66-5.06-1.045-8.14-1.045-7.645 0-14.19 4.07-14.19 12.1 0 3.575 2.035 5.555 5.445 7.315l4.07 2.09c2.42 1.265 4.235 2.31 4.235 5.005 0 4.235-4.73 6.05-8.415 6.05-3.74 0-6.435-.715-8.745-1.65l-.165.11-1.375 5.06c3.135.935 6.875 1.265 10.945 1.265 7.425 0 13.86-4.455 13.86-12.1 0-3.575-1.705-5.885-4.73-7.535L299.988 48c-2.035-1.1-4.125-2.145-4.125-4.455 0-4.015 4.455-5.665 7.92-5.665 2.31 0 4.73.275 7.095 1.21l.22-.11 1.265-4.84zM343.375 33.535H322.75l-6.6 36.3.11.165h21.505l.495-4.895-.165-.165h-15.62l1.98-10.725h12.155l.935-5.28H325.39l1.87-10.23h14.63l.22-.165 1.265-5.005zM385.273 33.535h-23.54l-.88 4.95.11.165h9.185l-5.665 31.13.165.22h5.335l5.72-31.35h8.415l.275-.22.88-4.895zM417.383 33.755l-.165-.22h-5.28l-2.805 15.455h-15.62l2.75-15.29-.165-.165h-5.225l-6.6 36.245.11.22h5.28l2.86-15.73h15.675l-2.805 15.51.11.22h5.28l6.6-36.245zM447.948 33.535h-20.625l-6.6 36.3.11.165h21.505l.495-4.895-.165-.165h-15.62l1.98-10.725h12.155l.935-5.28h-12.155l1.87-10.23h14.63l.22-.165 1.265-5.005zM476.095 33.7l-.165-.165h-5.225l-6.6 36.245.165.22h5.225l6.6-36.3zM511.785 33.535h-5.335l-.22.22-5.28 29.26h-.165s-.99-5.445-1.155-6.27l-5.335-23.21H486.1l-6.6 36.245.165.22h5.28l5.335-29.26h.165s1.21 5.94 1.375 6.655L497.1 70h7.92l.165-.165 6.6-36.3zM545.447 44.645c0-7.535-3.575-11.11-12.1-11.11h-11.55l-6.6 36.3.165.165h11.935c15.29 0 18.15-12.43 18.15-25.355zm-5.83 1.595c0 8.47-1.815 18.7-11.825 18.7h-6.27l4.785-26.235h6.38c5.445 0 6.93 2.915 6.93 7.535zM576.723 33.535h-20.625l-6.6 36.3.11.165h21.505l.495-4.895-.165-.165h-15.62l1.98-10.725h12.155l.935-5.28h-12.155l1.87-10.23h14.63l.22-.165 1.265-5.005zM608.096 33.7l-.055-.165h-6.49l-8.855 11.99-4.18-11.99h-6.655l-.165.165 6.655 16.775-15.345 19.36.055.165h6.6l11-14.355L595.39 70h6.765l.11-.165-7.15-19.195 12.98-16.94zM614.254 66.535c0-1.705-.88-3.135-2.695-3.135-2.475 0-4.015 1.87-4.015 4.29 0 1.32.715 2.09 1.54 2.09h.055c-.22 1.265-1.815 2.805-3.3 4.07l2.145 2.53c3.245-1.98 6.27-5.61 6.27-9.845zM657.209 65.105l-.165-.165h-15.015l5.665-31.185-.22-.22h-5.28L635.594 70h21.12l.495-4.895zM692.973 33.535h-5.445l-4.18 22.99c-.825 4.565-3.63 8.855-8.745 8.855-3.905 0-5.83-2.42-5.83-6.215 0-.88.11-1.76.275-2.64l4.18-22.99h-5.445l-4.07 22.275c-.275 1.485-.44 2.97-.44 4.455 0 6.875 3.685 10.175 10.45 10.175 9.35 0 13.75-6.6 15.29-15.07l3.96-21.835zM726.341 33.7l-.055-.165h-5.885l-15.07 15.125h-.165l2.695-14.905-.165-.22h-5.28l-6.6 36.3.11.165h5.39l2.915-16.225h.165L713.856 70h5.94l.165-.165-10.945-18.81L726.341 33.7zM751.756 33.535h-20.625l-6.6 36.3.11.165h21.505l.495-4.895-.165-.165h-15.62l1.98-10.725h12.155l.935-5.28h-12.155l1.87-10.23h14.63l.22-.165 1.265-5.005zM764.594 32.215h-5.72l-4.95 27.335.165.22h5.335l.165-.22 5.005-27.335zM759.04 66.26c0-1.595-1.265-2.86-2.97-2.86-2.31 0-4.235 1.925-4.235 4.125 0 1.76 1.21 2.915 2.97 2.915 2.31 0 4.235-1.815 4.235-4.18zM262.818 103.922l-1.95-17.16h-3.562l-8.476 17.16.078.078h2.834l2.392-5.018h5.252l.416 5.018h2.912l.104-.078zm-3.588-7.384h-4.108l3.276-6.942h.156l.676 6.942zM284.846 87.152c-1.118-.364-2.21-.598-4.082-.598-6.63 0-10.348 5.044-10.348 11.102 0 4.186 2.288 6.578 6.656 6.578 2.21 0 4.03-.572 5.304-1.092l1.456-8.112h-2.522l-.078.104-1.17 6.37c-.988.26-1.898.364-2.808.364-2.808 0-4.03-2.366-4.03-5.096 0-4.056 2.496-7.696 6.89-7.696 1.248 0 2.678.234 3.614.546l.104-.078 1.014-2.392zM295.487 91.702l-1.118 6.136c-.312 1.638-1.482 4.186-3.458 4.186-1.118 0-1.612-.65-1.612-1.742 0-.286.026-.572.078-.858l1.404-7.722h-2.626l-1.404 7.774c-.078.416-.13.832-.13 1.274 0 2.262 1.326 3.458 3.588 3.458 1.586 0 2.886-.884 3.64-2.236l.312 2.028h1.872c.182-1.248.312-2.548.52-3.796.468-2.834 1.014-5.668 1.534-8.502h-2.6zM305.662 87.438c0-.728-.598-1.3-1.378-1.3-1.014 0-1.976.858-1.976 1.924 0 .754.572 1.352 1.378 1.352 1.014 0 1.976-.832 1.976-1.976zm-1.144 4.316-.052-.052h-2.522l-2.21 12.194.052.104h2.522l2.21-12.246zM318.824 86.242l-.078-.104h-2.418l-1.092 5.98c-.182-.13-1.222-.65-2.678-.65-4.888 0-6.422 4.732-6.422 8.736 0 2.652 1.43 4.004 3.432 4.004 1.846 0 3.068-1.092 3.874-2.392l-.104 2.184h2.314l3.172-17.758zm-3.978 7.93-.494 2.782c-.442 2.496-2.158 5.044-3.874 5.044-1.352 0-1.742-1.014-1.742-2.548 0-2.34.858-5.772 3.484-5.772 1.352 0 2.444.364 2.626.494zM330.333 94.64c0-1.846-1.144-3.172-3.874-3.172-5.018 0-6.916 5.044-6.916 8.762 0 2.444 1.248 3.978 4.68 3.978 1.664 0 2.626-.286 4.004-.806l.338-2.028-.104-.13c-1.352.494-2.574.78-3.744.78-1.898 0-2.652-.494-2.652-1.872 0-.338.052-.65.104-1.014 6.344-.052 8.164-2.028 8.164-4.498zm-2.496.26c0 1.378-1.976 2.132-5.356 2.132.442-1.846 1.794-3.38 3.692-3.38.962 0 1.664.39 1.664 1.248zM345.21 91.702h-3.64l.572-3.146h-2.158l-.988 3.146-2.158.598-.286 1.508.078.078h1.976l-1.222 6.604c-.13.676-.208 1.248-.208 1.768 0 1.248.52 1.95 2.288 1.95 1.742 0 3.874-.676 3.874-.676l.312-1.924-.078-.078c-.338.13-1.846.468-2.886.468-.572 0-.728-.416-.728-.962 0-.442.104-.988.182-1.456l1.04-5.694h3.536l.104-.078.39-2.106zM356.808 95.784c0-2.522-1.066-4.316-4.68-4.316-4.81 0-6.89 4.186-6.89 8.398 0 2.678 1.352 4.342 4.706 4.342 4.784 0 6.864-4.186 6.864-8.424zm-2.652.364c0 2.522-.962 5.876-3.952 5.876-1.612 0-2.288-1.144-2.314-2.756-.026-2.444.884-5.616 3.848-5.616 1.716 0 2.418.936 2.418 2.496zM377.637 92.014c0-3.562-1.69-5.252-5.72-5.252h-5.46l-3.12 17.16.078.078h5.642c7.228 0 8.58-5.876 8.58-11.986zm-2.756.754c0 4.004-.858 8.84-5.59 8.84h-2.964l2.262-12.402h3.016c2.574 0 3.276 1.378 3.276 3.562zM391.06 92.222a12.341 12.341 0 0 0-4.315-.754c-4.914 0-7.28 4.602-7.28 8.814 0 2.548 1.378 3.926 3.354 3.926 1.82 0 3.094-.858 3.978-2.392l-.104 2.184h2.262l2.106-11.778zm-2.833 1.638-.546 2.938c-.442 2.34-2.34 5.252-4.134 5.252-1.092 0-1.508-.624-1.508-2.028 0-2.73 1.092-6.396 4.498-6.396.988 0 1.586.208 1.69.234zM401.628 91.702h-3.64l.572-3.146h-2.158l-.988 3.146-2.158.598-.286 1.508.078.078h1.976l-1.222 6.604c-.13.676-.208 1.248-.208 1.768 0 1.248.52 1.95 2.288 1.95 1.742 0 3.874-.676 3.874-.676l.312-1.924-.078-.078c-.338.13-1.846.468-2.886.468-.572 0-.728-.416-.728-.962 0-.442.104-.988.182-1.456l1.04-5.694h3.536l.104-.078.39-2.106zM413.252 92.222a12.341 12.341 0 0 0-4.316-.754c-4.914 0-7.28 4.602-7.28 8.814 0 2.548 1.378 3.926 3.354 3.926 1.82 0 3.094-.858 3.978-2.392l-.104 2.184h2.262l2.106-11.778zm-2.834 1.638-.546 2.938c-.442 2.34-2.34 5.252-4.134 5.252-1.092 0-1.508-.624-1.508-2.028 0-2.73 1.092-6.396 4.498-6.396.988 0 1.586.208 1.69.234zM426.554 94.848c0-2.028-1.248-3.38-2.912-3.38-1.976 0-3.666 1.222-4.576 2.808l.494-2.522 1.014-5.538-.078-.078h-2.444l-2.392 13.13-.78 3.744c1.014.598 2.782 1.196 4.576 1.196 5.018 0 7.098-4.576 7.098-9.36zm-2.704.754c0 2.678-.936 6.396-3.952 6.396-.91 0-1.638-.182-2.132-.442l.52-2.808c.442-2.34 2.496-5.07 4.186-5.07.988 0 1.378.754 1.378 1.924zM439.912 92.222a12.341 12.341 0 0 0-4.316-.754c-4.914 0-7.28 4.602-7.28 8.814 0 2.548 1.378 3.926 3.354 3.926 1.82 0 3.094-.858 3.978-2.392l-.104 2.184h2.262l2.106-11.778zm-2.834 1.638-.546 2.938c-.442 2.34-2.34 5.252-4.134 5.252-1.092 0-1.508-.624-1.508-2.028 0-2.73 1.092-6.396 4.498-6.396.988 0 1.586.208 1.69.234zM450.588 91.858c-.988-.234-1.898-.39-3.068-.39-2.834 0-5.252 1.144-5.252 4.03 0 1.222.702 2.132 1.924 2.756l2.132 1.066c.572.286.988.52.988 1.092.026 1.43-1.482 1.612-2.574 1.612-1.196 0-2.548-.39-3.094-.624l-.13.052-.702 2.132c.338.13.962.286.962.286.546.156 1.586.338 2.704.338 2.834 0 5.46-.91 5.46-4.186 0-1.326-.702-2.132-1.742-2.626l-1.872-.91c-.728-.338-1.352-.806-1.352-1.482 0-.988 1.04-1.378 1.976-1.378 1.118 0 2.288.156 3.146.416l.104-.026.39-2.158zM463.075 94.64c0-1.846-1.144-3.172-3.874-3.172-5.018 0-6.916 5.044-6.916 8.762 0 2.444 1.248 3.978 4.68 3.978 1.664 0 2.626-.286 4.004-.806l.338-2.028-.104-.13c-1.352.494-2.574.78-3.744.78-1.898 0-2.652-.494-2.652-1.872 0-.338.052-.65.104-1.014 6.344-.052 8.164-2.028 8.164-4.498zm-2.496.26c0 1.378-1.976 2.132-5.356 2.132.442-1.846 1.794-3.38 3.692-3.38.962 0 1.664.39 1.664 1.248zM482.19 91.182c0-2.288-1.638-4.42-5.226-4.42h-4.628l-3.12 17.134.078.104h2.496l1.144-6.396h2.106c4.264 0 7.15-2.262 7.15-6.422zm-2.756.39c0 2.496-2.054 3.562-4.342 3.562h-1.69l1.066-5.902h1.846c2.262 0 3.12.936 3.12 2.34zM492.833 94.64c0-1.846-1.144-3.172-3.874-3.172-5.018 0-6.916 5.044-6.916 8.762 0 2.444 1.248 3.978 4.68 3.978 1.664 0 2.626-.286 4.004-.806l.338-2.028-.104-.13c-1.352.494-2.574.78-3.744.78-1.898 0-2.652-.494-2.652-1.872 0-.338.052-.65.104-1.014 6.344-.052 8.164-2.028 8.164-4.498zm-2.496.26c0 1.378-1.976 2.132-5.356 2.132.442-1.846 1.794-3.38 3.692-3.38.962 0 1.664.39 1.664 1.248zM503.616 91.702s-.546-.234-1.378-.234c-1.872 0-3.302 1.404-3.978 2.912l.104-2.678h-2.184l-.416 2.912-1.716 9.386h2.626l.962-5.174c.442-2.418 2.08-5.174 3.952-5.174.52 0 .78.078 1.014.208l.156-.104.858-2.054zM513.964 86.658c-.91-.338-1.69-.52-2.678-.52-3.38 0-4.186 1.69-4.784 4.992l-.104.572-2.106.598-.26 1.43.026.078h1.95l-2.106 11.258c-.26 1.378-.546 2.652-2.028 2.652-.78 0-1.534-.104-2.184-.338l-.078.052-.52 1.846c.884.39 1.742.65 2.652.65 3.328 0 4.186-1.69 4.81-5.07l2.08-11.05h3.302l.078-.078.364-2.028h-3.354l.13-.754c.234-1.378.364-2.6 2.028-2.6.78 0 1.586.208 2.158.468l.078-.026.546-2.132zM523.574 95.784c0-2.522-1.066-4.316-4.68-4.316-4.81 0-6.89 4.186-6.89 8.398 0 2.678 1.352 4.342 4.706 4.342 4.784 0 6.864-4.186 6.864-8.424zm-2.652.364c0 2.522-.962 5.876-3.952 5.876-1.612 0-2.288-1.144-2.314-2.756-.026-2.444.884-5.616 3.848-5.616 1.716 0 2.418.936 2.418 2.496zM534.745 91.702s-.546-.234-1.378-.234c-1.872 0-3.302 1.404-3.978 2.912l.104-2.678h-2.184l-.416 2.912-1.716 9.386h2.626l.962-5.174c.442-2.418 2.08-5.174 3.952-5.174.52 0 .78.078 1.014.208l.156-.104.858-2.054zM551.769 94.666c0-1.898-.702-3.198-2.782-3.198-1.976 0-3.64 1.482-4.42 3.198.104-1.638-.494-3.198-2.366-3.198-1.768 0-3.198 1.716-3.874 3.198l.13-2.964h-2.236c-.156 1.066-.26 2.158-.442 3.224L534.115 104h2.626l.728-3.926c.312-1.716 1.742-6.422 3.978-6.422.858 0 .962.858.962 1.534 0 .624-.104 1.274-.208 1.898L540.927 104h2.6l.702-3.9c.338-1.872 1.43-6.448 3.926-6.448.832 0 .962.884.962 1.534s-.104 1.3-.234 1.95L547.609 104h2.626l1.3-7.124c.13-.728.234-1.482.234-2.21zM565.646 92.222a12.341 12.341 0 0 0-4.316-.754c-4.914 0-7.28 4.602-7.28 8.814 0 2.548 1.378 3.926 3.354 3.926 1.82 0 3.094-.858 3.978-2.392l-.104 2.184h2.262l2.106-11.778zm-2.834 1.638-.546 2.938c-.442 2.34-2.34 5.252-4.134 5.252-1.092 0-1.508-.624-1.508-2.028 0-2.73 1.092-6.396 4.498-6.396.988 0 1.586.208 1.69.234zM578.923 95.004c0-2.106-.832-3.536-3.12-3.536-1.976 0-3.51 1.378-4.264 3.12l.13-2.886h-2.262c-.156 1.092-.286 2.184-.468 3.276-.52 3.016-1.118 6.006-1.664 9.022h2.626l.806-4.342c.156-.806.39-1.586.728-2.314.572-1.352 2.002-3.666 3.692-3.666.962 0 1.17.832 1.17 1.612 0 .702-.13 1.404-.26 2.08L574.84 104h2.6l1.248-6.76c.13-.728.234-1.482.234-2.236zM591.803 92.04c-.936-.364-1.768-.572-2.99-.572-5.174 0-7.696 3.692-7.696 8.424 0 2.626 1.144 4.316 4.862 4.316 1.378 0 2.678-.338 4.108-.728l.338-2.158-.104-.052c-1.326.468-2.548.754-3.822.754-2.054 0-2.73-.936-2.73-2.522 0-2.652 1.196-5.85 4.316-5.85 1.534 0 2.808.338 3.172.494l.104-.052.442-2.054zM603.383 94.64c0-1.846-1.144-3.172-3.874-3.172-5.018 0-6.916 5.044-6.916 8.762 0 2.444 1.248 3.978 4.68 3.978 1.664 0 2.626-.286 4.004-.806l.338-2.028-.104-.13c-1.352.494-2.574.78-3.744.78-1.898 0-2.652-.494-2.652-1.872 0-.338.052-.65.104-1.014 6.344-.052 8.164-2.028 8.164-4.498zm-2.496.26c0 1.378-1.976 2.132-5.356 2.132.442-1.846 1.794-3.38 3.692-3.38.962 0 1.664.39 1.664 1.248zM619.69 86.658c-.91-.338-1.69-.52-2.677-.52-3.38 0-4.186 1.69-4.784 4.992l-.104.572-2.106.598-.26 1.43.026.078h1.95l-2.106 11.258c-.26 1.378-.546 2.652-2.028 2.652-.78 0-1.534-.104-2.184-.338l-.078.052-.52 1.846c.884.39 1.742.65 2.652.65 3.328 0 4.186-1.69 4.81-5.07l2.08-11.05h3.302l.078-.078.364-2.028h-3.354l.13-.754c.234-1.378.364-2.6 2.028-2.6.78 0 1.586.208 2.158.468l.078-.026.546-2.132zM629.3 95.784c0-2.522-1.066-4.316-4.68-4.316-4.81 0-6.89 4.186-6.89 8.398 0 2.678 1.352 4.342 4.706 4.342 4.784 0 6.864-4.186 6.864-8.424zm-2.652.364c0 2.522-.962 5.876-3.952 5.876-1.612 0-2.288-1.144-2.314-2.756-.026-2.444.884-5.616 3.848-5.616 1.716 0 2.418.936 2.418 2.496zM640.472 91.702s-.546-.234-1.378-.234c-1.872 0-3.302 1.404-3.978 2.912l.104-2.678h-2.184l-.416 2.912-1.716 9.386h2.626l.962-5.174c.442-2.418 2.08-5.174 3.952-5.174.52 0 .78.078 1.014.208l.156-.104.858-2.054zM659.27 92.014c0-3.562-1.69-5.252-5.72-5.252h-5.46l-3.12 17.16.078.078h5.642c7.228 0 8.58-5.876 8.58-11.986zm-2.756.754c0 4.004-.858 8.84-5.59 8.84h-2.964l2.262-12.402h3.016c2.574 0 3.276 1.378 3.276 3.562zM671.887 94.64c0-1.846-1.144-3.172-3.874-3.172-5.018 0-6.916 5.044-6.916 8.762 0 2.444 1.248 3.978 4.68 3.978 1.664 0 2.626-.286 4.004-.806l.338-2.028-.104-.13c-1.352.494-2.574.78-3.744.78-1.898 0-2.652-.494-2.652-1.872 0-.338.052-.65.104-1.014 6.344-.052 8.164-2.028 8.164-4.498zm-2.496.26c0 1.378-1.976 2.132-5.356 2.132.442-1.846 1.794-3.38 3.692-3.38.962 0 1.664.39 1.664 1.248zM684.096 91.832l-.052-.13h-2.626l-4.004 9.334h-.052l-.832-9.334h-2.418l-.104.13L675.49 104h2.886l5.72-12.168zM694.993 94.64c0-1.846-1.144-3.172-3.874-3.172-5.018 0-6.916 5.044-6.916 8.762 0 2.444 1.248 3.978 4.68 3.978 1.664 0 2.626-.286 4.004-.806l.338-2.028-.104-.13c-1.352.494-2.574.78-3.744.78-1.898 0-2.652-.494-2.652-1.872 0-.338.052-.65.104-1.014 6.344-.052 8.164-2.028 8.164-4.498zm-2.496.26c0 1.378-1.976 2.132-5.356 2.132.442-1.846 1.794-3.38 3.692-3.38.962 0 1.664.39 1.664 1.248zM702.006 86.242l-.078-.104h-2.496l-3.224 17.784.078.078h2.496l3.224-17.758zM714.257 95.784c0-2.522-1.066-4.316-4.68-4.316-4.81 0-6.89 4.186-6.89 8.398 0 2.678 1.352 4.342 4.706 4.342 4.784 0 6.864-4.186 6.864-8.424zm-2.652.364c0 2.522-.962 5.876-3.952 5.876-1.612 0-2.288-1.144-2.314-2.756-.026-2.444.884-5.616 3.848-5.616 1.716 0 2.418.936 2.418 2.496zM727.769 95.186c0-2.08-1.066-3.718-3.458-3.718-1.794 0-3.354 1.066-4.186 2.6l-.078-2.366h-2.158l-.494 3.302-2.704 14.82v.104h2.626l1.092-6.084c.182.078 1.274.364 2.496.364 5.356 0 6.864-4.576 6.864-9.022zm-2.652.364c0 3.172-1.014 6.448-3.874 6.448-.988 0-2.236-.312-2.418-.338.182-.962.468-2.522.468-2.522.442-2.392 2.236-5.46 4.316-5.46 1.144 0 1.508.702 1.508 1.872zM740.34 94.64c0-1.846-1.144-3.172-3.874-3.172-5.018 0-6.916 5.044-6.916 8.762 0 2.444 1.248 3.978 4.68 3.978 1.664 0 2.626-.286 4.004-.806l.338-2.028-.104-.13c-1.352.494-2.574.78-3.744.78-1.898 0-2.652-.494-2.652-1.872 0-.338.052-.65.104-1.014 6.344-.052 8.164-2.028 8.164-4.498zm-2.496.26c0 1.378-1.976 2.132-5.356 2.132.442-1.846 1.794-3.38 3.692-3.38.963 0 1.665.39 1.665 1.248zM751.124 91.702s-.546-.234-1.378-.234c-1.872 0-3.302 1.404-3.978 2.912l.104-2.678h-2.184l-.416 2.912-1.716 9.386h2.626l.962-5.174c.442-2.418 2.08-5.174 3.952-5.174.52 0 .78.078 1.014.208l.156-.104.858-2.054zM759.948 91.858c-.988-.234-1.898-.39-3.068-.39-2.834 0-5.252 1.144-5.252 4.03 0 1.222.702 2.132 1.924 2.756l2.132 1.066c.572.286.988.52.988 1.092.026 1.43-1.482 1.612-2.574 1.612-1.196 0-2.548-.39-3.094-.624l-.13.052-.702 2.132c.338.13.962.286.962.286.546.156 1.586.338 2.704.338 2.834 0 5.46-.91 5.46-4.186 0-1.326-.702-2.132-1.742-2.626l-1.872-.91c-.728-.338-1.352-.806-1.352-1.482 0-.988 1.04-1.378 1.976-1.378 1.118 0 2.288.156 3.146.416l.104-.026.39-2.158z" />
            </g>
        </g>
    </defs> -->
    <g id="g4" transform="matrix(.9 0 0 .9 30 -25)">
        <g id="RZ_Jedi_Angleichung_l">
            <path id="Schwanz" fill="currentColor" fill-rule="evenodd"
                d="M56.14 169.02c-22.85-9.74-26.56-14.91-38.05-40.7-.76 0-5.57 2.53-10.89-6.58-2.8-4.8-13.16-34.17 4.56-46.83 17.72-12.66 28.37-7.64 28.37-7.64.87 1.4 12.43 4.16 17.44 20.04-1.22 21.5 10.65 77.05-1.43 81.71z" />
            <path id="Hellblau" fill="currentColor"
                d="M114.02 2.94c-6-.5-21.96 18.16-27.05 24.5-6.83 8.66-.86 23.67-.86 23.67-39.33 23.93-11.38 55.8-.96 64.72A45 45 0 0 1 84.9 130h56.83c-2.2-6.83-3.9-13.8-5.33-21.46l-.7-3.4c-3.7 1.57-10 1.58-10 1.58s-6.84-4.56-4.56-7.3c-.68-2.04 3.42-8.42 3.42-8.42l2.5 2.96 12.98-12.15c-.81-5.54-1.33-9.42-2.03-13.98-6.26-7.34 14.54-42.24-1.83-51.62-2.42-.4-17-10.17-21.1-12.9-.3-.22-.66-.33-1.06-.37z"
                transform="translate(-33.33 27.78) scale(1.11111)" />
            <path id="Hand" fill="currentColor" fill-rule="evenodd"
                d="M82.3 150.5c-.22-5.19-2.4-6.62-13.58-10.8.39-2.15 4.82-6.61 7.53-7.3 5.44 1.54 5.51 1.56 11.3 2.16 1.18.23 2.25.78 3.41 1.08 4.56 1.85 5.03 2.04 7.14 3.85-9.54 5.78-.16 8.05 7.26 11.5-4.05 8.2-15.12 7.66-21.43 3.12-.6-1.18-1.4-2.27-1.62-3.62z" />
            <path id="Kontur_geputzt" fill="black"
                d="M112.98 2.23c-.98.06-1.94.35-2.87.93-1.43.9-2.7 2.04-3.97 3.15-1.07.95-20.65 16.35-23.92 26.05a21.75 21.75 0 0 0 2 17.89c3.78 6.18 9.1 10.32 8.9 12.96-.17 2.22-6.45 6.41-8 8.52-2.25 3.06-2.46 5.47-2.42 7.33.23 2.6 2.1 5.56 5.73 6.84 1.41.67 3.05 1.24 4.25 1.48-.56-.75-1.5-1.2-2.1-1.73-.76-.67-1.48-1.38-2.24-2.05-1.63-1.45-2.62-3.16-2.52-5.42a9.34 9.34 0 0 1 2.9-6.38c1.97-1.9 7.56-5.02 7.38-8.84-.19-3.83-5.09-8.13-6.85-11.22-2.68-4.37-3.87-7.78-4.22-13.89 0-3.93 1.07-7.97 3.46-10.73 3.44-3.95 6.86-7.75 10.52-11.22 2.2-2.3 9.1-8.55 10.6-9.7 1.18-.9 2.4-1.72 3.93-1.83 2.13-.14 3.72.92 5.13 2.33 3.38 2.88 7.16 6.16 11.03 7.78.87.36 1.72.8 2.42 1.35-.64 1.03-1.79 1.45-2.6 2.28-.58.6-.63.75-.07 1.36.28.3.66.22 1 .22 1.48-.03 2.46-1.04 3.47-1.87 1.22-1 2.7-1.05 3.83.1a7.53 7.53 0 0 1 2.22 5.33c-.16.74-.18.42-.73.33-.6-.48-.83-1.23-1.33-1.77a6 6 0 0 0-5.44-1.93c-1.3.18-2.52.55-3.58 1.36-1.14.88-2.19 1.86-3.31 2.77-1.3 1.04-3.78 2.58-5.09 2.63-1.7.07-4.52-1.67-8.08-4.1-2.4-1.63-4.7-4.73-7.21-3.84-3.17 1.12-2.11 10.5-2.05 13.56 0 1.3-1.62 3.78-2.34 5.2-.57 1.1-1.05 2.25-1.65 3.34-1.42 2.55-1.93 5.35-2.07 8.24-.1 2.27.27 4.45 1.42 6.38a35.4 35.4 0 0 0 3.3 4.44c1.39 1.67 4.82 3.01 7.14 4.71 1.71 1.25 3.51 3.9 5.17 5.28.85.71 3.37 2.13 7.1.51 4.13-1.92 11.88-2.15 14.15-4.24 1.77-1.23 2.61-3.22 3.16-5.26.58-2.17.76-4.44 1.63-6.56 1.02-2.83 2.29-5.06 3.53-7.43a21 21 0 0 0 1.5-8.65 83 83 0 0 0-.83-7.88c-.42-5.17-2.3-9.27-5.22-13.1-.73-.95-1.55-1.58-2.74-1.74a5.05 5.05 0 0 1-2.78-1.23 4.95 4.95 0 0 0-1.2-.83c-1.94-.88-8.99-5.74-10.27-6.71-1.63-1.22-3.43-3.05-6.18-4.02a7.67 7.67 0 0 0-3-.48zm-7.68 12.19a4.62 4.62 0 0 0-3.9 1.8 11.15 11.15 0 0 0-1.78 3.5c-.67 1.9-1.4 3.79-1.2 5.87.07 1.14.05 2.22.11 3.43 0 .2.04.38.27.4.25.03.35-.1.4-.34.27-1.03.6-2.04.82-3.08.39-1.77.95-3.73 1.59-5.6.4-.9.74-1.85 1.36-2.64.43-.55.78-1.21 1.61-1.35 1.9-.32 3.59.21 5.16 1.21.54.35 1.1.65 1.6 1.05 1.26.53 2.44 1.41 3.83 2.03.88.27 1.79.49 2.73.52.7.03.92-.14.83-.81-.1-.38-.06-.84-.51-.93a4.13 4.13 0 0 1-2.62-.61c-1.34-.75-2.7-1.45-4.03-2.22-1.74-1-3.5-1.96-5.59-2.19a7.43 7.43 0 0 0-.68-.04zM55.68 29.55c-1.95 0-3.26.89-3.03 1.69l2.12 2.27c-5-1.21-9.87.61-9.72 1.68.16 1.06 2.28-.16 2.43 1.21.16 1.37-4.85 3.19-4.85 3.19-8.17 5.73-10.33 12.56-11.47 18.37-2.05 10.48 2.35 25.06 6.15 29.47 2.26 2.62 6.53 5.34 6.72 1.97.19-3.26 1.14-9.11-.8-9.57-2.28 1.6-3.91-.94-5.24-2.5-4.44-5.24-4.25-16.02-3.64-20.28.6-4.25 3.26-10.19 8.2-14.35 4.33-3.64 8.28-5.08 9.34-5.69 1.06-.6 2.43.9 2.43.9 1.52 1.07 3.04 2.74 5.31-1.5 9.68-1.68 17.66 14.15 19.03 15.06 1.02-.11 1.82-.45 1.93-1.25-.45-1.06-1.97-4.56-5.77-9.87-3.8-5.32-13.97-9.57-17-10.48a7.35 7.35 0 0 0-2.14-.32zm-10.51 16c-1.44-.06-3.53.91-3.53.91s-1.94.91-.23 1.94c1.7 1.02 7.75 1.6 8.77 4.78 1.2 3.74 1.14 9-2.4 20.62-3.52 11.62-3.07 22.21 1.6 32.35 4.67 10.13 15.72 18.33 15.72 18.33 2.74 1.94 2.74.35 4.22-1.14 4.9 2.97 11.39 3.88 11.39 3.88s3.19-1.83.57-2.17c-8.5-1.1-17.38-8.74-25.18-20.16-8.08-11.85-5.92-25.97-5.35-31.2.57-5.25 2.5-18.46 2.5-18.46.23-5.12-5.35-9.57-8.08-9.68zm37.47 7.3c-.28-.03-.6 0-.93.1-2.71.8-18.09 11.9-16.88 30.64.11 1.88.29 3.73.88 5.55 1.21 5.84 14.48 33.01 16.93 33.56a3.78 3.78 0 0 0 4.2-1.79c1.68-2.7 3.03-6.56 3.8-8.66.78-2.1 1.39-3.64 2.23-5.4.36-.77.65-1.57.93-2.37.16-.45-.16-.95-.5-.83-.48.15-.99.08-1.47.23-.85.26-1.72.39-2.64.5.23-.6.48-1.15.95-1.48.94-.08 1.86 0 2.9-.28 1.74-.2 3.34.4 4.84 1.1 1.42.65 2.84 1.34 4.15 2.23.64.43.94.87.86 1.59-.12.96.23 1.73.88 2.4.13.14.2.33.3.5.28.33.52.24.76-.05.2-.26.32-.52.26-.86-.1-.55-.03-1.13-.35-1.64-.1-.16-.03-.35-.02-.53.03-.75.04-1.5-.59-2.07-1.06-.96-2.09-1.97-3.25-2.81a1.32 1.32 0 0 0-.5-.22c-.54-.12-1.03-.35-1.53-.56-1.41-.6-2.83-1.16-4.42-1.08-.55.02-1.12-.07-1.68-.14-.2-.02-.48-.01-.54-.28-.08-.27.1-.52.3-.65 1.88-1.18 3.05-4.13 5.55-4.94.4-.15.76-.16 1.16.03l1.56.78c1.96.93 4.2 1.83 6.26 2.97.55.19 1.14 0 1.5-.47.45-.59.55-1.34.25-1.82-.2-.16-.46-.24-.7-.24-1.5-.02-2.81-.68-4.16-1.21-.69-.27-1.39-.55-1.87-1.21-.73-1.02-3.05-1.7-4.2-1.23-2.62 1.08-4.8 3.02-6.71 5.39a40.32 40.32 0 0 0-3.96 6.1c-2.1 3.75-2.65 10.34-4.46 7.79-4.99-7.05-17.63-23.17-16.15-32.74 1.56-10 12.99-18.8 17.43-21.92 1.25-.89.62-3.8-1.37-3.98zM98.9 67.32a.84.84 0 0 0-.33.11c-.43.22-.38.66-.26 1.1.14.5.61 1.44.9 2.03.93 1.85 1.67 3.56 3.35 4.93 1.28 1.05 2.94 2.42 6.78 2.55 3.18.1 6.83-1.6 11.13-3.12 1.02-.45 2.09-.56 3.44-.73.45-.57 2.36-1.47 1.85-1.75a8.24 8.24 0 0 0-2.59-.05c-1.95.3-3.74.95-5.65 1.45-1.45.37-6.98.79-10.07-.42-3.1-1.22-6.83-4.84-7.71-5.7-.25-.24-.52-.43-.84-.4zm28.34 6.09c-.54.23-1.11.43-1.62.73-.87.51-.96 1.06-.43 1.92.43.7.85 1.39 1.23 2.11 1.48 2.96 2 6.95 3.01 10.44.09.34.33.45.58.48.6.01 1.1-.34 1.36-.87.2-.82.56-1.93.35-2.91-1.16-2.9-1.84-5.85-2.85-9.07-.31-.85-.69-2.46-1.63-2.83zm9.14 35.66c-.63.07-1 .2-1.54.6-.8.58-.92 1.05-.5 2.32 1.57 4.73 1.87 9.55 3.88 14.73.2.61.78 2.16 1.18 3.28h2.83a74.7 74.7 0 0 1-.78-2.21c-1.79-5.98-3.03-11.9-4.4-17.99-.08-.37-.2-.77-.67-.73zm-11.39 13.66c-.5-.04-.95.47-.66 1.25a75.8 75.8 0 0 1 1.95 6.02h1.93a60.1 60.1 0 0 0-2.39-6.57c-.2-.47-.52-.68-.83-.7zm-39.21.38c-.48.05-1.08.46-1.08.46l-.7 2.48-1.2 3.95h3.46c.1-1.04.15-2.06.13-3.03.07-1.35.1-2.61-.02-3.4-.06-.4-.3-.5-.6-.46z"
                transform="translate(-33.33 27.78) scale(1.11111)" />
            <path id="Farbe_Gesicht_3_" fill="currentColor" fill-rule="evenodd"
                d="M120.74 76.24c.12 1.8-.67 3.26-1.55 4.74-1.93 2.9-3.18 6-5.05 8.64-.56.78-1.04 1.58-1.77 2.25-.62.57-1.09.35-1.6.03-1.2-.75-2.07-.52-2.69.73-.19.38-.45.52-.88.36-.73-.27-1.32-.76-1.98-1.15-2.86-1.68-11.6-7.54-13.74-9.48-.98-.89-2.4-2.64-3.12-3.76-1.52-2.36-1.98-3.93-2.9-9-.48-2.64-3.18-2.14-3.46-.66-.56 3 .52 6.1 1.81 8.86a21.86 21.86 0 0 0 6.37 7.7 34.57 34.57 0 0 0 4.17 2.81c2.6 1.63 5.18 3.22 7.3 4.9.46.33.67.6.18 1.18-1.84 2.19-2.07 4.73-1.43 7.42.12.49.68 1.22.3 1.45-1.23.72-6.77-6.14-10.19-7.53-4.99-2.04-9.24-6.9-9.76-7.66-.9-1.3-1.68-2.7-2.45-4.1-.8-1.5-.78-3.1-.89-4.7.21-3.19 1.72-6.03 3.01-8.67.81-1.87 2.03-3.4 3.34-6.1.82-1.7-.14-8.5 2.5-9.7 1.76-.8 4.06.91 4.82 1.47 4.28 2.63 9.16 3.48 11.05 3.17.97-.16 1.82-.67 2.7-1.11 1.51-1.13 3.72-3 6.14-4.28a7.44 7.44 0 0 1 5.52-.63c1.65.44 3.98 3.74 4.6 5.43.85 2.28 1.74 3.59 2.2 4.79-2.02 7.62-2.07 7.63-2.55 12.6z" />
            <path id="Augen_und_Nase" fill="black" fill-rule="evenodd"
                d="M92.34 63.23c3.09-.02 4.9 1.58 5.46 4.13.28 1.3.63 2.59.97 3.87.06.2.2.4.34.56.45.46.36.96.11 1.45-.25.5-.7.63-1.23.48a.64.64 0 0 0-.58.1l-1.64 1.13a5.22 5.22 0 0 1-3.61.99c-1.77-.22-4.74-.87-5.66-4.93-.25-2.04.13-4.5 1.79-6 1.24-1.1 2.7-1.84 4.05-1.78zm29.6.02c-1.7-.25-2.64.68-2.9 2.6-.28 1.91-1.34 5.55-1.56 6.86-.14.8-.4 2.52.69 3 .84.38 2 .44 3.13.2 2.49-.54 4.13-3.83 4.17-6.13-.04-2.35-2.12-6.52-3.52-6.53zm-15.08 18.94c-.69.14-1.42.22-1.8.94a3.1 3.1 0 0 0-.28 2.44c.54 1.79 1.73 3.16 2.84 4.6.4.5.84.63 1.43.4.26-.1.55-.12.84-.04.7.19 1.19-.18 1.65-.64 1.25-1.26 1.9-2.87 2.63-4.44.45-.98 0-2.26-.94-2.71-2.07-.8-4.36-.74-6.37-.55z" />
            <path id="Spiegel._Aug_l" fill="currentColor"
                d="M92.55 66.9c-.3.26-.89.71-1.35 1.2-.36.38-.67.83-.75 1.05-.1.3-.17.6-.36.65-.2.05-.34-.17-.47-.48-.12-.31-.1-1.14.46-2.27.28-.56.61-.85.83-1.06.32-.3.75-.03 1.04.14.3.17.84.55.6.77z" />
            <path id="Spiegel._Nase" fill="currentColor"
                d="M107.33 83.92s0-.85.8-.43c0 0 .57.04.43.7-.14.64-.17.77-.25.97-.07.2-.35.14-.45-.06" />
            <path id="Spiegel._Aug_r" fill="currentColor"
                d="M121.12 70.3c-.37.22-.7.03-.54-.41.17-.44.3-1.6.4-2 .1-.4.35-.74.65-.74.3 0 .49.6.51.8 0 0 .14 1.67-1.02 2.34z" />
            <path id="Blitzer_Auge_neu" fill="currentColor"
                d="M123.35 63.69a5.49 5.49 0 0 0-1-.33c.57.56 3.05 3.12 3.07 6.49a6.29 6.29 0 0 1-1.81 4.51c-1.22 1.07-2.13 1.57-3.6 1.6l.04.02.74.47c1.1-.04 2.2-.76 3.18-1.74a6.79 6.79 0 0 0 1.95-4.87c-.02-2.8-1.58-5.02-2.57-6.15z" />
            <g id="Angl_u">
                <linearGradient id="SVGID_1_" x1="198.22" x2="186.96" y1="58.9" y2="69.31"
                    gradientUnits="userSpaceOnUse">
                    <stop id="stop28" offset="0" stop-color="currentColor" stop-opacity="0" />
                    <stop id="stop30" offset=".99" stop-color="currentColor" />
                </linearGradient>
            </g>
            <g id="Angl_o">
                <linearGradient id="SVGID_2_" x1="210.7" x2="191.82" y1="43.95" y2="60.03"
                    gradientTransform="matrix(.9 0 0 .9 30 -25)" gradientUnits="userSpaceOnUse">
                    <stop id="stop38" offset="0" stop-color="currentColor" stop-opacity="0" />
                    <stop id="stop40" offset="1" stop-color="currentColor" />
                </linearGradient>
                <g id="schwert-orange">
                    <path id="path22" fill="currentColor" fill-rule="evenodd"
                        d="M143.18 102.68c-14.55 13.83-32.5 30.24-32.92 30.63.48.5 3.57 3.55 4.07 3.77 1.03 1.1 43.17-38.5 72.08-65.71l-.88-2.24-.03-1.53c-11.98 9.65-40.46 33.3-42.32 35.08z" />
                    <path id="path32" fill="url(#SVGID_1_)" fill-rule="evenodd"
                        d="m184.34 73.44 14.46-13.86-1.19-1.1-14.93 13.42z" />
                    <path id="path35" fill="currentColor"
                        d="M189.8 59.73c-16.89 15.42-37.34 34.02-46.82 43.14 0 0 37.42-31.01 39.8-32.9.75-.6 4.55-4 9.44-8.39z" />
                    <path id="schwert_spitze" fill="url(#SVGID_2_)"
                        d="m218.6 13.76-7.63 6.44-10.2 8.6.06.07c.96.96 1.57 1.46 2.08 1.64l2.8-2.51v-.01l3.54-3.2 2.75-2.48 8.4-7.6-1.8-.95z"
                        transform="translate(-33.33 27.78) scale(1.11111)" />
                </g>
            </g>
            <path id="Weiß_Schwertgriff" fill="currentColor" fill-rule="evenodd"
                d="M97.7 147.76c-64.66 69.06-32.33 34.53 0 0zm-13.77 6.35c-1.41 1.18-2.96 2.36-4.3 3.5-.51.51 7.72 5.7 7.72 5.7l4.55-4.3c.09-.62-5.5-3.08-7.97-4.9" />
            <path id="path3112" fill="currentColor"
                d="m104.96 129 13.34 13.59c-5.9 2.33-12.87 5.2-16.12 6.14l-7.16-4.82c5-4.08 6-6.18 9.94-14.9z" />
            <path id="Schwert_mit_Hand" fill="black"
                d="M88.2 163.2a2.37 2.37 0 0 1-1.45 3.3c-1.09.36-2.2.5-3.15.5a7.9 7.9 0 0 1-5.79-1.98c-2.45-2.06-3.01-4.68-2.38-7.69.2-.97.5-1.89 1.29-2.6.27-.24.55-.4.87-.47a5.55 5.55 0 0 1 2.24.04c.62.13 1.05.32 1.67-.04.44-.27 1.36.3 1.6.81.06.14.11.3-.01.4-.4.32-.55.9-1.02 1.14-.37.2-.3.37-.1.64.94 1.3 2.1 2.38 3.42 3.28.31.21.6.36 1.04.31.89-.1 1.33.72.93 1.69-.11.26-.07.32.12.46.16.11.24.36.44.02.07-.12.17-.06.28.18zm-.52-2.21c.12 1.06.86 1.61 1.65 1.15.51-.3.98-.72 1.3-1.23.29-.49.45-1.05-.11-1.46a1.75 1.75 0 0 0-1.88-.15c-.87.58-1 .68-.96 1.69zm31.7-29.46c-.5.46-1.06 1.01-1.49 1.42-.53.5-1.38 1.05-1.31 1.87.03.36-2 2.03-2.27 1.79-1.4-1.23-3.43-3.12-4.75-4.43 0 0 27.21-26.13 30.27-29 13.95-13.29 13.88-12.71 26.5-24.68 4-3.84 8.3-8 11.96-11.56.8-.79 6.48-6.18 7.26-6.99.25-.22-.29-.78-.64-.49-1.78 1.6-8.46 7.8-10.22 9.43-22.51 20.68-32.3 29.89-52.11 48.14 0-.3-.03-.47 0-.65.34-2.03.19-4.06-.1-6.08a24.03 24.03 0 0 0-2.27-6.87c-.1-.2-.24-.4-.48-.52-.83-.48-1.54-.1-2.26.27-.53.27-.64.62-.34 1.18.36.69 1.04 1.07 1.42 1.72 1.45 2.46 1.89 5.23 2.56 7.94.27 1.1.24 2.28.77 3.32.1.19.02.3-.1.43-4.55 4.38-8.83 8.7-12.93 12.82-.12.13-.3.5-.49.19-.56-.97-1.61-1.38-2.33-2.17-.82-.9-1.82-.82-2.63.1-1.15 1.45-2.28 3.4-2.43 5-.08 1.01-.31 2.03-.23 3.07.03.46-.38.6-.68.75-.46.03-.68-.31-.97-.58-2.5-1.71-5.17-2.4-8.13-1.31-.24.03-.5.05-.54.36-.01.52.22.62.59.82.82.54 1.84.4 2.73.76 1.12.46 2.38.61 3.3 1.53.1.1.31.16.3.35-.02.22-.25.23-.42.28-.65.16-1.23.41-1.75.88-.41.37-.73.81-1.14 1.18-1.73 1.54-1.49 2.92-.47 4.5a7.54 7.54 0 0 0 4 2.9c1.82.64 3.72.97 5.56 1.54.4.13.8.27 1.24.26.23 0 .52-.03.57.3-.14.6-.5.58-.95.72-.83-.14-1.43.23-2 .78l-.9.9c-.33.35-.7.5-1.2.36-.4-.12-.88-.2-1.23 0-.87.5-1.74 1.02-2.16 2.04-.35.85-1.08 1.16-1.97 1.1a2.95 2.95 0 0 1-1.61-.66c-.4-.31-.82-.42-1.35-.38a5 5 0 0 1-1.93-.13c-.66-.2-1.34-.32-2.02-.39a1.76 1.76 0 0 1-1.3-.68c-.28-.35-.6-.66-.95-.94-.52-.41-1.17-.36-1.43.09-.05 1.52.75 2.6 1.93 3.36 1.19.76 2.67.47 3.98.84.53.15 1 .28 1.46.6.5.37.79.98 1.41 1.19 1.26.42 2.44.03 3.5-.58.9-.51 1.37-1.48 1.94-2.33.14-.2.26-.36.52-.28.74.21 1.5.16 2.23.08.88-.1 1.86-.24 2.24-1.24.28-.76.75-1.1 1.54-1.18 1.28-.13 2.37-.6 2.94-1.88.48-1.1.12-3.05-1.69-3.53l2.08-1.92s.85.06 1.4.03c2.01-.2 4.03-.36 5.93-1.07 1.12-.41 2.28-.7 3.3-1.4 1.1-.76.9-2.82-.05-3.78-.95-.95-2.79-2.53-2.55-2.8.6-.5 25.22-24.07 28.46-27.08C162 94.5 164.49 92.77 180.7 77.6l4.84-4.5c.38-.37-.61-1.36-1.03-1.03-.73.57-5.6 4.8-6.41 5.52-24.24 22.45-37.73 34.35-58.73 53.94zm-16.1 16.5c-2.77-.8-4.27-1.44-6.34-3.3-.3-.28-.34-.43.06-.57.29-.1.6-.16.84-.32.72-.49 1.23-1.2 1.78-1.85.2-.23.14-.6.03-.88-.18-.41-.1-.52.3-.36.58-.2.61.15.72.58a5.78 5.78 0 0 0 1.72 2.95c.97.9 1.43 1.52 2.72 1.9.14.23-1.66 1.89-1.82 1.86zm1.37-5.7a6.25 6.25 0 0 1-2-3.83l6.67 6.3c-2.39-.09-3.32-1.23-4.67-2.47zm9.15 1.6c-.08.23-.87.5-1.19.17-.28-.26-7.46-6.68-8.83-7.99-.78-.74-.91-.93-.29-1.54.29-.18.46.12.61.26 1.1 1 2.17 2.01 3.24 3.02 2.34 2.19 3.81 3.36 6.14 5.55.16.15.41.3.32.53zm2.36-2.53c.43.43.78.54.4.95-.41.42-.8.24-1.18-.11a482.23 482.23 0 0 1-9.65-9.21c-.52-.56-1.16-1.1-.92-1.68.22-.52.41-.79 1.4.43 3.48 3.67 6.35 6.08 9.95 9.62z" />
        </g>
    </g>
    <!-- <g filter="url(#contrastglow)">
        <use xlink:actuate="onLoad" xlink:href="#text" xlink:show="embed" xlink:type="simple" />
    </g> -->
    <use xlink:actuate="onLoad" xlink:href="#text" xlink:show="embed" xlink:type="simple" />
</svg>