<?xml version="1.0" encoding="UTF-8" standalone="no"?>
<svg
   width="132"
   height="130"
   contentScriptType="text/ecmascript"
   contentStyleType="text/css"
   preserveAspectRatio="xMidYMid"
   version="1.0"
   zoomAndPan="magnify"
   id="svg2"
   sodipodi:docname="UseTheIndexLuke.svg"
   inkscape:version="1.3 (0e150ed6c4, 2023-07-21)"
   xmlns:inkscape="http://www.inkscape.org/namespaces/inkscape"
   xmlns:sodipodi="http://sodipodi.sourceforge.net/DTD/sodipodi-0.dtd"
   xmlns="http://www.w3.org/2000/svg"
   xmlns:svg="http://www.w3.org/2000/svg">
  <sodipodi:namedview
     id="namedview2"
     pagecolor="#ffffff"
     bordercolor="#000000"
     borderopacity="0.25"
     inkscape:showpageshadow="2"
     inkscape:pageopacity="0.0"
     inkscape:pagecheckerboard="0"
     inkscape:deskcolor="#d1d1d1"
     inkscape:zoom="4.2279476"
     inkscape:cx="38.907767"
     inkscape:cy="33.467776"
     inkscape:window-width="1920"
     inkscape:window-height="991"
     inkscape:window-x="-9"
     inkscape:window-y="-9"
     inkscape:window-maximized="1"
     inkscape:current-layer="svg2" />
  <style
     xml:space="preserve"
     type="text/css"
     id="style1">#text path {fill: #1A4E8A;}</style>
  <defs
     id="defs1">
    <filter
       id="contrastglow"
       filterUnits="objectBoundingBox"
       x="-0.0093065821"
       y="-0.061765728"
       width="1.0186132"
       height="1.1235315">
      <feComponentTransfer
         in="SourceAlpha"
         out="SourceGreen"
         id="feComponentTransfer1">
        <feFuncB
           tableValues="1"
           type="discrete"
           id="feFuncB1" />
        <feFuncR
           tableValues="1"
           type="discrete"
           id="feFuncR1" />
        <feFuncG
           tableValues="1"
           type="discrete"
           id="feFuncG1" />
      </feComponentTransfer>
      <feGaussianBlur
         result="blur"
         stdDeviation="2"
         id="feGaussianBlur1" />
    </filter>
    <g
       id="text">
      <g
         id="g1">
        <path
           d="m 284.055,33.535 h -5.445 l -4.18,22.99 c -0.825,4.565 -3.63,8.855 -8.745,8.855 -3.905,0 -5.83,-2.42 -5.83,-6.215 0,-0.88 0.11,-1.76 0.275,-2.64 l 4.18,-22.99 h -5.445 l -4.07,22.275 c -0.275,1.485 -0.44,2.97 -0.44,4.455 0,6.875 3.685,10.175 10.45,10.175 9.35,0 13.75,-6.6 15.29,-15.07 z m 28.308,0.605 c -2.475,-0.66 -5.06,-1.045 -8.14,-1.045 -7.645,0 -14.19,4.07 -14.19,12.1 0,3.575 2.035,5.555 5.445,7.315 l 4.07,2.09 c 2.42,1.265 4.235,2.31 4.235,5.005 0,4.235 -4.73,6.05 -8.415,6.05 -3.74,0 -6.435,-0.715 -8.745,-1.65 l -0.165,0.11 -1.375,5.06 c 3.135,0.935 6.875,1.265 10.945,1.265 7.425,0 13.86,-4.455 13.86,-12.1 0,-3.575 -1.705,-5.885 -4.73,-7.535 L 299.988,48 c -2.035,-1.1 -4.125,-2.145 -4.125,-4.455 0,-4.015 4.455,-5.665 7.92,-5.665 2.31,0 4.73,0.275 7.095,1.21 l 0.22,-0.11 z m 31.012,-0.605 H 322.75 l -6.6,36.3 0.11,0.165 h 21.505 l 0.495,-4.895 -0.165,-0.165 h -15.62 l 1.98,-10.725 h 12.155 l 0.935,-5.28 H 325.39 l 1.87,-10.23 h 14.63 l 0.22,-0.165 z m 41.898,0 h -23.54 l -0.88,4.95 0.11,0.165 h 9.185 l -5.665,31.13 0.165,0.22 h 5.335 l 5.72,-31.35 h 8.415 l 0.275,-0.22 z m 32.11,0.22 -0.165,-0.22 h -5.28 l -2.805,15.455 h -15.62 l 2.75,-15.29 -0.165,-0.165 h -5.225 l -6.6,36.245 0.11,0.22 h 5.28 l 2.86,-15.73 h 15.675 l -2.805,15.51 0.11,0.22 h 5.28 z m 30.565,-0.22 h -20.625 l -6.6,36.3 0.11,0.165 h 21.505 l 0.495,-4.895 -0.165,-0.165 h -15.62 l 1.98,-10.725 h 12.155 l 0.935,-5.28 h -12.155 l 1.87,-10.23 h 14.63 l 0.22,-0.165 z m 28.147,0.165 -0.165,-0.165 h -5.225 l -6.6,36.245 0.165,0.22 h 5.225 z m 35.69,-0.165 h -5.335 l -0.22,0.22 -5.28,29.26 h -0.165 c 0,0 -0.99,-5.445 -1.155,-6.27 l -5.335,-23.21 H 486.1 l -6.6,36.245 0.165,0.22 h 5.28 l 5.335,-29.26 h 0.165 c 0,0 1.21,5.94 1.375,6.655 L 497.1,70 h 7.92 l 0.165,-0.165 z m 33.662,11.11 c 0,-7.535 -3.575,-11.11 -12.1,-11.11 h -11.55 l -6.6,36.3 0.165,0.165 h 11.935 c 15.29,0 18.15,-12.43 18.15,-25.355 z m -5.83,1.595 c 0,8.47 -1.815,18.7 -11.825,18.7 h -6.27 l 4.785,-26.235 h 6.38 c 5.445,0 6.93,2.915 6.93,7.535 z m 37.106,-12.705 h -20.625 l -6.6,36.3 0.11,0.165 h 21.505 l 0.495,-4.895 -0.165,-0.165 h -15.62 l 1.98,-10.725 h 12.155 l 0.935,-5.28 h -12.155 l 1.87,-10.23 h 14.63 l 0.22,-0.165 z m 31.373,0.165 -0.055,-0.165 h -6.49 l -8.855,11.99 -4.18,-11.99 h -6.655 l -0.165,0.165 6.655,16.775 -15.345,19.36 0.055,0.165 h 6.6 l 11,-14.355 L 595.39,70 h 6.765 l 0.11,-0.165 -7.15,-19.195 12.98,-16.94 z m 6.158,32.835 c 0,-1.705 -0.88,-3.135 -2.695,-3.135 -2.475,0 -4.015,1.87 -4.015,4.29 0,1.32 0.715,2.09 1.54,2.09 h 0.055 c -0.22,1.265 -1.815,2.805 -3.3,4.07 l 2.145,2.53 c 3.245,-1.98 6.27,-5.61 6.27,-9.845 z m 42.955,-1.43 -0.165,-0.165 h -15.015 l 5.665,-31.185 -0.22,-0.22 h -5.28 L 635.594,70 h 21.12 z m 35.764,-31.57 h -5.445 l -4.18,22.99 c -0.825,4.565 -3.63,8.855 -8.745,8.855 -3.905,0 -5.83,-2.42 -5.83,-6.215 0,-0.88 0.11,-1.76 0.275,-2.64 l 4.18,-22.99 h -5.445 l -4.07,22.275 c -0.275,1.485 -0.44,2.97 -0.44,4.455 0,6.875 3.685,10.175 10.45,10.175 9.35,0 13.75,-6.6 15.29,-15.07 z m 33.368,0.165 -0.055,-0.165 h -5.885 l -15.07,15.125 h -0.165 l 2.695,-14.905 -0.165,-0.22 h -5.28 l -6.6,36.3 0.11,0.165 h 5.39 l 2.915,-16.225 h 0.165 L 713.856,70 h 5.94 l 0.165,-0.165 -10.945,-18.81 z m 25.415,-0.165 h -20.625 l -6.6,36.3 0.11,0.165 h 21.505 l 0.495,-4.895 -0.165,-0.165 h -15.62 l 1.98,-10.725 h 12.155 l 0.935,-5.28 h -12.155 l 1.87,-10.23 h 14.63 l 0.22,-0.165 z m 12.838,-1.32 h -5.72 l -4.95,27.335 0.165,0.22 h 5.335 l 0.165,-0.22 z M 759.04,66.26 c 0,-1.595 -1.265,-2.86 -2.97,-2.86 -2.31,0 -4.235,1.925 -4.235,4.125 0,1.76 1.21,2.915 2.97,2.915 2.31,0 4.235,-1.815 4.235,-4.18 z m -496.222,37.662 -1.95,-17.16 h -3.562 l -8.476,17.16 0.078,0.078 h 2.834 l 2.392,-5.018 h 5.252 l 0.416,5.018 h 2.912 z m -3.588,-7.384 h -4.108 l 3.276,-6.942 h 0.156 z m 25.616,-9.386 c -1.118,-0.364 -2.21,-0.598 -4.082,-0.598 -6.63,0 -10.348,5.044 -10.348,11.102 0,4.186 2.288,6.578 6.656,6.578 2.21,0 4.03,-0.572 5.304,-1.092 l 1.456,-8.112 h -2.522 l -0.078,0.104 -1.17,6.37 c -0.988,0.26 -1.898,0.364 -2.808,0.364 -2.808,0 -4.03,-2.366 -4.03,-5.096 0,-4.056 2.496,-7.696 6.89,-7.696 1.248,0 2.678,0.234 3.614,0.546 l 0.104,-0.078 z m 10.641,4.55 -1.118,6.136 c -0.312,1.638 -1.482,4.186 -3.458,4.186 -1.118,0 -1.612,-0.65 -1.612,-1.742 0,-0.286 0.026,-0.572 0.078,-0.858 l 1.404,-7.722 h -2.626 l -1.404,7.774 c -0.078,0.416 -0.13,0.832 -0.13,1.274 0,2.262 1.326,3.458 3.588,3.458 1.586,0 2.886,-0.884 3.64,-2.236 l 0.312,2.028 h 1.872 c 0.182,-1.248 0.312,-2.548 0.52,-3.796 0.468,-2.834 1.014,-5.668 1.534,-8.502 z m 10.175,-4.264 c 0,-0.728 -0.598,-1.3 -1.378,-1.3 -1.014,0 -1.976,0.858 -1.976,1.924 0,0.754 0.572,1.352 1.378,1.352 1.014,0 1.976,-0.832 1.976,-1.976 z m -1.144,4.316 -0.052,-0.052 h -2.522 l -2.21,12.194 0.052,0.104 h 2.522 z m 14.306,-5.512 -0.078,-0.104 h -2.418 l -1.092,5.98 c -0.182,-0.13 -1.222,-0.65 -2.678,-0.65 -4.888,0 -6.422,4.732 -6.422,8.736 0,2.652 1.43,4.004 3.432,4.004 1.846,0 3.068,-1.092 3.874,-2.392 L 313.338,104 h 2.314 z m -3.978,7.93 -0.494,2.782 c -0.442,2.496 -2.158,5.044 -3.874,5.044 -1.352,0 -1.742,-1.014 -1.742,-2.548 0,-2.34 0.858,-5.772 3.484,-5.772 1.352,0 2.444,0.364 2.626,0.494 z m 15.487,0.468 c 0,-1.846 -1.144,-3.172 -3.874,-3.172 -5.018,0 -6.916,5.044 -6.916,8.762 0,2.444 1.248,3.978 4.68,3.978 1.664,0 2.626,-0.286 4.004,-0.806 l 0.338,-2.028 -0.104,-0.13 c -1.352,0.494 -2.574,0.78 -3.744,0.78 -1.898,0 -2.652,-0.494 -2.652,-1.872 0,-0.338 0.052,-0.65 0.104,-1.014 6.344,-0.052 8.164,-2.028 8.164,-4.498 z m -2.496,0.26 c 0,1.378 -1.976,2.132 -5.356,2.132 0.442,-1.846 1.794,-3.38 3.692,-3.38 0.962,0 1.664,0.39 1.664,1.248 z m 17.373,-3.198 h -3.64 l 0.572,-3.146 h -2.158 l -0.988,3.146 -2.158,0.598 -0.286,1.508 0.078,0.078 h 1.976 l -1.222,6.604 c -0.13,0.676 -0.208,1.248 -0.208,1.768 0,1.248 0.52,1.95 2.288,1.95 1.742,0 3.874,-0.676 3.874,-0.676 l 0.312,-1.924 -0.078,-0.078 c -0.338,0.13 -1.846,0.468 -2.886,0.468 -0.572,0 -0.728,-0.416 -0.728,-0.962 0,-0.442 0.104,-0.988 0.182,-1.456 l 1.04,-5.694 h 3.536 l 0.104,-0.078 z m 11.598,4.082 c 0,-2.522 -1.066,-4.316 -4.68,-4.316 -4.81,0 -6.89,4.186 -6.89,8.398 0,2.678 1.352,4.342 4.706,4.342 4.784,0 6.864,-4.186 6.864,-8.424 z m -2.652,0.364 c 0,2.522 -0.962,5.876 -3.952,5.876 -1.612,0 -2.288,-1.144 -2.314,-2.756 -0.026,-2.444 0.884,-5.616 3.848,-5.616 1.716,0 2.418,0.936 2.418,2.496 z m 23.481,-4.134 c 0,-3.562 -1.69,-5.252 -5.72,-5.252 h -5.46 l -3.12,17.16 0.078,0.078 h 5.642 c 7.228,0 8.58,-5.876 8.58,-11.986 z m -2.756,0.754 c 0,4.004 -0.858,8.84 -5.59,8.84 h -2.964 l 2.262,-12.402 h 3.016 c 2.574,0 3.276,1.378 3.276,3.562 z m 16.179,-0.546 a 12.341,12.341 0 0 0 -4.315,-0.754 c -4.914,0 -7.28,4.602 -7.28,8.814 0,2.548 1.378,3.926 3.354,3.926 1.82,0 3.094,-0.858 3.978,-2.392 L 386.693,104 h 2.262 l 2.106,-11.778 z m -2.833,1.638 -0.546,2.938 c -0.442,2.34 -2.34,5.252 -4.134,5.252 -1.092,0 -1.508,-0.624 -1.508,-2.028 0,-2.73 1.092,-6.396 4.498,-6.396 0.988,0 1.586,0.208 1.69,0.234 z m 13.401,-2.158 h -3.64 l 0.572,-3.146 h -2.158 l -0.988,3.146 -2.158,0.598 -0.286,1.508 0.078,0.078 h 1.976 l -1.222,6.604 c -0.13,0.676 -0.208,1.248 -0.208,1.768 0,1.248 0.52,1.95 2.288,1.95 1.742,0 3.874,-0.676 3.874,-0.676 l 0.312,-1.924 -0.078,-0.078 c -0.338,0.13 -1.846,0.468 -2.886,0.468 -0.572,0 -0.728,-0.416 -0.728,-0.962 0,-0.442 0.104,-0.988 0.182,-1.456 l 1.04,-5.694 h 3.536 l 0.104,-0.078 z m 11.624,0.52 a 12.341,12.341 0 0 0 -4.316,-0.754 c -4.914,0 -7.28,4.602 -7.28,8.814 0,2.548 1.378,3.926 3.354,3.926 1.82,0 3.094,-0.858 3.978,-2.392 L 408.884,104 h 2.262 z m -2.834,1.638 -0.546,2.938 c -0.442,2.34 -2.34,5.252 -4.134,5.252 -1.092,0 -1.508,-0.624 -1.508,-2.028 0,-2.73 1.092,-6.396 4.498,-6.396 0.988,0 1.586,0.208 1.69,0.234 z m 16.136,0.988 c 0,-2.028 -1.248,-3.38 -2.912,-3.38 -1.976,0 -3.666,1.222 -4.576,2.808 l 0.494,-2.522 1.014,-5.538 -0.078,-0.078 h -2.444 l -2.392,13.13 -0.78,3.744 c 1.014,0.598 2.782,1.196 4.576,1.196 5.018,0 7.098,-4.576 7.098,-9.36 z m -2.704,0.754 c 0,2.678 -0.936,6.396 -3.952,6.396 -0.91,0 -1.638,-0.182 -2.132,-0.442 l 0.52,-2.808 c 0.442,-2.34 2.496,-5.07 4.186,-5.07 0.988,0 1.378,0.754 1.378,1.924 z m 16.062,-3.38 a 12.341,12.341 0 0 0 -4.316,-0.754 c -4.914,0 -7.28,4.602 -7.28,8.814 0,2.548 1.378,3.926 3.354,3.926 1.82,0 3.094,-0.858 3.978,-2.392 L 435.544,104 h 2.262 z m -2.834,1.638 -0.546,2.938 c -0.442,2.34 -2.34,5.252 -4.134,5.252 -1.092,0 -1.508,-0.624 -1.508,-2.028 0,-2.73 1.092,-6.396 4.498,-6.396 0.988,0 1.586,0.208 1.69,0.234 z m 13.51,-2.002 c -0.988,-0.234 -1.898,-0.39 -3.068,-0.39 -2.834,0 -5.252,1.144 -5.252,4.03 0,1.222 0.702,2.132 1.924,2.756 l 2.132,1.066 c 0.572,0.286 0.988,0.52 0.988,1.092 0.026,1.43 -1.482,1.612 -2.574,1.612 -1.196,0 -2.548,-0.39 -3.094,-0.624 l -0.13,0.052 -0.702,2.132 c 0.338,0.13 0.962,0.286 0.962,0.286 0.546,0.156 1.586,0.338 2.704,0.338 2.834,0 5.46,-0.91 5.46,-4.186 0,-1.326 -0.702,-2.132 -1.742,-2.626 l -1.872,-0.91 c -0.728,-0.338 -1.352,-0.806 -1.352,-1.482 0,-0.988 1.04,-1.378 1.976,-1.378 1.118,0 2.288,0.156 3.146,0.416 l 0.104,-0.026 z m 12.487,2.782 c 0,-1.846 -1.144,-3.172 -3.874,-3.172 -5.018,0 -6.916,5.044 -6.916,8.762 0,2.444 1.248,3.978 4.68,3.978 1.664,0 2.626,-0.286 4.004,-0.806 l 0.338,-2.028 -0.104,-0.13 c -1.352,0.494 -2.574,0.78 -3.744,0.78 -1.898,0 -2.652,-0.494 -2.652,-1.872 0,-0.338 0.052,-0.65 0.104,-1.014 6.344,-0.052 8.164,-2.028 8.164,-4.498 z m -2.496,0.26 c 0,1.378 -1.976,2.132 -5.356,2.132 0.442,-1.846 1.794,-3.38 3.692,-3.38 0.962,0 1.664,0.39 1.664,1.248 z m 21.611,-3.718 c 0,-2.288 -1.638,-4.42 -5.226,-4.42 h -4.628 l -3.12,17.134 0.078,0.104 h 2.496 l 1.144,-6.396 h 2.106 c 4.264,0 7.15,-2.262 7.15,-6.422 z m -2.756,0.39 c 0,2.496 -2.054,3.562 -4.342,3.562 h -1.69 l 1.066,-5.902 h 1.846 c 2.262,0 3.12,0.936 3.12,2.34 z m 13.399,3.068 c 0,-1.846 -1.144,-3.172 -3.874,-3.172 -5.018,0 -6.916,5.044 -6.916,8.762 0,2.444 1.248,3.978 4.68,3.978 1.664,0 2.626,-0.286 4.004,-0.806 l 0.338,-2.028 -0.104,-0.13 c -1.352,0.494 -2.574,0.78 -3.744,0.78 -1.898,0 -2.652,-0.494 -2.652,-1.872 0,-0.338 0.052,-0.65 0.104,-1.014 6.344,-0.052 8.164,-2.028 8.164,-4.498 z m -2.496,0.26 c 0,1.378 -1.976,2.132 -5.356,2.132 0.442,-1.846 1.794,-3.38 3.692,-3.38 0.962,0 1.664,0.39 1.664,1.248 z m 13.279,-3.198 c 0,0 -0.546,-0.234 -1.378,-0.234 -1.872,0 -3.302,1.404 -3.978,2.912 l 0.104,-2.678 h -2.184 l -0.416,2.912 -1.716,9.386 h 2.626 l 0.962,-5.174 c 0.442,-2.418 2.08,-5.174 3.952,-5.174 0.52,0 0.78,0.078 1.014,0.208 l 0.156,-0.104 z m 10.348,-5.044 c -0.91,-0.338 -1.69,-0.52 -2.678,-0.52 -3.38,0 -4.186,1.69 -4.784,4.992 l -0.104,0.572 -2.106,0.598 -0.26,1.43 0.026,0.078 h 1.95 l -2.106,11.258 c -0.26,1.378 -0.546,2.652 -2.028,2.652 -0.78,0 -1.534,-0.104 -2.184,-0.338 l -0.078,0.052 -0.52,1.846 c 0.884,0.39 1.742,0.65 2.652,0.65 3.328,0 4.186,-1.69 4.81,-5.07 l 2.08,-11.05 h 3.302 l 0.078,-0.078 0.364,-2.028 h -3.354 l 0.13,-0.754 c 0.234,-1.378 0.364,-2.6 2.028,-2.6 0.78,0 1.586,0.208 2.158,0.468 l 0.078,-0.026 z m 9.61,9.126 c 0,-2.522 -1.066,-4.316 -4.68,-4.316 -4.81,0 -6.89,4.186 -6.89,8.398 0,2.678 1.352,4.342 4.706,4.342 4.784,0 6.864,-4.186 6.864,-8.424 z m -2.652,0.364 c 0,2.522 -0.962,5.876 -3.952,5.876 -1.612,0 -2.288,-1.144 -2.314,-2.756 -0.026,-2.444 0.884,-5.616 3.848,-5.616 1.716,0 2.418,0.936 2.418,2.496 z m 13.823,-4.446 c 0,0 -0.546,-0.234 -1.378,-0.234 -1.872,0 -3.302,1.404 -3.978,2.912 l 0.104,-2.678 h -2.184 l -0.416,2.912 -1.716,9.386 h 2.626 l 0.962,-5.174 c 0.442,-2.418 2.08,-5.174 3.952,-5.174 0.52,0 0.78,0.078 1.014,0.208 l 0.156,-0.104 z m 17.024,2.964 c 0,-1.898 -0.702,-3.198 -2.782,-3.198 -1.976,0 -3.64,1.482 -4.42,3.198 0.104,-1.638 -0.494,-3.198 -2.366,-3.198 -1.768,0 -3.198,1.716 -3.874,3.198 l 0.13,-2.964 h -2.236 c -0.156,1.066 -0.26,2.158 -0.442,3.224 L 534.115,104 h 2.626 l 0.728,-3.926 c 0.312,-1.716 1.742,-6.422 3.978,-6.422 0.858,0 0.962,0.858 0.962,1.534 0,0.624 -0.104,1.274 -0.208,1.898 L 540.927,104 h 2.6 l 0.702,-3.9 c 0.338,-1.872 1.43,-6.448 3.926,-6.448 0.832,0 0.962,0.884 0.962,1.534 0,0.65 -0.104,1.3 -0.234,1.95 L 547.609,104 h 2.626 l 1.3,-7.124 c 0.13,-0.728 0.234,-1.482 0.234,-2.21 z m 13.877,-2.444 a 12.341,12.341 0 0 0 -4.316,-0.754 c -4.914,0 -7.28,4.602 -7.28,8.814 0,2.548 1.378,3.926 3.354,3.926 1.82,0 3.094,-0.858 3.978,-2.392 L 561.278,104 h 2.262 z m -2.834,1.638 -0.546,2.938 c -0.442,2.34 -2.34,5.252 -4.134,5.252 -1.092,0 -1.508,-0.624 -1.508,-2.028 0,-2.73 1.092,-6.396 4.498,-6.396 0.988,0 1.586,0.208 1.69,0.234 z m 16.111,1.144 c 0,-2.106 -0.832,-3.536 -3.12,-3.536 -1.976,0 -3.51,1.378 -4.264,3.12 l 0.13,-2.886 h -2.262 c -0.156,1.092 -0.286,2.184 -0.468,3.276 -0.52,3.016 -1.118,6.006 -1.664,9.022 h 2.626 l 0.806,-4.342 c 0.156,-0.806 0.39,-1.586 0.728,-2.314 0.572,-1.352 2.002,-3.666 3.692,-3.666 0.962,0 1.17,0.832 1.17,1.612 0,0.702 -0.13,1.404 -0.26,2.08 L 574.84,104 h 2.6 l 1.248,-6.76 c 0.13,-0.728 0.234,-1.482 0.234,-2.236 z m 12.88,-2.964 c -0.936,-0.364 -1.768,-0.572 -2.99,-0.572 -5.174,0 -7.696,3.692 -7.696,8.424 0,2.626 1.144,4.316 4.862,4.316 1.378,0 2.678,-0.338 4.108,-0.728 l 0.338,-2.158 -0.104,-0.052 c -1.326,0.468 -2.548,0.754 -3.822,0.754 -2.054,0 -2.73,-0.936 -2.73,-2.522 0,-2.652 1.196,-5.85 4.316,-5.85 1.534,0 2.808,0.338 3.172,0.494 l 0.104,-0.052 z m 11.58,2.6 c 0,-1.846 -1.144,-3.172 -3.874,-3.172 -5.018,0 -6.916,5.044 -6.916,8.762 0,2.444 1.248,3.978 4.68,3.978 1.664,0 2.626,-0.286 4.004,-0.806 l 0.338,-2.028 -0.104,-0.13 c -1.352,0.494 -2.574,0.78 -3.744,0.78 -1.898,0 -2.652,-0.494 -2.652,-1.872 0,-0.338 0.052,-0.65 0.104,-1.014 6.344,-0.052 8.164,-2.028 8.164,-4.498 z m -2.496,0.26 c 0,1.378 -1.976,2.132 -5.356,2.132 0.442,-1.846 1.794,-3.38 3.692,-3.38 0.962,0 1.664,0.39 1.664,1.248 z m 18.803,-8.242 c -0.91,-0.338 -1.69,-0.52 -2.677,-0.52 -3.38,0 -4.186,1.69 -4.784,4.992 l -0.104,0.572 -2.106,0.598 -0.26,1.43 0.026,0.078 h 1.95 l -2.106,11.258 c -0.26,1.378 -0.546,2.652 -2.028,2.652 -0.78,0 -1.534,-0.104 -2.184,-0.338 l -0.078,0.052 -0.52,1.846 c 0.884,0.39 1.742,0.65 2.652,0.65 3.328,0 4.186,-1.69 4.81,-5.07 l 2.08,-11.05 h 3.302 l 0.078,-0.078 0.364,-2.028 h -3.354 l 0.13,-0.754 c 0.234,-1.378 0.364,-2.6 2.028,-2.6 0.78,0 1.586,0.208 2.158,0.468 l 0.078,-0.026 0.546,-2.132 z m 9.61,9.126 c 0,-2.522 -1.066,-4.316 -4.68,-4.316 -4.81,0 -6.89,4.186 -6.89,8.398 0,2.678 1.352,4.342 4.706,4.342 4.784,0 6.864,-4.186 6.864,-8.424 z m -2.652,0.364 c 0,2.522 -0.962,5.876 -3.952,5.876 -1.612,0 -2.288,-1.144 -2.314,-2.756 -0.026,-2.444 0.884,-5.616 3.848,-5.616 1.716,0 2.418,0.936 2.418,2.496 z m 13.824,-4.446 c 0,0 -0.546,-0.234 -1.378,-0.234 -1.872,0 -3.302,1.404 -3.978,2.912 l 0.104,-2.678 h -2.184 l -0.416,2.912 -1.716,9.386 h 2.626 l 0.962,-5.174 c 0.442,-2.418 2.08,-5.174 3.952,-5.174 0.52,0 0.78,0.078 1.014,0.208 l 0.156,-0.104 z m 18.798,0.312 c 0,-3.562 -1.69,-5.252 -5.72,-5.252 h -5.46 l -3.12,17.16 0.078,0.078 h 5.642 c 7.228,0 8.58,-5.876 8.58,-11.986 z m -2.756,0.754 c 0,4.004 -0.858,8.84 -5.59,8.84 h -2.964 l 2.262,-12.402 h 3.016 c 2.574,0 3.276,1.378 3.276,3.562 z m 15.373,1.872 c 0,-1.846 -1.144,-3.172 -3.874,-3.172 -5.018,0 -6.916,5.044 -6.916,8.762 0,2.444 1.248,3.978 4.68,3.978 1.664,0 2.626,-0.286 4.004,-0.806 l 0.338,-2.028 -0.104,-0.13 c -1.352,0.494 -2.574,0.78 -3.744,0.78 -1.898,0 -2.652,-0.494 -2.652,-1.872 0,-0.338 0.052,-0.65 0.104,-1.014 6.344,-0.052 8.164,-2.028 8.164,-4.498 z m -2.496,0.26 c 0,1.378 -1.976,2.132 -5.356,2.132 0.442,-1.846 1.794,-3.38 3.692,-3.38 0.962,0 1.664,0.39 1.664,1.248 z m 14.705,-3.068 -0.052,-0.13 h -2.626 l -4.004,9.334 h -0.052 l -0.832,-9.334 h -2.418 l -0.104,0.13 1.482,12.168 h 2.886 z m 10.897,2.808 c 0,-1.846 -1.144,-3.172 -3.874,-3.172 -5.018,0 -6.916,5.044 -6.916,8.762 0,2.444 1.248,3.978 4.68,3.978 1.664,0 2.626,-0.286 4.004,-0.806 l 0.338,-2.028 -0.104,-0.13 c -1.352,0.494 -2.574,0.78 -3.744,0.78 -1.898,0 -2.652,-0.494 -2.652,-1.872 0,-0.338 0.052,-0.65 0.104,-1.014 6.344,-0.052 8.164,-2.028 8.164,-4.498 z m -2.496,0.26 c 0,1.378 -1.976,2.132 -5.356,2.132 0.442,-1.846 1.794,-3.38 3.692,-3.38 0.962,0 1.664,0.39 1.664,1.248 z m 9.509,-8.658 -0.078,-0.104 h -2.496 l -3.224,17.784 0.078,0.078 h 2.496 z m 12.251,9.542 c 0,-2.522 -1.066,-4.316 -4.68,-4.316 -4.81,0 -6.89,4.186 -6.89,8.398 0,2.678 1.352,4.342 4.706,4.342 4.784,0 6.864,-4.186 6.864,-8.424 z m -2.652,0.364 c 0,2.522 -0.962,5.876 -3.952,5.876 -1.612,0 -2.288,-1.144 -2.314,-2.756 -0.026,-2.444 0.884,-5.616 3.848,-5.616 1.716,0 2.418,0.936 2.418,2.496 z m 16.164,-0.962 c 0,-2.08 -1.066,-3.718 -3.458,-3.718 -1.794,0 -3.354,1.066 -4.186,2.6 l -0.078,-2.366 h -2.158 l -0.494,3.302 -2.704,14.82 v 0.104 h 2.626 l 1.092,-6.084 c 0.182,0.078 1.274,0.364 2.496,0.364 5.356,0 6.864,-4.576 6.864,-9.022 z m -2.652,0.364 c 0,3.172 -1.014,6.448 -3.874,6.448 -0.988,0 -2.236,-0.312 -2.418,-0.338 0.182,-0.962 0.468,-2.522 0.468,-2.522 0.442,-2.392 2.236,-5.46 4.316,-5.46 1.144,0 1.508,0.702 1.508,1.872 z m 15.223,-0.91 c 0,-1.846 -1.144,-3.172 -3.874,-3.172 -5.018,0 -6.916,5.044 -6.916,8.762 0,2.444 1.248,3.978 4.68,3.978 1.664,0 2.626,-0.286 4.004,-0.806 l 0.338,-2.028 -0.104,-0.13 c -1.352,0.494 -2.574,0.78 -3.744,0.78 -1.898,0 -2.652,-0.494 -2.652,-1.872 0,-0.338 0.052,-0.65 0.104,-1.014 6.344,-0.052 8.164,-2.028 8.164,-4.498 z m -2.496,0.26 c 0,1.378 -1.976,2.132 -5.356,2.132 0.442,-1.846 1.794,-3.38 3.692,-3.38 0.963,0 1.665,0.39 1.665,1.248 z m 13.28,-3.198 c 0,0 -0.546,-0.234 -1.378,-0.234 -1.872,0 -3.302,1.404 -3.978,2.912 l 0.104,-2.678 h -2.184 l -0.416,2.912 -1.716,9.386 h 2.626 l 0.962,-5.174 c 0.442,-2.418 2.08,-5.174 3.952,-5.174 0.52,0 0.78,0.078 1.014,0.208 l 0.156,-0.104 z m 8.824,0.156 c -0.988,-0.234 -1.898,-0.39 -3.068,-0.39 -2.834,0 -5.252,1.144 -5.252,4.03 0,1.222 0.702,2.132 1.924,2.756 l 2.132,1.066 c 0.572,0.286 0.988,0.52 0.988,1.092 0.026,1.43 -1.482,1.612 -2.574,1.612 -1.196,0 -2.548,-0.39 -3.094,-0.624 l -0.13,0.052 -0.702,2.132 c 0.338,0.13 0.962,0.286 0.962,0.286 0.546,0.156 1.586,0.338 2.704,0.338 2.834,0 5.46,-0.91 5.46,-4.186 0,-1.326 -0.702,-2.132 -1.742,-2.626 l -1.872,-0.91 c -0.728,-0.338 -1.352,-0.806 -1.352,-1.482 0,-0.988 1.04,-1.378 1.976,-1.378 1.118,0 2.288,0.156 3.146,0.416 l 0.104,-0.026 z"
           id="path1" />
      </g>
    </g>
  </defs>
  <g
     id="g4"
     transform="matrix(0.9,0,0,0.9,0,-25)">
    <g
       id="RZ_Jedi_Angleichung_l">
      <path
         id="Schwanz"
         fill="#f39200"
         fill-rule="evenodd"
         d="m 56.14,169.02 c -22.85,-9.74 -26.56,-14.91 -38.05,-40.7 -0.76,0 -5.57,2.53 -10.89,-6.58 -2.8,-4.8 -13.16,-34.17 4.56,-46.83 17.72,-12.66 28.37,-7.64 28.37,-7.64 0.87,1.4 12.43,4.16 17.44,20.04 -1.22,21.5 10.65,77.05 -1.43,81.71 z"
         style="display:inline" />
      <path
         id="Hellblau"
         fill="#c8e1f3"
         d="m 114.02,2.94 c -6,-0.5 -21.96,18.16 -27.05,24.5 -6.83,8.66 -0.86,23.67 -0.86,23.67 -39.33,23.93 -11.38,55.8 -0.96,64.72 A 45,45 0 0 1 84.9,130 h 56.83 c -2.2,-6.83 -3.9,-13.8 -5.33,-21.46 l -0.7,-3.4 c -3.7,1.57 -10,1.58 -10,1.58 0,0 -6.84,-4.56 -4.56,-7.3 -0.68,-2.04 3.42,-8.42 3.42,-8.42 l 2.5,2.96 12.98,-12.15 c -0.81,-5.54 -1.33,-9.42 -2.03,-13.98 -6.26,-7.34 14.54,-42.24 -1.83,-51.62 -2.42,-0.4 -17,-10.17 -21.1,-12.9 -0.3,-0.22 -0.66,-0.33 -1.06,-0.37 z"
         transform="matrix(1.11111,0,0,1.11111,-33.33,27.78)"
         style="display:inline" />
      <path
         id="Hand"
         fill="#f39200"
         fill-rule="evenodd"
         d="m 82.3,150.5 c -0.22,-5.19 -2.4,-6.62 -13.58,-10.8 0.39,-2.15 4.82,-6.61 7.53,-7.3 5.44,1.54 5.51,1.56 11.3,2.16 1.18,0.23 2.25,0.78 3.41,1.08 4.56,1.85 5.03,2.04 7.14,3.85 -9.54,5.78 -0.16,8.05 7.26,11.5 -4.05,8.2 -15.12,7.66 -21.43,3.12 -0.6,-1.18 -1.4,-2.27 -1.62,-3.62 z"
         style="display:inline" />
      <path
         id="Kontur_geputzt"
         d="m 112.98,2.23 c -0.98,0.06 -1.94,0.35 -2.87,0.93 -1.43,0.9 -2.7,2.04 -3.97,3.15 -1.07,0.95 -20.65,16.35 -23.92,26.05 a 21.75,21.75 0 0 0 2,17.89 c 3.78,6.18 9.1,10.32 8.9,12.96 -0.17,2.22 -6.45,6.41 -8,8.52 -2.25,3.06 -2.46,5.47 -2.42,7.33 0.23,2.6 2.1,5.56 5.73,6.84 1.41,0.67 3.05,1.24 4.25,1.48 -0.56,-0.75 -1.5,-1.2 -2.1,-1.73 -0.76,-0.67 -1.48,-1.38 -2.24,-2.05 -1.63,-1.45 -2.62,-3.16 -2.52,-5.42 a 9.34,9.34 0 0 1 2.9,-6.38 c 1.97,-1.9 7.56,-5.02 7.38,-8.84 -0.19,-3.83 -5.09,-8.13 -6.85,-11.22 -2.68,-4.37 -3.87,-7.78 -4.22,-13.89 0,-3.93 1.07,-7.97 3.46,-10.73 3.44,-3.95 6.86,-7.75 10.52,-11.22 2.2,-2.3 9.1,-8.55 10.6,-9.7 1.18,-0.9 2.4,-1.72 3.93,-1.83 2.13,-0.14 3.72,0.92 5.13,2.33 3.38,2.88 7.16,6.16 11.03,7.78 0.87,0.36 1.72,0.8 2.42,1.35 -0.64,1.03 -1.79,1.45 -2.6,2.28 -0.58,0.6 -0.63,0.75 -0.07,1.36 0.28,0.3 0.66,0.22 1,0.22 1.48,-0.03 2.46,-1.04 3.47,-1.87 1.22,-1 2.7,-1.05 3.83,0.1 a 7.53,7.53 0 0 1 2.22,5.33 c -0.16,0.74 -0.18,0.42 -0.73,0.33 -0.6,-0.48 -0.83,-1.23 -1.33,-1.77 a 6,6 0 0 0 -5.44,-1.93 c -1.3,0.18 -2.52,0.55 -3.58,1.36 -1.14,0.88 -2.19,1.86 -3.31,2.77 -1.3,1.04 -3.78,2.58 -5.09,2.63 -1.7,0.07 -4.52,-1.67 -8.08,-4.1 -2.4,-1.63 -4.7,-4.73 -7.21,-3.84 -3.17,1.12 -2.11,10.5 -2.05,13.56 0,1.3 -1.62,3.78 -2.34,5.2 -0.57,1.1 -1.05,2.25 -1.65,3.34 -1.42,2.55 -1.93,5.35 -2.07,8.24 -0.1,2.27 0.27,4.45 1.42,6.38 a 35.4,35.4 0 0 0 3.3,4.44 c 1.39,1.67 4.82,3.01 7.14,4.71 1.71,1.25 3.51,3.9 5.17,5.28 0.85,0.71 3.37,2.13 7.1,0.51 4.13,-1.92 11.88,-2.15 14.15,-4.24 1.77,-1.23 2.61,-3.22 3.16,-5.26 0.58,-2.17 0.76,-4.44 1.63,-6.56 1.02,-2.83 2.29,-5.06 3.53,-7.43 a 21,21 0 0 0 1.5,-8.65 83,83 0 0 0 -0.83,-7.88 c -0.42,-5.17 -2.3,-9.27 -5.22,-13.1 -0.73,-0.95 -1.55,-1.58 -2.74,-1.74 a 5.05,5.05 0 0 1 -2.78,-1.23 4.95,4.95 0 0 0 -1.2,-0.83 C 130.48,12.56 123.43,7.7 122.15,6.73 120.52,5.51 118.72,3.68 115.97,2.71 a 7.67,7.67 0 0 0 -3,-0.48 z m -7.68,12.19 a 4.62,4.62 0 0 0 -3.9,1.8 11.15,11.15 0 0 0 -1.78,3.5 c -0.67,1.9 -1.4,3.79 -1.2,5.87 0.07,1.14 0.05,2.22 0.11,3.43 0,0.2 0.04,0.38 0.27,0.4 0.25,0.03 0.35,-0.1 0.4,-0.34 0.27,-1.03 0.6,-2.04 0.82,-3.08 0.39,-1.77 0.95,-3.73 1.59,-5.6 0.4,-0.9 0.74,-1.85 1.36,-2.64 0.43,-0.55 0.78,-1.21 1.61,-1.35 1.9,-0.32 3.59,0.21 5.16,1.21 0.54,0.35 1.1,0.65 1.6,1.05 1.26,0.53 2.44,1.41 3.83,2.03 0.88,0.27 1.79,0.49 2.73,0.52 0.7,0.03 0.92,-0.14 0.83,-0.81 -0.1,-0.38 -0.06,-0.84 -0.51,-0.93 a 4.13,4.13 0 0 1 -2.62,-0.61 c -1.34,-0.75 -2.7,-1.45 -4.03,-2.22 -1.74,-1 -3.5,-1.96 -5.59,-2.19 A 7.43,7.43 0 0 0 105.3,14.42 Z M 55.68,29.55 c -1.95,0 -3.26,0.89 -3.03,1.69 l 2.12,2.27 c -5,-1.21 -9.87,0.61 -9.72,1.68 0.16,1.06 2.28,-0.16 2.43,1.21 0.16,1.37 -4.85,3.19 -4.85,3.19 -8.17,5.73 -10.33,12.56 -11.47,18.37 -2.05,10.48 2.35,25.06 6.15,29.47 2.26,2.62 6.53,5.34 6.72,1.97 0.19,-3.26 1.14,-9.11 -0.8,-9.57 -2.28,1.6 -3.91,-0.94 -5.24,-2.5 -4.44,-5.24 -4.25,-16.02 -3.64,-20.28 0.6,-4.25 3.26,-10.19 8.2,-14.35 4.33,-3.64 8.28,-5.08 9.34,-5.69 1.06,-0.6 2.43,0.9 2.43,0.9 1.52,1.07 3.04,2.74 5.31,-1.5 9.68,-1.68 17.66,14.15 19.03,15.06 1.02,-0.11 1.82,-0.45 1.93,-1.25 -0.45,-1.06 -1.97,-4.56 -5.77,-9.87 -3.8,-5.32 -13.97,-9.57 -17,-10.48 a 7.35,7.35 0 0 0 -2.14,-0.32 z m -10.51,16 c -1.44,-0.06 -3.53,0.91 -3.53,0.91 0,0 -1.94,0.91 -0.23,1.94 1.7,1.02 7.75,1.6 8.77,4.78 1.2,3.74 1.14,9 -2.4,20.62 -3.52,11.62 -3.07,22.21 1.6,32.35 4.67,10.13 15.72,18.33 15.72,18.33 2.74,1.94 2.74,0.35 4.22,-1.14 4.9,2.97 11.39,3.88 11.39,3.88 0,0 3.19,-1.83 0.57,-2.17 -8.5,-1.1 -17.38,-8.74 -25.18,-20.16 -8.08,-11.85 -5.92,-25.97 -5.35,-31.2 0.57,-5.25 2.5,-18.46 2.5,-18.46 0.23,-5.12 -5.35,-9.57 -8.08,-9.68 z m 37.47,7.3 c -0.28,-0.03 -0.6,0 -0.93,0.1 -2.71,0.8 -18.09,11.9 -16.88,30.64 0.11,1.88 0.29,3.73 0.88,5.55 1.21,5.84 14.48,33.01 16.93,33.56 a 3.78,3.78 0 0 0 4.2,-1.79 c 1.68,-2.7 3.03,-6.56 3.8,-8.66 0.78,-2.1 1.39,-3.64 2.23,-5.4 0.36,-0.77 0.65,-1.57 0.93,-2.37 0.16,-0.45 -0.16,-0.95 -0.5,-0.83 -0.48,0.15 -0.99,0.08 -1.47,0.23 -0.85,0.26 -1.72,0.39 -2.64,0.5 0.23,-0.6 0.48,-1.15 0.95,-1.48 0.94,-0.08 1.86,0 2.9,-0.28 1.74,-0.2 3.34,0.4 4.84,1.1 1.42,0.65 2.84,1.34 4.15,2.23 0.64,0.43 0.94,0.87 0.86,1.59 -0.12,0.96 0.23,1.73 0.88,2.4 0.13,0.14 0.2,0.33 0.3,0.5 0.28,0.33 0.52,0.24 0.76,-0.05 0.2,-0.26 0.32,-0.52 0.26,-0.86 -0.1,-0.55 -0.03,-1.13 -0.35,-1.64 -0.1,-0.16 -0.03,-0.35 -0.02,-0.53 0.03,-0.75 0.04,-1.5 -0.59,-2.07 -1.06,-0.96 -2.09,-1.97 -3.25,-2.81 a 1.32,1.32 0 0 0 -0.5,-0.22 c -0.54,-0.12 -1.03,-0.35 -1.53,-0.56 -1.41,-0.6 -2.83,-1.16 -4.42,-1.08 -0.55,0.02 -1.12,-0.07 -1.68,-0.14 -0.2,-0.02 -0.48,-0.01 -0.54,-0.28 -0.08,-0.27 0.1,-0.52 0.3,-0.65 1.88,-1.18 3.05,-4.13 5.55,-4.94 0.4,-0.15 0.76,-0.16 1.16,0.03 l 1.56,0.78 c 1.96,0.93 4.2,1.83 6.26,2.97 0.55,0.19 1.14,0 1.5,-0.47 0.45,-0.59 0.55,-1.34 0.25,-1.82 -0.2,-0.16 -0.46,-0.24 -0.7,-0.24 -1.5,-0.02 -2.81,-0.68 -4.16,-1.21 -0.69,-0.27 -1.39,-0.55 -1.87,-1.21 -0.73,-1.02 -3.05,-1.7 -4.2,-1.23 -2.62,1.08 -4.8,3.02 -6.71,5.39 a 40.32,40.32 0 0 0 -3.96,6.1 c -2.1,3.75 -2.65,10.34 -4.46,7.79 -4.99,-7.05 -17.63,-23.17 -16.15,-32.74 1.56,-10 12.99,-18.8 17.43,-21.92 1.25,-0.89 0.62,-3.8 -1.37,-3.98 z M 98.9,67.32 a 0.84,0.84 0 0 0 -0.33,0.11 c -0.43,0.22 -0.38,0.66 -0.26,1.1 0.14,0.5 0.61,1.44 0.9,2.03 0.93,1.85 1.67,3.56 3.35,4.93 1.28,1.05 2.94,2.42 6.78,2.55 3.18,0.1 6.83,-1.6 11.13,-3.12 1.02,-0.45 2.09,-0.56 3.44,-0.73 0.45,-0.57 2.36,-1.47 1.85,-1.75 a 8.24,8.24 0 0 0 -2.59,-0.05 c -1.95,0.3 -3.74,0.95 -5.65,1.45 -1.45,0.37 -6.98,0.79 -10.07,-0.42 -3.1,-1.22 -6.83,-4.84 -7.71,-5.7 -0.25,-0.24 -0.52,-0.43 -0.84,-0.4 z m 28.34,6.09 c -0.54,0.23 -1.11,0.43 -1.62,0.73 -0.87,0.51 -0.96,1.06 -0.43,1.92 0.43,0.7 0.85,1.39 1.23,2.11 1.48,2.96 2,6.95 3.01,10.44 0.09,0.34 0.33,0.45 0.58,0.48 0.6,0.01 1.1,-0.34 1.36,-0.87 0.2,-0.82 0.56,-1.93 0.35,-2.91 -1.16,-2.9 -1.84,-5.85 -2.85,-9.07 -0.31,-0.85 -0.69,-2.46 -1.63,-2.83 z m 9.14,35.66 c -0.63,0.07 -1,0.2 -1.54,0.6 -0.8,0.58 -0.92,1.05 -0.5,2.32 1.57,4.73 1.87,9.55 3.88,14.73 0.2,0.61 0.78,2.16 1.18,3.28 h 2.83 a 74.7,74.7 0 0 1 -0.78,-2.21 c -1.79,-5.98 -3.03,-11.9 -4.4,-17.99 -0.08,-0.37 -0.2,-0.77 -0.67,-0.73 z m -11.39,13.66 c -0.5,-0.04 -0.95,0.47 -0.66,1.25 a 75.8,75.8 0 0 1 1.95,6.02 h 1.93 a 60.1,60.1 0 0 0 -2.39,-6.57 c -0.2,-0.47 -0.52,-0.68 -0.83,-0.7 z m -39.21,0.38 c -0.48,0.05 -1.08,0.46 -1.08,0.46 L 84,126.05 82.8,130 h 3.46 c 0.1,-1.04 0.15,-2.06 0.13,-3.03 0.07,-1.35 0.1,-2.61 -0.02,-3.4 -0.06,-0.4 -0.3,-0.5 -0.6,-0.46 z"
         transform="matrix(1.11111,0,0,1.11111,-33.33,27.78)"
         style="display:inline" />
      <path
         id="Farbe_Gesicht_3_"
         fill-rule="evenodd"
         d="m 120.74,76.24 c 0.12,1.8 -0.67,3.26 -1.55,4.74 -1.93,2.9 -3.18,6 -5.05,8.64 -0.56,0.78 -1.04,1.58 -1.77,2.25 -0.62,0.57 -1.09,0.35 -1.6,0.03 -1.2,-0.75 -2.07,-0.52 -2.69,0.73 -0.19,0.38 -0.45,0.52 -0.88,0.36 -0.73,-0.27 -1.32,-0.76 -1.98,-1.15 -2.86,-1.68 -11.6,-7.54 -13.74,-9.48 -0.98,-0.89 -2.4,-2.64 -3.12,-3.76 -1.52,-2.36 -1.98,-3.93 -2.9,-9 -0.48,-2.64 -3.18,-2.14 -3.46,-0.66 -0.56,3 0.52,6.1 1.81,8.86 a 21.86,21.86 0 0 0 6.37,7.7 34.57,34.57 0 0 0 4.17,2.81 c 2.6,1.63 5.18,3.22 7.3,4.9 0.46,0.33 0.67,0.6 0.18,1.18 -1.84,2.19 -2.07,4.73 -1.43,7.42 0.12,0.49 0.68,1.22 0.3,1.45 -1.23,0.72 -6.77,-6.14 -10.19,-7.53 -4.99,-2.04 -9.24,-6.9 -9.76,-7.66 -0.9,-1.3 -1.68,-2.7 -2.45,-4.1 -0.8,-1.5 -0.78,-3.1 -0.89,-4.7 0.21,-3.19 1.72,-6.03 3.01,-8.67 0.81,-1.87 2.03,-3.4 3.34,-6.1 0.82,-1.7 -0.14,-8.5 2.5,-9.7 1.76,-0.8 4.06,0.91 4.82,1.47 4.28,2.63 9.16,3.48 11.05,3.17 0.97,-0.16 1.82,-0.67 2.7,-1.11 1.51,-1.13 3.72,-3 6.14,-4.28 a 7.44,7.44 0 0 1 5.52,-0.63 c 1.65,0.44 3.98,3.74 4.6,5.43 0.85,2.28 1.74,3.59 2.2,4.79 -2.02,7.62 -2.07,7.63 -2.55,12.6 z"
         style="display:inline"
         fill="#f39200" />
      <path
         id="Augen_und_Nase"
         fill-rule="evenodd"
         d="m 92.34,63.23 c 3.09,-0.02 4.9,1.58 5.46,4.13 0.28,1.3 0.63,2.59 0.97,3.87 0.06,0.2 0.2,0.4 0.34,0.56 0.45,0.46 0.36,0.96 0.11,1.45 -0.25,0.5 -0.7,0.63 -1.23,0.48 a 0.64,0.64 0 0 0 -0.58,0.1 l -1.64,1.13 a 5.22,5.22 0 0 1 -3.61,0.99 c -1.77,-0.22 -4.74,-0.87 -5.66,-4.93 -0.25,-2.04 0.13,-4.5 1.79,-6 1.24,-1.1 2.7,-1.84 4.05,-1.78 z m 29.6,0.02 c -1.7,-0.25 -2.64,0.68 -2.9,2.6 -0.28,1.91 -1.34,5.55 -1.56,6.86 -0.14,0.8 -0.4,2.52 0.69,3 0.84,0.38 2,0.44 3.13,0.2 2.49,-0.54 4.13,-3.83 4.17,-6.13 -0.04,-2.35 -2.12,-6.52 -3.52,-6.53 z m -15.08,18.94 c -0.69,0.14 -1.42,0.22 -1.8,0.94 a 3.1,3.1 0 0 0 -0.28,2.44 c 0.54,1.79 1.73,3.16 2.84,4.6 0.4,0.5 0.84,0.63 1.43,0.4 0.26,-0.1 0.55,-0.12 0.84,-0.04 0.7,0.19 1.19,-0.18 1.65,-0.64 1.25,-1.26 1.9,-2.87 2.63,-4.44 0.45,-0.98 0,-2.26 -0.94,-2.71 -2.07,-0.8 -4.36,-0.74 -6.37,-0.55 z"
         style="display:inline" />
      <path
         id="Spiegel._Aug_l"
         fill="#ffffff"
         d="m 92.55,66.9 c -0.3,0.26 -0.89,0.71 -1.35,1.2 -0.36,0.38 -0.67,0.83 -0.75,1.05 -0.1,0.3 -0.17,0.6 -0.36,0.65 -0.2,0.05 -0.34,-0.17 -0.47,-0.48 -0.12,-0.31 -0.1,-1.14 0.46,-2.27 0.28,-0.56 0.61,-0.85 0.83,-1.06 0.32,-0.3 0.75,-0.03 1.04,0.14 0.3,0.17 0.84,0.55 0.6,0.77 z"
         style="display:inline" />
      <path
         id="Spiegel._Nase"
         fill="#ffffff"
         d="m 107.33,83.92 c 0,0 0,-0.85 0.8,-0.43 0,0 0.57,0.04 0.43,0.7 -0.14,0.64 -0.17,0.77 -0.25,0.97 -0.07,0.2 -0.35,0.14 -0.45,-0.06"
         style="display:inline" />
      <path
         id="Spiegel._Aug_r"
         fill="#ffffff"
         d="m 121.12,70.3 c -0.37,0.22 -0.7,0.03 -0.54,-0.41 0.17,-0.44 0.3,-1.6 0.4,-2 0.1,-0.4 0.35,-0.74 0.65,-0.74 0.3,0 0.49,0.6 0.51,0.8 0,0 0.14,1.67 -1.02,2.34 z" />
      <path
         id="Blitzer_Auge_neu"
         fill="#ffffff"
         d="m 123.35,63.69 a 5.49,5.49 0 0 0 -1,-0.33 c 0.57,0.56 3.05,3.12 3.07,6.49 a 6.29,6.29 0 0 1 -1.81,4.51 c -1.22,1.07 -2.13,1.57 -3.6,1.6 l 0.04,0.02 0.74,0.47 c 1.1,-0.04 2.2,-0.76 3.18,-1.74 a 6.79,6.79 0 0 0 1.95,-4.87 c -0.02,-2.8 -1.58,-5.02 -2.57,-6.15 z"
         style="display:inline" />
      <g
         id="Angl_u"
         style="display:inline">
        <linearGradient
           id="SVGID_1_"
           x1="198.22"
           x2="186.96001"
           y1="58.900002"
           y2="69.309998"
           gradientUnits="userSpaceOnUse">
          <stop
             id="stop28"
             offset="0"
             stop-color="#fff"
             stop-opacity="0" />
          <stop
             id="stop30"
             offset=".99"
             stop-color="#f39200" />
        </linearGradient>
      </g>
      <g
         id="Angl_o">
        <linearGradient
           id="SVGID_2_"
           x1="210.7"
           x2="191.82001"
           y1="43.950001"
           y2="60.029999"
           gradientTransform="matrix(0.9,0,0,0.9,30,-25)"
           gradientUnits="userSpaceOnUse">
          <stop
             id="stop38"
             offset="0"
             stop-color="#fff"
             stop-opacity="0" />
          <stop
             id="stop40"
             offset="1"
             stop-color="#f5a329" />
        </linearGradient>
        <g
           id="schwert-orange">
          <path
             id="path22"
             fill="#f39200"
             fill-rule="evenodd"
             d="m 143.18,102.68 c -14.55,13.83 -32.5,30.24 -32.92,30.63 0.48,0.5 3.57,3.55 4.07,3.77 1.03,1.1 43.17,-38.5 72.08,-65.71 l -0.88,-2.24 -0.03,-1.53 c -11.98,9.65 -40.46,33.3 -42.32,35.08 z" />
          <path
             id="path32"
             fill="url(#SVGID_1_)"
             fill-rule="evenodd"
             d="M 184.34,73.44 198.8,59.58 197.61,58.48 182.68,71.9 Z"
             style="fill:url(#SVGID_1_)" />
          <path
             id="path35"
             fill="#f5a329"
             d="m 189.8,59.73 c -16.89,15.42 -37.34,34.02 -46.82,43.14 0,0 37.42,-31.01 39.8,-32.9 0.75,-0.6 4.55,-4 9.44,-8.39 z" />
          <path
             id="schwert_spitze"
             fill="url(#SVGID_2_)"
             d="m 218.6,13.76 -7.63,6.44 -10.2,8.6 0.06,0.07 c 0.96,0.96 1.57,1.46 2.08,1.64 l 2.8,-2.51 v -0.01 l 3.54,-3.2 2.75,-2.48 8.4,-7.6 z"
             transform="matrix(1.11111,0,0,1.11111,-33.33,27.78)"
             style="fill:url(#SVGID_2_)" />
        </g>
      </g>
      <path
         id="Weiß_Schwertgriff"
         fill="#ffffff"
         fill-rule="evenodd"
         d="m 97.7,147.76 c -64.66,69.06 -32.33,34.53 0,0 z m -13.77,6.35 c -1.41,1.18 -2.96,2.36 -4.3,3.5 -0.51,0.51 7.72,5.7 7.72,5.7 l 4.55,-4.3 c 0.09,-0.62 -5.5,-3.08 -7.97,-4.9"
         style="display:inline" />
      <path
         id="path3112"
         d="m 104.96,129 13.34,13.59 c -5.9,2.33 -12.87,5.2 -16.12,6.14 l -7.16,-4.82 c 5,-4.08 6,-6.18 9.94,-14.9 z"
         style="display:inline;fill:none" />
      <path
         id="Schwert_mit_Hand"
         d="m 88.2,163.2 a 2.37,2.37 0 0 1 -1.45,3.3 c -1.09,0.36 -2.2,0.5 -3.15,0.5 a 7.9,7.9 0 0 1 -5.79,-1.98 c -2.45,-2.06 -3.01,-4.68 -2.38,-7.69 0.2,-0.97 0.5,-1.89 1.29,-2.6 0.27,-0.24 0.55,-0.4 0.87,-0.47 a 5.55,5.55 0 0 1 2.24,0.04 c 0.62,0.13 1.05,0.32 1.67,-0.04 0.44,-0.27 1.36,0.3 1.6,0.81 0.06,0.14 0.11,0.3 -0.01,0.4 -0.4,0.32 -0.55,0.9 -1.02,1.14 -0.37,0.2 -0.3,0.37 -0.1,0.64 0.94,1.3 2.1,2.38 3.42,3.28 0.31,0.21 0.6,0.36 1.04,0.31 0.89,-0.1 1.33,0.72 0.93,1.69 -0.11,0.26 -0.07,0.32 0.12,0.46 0.16,0.11 0.24,0.36 0.44,0.02 0.07,-0.12 0.17,-0.06 0.28,0.18 z m -0.52,-2.21 c 0.12,1.06 0.86,1.61 1.65,1.15 0.51,-0.3 0.98,-0.72 1.3,-1.23 0.29,-0.49 0.45,-1.05 -0.11,-1.46 a 1.75,1.75 0 0 0 -1.88,-0.15 c -0.87,0.58 -1,0.68 -0.96,1.69 z m 31.7,-29.46 c -0.5,0.46 -1.06,1.01 -1.49,1.42 -0.53,0.5 -1.38,1.05 -1.31,1.87 0.03,0.36 -2,2.03 -2.27,1.79 -1.4,-1.23 -3.43,-3.12 -4.75,-4.43 0,0 27.21,-26.13 30.27,-29 13.95,-13.29 13.88,-12.71 26.5,-24.68 4,-3.84 8.3,-8 11.96,-11.56 0.8,-0.79 6.48,-6.18 7.26,-6.99 0.25,-0.22 -0.29,-0.78 -0.64,-0.49 -1.78,1.6 -8.46,7.8 -10.22,9.43 -22.51,20.68 -32.3,29.89 -52.11,48.14 0,-0.3 -0.03,-0.47 0,-0.65 0.34,-2.03 0.19,-4.06 -0.1,-6.08 a 24.03,24.03 0 0 0 -2.27,-6.87 c -0.1,-0.2 -0.24,-0.4 -0.48,-0.52 -0.83,-0.48 -1.54,-0.1 -2.26,0.27 -0.53,0.27 -0.64,0.62 -0.34,1.18 0.36,0.69 1.04,1.07 1.42,1.72 1.45,2.46 1.89,5.23 2.56,7.94 0.27,1.1 0.24,2.28 0.77,3.32 0.1,0.19 0.02,0.3 -0.1,0.43 -4.55,4.38 -8.83,8.7 -12.93,12.82 -0.12,0.13 -0.3,0.5 -0.49,0.19 -0.56,-0.97 -1.61,-1.38 -2.33,-2.17 -0.82,-0.9 -1.82,-0.82 -2.63,0.1 -1.15,1.45 -2.28,3.4 -2.43,5 -0.08,1.01 -0.31,2.03 -0.23,3.07 0.03,0.46 -0.38,0.6 -0.68,0.75 -0.46,0.03 -0.68,-0.31 -0.97,-0.58 -2.5,-1.71 -5.17,-2.4 -8.13,-1.31 -0.24,0.03 -0.5,0.05 -0.54,0.36 -0.01,0.52 0.22,0.62 0.59,0.82 0.82,0.54 1.84,0.4 2.73,0.76 1.12,0.46 2.38,0.61 3.3,1.53 0.1,0.1 0.31,0.16 0.3,0.35 -0.02,0.22 -0.25,0.23 -0.42,0.28 -0.65,0.16 -1.23,0.41 -1.75,0.88 -0.41,0.37 -0.73,0.81 -1.14,1.18 -1.73,1.54 -1.49,2.92 -0.47,4.5 a 7.54,7.54 0 0 0 4,2.9 c 1.82,0.64 3.72,0.97 5.56,1.54 0.4,0.13 0.8,0.27 1.24,0.26 0.23,0 0.52,-0.03 0.57,0.3 -0.14,0.6 -0.5,0.58 -0.95,0.72 -0.83,-0.14 -1.43,0.23 -2,0.78 l -0.9,0.9 c -0.33,0.35 -0.7,0.5 -1.2,0.36 -0.4,-0.12 -0.88,-0.2 -1.23,0 -0.87,0.5 -1.74,1.02 -2.16,2.04 -0.35,0.85 -1.08,1.16 -1.97,1.1 a 2.95,2.95 0 0 1 -1.61,-0.66 c -0.4,-0.31 -0.82,-0.42 -1.35,-0.38 a 5,5 0 0 1 -1.93,-0.13 c -0.66,-0.2 -1.34,-0.32 -2.02,-0.39 a 1.76,1.76 0 0 1 -1.3,-0.68 c -0.28,-0.35 -0.6,-0.66 -0.95,-0.94 -0.52,-0.41 -1.17,-0.36 -1.43,0.09 -0.05,1.52 0.75,2.6 1.93,3.36 1.19,0.76 2.67,0.47 3.98,0.84 0.53,0.15 1,0.28 1.46,0.6 0.5,0.37 0.79,0.98 1.41,1.19 1.26,0.42 2.44,0.03 3.5,-0.58 0.9,-0.51 1.37,-1.48 1.94,-2.33 0.14,-0.2 0.26,-0.36 0.52,-0.28 0.74,0.21 1.5,0.16 2.23,0.08 0.88,-0.1 1.86,-0.24 2.24,-1.24 0.28,-0.76 0.75,-1.1 1.54,-1.18 1.28,-0.13 2.37,-0.6 2.94,-1.88 0.48,-1.1 0.12,-3.05 -1.69,-3.53 l 2.08,-1.92 c 0,0 0.85,0.06 1.4,0.03 2.01,-0.2 4.03,-0.36 5.93,-1.07 1.12,-0.41 2.28,-0.7 3.3,-1.4 1.1,-0.76 0.9,-2.82 -0.05,-3.78 -0.95,-0.95 -2.79,-2.53 -2.55,-2.8 0.6,-0.5 25.22,-24.07 28.46,-27.08 C 162,94.5 164.49,92.77 180.7,77.6 l 4.84,-4.5 c 0.38,-0.37 -0.61,-1.36 -1.03,-1.03 -0.73,0.57 -5.6,4.8 -6.41,5.52 -24.24,22.45 -37.73,34.35 -58.73,53.94 z m -16.1,16.5 c -2.77,-0.8 -4.27,-1.44 -6.34,-3.3 -0.3,-0.28 -0.34,-0.43 0.06,-0.57 0.29,-0.1 0.6,-0.16 0.84,-0.32 0.72,-0.49 1.23,-1.2 1.78,-1.85 0.2,-0.23 0.14,-0.6 0.03,-0.88 -0.18,-0.41 -0.1,-0.52 0.3,-0.36 0.58,-0.2 0.61,0.15 0.72,0.58 a 5.78,5.78 0 0 0 1.72,2.95 c 0.97,0.9 1.43,1.52 2.72,1.9 0.14,0.23 -1.66,1.89 -1.82,1.86 z m 1.37,-5.7 a 6.25,6.25 0 0 1 -2,-3.83 l 6.67,6.3 c -2.39,-0.09 -3.32,-1.23 -4.67,-2.47 z m 9.15,1.6 c -0.08,0.23 -0.87,0.5 -1.19,0.17 -0.28,-0.26 -7.46,-6.68 -8.83,-7.99 -0.78,-0.74 -0.91,-0.93 -0.29,-1.54 0.29,-0.18 0.46,0.12 0.61,0.26 1.1,1 2.17,2.01 3.24,3.02 2.34,2.19 3.81,3.36 6.14,5.55 0.16,0.15 0.41,0.3 0.32,0.53 z m 2.36,-2.53 c 0.43,0.43 0.78,0.54 0.4,0.95 -0.41,0.42 -0.8,0.24 -1.18,-0.11 a 482.23,482.23 0 0 1 -9.65,-9.21 c -0.52,-0.56 -1.16,-1.1 -0.92,-1.68 0.22,-0.52 0.41,-0.79 1.4,0.43 3.48,3.67 6.35,6.08 9.95,9.62 z"
         style="display:inline" />
    </g>
  </g>
</svg>
