<svg viewBox="0 0 54.044647 61.989349" width="16px" height="16px" version="1.1" id="svg6" sodipodi:docname="Zotero.svg" inkscape:version="1.3 (0e150ed6c4, 2023-07-21)" xmlns:inkscape="http://www.inkscape.org/namespaces/inkscape" xmlns:sodipodi="http://sodipodi.sourceforge.net/DTD/sodipodi-0.dtd" xmlns="http://www.w3.org/2000/svg" xmlns:svg="http://www.w3.org/2000/svg" fill="currentColor"><defs id="defs6"></defs><sodipodi:namedview id="namedview6" pagecolor="#ffffff" bordercolor="#000000" borderopacity="0.25" inkscape:showpageshadow="2" inkscape:pageopacity="0.0" inkscape:pagecheckerboard="0" inkscape:deskcolor="#d1d1d1" inkscape:zoom="6.0703125" inkscape:cx="40.936937" inkscape:cy="27.593308" inkscape:window-width="1920" inkscape:window-height="991" inkscape:window-x="-9" inkscape:window-y="-9" inkscape:window-maximized="1" inkscape:current-layer="svg6"></sodipodi:namedview><polygon fill="none" points="32,61 57,49 32,38 7,49 " id="polygon1" transform="translate(-4.980918,-1.0024114)"></polygon><polygon fill="none" points="7,49 7,15 32,3 32,38 " id="polygon2" transform="translate(-4.980918,-1.0024114)" style="display:inline;stroke-width:2.3;stroke-dasharray:none"></polygon><polygon fill="none" points="57,15 32,3 32,38 57,49 " id="polygon3" transform="translate(-4.980918,-1.0024114)" style="display:inline"></polygon><polygon fill="currentColor" points="45,42 42,38 33.529,38 30,42 " id="polygon4" transform="translate(-4.980918,-1.0024114)" style="display:inline"></polygon><polygon fill="currentColor" opacity="0.75" points="34,25 19,25 19,17 45,17 45,25 30,42 45,42 45,50 19,50 19,42 " id="polygon5" transform="translate(-4.980918,-1.0024114)" style="display:inline"></polygon><polygon fill="currentColor" points="42,13 45,17 19,17 22,13 " id="polygon6" transform="translate(-4.980918,-1.0024114)" style="display:inline"></polygon><path id="path6" style="display:inline;stroke-width:2.6;stroke-dasharray:none" d="M 26.888223,0.00540108 C 25.744797,0.1981226 24.777741,0.95017198 23.707969,1.3709416 16.109148,5.033187 8.4848524,8.6469452 0.90189447,12.339386 c -1.0201628,0.63101 -0.9146384,1.923197 -0.8828125,2.958203 0.006519,10.949247 -0.013032,21.900347 0.009766,32.848438 0.020681,1.083259 1.03470573,1.701754 1.93832383,2.043754 8.1490762,3.898551 16.2805652,7.840625 24.4405822,11.712105 1.264399,0.394158 2.33862,-0.648269 3.45796,-1.053571 7.749802,-3.728372 15.514174,-7.429924 23.25493,-11.174945 0.831727,-0.531886 0.997385,-1.5616 0.898438,-2.475781 -0.01174,-11.160205 0.02347,-22.322101 -0.01758,-33.48125 C 53.862344,12.43866 52.516398,12.016738 51.530052,11.545813 43.567825,7.7388923 35.625145,3.8832353 27.650776,0.1065908 27.410515,0.01722608 27.1431,-0.01366892 26.888223,0.00540108 Z M 25.019082,9.9975886 c -2.814641,0.032236 -5.637096,-0.063989 -8.446936,0.047138 -1.258622,0.329614 -1.723298,1.714477 -2.532239,2.595431 -0.62057,0.961524 -1.528233,1.765465 -1.950469,2.836445 -0.166281,1.693192 -0.02207,3.416515 -0.07036,5.120986 0.04477,1.29753 -0.08881,2.612666 0.06445,3.9 0.251742,1.120611 1.469858,1.666314 2.535547,1.5 3.320833,0 6.641667,0 9.9625,0 -4.086596,4.661393 -8.229868,9.276884 -12.28125,13.966797 -0.39721,0.414933 -0.08643,1.191562 -0.464562,1.478416 -1.17424,0.57911 -2.4743761,0.94506 -3.570348,1.658929 C 7.5849496,43.5742 7.4425983,44.72435 7.6792382,45.296417 7.1333727,44.172034 5.6111277,43.939288 4.6190778,44.605959 3.7903119,45.276464 4.0481355,44.255091 4.019082,43.680402 c 0,-9.473698 0,-18.947396 0,-28.421094 7,-3.360677 14,-6.7213548 21,-10.0820319 0,1.6067708 0,3.2135417 0,4.8203125 z m 25,5.2617194 c 0,9.888672 0,19.777343 0,29.666015 -2.666667,-1.173177 -5.333333,-2.346354 -8,-3.519531 0.195762,-1.315909 -0.942749,-2.200642 -1.58985,-3.189446 -0.791154,-0.935491 -1.368868,-2.084545 -2.306243,-2.877157 -0.979554,-0.621455 -2.212728,-0.232074 -3.303907,-0.3416 -0.611719,0 -1.223437,0 -1.835156,0 2.910665,-3.328181 5.878517,-6.610046 8.753906,-9.966797 0.535937,-1.091934 0.176599,-2.362148 0.28125,-3.533203 -0.04007,-1.989008 0.07881,-3.991729 -0.05664,-5.972656 -0.38073,-1.065285 -1.2896,-1.844816 -1.892587,-2.789054 -0.761818,-0.841538 -1.215552,-2.047671 -2.265617,-2.574228 -1.117574,-0.3491872 -2.329876,-0.07874 -3.485156,-0.1640624 -1.766667,0 -3.533333,0 -5.3,0 0,-1.6067708 0,-3.2135417 0,-4.8203125 7,3.3606771 14,6.7213549 21,10.0820319 z M 36.021035,13.997589 c 0.644507,0.927877 1.454135,1.800681 1.998047,2.762109 0,2.159375 0,4.31875 0,6.478125 -4.887908,5.559187 -9.812865,11.087847 -14.677734,16.666016 -0.883523,1.241871 0.151229,3.164578 1.677734,3.09375 4.333333,0 8.666667,0 13,0 0,1.333333 0,2.666667 0,4 -7.333333,0 -14.666667,0 -22,0 0,-1.746094 0,-3.492187 0,-5.238281 4.890177,-5.557796 9.812396,-11.089567 14.677734,-16.667969 0.883523,-1.241871 -0.151229,-3.164578 -1.677734,-3.09375 -4.333333,0 -8.666667,0 -13,0 0,-1.779297 0,-3.558594 0,-5.337891 0.666016,-0.887369 1.332031,-1.774739 1.998047,-2.662109 6.001302,0 12.002604,0 18.003906,0 z M 7.8433008,45.628448 c 0.5795371,1.05703 2.0196316,1.241888 2.9838052,0.614813 0.440182,-0.07178 1.426934,-0.977743 1.191976,-0.01911 0.08343,1.179719 -0.178946,2.409899 0.154297,3.556641 0.40043,1.007403 1.550338,1.351256 2.545703,1.216797 8.531921,-0.01565 17.066802,0.03129 25.596875,-0.02344 1.168894,-0.137948 1.882094,-1.365308 1.703125,-2.47656 0,-0.902995 0,-1.80599 0,-2.708984 1.73763,0.76302 3.47526,1.526041 5.212891,2.289062 C 40.494342,51.31074 33.756712,54.543813 27.019082,57.776886 20.258014,54.530792 13.496947,51.284698 6.7358789,48.038605 7.6777862,47.630576 8.1736996,46.44618 7.7710351,45.495636 l 0.047795,0.08784 z"></path></svg>