<svg version="1.1" xmlns="http://www.w3.org/2000/svg" viewBox="0 0 734.3005987207101 764.8541333945827" width="734.3005987207101" height="764.8541333945827">
  <!-- svg-source:excalidraw -->
  
  <defs>
    <style class="style-fonts">
      @font-face {
        font-family: "Virgil";
        src: url("https://excalidraw.com/Virgil.woff2");
      }
      @font-face {
        font-family: "Cascadia";
        src: url("https://excalidraw.com/Cascadia.woff2");
      }
    </style>
    
  </defs>
  <rect x="0" y="0" width="734.3005987207101" height="764.8541333945827" fill="#ffffff"/><g transform="translate(225.6288122221564 731.8541333945827) rotate(0 32.2314453125 11.5)"><text x="0" y="0" font-family="Helvetica, Segoe UI Emoji" font-size="20px" fill="#000000" text-anchor="start" style="white-space: pre;" direction="ltr" dominant-baseline="text-before-edge">main.ts</text></g><g transform="translate(10 10) rotate(0 20.009765625 11.5)"><text x="0" y="0" font-family="Helvetica, Segoe UI Emoji" font-size="20px" fill="#000000" text-anchor="start" style="white-space: pre;" direction="ltr" dominant-baseline="text-before-edge">Key:</text></g><g transform="translate(11.49513519622684 42.457343302047434) rotate(1.2188752351313137 52.484375 9.199999999999989)"><text x="0" y="0" font-family="Helvetica, Segoe UI Emoji" font-size="16px" fill="#5c940d" text-anchor="start" style="white-space: pre;" direction="ltr" dominant-baseline="text-before-edge">node_modules</text></g><g transform="translate(73.44526185191768 213.79290765437958) rotate(0 65.5908203125 46)"><text x="0" y="0" font-family="Helvetica, Segoe UI Emoji" font-size="20px" fill="#000000" text-anchor="start" style="white-space: pre;" direction="ltr" dominant-baseline="text-before-edge">Editor</text><text x="0" y="23" font-family="Helvetica, Segoe UI Emoji" font-size="20px" fill="#000000" text-anchor="start" style="white-space: pre;" direction="ltr" dominant-baseline="text-before-edge">Menu</text><text x="0" y="46" font-family="Helvetica, Segoe UI Emoji" font-size="20px" fill="#000000" text-anchor="start" style="white-space: pre;" direction="ltr" dominant-baseline="text-before-edge">Plugin</text><text x="0" y="69" font-family="Helvetica, Segoe UI Emoji" font-size="20px" fill="#000000" text-anchor="start" style="white-space: pre;" direction="ltr" dominant-baseline="text-before-edge">PluginManifest</text></g><g transform="translate(69.44526185191768 209.29290765437958) rotate(0 -5 58.5)" stroke="none"><path fill="#000000" d="M 0,1.06 Q 0,1.06 -0.86,1.06 -1.72,1.05 -2.95,1.00 -4.18,0.94 -5.56,0.90 -6.95,0.86 -7.82,0.88 -8.70,0.89 -9.34,0.92 -9.97,0.96 -10.68,1.77 -11.39,2.57 -11.59,3.74 -11.78,4.90 -11.80,5.51 -11.81,6.12 -11.89,7.23 -11.97,8.33 -12.02,9.39 -12.07,10.44 -12.04,11.17 -12.02,11.91 -11.54,12.98 -11.06,14.04 -10.39,14.29 -9.73,14.54 -8.97,14.97 -8.22,15.41 -7.62,15.90 -7.01,16.39 -6.46,16.88 -5.92,17.38 -5.39,17.90 -4.86,18.41 -4.50,19.08 -4.14,19.76 -3.99,20.39 -3.84,21.02 -3.78,21.59 -3.71,22.15 -3.67,23.24 -3.64,24.33 -3.99,25.13 -4.35,25.94 -4.46,26.95 -4.57,27.96 -4.95,28.81 -5.33,29.67 -5.82,30.98 -6.31,32.30 -6.81,33.21 -7.32,34.13 -7.85,34.88 -8.37,35.64 -8.87,36.43 -9.37,37.23 -9.90,37.95 -10.43,38.66 -10.94,39.26 -11.45,39.87 -11.97,40.43 -12.48,40.99 -13.03,41.24 -13.57,41.49 -14.10,42.48 -14.64,43.48 -14.62,44.42 -14.60,45.36 -14.61,46.27 -14.61,47.18 -14.02,48.20 -13.44,49.22 -12.83,50.08 -12.21,50.93 -11.82,51.72 -11.42,52.51 -11.04,53.38 -10.65,54.25 -10.23,55.21 -9.81,56.17 -9.37,57.17 -8.92,58.16 -8.65,58.92 -8.39,59.69 -8.25,60.33 -8.11,60.98 -8.03,61.55 -7.95,62.13 -7.91,62.66 -7.86,63.20 -7.86,64.00 -7.85,64.81 -7.83,65.44 -7.81,66.07 -7.83,66.91 -7.84,67.75 -7.91,69.27 -7.97,70.78 -8.31,71.85 -8.64,72.91 -9.09,74.16 -9.54,75.41 -9.69,76.20 -9.84,76.98 -10.22,77.76 -10.61,78.53 -10.77,79.57 -10.94,80.61 -11.35,81.07 -11.76,81.53 -12.08,82.47 -12.39,83.40 -12.52,84.14 -12.65,84.87 -12.69,85.49 -12.73,86.12 -12.82,87.22 -12.92,88.33 -12.98,89.67 -13.04,91.01 -13.04,91.87 -13.03,92.73 -13.05,93.67 -13.06,94.61 -13.03,95.29 -13.00,95.98 -12.96,96.55 -12.93,97.12 -12.68,97.77 -12.43,98.42 -11.85,99.24 -11.27,100.06 -10.71,100.71 -10.14,101.37 -9.12,102.20 -8.10,103.03 -7.05,104.02 -6.00,105.00 -4.98,106.00 -3.97,107.00 -3.22,108.05 -2.46,109.10 -1.61,110.07 -0.76,111.05 -0.10,111.74 0.56,112.44 1.65,113.28 2.74,114.13 4.34,115.10 5.95,116.08 6.06,116.15 6.16,116.22 6.25,116.33 6.33,116.43 6.37,116.56 6.41,116.68 6.41,116.81 6.41,116.95 6.37,117.07 6.33,117.20 6.25,117.30 6.17,117.41 6.06,117.48 5.95,117.56 5.83,117.59 5.70,117.63 5.57,117.62 5.44,117.62 5.31,117.57 5.19,117.52 5.09,117.44 4.99,117.35 4.92,117.24 4.85,117.13 4.82,117.00 4.79,116.87 4.81,116.74 4.82,116.61 4.88,116.49 4.93,116.37 5.02,116.27 5.11,116.17 5.23,116.11 5.34,116.05 5.47,116.03 5.60,116.00 5.73,116.02 5.86,116.04 5.98,116.11 6.10,116.17 6.19,116.26 6.28,116.36 6.34,116.48 6.39,116.60 6.41,116.73 6.42,116.86 6.39,116.99 6.37,117.12 6.30,117.23 6.23,117.34 6.13,117.43 6.03,117.51 5.91,117.56 5.79,117.61 5.66,117.62 5.52,117.63 5.40,117.60 5.27,117.56 5.27,117.56 5.27,117.56 3.57,116.41 1.87,115.27 0.67,114.36 -0.52,113.45 -1.17,112.72 -1.83,112.00 -2.75,110.98 -3.66,109.97 -4.35,109.04 -5.04,108.11 -6.06,107.16 -7.09,106.21 -8.13,105.30 -9.17,104.40 -10.37,103.51 -11.57,102.61 -12.18,101.90 -12.78,101.20 -13.59,100.17 -14.40,99.14 -14.73,98.15 -15.06,97.16 -15.03,96.57 -14.99,95.98 -14.96,95.29 -14.93,94.60 -14.93,93.66 -14.94,92.72 -14.93,91.85 -14.92,90.99 -14.96,89.64 -15.00,88.28 -15.04,87.09 -15.07,85.90 -14.99,85.20 -14.91,84.50 -14.75,83.45 -14.58,82.41 -14.28,81.71 -13.97,81.02 -13.38,79.96 -12.78,78.89 -12.55,78.23 -12.32,77.58 -11.98,77.08 -11.64,76.58 -11.44,75.72 -11.24,74.86 -10.87,73.60 -10.50,72.33 -10.26,71.54 -10.02,70.75 -10.09,69.25 -10.15,67.75 -10.17,66.92 -10.19,66.08 -10.17,65.45 -10.16,64.83 -10.15,63.55 -10.15,62.28 -10.18,61.25 -10.21,60.23 -10.36,59.59 -10.51,58.95 -11.03,57.99 -11.56,57.04 -12.07,56.12 -12.59,55.20 -13.05,54.34 -13.51,53.49 -13.75,52.93 -13.99,52.37 -14.88,51.41 -15.76,50.44 -16.20,49.70 -16.64,48.96 -17.00,48.15 -17.36,47.34 -17.33,46.27 -17.30,45.20 -17.25,44.66 -17.20,44.12 -17.08,43.53 -16.95,42.93 -16.34,42.24 -15.73,41.54 -14.88,40.49 -14.03,39.44 -13.55,38.94 -13.07,38.45 -12.58,37.92 -12.10,37.39 -11.64,36.80 -11.18,36.20 -10.70,35.28 -10.22,34.35 -9.81,33.75 -9.39,33.15 -9.03,32.22 -8.66,31.30 -8.39,30.58 -8.12,29.86 -7.70,28.78 -7.27,27.70 -7.23,26.81 -7.20,25.93 -7.00,25.25 -6.80,24.58 -6.59,23.94 -6.39,23.30 -6.41,22.40 -6.42,21.50 -6.52,20.81 -6.63,20.13 -7.11,19.67 -7.60,19.20 -8.09,18.74 -8.58,18.29 -9.48,17.58 -10.39,16.88 -11.36,16.51 -12.34,16.15 -12.77,15.26 -13.21,14.38 -13.56,13.87 -13.92,13.37 -13.94,12.64 -13.96,11.90 -13.93,11.16 -13.90,10.43 -13.94,9.37 -13.97,8.30 -14.02,7.14 -14.06,5.98 -13.99,5.32 -13.93,4.65 -13.80,3.70 -13.68,2.75 -13.36,2.05 -13.04,1.35 -12.35,0.51 -11.66,-0.32 -10.86,-0.64 -10.07,-0.96 -9.38,-0.92 -8.70,-0.89 -7.82,-0.88 -6.95,-0.86 -5.56,-0.90 -4.18,-0.94 -2.95,-1.00 -1.72,-1.05 -0.86,-1.06 0,-1.06 0.12,-1.05 0.25,-1.03 0.37,-0.99 0.49,-0.94 0.60,-0.87 0.70,-0.79 0.79,-0.70 0.87,-0.60 0.93,-0.49 0.99,-0.37 1.02,-0.25 1.06,-0.12 1.06,0.00 1.06,0.12 1.02,0.25 0.99,0.37 0.93,0.49 0.87,0.60 0.79,0.70 0.70,0.79 0.60,0.87 0.49,0.94 0.37,0.99 0.25,1.03 0.12,1.05 -0.00,1.06 -0.00,1.06 L 0,1.06 Z"/></g><g transform="translate(-15.554738148082322 244.29290765437958) rotate(270.9710219310792 39.4677734375 11.5)"><text x="0" y="0" font-family="Helvetica, Segoe UI Emoji" font-size="20px" fill="#5c940d" text-anchor="start" style="white-space: pre;" direction="ltr" dominant-baseline="text-before-edge">Obsidian</text></g><g transform="translate(263.71470179911734 212.98826614641) rotate(0 17.783203125 11.5)"><text x="0" y="0" font-family="Helvetica, Segoe UI Emoji" font-size="20px" fill="#000000" text-anchor="start" style="white-space: pre;" direction="ltr" dominant-baseline="text-before-edge">wait</text></g><g transform="translate(256.6845905823178 115.84229529115896) rotate(0 72.2705078125 23)"><text x="0" y="0" font-family="Helvetica, Segoe UI Emoji" font-size="20px" fill="#d9480f" text-anchor="start" style="white-space: pre;" direction="ltr" dominant-baseline="text-before-edge">*Some custom</text><text x="0" y="23" font-family="Helvetica, Segoe UI Emoji" font-size="20px" fill="#d9480f" text-anchor="start" style="white-space: pre;" direction="ltr" dominant-baseline="text-before-edge">wait function???</text></g><g stroke-linecap="round"><g transform="translate(266.3912752026654 167.69943814830185) rotate(0 6.665748077298389 18.108699713339803)"><path d="M0 0 C4.02 10.91, 8.04 21.83, 13.33 36.22 M0 0 C4.42 12.02, 8.85 24.04, 13.33 36.22" stroke="#d9480f" stroke-width="0.5" fill="none"/></g><g transform="translate(266.3912752026654 167.69943814830185) rotate(0 6.665748077298389 18.108699713339803)"><path d="M13.33 36.22 L2.69 25.65 L14.58 21.27 L13.33 36.22" stroke="none" stroke-width="0" fill="#d9480f" fill-rule="evenodd"/><path d="M13.33 36.22 C10.12 33.03, 6.92 29.85, 2.69 25.65 M13.33 36.22 C9.8 32.71, 6.27 29.2, 2.69 25.65 M2.69 25.65 C7.43 23.9, 12.18 22.15, 14.58 21.27 M2.69 25.65 C6.58 24.22, 10.47 22.79, 14.58 21.27 M14.58 21.27 C14.17 26.24, 13.75 31.21, 13.33 36.22 M14.58 21.27 C14.12 26.85, 13.65 32.44, 13.33 36.22 M13.33 36.22 C13.33 36.22, 13.33 36.22, 13.33 36.22 M13.33 36.22 C13.33 36.22, 13.33 36.22, 13.33 36.22" stroke="#d9480f" stroke-width="0.5" fill="none"/></g></g><mask/><g transform="translate(363.8582337505802 217.18256245030466) rotate(0 37.29845428466797 10.569312579432648)"><text x="0" y="0" font-family="Helvetica, Segoe UI Emoji" font-size="18.381413181621998px" fill="#000000" text-anchor="start" style="white-space: pre;" direction="ltr" dominant-baseline="text-before-edge">addIcons</text></g><g transform="translate(498.280732464615 214.93594144735818) rotate(0 91.94930267333984 10.569312579432648)"><text x="0" y="0" font-family="Helvetica, Segoe UI Emoji" font-size="18.381413181621998px" fill="#000000" text-anchor="start" style="white-space: pre;" direction="ltr" dominant-baseline="text-before-edge">Highlightr Settings Tab</text></g><g transform="translate(494.6412741726632 259.66671467227906) rotate(0 74.57894897460936 10.569312579432648)"><text x="0" y="0" font-family="Helvetica, Segoe UI Emoji" font-size="18.381413181621998px" fill="#000000" text-anchor="start" style="white-space: pre;" direction="ltr" dominant-baseline="text-before-edge">Highlightr Settings</text></g><g transform="translate(498.8978475167212 314.4019227465181) rotate(0 91.74738311767578 10.569312579432648)"><text x="0" y="0" font-family="Helvetica, Segoe UI Emoji" font-size="18.381413181621998px" fill="#000000" text-anchor="start" style="white-space: pre;" direction="ltr" dominant-baseline="text-before-edge">DEFAULT_SETTINGS</text></g><g transform="translate(480.66931622041386 394.0076612030412) rotate(0 52.61810302734375 10.569312579432648)"><text x="0" y="0" font-family="Helvetica, Segoe UI Emoji" font-size="18.381413181621998px" fill="#000000" text-anchor="start" style="white-space: pre;" direction="ltr" dominant-baseline="text-before-edge">contextMenu</text></g><g transform="translate(487.206234245427 445.8557752152516) rotate(0 71.1572265625 11.5)"><text x="0" y="0" font-family="Helvetica, Segoe UI Emoji" font-size="20px" fill="#000000" text-anchor="start" style="white-space: pre;" direction="ltr" dominant-baseline="text-before-edge">highlighterMenu</text></g><g transform="translate(440.78749430707137 560.9430546592682) rotate(0 106.1767578125 11.5)"><text x="0" y="0" font-family="Helvetica, Segoe UI Emoji" font-size="20px" fill="#000000" text-anchor="start" style="white-space: pre;" direction="ltr" dominant-baseline="text-before-edge">{createHighlighterIcons}</text></g><g transform="translate(171.92272677698975 486.78976404223295) rotate(0 55.0244140625 11.5)"><text x="0" y="0" font-family="Helvetica, Segoe UI Emoji" font-size="20px" fill="#000000" text-anchor="start" style="white-space: pre;" direction="ltr" dominant-baseline="text-before-edge">createStyles</text></g><g transform="translate(431.8396612207101 607.834106078864) rotate(0 146.23046875 11.5)"><text x="0" y="0" font-family="Helvetica, Segoe UI Emoji" font-size="20px" fill="#000000" text-anchor="start" style="white-space: pre;" direction="ltr" dominant-baseline="text-before-edge">{EnhancedApp, EnhancedEditor}</text></g></svg>