<svg width="16px" height="16px" viewBox="0 0 84.092667 84.092667" version="1.1" id="svg1" xml:space="preserve" inkscape:version="1.3 (0e150ed6c4, 2023-07-21)" sodipodi:docname="learncpp.svg" xmlns:inkscape="http://www.inkscape.org/namespaces/inkscape" xmlns:sodipodi="http://sodipodi.sourceforge.net/DTD/sodipodi-0.dtd" xmlns="http://www.w3.org/2000/svg" xmlns:svg="http://www.w3.org/2000/svg" fill="currentColor"><sodipodi:namedview id="namedview1" pagecolor="#ffffff" bordercolor="#000000" borderopacity="0.25" inkscape:showpageshadow="2" inkscape:pageopacity="0.0" inkscape:pagecheckerboard="0" inkscape:deskcolor="#d1d1d1" inkscape:document-units="mm" inkscape:zoom="0.69219276" inkscape:cx="18.780896" inkscape:cy="188.5313" inkscape:window-width="1920" inkscape:window-height="991" inkscape:window-x="-9" inkscape:window-y="-9" inkscape:window-maximized="1" inkscape:current-layer="layer1"></sodipodi:namedview><defs id="defs1"><inkscape:path-effect effect="powerclip" id="path-effect2" is_visible="true" lpeversion="1" inverse="true" flatten="false" hide_clip="false" message="Use fill-rule evenodd on <b>fill and stroke</b> dialog if no flatten result after convert clip to paths."></inkscape:path-effect></defs><g inkscape:label="Layer 1" inkscape:groupmode="layer" id="layer1" transform="translate(-57.335906,-22.552125)"><path id="path1" style="font-weight:bold;font-size:47.3474px;font-family:Cambria;-inkscape-font-specification:'Cambria Bold';display:inline;stroke-width:2.6633" class="powerclip" d="M 52.335907,17.552125 H 146.42858 V 111.6448 H 52.335907 Z m 27.326573,48.35008 q -1.618319,1.50273 -2.820498,2.0807 -1.179063,0.57797 -2.519955,0.57797 -1.849509,0 -2.982331,-0.99411 -1.132824,-1.01723 -1.641438,-2.86674 -0.508616,-1.87262 -0.508616,-4.57753 0,-2.7049 0.346784,-4.46194 0.346781,-1.78015 0.924753,-2.8205 0.601091,-1.06346 1.364012,-1.4796 0.78604,-0.43926 1.641438,-0.43926 1.294656,0 1.988222,0.99411 0.693565,0.99411 1.040347,3.16728 h 4.577532 v -5.57164 q -1.525844,-0.46238 -3.39847,-0.71668 -1.849509,-0.27743 -3.722134,-0.27743 -3.490947,0 -6.195854,1.43337 -2.704904,1.41025 -4.16139,4.18451 -1.43337,2.75114 -1.43337,6.54263 0,5.61788 2.635549,8.5771 2.635549,2.93609 7.65234,2.93609 2.496833,0 4.600649,-0.94787 2.126935,-0.97099 4.392581,-3.1904 z m 13.223981,10.0567 -2e-6,-4.36942 q 2.288767,0.60109 4.670009,0.60109 3.514072,0 5.918432,-1.34089 2.40436,-1.36401 3.60654,-4.0458 1.22529,-2.70491 1.22529,-6.70447 0,-5.77971 -2.05757,-8.66956 -2.05758,-2.91298 -6.17274,-2.91298 -1.826382,0 -3.560302,0.8554 -1.710795,0.83228 -3.699014,2.75114 l -0.277427,-0.0694 0.346782,-3.35223 h -2.843617 l -6.40392,0.18495 v 1.57208 q 0.878515,0.18495 1.317773,0.41614 0.462378,0.23119 0.693566,0.55486 0.231187,0.30054 0.346781,0.78604 0.138703,0.48549 0.161833,1.17906 0.04624,0.69356 0.04624,2.335 v 20.22899 q 0,1.75704 -0.184952,2.4506 -0.184951,0.71668 -0.62421,1.10971 -0.416137,0.39302 -1.502725,0.71668 v 1.52584 h 11.513188 v -1.52584 q -1.202182,-0.27743 -1.687677,-0.69357 -0.462378,-0.41614 -0.647327,-1.13282 -0.184951,-0.71668 -0.184951,-2.4506 z m 0,-11.72125 q 0,2.84362 0.970991,4.20763 0.994111,1.34089 3.051686,1.34089 2.12694,0 3.236642,-2.21941 1.13282,-2.24253 1.13282,-6.3808 0,-4.60065 -1.01722,-6.82006 -0.994122,-2.21941 -3.121052,-2.21941 -1.04035,0 -2.034458,0.53173 -0.970992,0.53174 -1.595199,1.52585 -0.62421,0.97099 -0.62421,2.19629 z m 28.274349,11.72125 4e-5,-4.36942 q 2.28877,0.60109 4.67001,0.60109 3.51407,0 5.91843,-1.34089 2.40436,-1.36401 3.60654,-4.0458 1.2253,-2.70491 1.2253,-6.70447 0,-5.77971 -2.05758,-8.66956 -2.05758,-2.91298 -6.17273,-2.91298 -1.82639,0 -3.56031,0.8554 -1.71079,0.83228 -3.69901,2.75114 l -0.27743,-0.0694 0.34678,-3.35223 h -2.84361 l -6.40393,0.18495 v 1.57208 q 0.87852,0.18495 1.31778,0.41614 0.46238,0.23119 0.69356,0.55486 0.23119,0.30054 0.34679,0.78604 0.13873,0.48549 0.16183,1.17906 0.0462,0.69356 0.0462,2.335 v 20.22899 q 0,1.75704 -0.18495,2.4506 -0.18495,0.71668 -0.62421,1.10971 -0.41614,0.39302 -1.50273,0.71668 v 1.52584 h 11.51319 v -1.52584 q -1.20218,-0.27743 -1.68768,-0.69357 -0.46237,-0.41614 -0.64733,-1.13282 -0.18495,-0.71668 -0.18495,-2.4506 z m 0,-11.72125 q 0,2.84362 0.971,4.20763 0.99411,1.34089 3.05168,1.34089 2.12694,0 3.23664,-2.21941 1.13283,-2.24253 1.13283,-6.3808 0,-4.60065 -1.01723,-6.82006 -0.99411,-2.21941 -3.12105,-2.21941 -1.04035,0 -2.03446,0.53173 -0.97099,0.53174 -1.5952,1.52585 -0.62421,0.97099 -0.62421,2.19629 z"></path></g></svg>