<?xml version="1.0" encoding="UTF-8" standalone="no"?>
<svg
   width="100%"
   height="100%"
   viewBox="0 0 491 491"
   version="1.1"
   xml:space="preserve"
   style="fill-rule:evenodd;clip-rule:evenodd;stroke-linejoin:round;stroke-miterlimit:2;"
   id="svg2"
   sodipodi:docname="Mermaid.svg"
   inkscape:version="1.3 (0e150ed6c4, 2023-07-21)"
   xmlns:inkscape="http://www.inkscape.org/namespaces/inkscape"
   xmlns:sodipodi="http://sodipodi.sourceforge.net/DTD/sodipodi-0.dtd"
   xmlns="http://www.w3.org/2000/svg"
   xmlns:svg="http://www.w3.org/2000/svg"><defs
   id="defs2"><inkscape:path-effect
     effect="powerclip"
     id="path-effect3"
     is_visible="true"
     lpeversion="1"
     inverse="true"
     flatten="false"
     hide_clip="false"
     message="Use fill-rule evenodd on &lt;b&gt;fill and stroke&lt;/b&gt; dialog if no flatten result after convert clip to paths." /><clipPath
     clipPathUnits="userSpaceOnUse"
     id="clipPath3"><path
       d="M 407.48,111.18 C 335.587,108.103 269.573,152.338 245.08,220 220.587,152.338 154.573,108.103 82.68,111.18 c -2.395,57.049 24.897,111.452 72.06,143.64 24.168,16.599 38.61,44.131 38.53,73.45 v 50.86 H 296.9 v -50.86 c -0.084,-29.317 14.355,-56.85 38.52,-73.45 47.176,-32.176 74.472,-86.587 72.06,-143.64 z"
       style="display:none;fill:none;fill-rule:nonzero"
       id="path3" /><path
       id="lpe_path-effect3"
       style="fill:none;fill-rule:nonzero"
       class="powerclip"
       d="M -5,-5 H 495.16 V 495.16 H -5 Z M 407.48,111.18 C 335.587,108.103 269.573,152.338 245.08,220 220.587,152.338 154.573,108.103 82.68,111.18 c -2.395,57.049 24.897,111.452 72.06,143.64 24.168,16.599 38.61,44.131 38.53,73.45 v 50.86 H 296.9 v -50.86 c -0.084,-29.317 14.355,-56.85 38.52,-73.45 47.176,-32.176 74.472,-86.587 72.06,-143.64 z" /></clipPath></defs><sodipodi:namedview
   id="namedview2"
   pagecolor="#ffffff"
   bordercolor="#000000"
   borderopacity="0.25"
   inkscape:showpageshadow="2"
   inkscape:pageopacity="0.0"
   inkscape:pagecheckerboard="0"
   inkscape:deskcolor="#d1d1d1"
   inkscape:zoom="1.5824847"
   inkscape:cx="245.18404"
   inkscape:cy="245.5"
   inkscape:window-width="1920"
   inkscape:window-height="991"
   inkscape:window-x="-9"
   inkscape:window-y="-9"
   inkscape:window-maximized="1"
   inkscape:current-layer="svg2" />&#10;    <path
   d="M 490.16,84.61 C 490.16,37.912 452.248,0 405.55,0 H 84.61 C 37.912,0 0,37.912 0,84.61 v 320.94 c 0,46.698 37.912,84.61 84.61,84.61 h 320.94 c 46.698,0 84.61,-37.912 84.61,-84.61 z"
   style="fill:currentColor;"
   id="path1"
   clip-path="url(#clipPath3)"
   inkscape:path-effect="#path-effect3"
   inkscape:original-d="M490.16,84.61C490.16,37.912 452.248,0 405.55,0L84.61,0C37.912,0 0,37.912 0,84.61L0,405.55C0,452.248 37.912,490.16 84.61,490.16L405.55,490.16C452.248,490.16 490.16,452.248 490.16,405.55L490.16,84.61Z" />&#10;    &#10;</svg>
