<?xml version="1.0" encoding="UTF-8" standalone="no"?>
<svg
   width="132"
   height="130"
   contentScriptType="text/ecmascript"
   contentStyleType="text/css"
   preserveAspectRatio="xMidYMid"
   version="1.0"
   zoomAndPan="magnify"
   id="svg2"
   sodipodi:docname="UseTheIndexLuke.svg"
   inkscape:version="1.3 (0e150ed6c4, 2023-07-21)"
   xmlns:inkscape="http://www.inkscape.org/namespaces/inkscape"
   xmlns:sodipodi="http://sodipodi.sourceforge.net/DTD/sodipodi-0.dtd"
   xmlns="http://www.w3.org/2000/svg"
   xmlns:svg="http://www.w3.org/2000/svg">
  <sodipodi:namedview
     id="namedview2"
     pagecolor="#ffffff"
     bordercolor="#000000"
     borderopacity="0.25"
     inkscape:showpageshadow="2"
     inkscape:pageopacity="0.0"
     inkscape:pagecheckerboard="0"
     inkscape:deskcolor="#d1d1d1"
     inkscape:zoom="4.2279476"
     inkscape:cx="50.497315"
     inkscape:cy="58.065999"
     inkscape:window-width="1920"
     inkscape:window-height="991"
     inkscape:window-x="-9"
     inkscape:window-y="-9"
     inkscape:window-maximized="1"
     inkscape:current-layer="RZ_Jedi_Angleichung_l" />
  <style
     xml:space="preserve"
     type="text/css"
     id="style1">#text path {fill: #1A4E8A;}</style>
  <defs
     id="defs1">
    <filter
       id="contrastglow"
       filterUnits="objectBoundingBox"
       x="-0.0093065821"
       y="-0.061765728"
       width="1.0186132"
       height="1.1235315">
      <feComponentTransfer
         in="SourceAlpha"
         out="SourceGreen"
         id="feComponentTransfer1">
        <feFuncB
           tableValues="1"
           type="discrete"
           id="feFuncB1" />
        <feFuncR
           tableValues="1"
           type="discrete"
           id="feFuncR1" />
        <feFuncG
           tableValues="1"
           type="discrete"
           id="feFuncG1" />
      </feComponentTransfer>
      <feGaussianBlur
         result="blur"
         stdDeviation="2"
         id="feGaussianBlur1" />
    </filter>
    <g
       id="text">
      <g
         id="g1">
        <path
           d="m 284.055,33.535 h -5.445 l -4.18,22.99 c -0.825,4.565 -3.63,8.855 -8.745,8.855 -3.905,0 -5.83,-2.42 -5.83,-6.215 0,-0.88 0.11,-1.76 0.275,-2.64 l 4.18,-22.99 h -5.445 l -4.07,22.275 c -0.275,1.485 -0.44,2.97 -0.44,4.455 0,6.875 3.685,10.175 10.45,10.175 9.35,0 13.75,-6.6 15.29,-15.07 z m 28.308,0.605 c -2.475,-0.66 -5.06,-1.045 -8.14,-1.045 -7.645,0 -14.19,4.07 -14.19,12.1 0,3.575 2.035,5.555 5.445,7.315 l 4.07,2.09 c 2.42,1.265 4.235,2.31 4.235,5.005 0,4.235 -4.73,6.05 -8.415,6.05 -3.74,0 -6.435,-0.715 -8.745,-1.65 l -0.165,0.11 -1.375,5.06 c 3.135,0.935 6.875,1.265 10.945,1.265 7.425,0 13.86,-4.455 13.86,-12.1 0,-3.575 -1.705,-5.885 -4.73,-7.535 L 299.988,48 c -2.035,-1.1 -4.125,-2.145 -4.125,-4.455 0,-4.015 4.455,-5.665 7.92,-5.665 2.31,0 4.73,0.275 7.095,1.21 l 0.22,-0.11 z m 31.012,-0.605 H 322.75 l -6.6,36.3 0.11,0.165 h 21.505 l 0.495,-4.895 -0.165,-0.165 h -15.62 l 1.98,-10.725 h 12.155 l 0.935,-5.28 H 325.39 l 1.87,-10.23 h 14.63 l 0.22,-0.165 z m 41.898,0 h -23.54 l -0.88,4.95 0.11,0.165 h 9.185 l -5.665,31.13 0.165,0.22 h 5.335 l 5.72,-31.35 h 8.415 l 0.275,-0.22 z m 32.11,0.22 -0.165,-0.22 h -5.28 l -2.805,15.455 h -15.62 l 2.75,-15.29 -0.165,-0.165 h -5.225 l -6.6,36.245 0.11,0.22 h 5.28 l 2.86,-15.73 h 15.675 l -2.805,15.51 0.11,0.22 h 5.28 z m 30.565,-0.22 h -20.625 l -6.6,36.3 0.11,0.165 h 21.505 l 0.495,-4.895 -0.165,-0.165 h -15.62 l 1.98,-10.725 h 12.155 l 0.935,-5.28 h -12.155 l 1.87,-10.23 h 14.63 l 0.22,-0.165 z m 28.147,0.165 -0.165,-0.165 h -5.225 l -6.6,36.245 0.165,0.22 h 5.225 z m 35.69,-0.165 h -5.335 l -0.22,0.22 -5.28,29.26 h -0.165 c 0,0 -0.99,-5.445 -1.155,-6.27 l -5.335,-23.21 H 486.1 l -6.6,36.245 0.165,0.22 h 5.28 l 5.335,-29.26 h 0.165 c 0,0 1.21,5.94 1.375,6.655 L 497.1,70 h 7.92 l 0.165,-0.165 z m 33.662,11.11 c 0,-7.535 -3.575,-11.11 -12.1,-11.11 h -11.55 l -6.6,36.3 0.165,0.165 h 11.935 c 15.29,0 18.15,-12.43 18.15,-25.355 z m -5.83,1.595 c 0,8.47 -1.815,18.7 -11.825,18.7 h -6.27 l 4.785,-26.235 h 6.38 c 5.445,0 6.93,2.915 6.93,7.535 z m 37.106,-12.705 h -20.625 l -6.6,36.3 0.11,0.165 h 21.505 l 0.495,-4.895 -0.165,-0.165 h -15.62 l 1.98,-10.725 h 12.155 l 0.935,-5.28 h -12.155 l 1.87,-10.23 h 14.63 l 0.22,-0.165 z m 31.373,0.165 -0.055,-0.165 h -6.49 l -8.855,11.99 -4.18,-11.99 h -6.655 l -0.165,0.165 6.655,16.775 -15.345,19.36 0.055,0.165 h 6.6 l 11,-14.355 L 595.39,70 h 6.765 l 0.11,-0.165 -7.15,-19.195 12.98,-16.94 z m 6.158,32.835 c 0,-1.705 -0.88,-3.135 -2.695,-3.135 -2.475,0 -4.015,1.87 -4.015,4.29 0,1.32 0.715,2.09 1.54,2.09 h 0.055 c -0.22,1.265 -1.815,2.805 -3.3,4.07 l 2.145,2.53 c 3.245,-1.98 6.27,-5.61 6.27,-9.845 z m 42.955,-1.43 -0.165,-0.165 h -15.015 l 5.665,-31.185 -0.22,-0.22 h -5.28 L 635.594,70 h 21.12 z m 35.764,-31.57 h -5.445 l -4.18,22.99 c -0.825,4.565 -3.63,8.855 -8.745,8.855 -3.905,0 -5.83,-2.42 -5.83,-6.215 0,-0.88 0.11,-1.76 0.275,-2.64 l 4.18,-22.99 h -5.445 l -4.07,22.275 c -0.275,1.485 -0.44,2.97 -0.44,4.455 0,6.875 3.685,10.175 10.45,10.175 9.35,0 13.75,-6.6 15.29,-15.07 z m 33.368,0.165 -0.055,-0.165 h -5.885 l -15.07,15.125 h -0.165 l 2.695,-14.905 -0.165,-0.22 h -5.28 l -6.6,36.3 0.11,0.165 h 5.39 l 2.915,-16.225 h 0.165 L 713.856,70 h 5.94 l 0.165,-0.165 -10.945,-18.81 z m 25.415,-0.165 h -20.625 l -6.6,36.3 0.11,0.165 h 21.505 l 0.495,-4.895 -0.165,-0.165 h -15.62 l 1.98,-10.725 h 12.155 l 0.935,-5.28 h -12.155 l 1.87,-10.23 h 14.63 l 0.22,-0.165 z m 12.838,-1.32 h -5.72 l -4.95,27.335 0.165,0.22 h 5.335 l 0.165,-0.22 z M 759.04,66.26 c 0,-1.595 -1.265,-2.86 -2.97,-2.86 -2.31,0 -4.235,1.925 -4.235,4.125 0,1.76 1.21,2.915 2.97,2.915 2.31,0 4.235,-1.815 4.235,-4.18 z m -496.222,37.662 -1.95,-17.16 h -3.562 l -8.476,17.16 0.078,0.078 h 2.834 l 2.392,-5.018 h 5.252 l 0.416,5.018 h 2.912 z m -3.588,-7.384 h -4.108 l 3.276,-6.942 h 0.156 z m 25.616,-9.386 c -1.118,-0.364 -2.21,-0.598 -4.082,-0.598 -6.63,0 -10.348,5.044 -10.348,11.102 0,4.186 2.288,6.578 6.656,6.578 2.21,0 4.03,-0.572 5.304,-1.092 l 1.456,-8.112 h -2.522 l -0.078,0.104 -1.17,6.37 c -0.988,0.26 -1.898,0.364 -2.808,0.364 -2.808,0 -4.03,-2.366 -4.03,-5.096 0,-4.056 2.496,-7.696 6.89,-7.696 1.248,0 2.678,0.234 3.614,0.546 l 0.104,-0.078 z m 10.641,4.55 -1.118,6.136 c -0.312,1.638 -1.482,4.186 -3.458,4.186 -1.118,0 -1.612,-0.65 -1.612,-1.742 0,-0.286 0.026,-0.572 0.078,-0.858 l 1.404,-7.722 h -2.626 l -1.404,7.774 c -0.078,0.416 -0.13,0.832 -0.13,1.274 0,2.262 1.326,3.458 3.588,3.458 1.586,0 2.886,-0.884 3.64,-2.236 l 0.312,2.028 h 1.872 c 0.182,-1.248 0.312,-2.548 0.52,-3.796 0.468,-2.834 1.014,-5.668 1.534,-8.502 z m 10.175,-4.264 c 0,-0.728 -0.598,-1.3 -1.378,-1.3 -1.014,0 -1.976,0.858 -1.976,1.924 0,0.754 0.572,1.352 1.378,1.352 1.014,0 1.976,-0.832 1.976,-1.976 z m -1.144,4.316 -0.052,-0.052 h -2.522 l -2.21,12.194 0.052,0.104 h 2.522 z m 14.306,-5.512 -0.078,-0.104 h -2.418 l -1.092,5.98 c -0.182,-0.13 -1.222,-0.65 -2.678,-0.65 -4.888,0 -6.422,4.732 -6.422,8.736 0,2.652 1.43,4.004 3.432,4.004 1.846,0 3.068,-1.092 3.874,-2.392 L 313.338,104 h 2.314 z m -3.978,7.93 -0.494,2.782 c -0.442,2.496 -2.158,5.044 -3.874,5.044 -1.352,0 -1.742,-1.014 -1.742,-2.548 0,-2.34 0.858,-5.772 3.484,-5.772 1.352,0 2.444,0.364 2.626,0.494 z m 15.487,0.468 c 0,-1.846 -1.144,-3.172 -3.874,-3.172 -5.018,0 -6.916,5.044 -6.916,8.762 0,2.444 1.248,3.978 4.68,3.978 1.664,0 2.626,-0.286 4.004,-0.806 l 0.338,-2.028 -0.104,-0.13 c -1.352,0.494 -2.574,0.78 -3.744,0.78 -1.898,0 -2.652,-0.494 -2.652,-1.872 0,-0.338 0.052,-0.65 0.104,-1.014 6.344,-0.052 8.164,-2.028 8.164,-4.498 z m -2.496,0.26 c 0,1.378 -1.976,2.132 -5.356,2.132 0.442,-1.846 1.794,-3.38 3.692,-3.38 0.962,0 1.664,0.39 1.664,1.248 z m 17.373,-3.198 h -3.64 l 0.572,-3.146 h -2.158 l -0.988,3.146 -2.158,0.598 -0.286,1.508 0.078,0.078 h 1.976 l -1.222,6.604 c -0.13,0.676 -0.208,1.248 -0.208,1.768 0,1.248 0.52,1.95 2.288,1.95 1.742,0 3.874,-0.676 3.874,-0.676 l 0.312,-1.924 -0.078,-0.078 c -0.338,0.13 -1.846,0.468 -2.886,0.468 -0.572,0 -0.728,-0.416 -0.728,-0.962 0,-0.442 0.104,-0.988 0.182,-1.456 l 1.04,-5.694 h 3.536 l 0.104,-0.078 z m 11.598,4.082 c 0,-2.522 -1.066,-4.316 -4.68,-4.316 -4.81,0 -6.89,4.186 -6.89,8.398 0,2.678 1.352,4.342 4.706,4.342 4.784,0 6.864,-4.186 6.864,-8.424 z m -2.652,0.364 c 0,2.522 -0.962,5.876 -3.952,5.876 -1.612,0 -2.288,-1.144 -2.314,-2.756 -0.026,-2.444 0.884,-5.616 3.848,-5.616 1.716,0 2.418,0.936 2.418,2.496 z m 23.481,-4.134 c 0,-3.562 -1.69,-5.252 -5.72,-5.252 h -5.46 l -3.12,17.16 0.078,0.078 h 5.642 c 7.228,0 8.58,-5.876 8.58,-11.986 z m -2.756,0.754 c 0,4.004 -0.858,8.84 -5.59,8.84 h -2.964 l 2.262,-12.402 h 3.016 c 2.574,0 3.276,1.378 3.276,3.562 z m 16.179,-0.546 a 12.341,12.341 0 0 0 -4.315,-0.754 c -4.914,0 -7.28,4.602 -7.28,8.814 0,2.548 1.378,3.926 3.354,3.926 1.82,0 3.094,-0.858 3.978,-2.392 L 386.693,104 h 2.262 l 2.106,-11.778 z m -2.833,1.638 -0.546,2.938 c -0.442,2.34 -2.34,5.252 -4.134,5.252 -1.092,0 -1.508,-0.624 -1.508,-2.028 0,-2.73 1.092,-6.396 4.498,-6.396 0.988,0 1.586,0.208 1.69,0.234 z m 13.401,-2.158 h -3.64 l 0.572,-3.146 h -2.158 l -0.988,3.146 -2.158,0.598 -0.286,1.508 0.078,0.078 h 1.976 l -1.222,6.604 c -0.13,0.676 -0.208,1.248 -0.208,1.768 0,1.248 0.52,1.95 2.288,1.95 1.742,0 3.874,-0.676 3.874,-0.676 l 0.312,-1.924 -0.078,-0.078 c -0.338,0.13 -1.846,0.468 -2.886,0.468 -0.572,0 -0.728,-0.416 -0.728,-0.962 0,-0.442 0.104,-0.988 0.182,-1.456 l 1.04,-5.694 h 3.536 l 0.104,-0.078 z m 11.624,0.52 a 12.341,12.341 0 0 0 -4.316,-0.754 c -4.914,0 -7.28,4.602 -7.28,8.814 0,2.548 1.378,3.926 3.354,3.926 1.82,0 3.094,-0.858 3.978,-2.392 L 408.884,104 h 2.262 z m -2.834,1.638 -0.546,2.938 c -0.442,2.34 -2.34,5.252 -4.134,5.252 -1.092,0 -1.508,-0.624 -1.508,-2.028 0,-2.73 1.092,-6.396 4.498,-6.396 0.988,0 1.586,0.208 1.69,0.234 z m 16.136,0.988 c 0,-2.028 -1.248,-3.38 -2.912,-3.38 -1.976,0 -3.666,1.222 -4.576,2.808 l 0.494,-2.522 1.014,-5.538 -0.078,-0.078 h -2.444 l -2.392,13.13 -0.78,3.744 c 1.014,0.598 2.782,1.196 4.576,1.196 5.018,0 7.098,-4.576 7.098,-9.36 z m -2.704,0.754 c 0,2.678 -0.936,6.396 -3.952,6.396 -0.91,0 -1.638,-0.182 -2.132,-0.442 l 0.52,-2.808 c 0.442,-2.34 2.496,-5.07 4.186,-5.07 0.988,0 1.378,0.754 1.378,1.924 z m 16.062,-3.38 a 12.341,12.341 0 0 0 -4.316,-0.754 c -4.914,0 -7.28,4.602 -7.28,8.814 0,2.548 1.378,3.926 3.354,3.926 1.82,0 3.094,-0.858 3.978,-2.392 L 435.544,104 h 2.262 z m -2.834,1.638 -0.546,2.938 c -0.442,2.34 -2.34,5.252 -4.134,5.252 -1.092,0 -1.508,-0.624 -1.508,-2.028 0,-2.73 1.092,-6.396 4.498,-6.396 0.988,0 1.586,0.208 1.69,0.234 z m 13.51,-2.002 c -0.988,-0.234 -1.898,-0.39 -3.068,-0.39 -2.834,0 -5.252,1.144 -5.252,4.03 0,1.222 0.702,2.132 1.924,2.756 l 2.132,1.066 c 0.572,0.286 0.988,0.52 0.988,1.092 0.026,1.43 -1.482,1.612 -2.574,1.612 -1.196,0 -2.548,-0.39 -3.094,-0.624 l -0.13,0.052 -0.702,2.132 c 0.338,0.13 0.962,0.286 0.962,0.286 0.546,0.156 1.586,0.338 2.704,0.338 2.834,0 5.46,-0.91 5.46,-4.186 0,-1.326 -0.702,-2.132 -1.742,-2.626 l -1.872,-0.91 c -0.728,-0.338 -1.352,-0.806 -1.352,-1.482 0,-0.988 1.04,-1.378 1.976,-1.378 1.118,0 2.288,0.156 3.146,0.416 l 0.104,-0.026 z m 12.487,2.782 c 0,-1.846 -1.144,-3.172 -3.874,-3.172 -5.018,0 -6.916,5.044 -6.916,8.762 0,2.444 1.248,3.978 4.68,3.978 1.664,0 2.626,-0.286 4.004,-0.806 l 0.338,-2.028 -0.104,-0.13 c -1.352,0.494 -2.574,0.78 -3.744,0.78 -1.898,0 -2.652,-0.494 -2.652,-1.872 0,-0.338 0.052,-0.65 0.104,-1.014 6.344,-0.052 8.164,-2.028 8.164,-4.498 z m -2.496,0.26 c 0,1.378 -1.976,2.132 -5.356,2.132 0.442,-1.846 1.794,-3.38 3.692,-3.38 0.962,0 1.664,0.39 1.664,1.248 z m 21.611,-3.718 c 0,-2.288 -1.638,-4.42 -5.226,-4.42 h -4.628 l -3.12,17.134 0.078,0.104 h 2.496 l 1.144,-6.396 h 2.106 c 4.264,0 7.15,-2.262 7.15,-6.422 z m -2.756,0.39 c 0,2.496 -2.054,3.562 -4.342,3.562 h -1.69 l 1.066,-5.902 h 1.846 c 2.262,0 3.12,0.936 3.12,2.34 z m 13.399,3.068 c 0,-1.846 -1.144,-3.172 -3.874,-3.172 -5.018,0 -6.916,5.044 -6.916,8.762 0,2.444 1.248,3.978 4.68,3.978 1.664,0 2.626,-0.286 4.004,-0.806 l 0.338,-2.028 -0.104,-0.13 c -1.352,0.494 -2.574,0.78 -3.744,0.78 -1.898,0 -2.652,-0.494 -2.652,-1.872 0,-0.338 0.052,-0.65 0.104,-1.014 6.344,-0.052 8.164,-2.028 8.164,-4.498 z m -2.496,0.26 c 0,1.378 -1.976,2.132 -5.356,2.132 0.442,-1.846 1.794,-3.38 3.692,-3.38 0.962,0 1.664,0.39 1.664,1.248 z m 13.279,-3.198 c 0,0 -0.546,-0.234 -1.378,-0.234 -1.872,0 -3.302,1.404 -3.978,2.912 l 0.104,-2.678 h -2.184 l -0.416,2.912 -1.716,9.386 h 2.626 l 0.962,-5.174 c 0.442,-2.418 2.08,-5.174 3.952,-5.174 0.52,0 0.78,0.078 1.014,0.208 l 0.156,-0.104 z m 10.348,-5.044 c -0.91,-0.338 -1.69,-0.52 -2.678,-0.52 -3.38,0 -4.186,1.69 -4.784,4.992 l -0.104,0.572 -2.106,0.598 -0.26,1.43 0.026,0.078 h 1.95 l -2.106,11.258 c -0.26,1.378 -0.546,2.652 -2.028,2.652 -0.78,0 -1.534,-0.104 -2.184,-0.338 l -0.078,0.052 -0.52,1.846 c 0.884,0.39 1.742,0.65 2.652,0.65 3.328,0 4.186,-1.69 4.81,-5.07 l 2.08,-11.05 h 3.302 l 0.078,-0.078 0.364,-2.028 h -3.354 l 0.13,-0.754 c 0.234,-1.378 0.364,-2.6 2.028,-2.6 0.78,0 1.586,0.208 2.158,0.468 l 0.078,-0.026 z m 9.61,9.126 c 0,-2.522 -1.066,-4.316 -4.68,-4.316 -4.81,0 -6.89,4.186 -6.89,8.398 0,2.678 1.352,4.342 4.706,4.342 4.784,0 6.864,-4.186 6.864,-8.424 z m -2.652,0.364 c 0,2.522 -0.962,5.876 -3.952,5.876 -1.612,0 -2.288,-1.144 -2.314,-2.756 -0.026,-2.444 0.884,-5.616 3.848,-5.616 1.716,0 2.418,0.936 2.418,2.496 z m 13.823,-4.446 c 0,0 -0.546,-0.234 -1.378,-0.234 -1.872,0 -3.302,1.404 -3.978,2.912 l 0.104,-2.678 h -2.184 l -0.416,2.912 -1.716,9.386 h 2.626 l 0.962,-5.174 c 0.442,-2.418 2.08,-5.174 3.952,-5.174 0.52,0 0.78,0.078 1.014,0.208 l 0.156,-0.104 z m 17.024,2.964 c 0,-1.898 -0.702,-3.198 -2.782,-3.198 -1.976,0 -3.64,1.482 -4.42,3.198 0.104,-1.638 -0.494,-3.198 -2.366,-3.198 -1.768,0 -3.198,1.716 -3.874,3.198 l 0.13,-2.964 h -2.236 c -0.156,1.066 -0.26,2.158 -0.442,3.224 L 534.115,104 h 2.626 l 0.728,-3.926 c 0.312,-1.716 1.742,-6.422 3.978,-6.422 0.858,0 0.962,0.858 0.962,1.534 0,0.624 -0.104,1.274 -0.208,1.898 L 540.927,104 h 2.6 l 0.702,-3.9 c 0.338,-1.872 1.43,-6.448 3.926,-6.448 0.832,0 0.962,0.884 0.962,1.534 0,0.65 -0.104,1.3 -0.234,1.95 L 547.609,104 h 2.626 l 1.3,-7.124 c 0.13,-0.728 0.234,-1.482 0.234,-2.21 z m 13.877,-2.444 a 12.341,12.341 0 0 0 -4.316,-0.754 c -4.914,0 -7.28,4.602 -7.28,8.814 0,2.548 1.378,3.926 3.354,3.926 1.82,0 3.094,-0.858 3.978,-2.392 L 561.278,104 h 2.262 z m -2.834,1.638 -0.546,2.938 c -0.442,2.34 -2.34,5.252 -4.134,5.252 -1.092,0 -1.508,-0.624 -1.508,-2.028 0,-2.73 1.092,-6.396 4.498,-6.396 0.988,0 1.586,0.208 1.69,0.234 z m 16.111,1.144 c 0,-2.106 -0.832,-3.536 -3.12,-3.536 -1.976,0 -3.51,1.378 -4.264,3.12 l 0.13,-2.886 h -2.262 c -0.156,1.092 -0.286,2.184 -0.468,3.276 -0.52,3.016 -1.118,6.006 -1.664,9.022 h 2.626 l 0.806,-4.342 c 0.156,-0.806 0.39,-1.586 0.728,-2.314 0.572,-1.352 2.002,-3.666 3.692,-3.666 0.962,0 1.17,0.832 1.17,1.612 0,0.702 -0.13,1.404 -0.26,2.08 L 574.84,104 h 2.6 l 1.248,-6.76 c 0.13,-0.728 0.234,-1.482 0.234,-2.236 z m 12.88,-2.964 c -0.936,-0.364 -1.768,-0.572 -2.99,-0.572 -5.174,0 -7.696,3.692 -7.696,8.424 0,2.626 1.144,4.316 4.862,4.316 1.378,0 2.678,-0.338 4.108,-0.728 l 0.338,-2.158 -0.104,-0.052 c -1.326,0.468 -2.548,0.754 -3.822,0.754 -2.054,0 -2.73,-0.936 -2.73,-2.522 0,-2.652 1.196,-5.85 4.316,-5.85 1.534,0 2.808,0.338 3.172,0.494 l 0.104,-0.052 z m 11.58,2.6 c 0,-1.846 -1.144,-3.172 -3.874,-3.172 -5.018,0 -6.916,5.044 -6.916,8.762 0,2.444 1.248,3.978 4.68,3.978 1.664,0 2.626,-0.286 4.004,-0.806 l 0.338,-2.028 -0.104,-0.13 c -1.352,0.494 -2.574,0.78 -3.744,0.78 -1.898,0 -2.652,-0.494 -2.652,-1.872 0,-0.338 0.052,-0.65 0.104,-1.014 6.344,-0.052 8.164,-2.028 8.164,-4.498 z m -2.496,0.26 c 0,1.378 -1.976,2.132 -5.356,2.132 0.442,-1.846 1.794,-3.38 3.692,-3.38 0.962,0 1.664,0.39 1.664,1.248 z m 18.803,-8.242 c -0.91,-0.338 -1.69,-0.52 -2.677,-0.52 -3.38,0 -4.186,1.69 -4.784,4.992 l -0.104,0.572 -2.106,0.598 -0.26,1.43 0.026,0.078 h 1.95 l -2.106,11.258 c -0.26,1.378 -0.546,2.652 -2.028,2.652 -0.78,0 -1.534,-0.104 -2.184,-0.338 l -0.078,0.052 -0.52,1.846 c 0.884,0.39 1.742,0.65 2.652,0.65 3.328,0 4.186,-1.69 4.81,-5.07 l 2.08,-11.05 h 3.302 l 0.078,-0.078 0.364,-2.028 h -3.354 l 0.13,-0.754 c 0.234,-1.378 0.364,-2.6 2.028,-2.6 0.78,0 1.586,0.208 2.158,0.468 l 0.078,-0.026 0.546,-2.132 z m 9.61,9.126 c 0,-2.522 -1.066,-4.316 -4.68,-4.316 -4.81,0 -6.89,4.186 -6.89,8.398 0,2.678 1.352,4.342 4.706,4.342 4.784,0 6.864,-4.186 6.864,-8.424 z m -2.652,0.364 c 0,2.522 -0.962,5.876 -3.952,5.876 -1.612,0 -2.288,-1.144 -2.314,-2.756 -0.026,-2.444 0.884,-5.616 3.848,-5.616 1.716,0 2.418,0.936 2.418,2.496 z m 13.824,-4.446 c 0,0 -0.546,-0.234 -1.378,-0.234 -1.872,0 -3.302,1.404 -3.978,2.912 l 0.104,-2.678 h -2.184 l -0.416,2.912 -1.716,9.386 h 2.626 l 0.962,-5.174 c 0.442,-2.418 2.08,-5.174 3.952,-5.174 0.52,0 0.78,0.078 1.014,0.208 l 0.156,-0.104 z m 18.798,0.312 c 0,-3.562 -1.69,-5.252 -5.72,-5.252 h -5.46 l -3.12,17.16 0.078,0.078 h 5.642 c 7.228,0 8.58,-5.876 8.58,-11.986 z m -2.756,0.754 c 0,4.004 -0.858,8.84 -5.59,8.84 h -2.964 l 2.262,-12.402 h 3.016 c 2.574,0 3.276,1.378 3.276,3.562 z m 15.373,1.872 c 0,-1.846 -1.144,-3.172 -3.874,-3.172 -5.018,0 -6.916,5.044 -6.916,8.762 0,2.444 1.248,3.978 4.68,3.978 1.664,0 2.626,-0.286 4.004,-0.806 l 0.338,-2.028 -0.104,-0.13 c -1.352,0.494 -2.574,0.78 -3.744,0.78 -1.898,0 -2.652,-0.494 -2.652,-1.872 0,-0.338 0.052,-0.65 0.104,-1.014 6.344,-0.052 8.164,-2.028 8.164,-4.498 z m -2.496,0.26 c 0,1.378 -1.976,2.132 -5.356,2.132 0.442,-1.846 1.794,-3.38 3.692,-3.38 0.962,0 1.664,0.39 1.664,1.248 z m 14.705,-3.068 -0.052,-0.13 h -2.626 l -4.004,9.334 h -0.052 l -0.832,-9.334 h -2.418 l -0.104,0.13 1.482,12.168 h 2.886 z m 10.897,2.808 c 0,-1.846 -1.144,-3.172 -3.874,-3.172 -5.018,0 -6.916,5.044 -6.916,8.762 0,2.444 1.248,3.978 4.68,3.978 1.664,0 2.626,-0.286 4.004,-0.806 l 0.338,-2.028 -0.104,-0.13 c -1.352,0.494 -2.574,0.78 -3.744,0.78 -1.898,0 -2.652,-0.494 -2.652,-1.872 0,-0.338 0.052,-0.65 0.104,-1.014 6.344,-0.052 8.164,-2.028 8.164,-4.498 z m -2.496,0.26 c 0,1.378 -1.976,2.132 -5.356,2.132 0.442,-1.846 1.794,-3.38 3.692,-3.38 0.962,0 1.664,0.39 1.664,1.248 z m 9.509,-8.658 -0.078,-0.104 h -2.496 l -3.224,17.784 0.078,0.078 h 2.496 z m 12.251,9.542 c 0,-2.522 -1.066,-4.316 -4.68,-4.316 -4.81,0 -6.89,4.186 -6.89,8.398 0,2.678 1.352,4.342 4.706,4.342 4.784,0 6.864,-4.186 6.864,-8.424 z m -2.652,0.364 c 0,2.522 -0.962,5.876 -3.952,5.876 -1.612,0 -2.288,-1.144 -2.314,-2.756 -0.026,-2.444 0.884,-5.616 3.848,-5.616 1.716,0 2.418,0.936 2.418,2.496 z m 16.164,-0.962 c 0,-2.08 -1.066,-3.718 -3.458,-3.718 -1.794,0 -3.354,1.066 -4.186,2.6 l -0.078,-2.366 h -2.158 l -0.494,3.302 -2.704,14.82 v 0.104 h 2.626 l 1.092,-6.084 c 0.182,0.078 1.274,0.364 2.496,0.364 5.356,0 6.864,-4.576 6.864,-9.022 z m -2.652,0.364 c 0,3.172 -1.014,6.448 -3.874,6.448 -0.988,0 -2.236,-0.312 -2.418,-0.338 0.182,-0.962 0.468,-2.522 0.468,-2.522 0.442,-2.392 2.236,-5.46 4.316,-5.46 1.144,0 1.508,0.702 1.508,1.872 z m 15.223,-0.91 c 0,-1.846 -1.144,-3.172 -3.874,-3.172 -5.018,0 -6.916,5.044 -6.916,8.762 0,2.444 1.248,3.978 4.68,3.978 1.664,0 2.626,-0.286 4.004,-0.806 l 0.338,-2.028 -0.104,-0.13 c -1.352,0.494 -2.574,0.78 -3.744,0.78 -1.898,0 -2.652,-0.494 -2.652,-1.872 0,-0.338 0.052,-0.65 0.104,-1.014 6.344,-0.052 8.164,-2.028 8.164,-4.498 z m -2.496,0.26 c 0,1.378 -1.976,2.132 -5.356,2.132 0.442,-1.846 1.794,-3.38 3.692,-3.38 0.963,0 1.665,0.39 1.665,1.248 z m 13.28,-3.198 c 0,0 -0.546,-0.234 -1.378,-0.234 -1.872,0 -3.302,1.404 -3.978,2.912 l 0.104,-2.678 h -2.184 l -0.416,2.912 -1.716,9.386 h 2.626 l 0.962,-5.174 c 0.442,-2.418 2.08,-5.174 3.952,-5.174 0.52,0 0.78,0.078 1.014,0.208 l 0.156,-0.104 z m 8.824,0.156 c -0.988,-0.234 -1.898,-0.39 -3.068,-0.39 -2.834,0 -5.252,1.144 -5.252,4.03 0,1.222 0.702,2.132 1.924,2.756 l 2.132,1.066 c 0.572,0.286 0.988,0.52 0.988,1.092 0.026,1.43 -1.482,1.612 -2.574,1.612 -1.196,0 -2.548,-0.39 -3.094,-0.624 l -0.13,0.052 -0.702,2.132 c 0.338,0.13 0.962,0.286 0.962,0.286 0.546,0.156 1.586,0.338 2.704,0.338 2.834,0 5.46,-0.91 5.46,-4.186 0,-1.326 -0.702,-2.132 -1.742,-2.626 l -1.872,-0.91 c -0.728,-0.338 -1.352,-0.806 -1.352,-1.482 0,-0.988 1.04,-1.378 1.976,-1.378 1.118,0 2.288,0.156 3.146,0.416 l 0.104,-0.026 z"
           id="path1" />
      </g>
    </g>
  </defs>
  <g
     id="g4"
     transform="matrix(0.9,0,0,0.9,0,-25)"
     style="display:inline;opacity:1">
    <g
       id="RZ_Jedi_Angleichung_l"
       style="display:inline">
      <path
         style="opacity:0.25;fill-rule:nonzero;stroke-width:1.11111"
         d="M 123.51672,56.423145 C 120.83169,43.930766 111.92216,54.004744 103.93801,53.006725 80.966563,50.135295 83.75263,50.524 78.840459,72.979641 77.679414,78.287271 76.48208,87.78805 79.760264,92.295553 106.0261,128.41107 130.58418,81.551879 123.51672,56.423145 Z"
         id="path2" />
      <path
         id="Kontur_geputzt"
         d="m 91.848122,30.251366 c -1.088888,0.06667 -2.155553,0.388889 -3.188886,1.033332 -1.588887,0.999999 -2.999997,2.266665 -4.411106,3.499997 -1.188888,1.055554 -22.944422,18.166648 -26.577751,28.944415 -2.164667,6.635917 -1.354408,13.883682 2.22222,19.877755 4.199995,6.86666 10.111101,11.466665 9.888879,14.399995 -0.188889,2.46666 -7.16666,7.12221 -8.88888,9.46666 -2.499998,3.39999 -2.733331,6.07777 -2.688887,8.14443 0.255556,2.88889 2.333331,6.17777 6.366661,7.59999 1.566665,0.74445 3.388885,1.37778 4.722217,1.64445 -0.622221,-0.83333 -1.666665,-1.33333 -2.333331,-1.92222 -0.844443,-0.74445 -1.644443,-1.53333 -2.488886,-2.27778 -1.81111,-1.61111 -2.911108,-3.51111 -2.799997,-6.02221 0.113242,-2.69163 1.268743,-5.23373 3.222219,-7.08889 2.188886,-2.11111 8.399991,-5.57777 8.199991,-9.82221 -0.211111,-4.255555 -5.65555,-9.033325 -7.611103,-12.466655 -2.977775,-4.85555 -4.299996,-8.644439 -4.688884,-15.433321 0,-4.366662 1.188887,-8.855546 3.84444,-11.92221 3.822219,-4.388885 7.622215,-8.611103 11.688877,-12.466654 2.444442,-2.555553 10.111101,-9.499991 11.777766,-10.777767 1.31111,-0.999999 2.666664,-1.911109 4.366662,-2.033332 2.36667,-0.155555 4.13333,1.022222 5.7,2.588887 3.755547,3.199997 7.955537,6.844437 12.255537,8.644436 0.96666,0.399999 1.91111,0.888888 2.68888,1.499998 -5.21454,3.080413 -2.60231,6.082683 2,2.211109 1.35556,-1.11111 3,-1.166666 4.25555,0.111111 1.57647,1.5679 7.72004,15.78768 5.75169,20.2449 l -8.39613,33.310608 c 1.96667,-1.36667 2.9,-3.57778 3.51111,-5.84444 0.64444,-2.411115 0.84444,-4.933335 1.81111,-7.288885 1.13333,-3.14444 2.54444,-5.62222 3.92222,-8.25555 1.22648,-3.050498 1.79445,-6.325758 1.66666,-9.6111 -0.16784,-2.931533 -0.4756,-5.853377 -0.92222,-8.755547 -0.46666,-5.744439 -2.55555,-10.29999 -5.79999,-14.555541 -0.81111,-1.055554 -1.72222,-1.755554 -3.04444,-1.933331 -1.14556,-0.127483 -2.22407,-0.604665 -3.08889,-1.366666 -0.39645,-0.371582 -0.84577,-0.682364 -1.33333,-0.922221 -2.15556,-0.977777 -9.98888,-6.377771 -11.4111,-7.455548 -1.81111,-1.355554 -3.811107,-3.388885 -6.866657,-4.466662 -1.06443,-0.398261 -2.19777,-0.579596 -3.333332,-0.533333 z m -8.533325,13.544431 c -1.68538,-0.08615 -3.305448,0.66157 -4.333329,1.999998 -0.884119,1.169091 -1.553759,2.485799 -1.977775,3.888885 -0.744444,2.111109 -1.555554,4.211107 -1.333332,6.522216 0.07778,1.266665 0.05555,2.466664 0.122222,3.811107 0,0.222222 0.04444,0.422222 0.299999,0.444444 0.277778,0.03333 0.388889,-0.111111 0.444444,-0.377777 0.3,-1.144444 0.666666,-2.266665 0.911111,-3.422219 0.433332,-1.966665 1.055554,-4.144441 1.766664,-6.222216 0.444444,-0.999999 0.822222,-2.055554 1.51111,-2.933331 0.477777,-0.61111 0.866666,-1.344443 1.788887,-1.499998 2.111109,-0.355555 3.988885,0.233333 5.733328,1.344443 0.599999,0.388888 1.222221,0.722221 1.777776,1.166665 1.399998,0.588889 2.711111,1.566666 4.255551,2.255554 0.97778,0.299999 1.98889,0.544444 3.03333,0.577777 0.77778,0.03333 1.02222,-0.155555 0.92222,-0.899999 -0.11111,-0.422222 -0.0667,-0.933333 -0.56666,-1.033332 -1.01882,0.105286 -2.04358,-0.133302 -2.91111,-0.677778 -1.48889,-0.833332 -3,-1.611109 -4.477776,-2.466664 -1.933331,-1.11111 -3.888885,-2.177775 -6.211105,-2.433331 -0.25104,-0.02636 -0.503156,-0.04118 -0.755555,-0.04444 z M 28.181519,60.606891 c -2.166664,0 -3.622218,0.988888 -3.366663,1.877776 l 2.355553,2.52222 c -5.55555,-1.344443 -10.966654,0.677777 -10.799989,1.866665 0.177777,1.177776 2.533331,-0.177778 2.699997,1.344443 0.177778,1.52222 -5.388882,3.544441 -5.388882,3.544441 C 4.6037647,78.129096 2.2037647,85.717975 0.93710506,92.173525 -1.3406749,103.81796 3.5482147,120.01795 7.7704247,124.91794 c 2.5111103,2.91111 7.2555503,5.93333 7.4666603,2.18889 0.21111,-3.62222 1.266668,-10.12221 -0.88889,-10.63332 -2.53333,1.77777 -4.34444,-1.04445 -5.8222103,-2.77778 -4.93333,-5.82221 -4.72222,-17.79998 -4.04444,-22.533315 0.66666,-4.72222 3.62222,-11.32221 9.1111003,-15.944427 4.811106,-4.044441 9.199991,-5.644439 10.377767,-6.322216 1.177777,-0.666666 2.699998,0.999999 2.699998,0.999999 1.688887,1.188888 3.377774,3.044441 5.899994,-1.666665 10.755544,-1.866665 19.622202,15.722209 21.144423,16.733319 1.133332,-0.12222 2.02222,-0.5 2.144442,-1.38889 C 55.35927,82.395755 53.670383,78.506875 49.448165,72.606879 45.225947,66.695774 33.925958,61.973557 30.559295,60.962446 29.788584,60.727271 28.987312,60.607454 28.181519,60.606891 Z m -11.677766,17.77776 c -1.599998,-0.06667 -3.922218,1.011114 -3.922218,1.011114 0,0 -2.15555,1.01111 -0.25556,2.15555 1.88889,1.13333 8.611107,1.77778 9.744439,5.31111 1.333332,4.15555 1.266666,9.999995 -2.666664,22.911085 -3.911105,12.9111 -3.411105,24.67776 1.777776,35.94441 5.188884,11.25555 17.466649,20.36665 17.466649,20.36665 3.044442,2.15555 3.044442,0.38889 4.688885,-1.26667 5.444439,3.3 12.655542,4.31111 12.655542,4.31111 0,0 3.544441,-2.03333 0.633333,-2.41111 -9.444435,-1.22222 -19.311092,-9.7111 -27.97775,-22.39998 -8.977768,-13.16665 -6.577771,-28.85552 -5.944438,-34.66663 0.633333,-5.83333 2.777775,-20.511095 2.777775,-20.511095 0.255555,-5.68888 -5.944439,-10.63332 -8.977769,-10.755544 z m 41.633292,8.111104 c -0.311111,-0.0333 -0.666666,0 -1.033333,0.11111 -3.011108,0.88889 -20.099979,13.222215 -18.755536,34.044415 0.122222,2.08889 0.322222,4.14444 0.977776,6.16666 1.344444,6.48888 16.088873,36.67774 18.811093,37.28885 1.825462,0.45741 3.732359,-0.35529 4.666662,-1.98888 1.866665,-3 3.366663,-7.28889 4.222218,-9.62222 0.866666,-2.33333 1.544443,-4.04444 2.477775,-5.99999 0.4,-0.85556 0.722222,-1.74444 1.033332,-2.63333 0.177778,-0.5 -0.177777,-1.05556 -0.555555,-0.92222 -0.533332,0.16666 -1.099999,0.0889 -1.633331,0.25555 -0.944444,0.28889 -1.91111,0.43334 -2.933331,0.55556 0.255556,-0.66667 0.533333,-1.27778 1.055555,-1.64445 1.044443,-0.0889 2.066664,0 3.222219,-0.31111 1.933331,-0.22222 3.711107,0.44445 5.377772,1.22222 1.577776,0.72223 3.155553,1.48889 4.611107,2.47778 0.71111,0.47778 1.044443,0.96667 0.955554,1.76667 -0.133333,1.06666 0.255556,1.92222 0.977777,2.66666 0.144444,0.15555 0.222222,0.36667 0.333333,0.55555 0.311111,0.36667 0.577777,0.26667 0.844444,-0.0555 0.222222,-0.28889 0.355555,-0.57778 0.288888,-0.95556 -0.111111,-0.61111 -0.03333,-1.25555 -0.388888,-1.82222 -0.111111,-0.17777 -0.03333,-0.38888 -0.02222,-0.58888 0.03333,-0.83334 0.04444,-1.66667 -0.655555,-2.3 -1.177777,-1.06667 -2.32222,-2.18889 -3.611108,-3.12222 -0.166114,-0.11933 -0.355351,-0.2026 -0.555555,-0.24445 -0.599999,-0.13333 -1.144443,-0.38888 -1.699998,-0.62222 -1.566665,-0.66666 -3.144441,-1.28888 -4.911106,-1.2 -0.611111,0.0222 -1.244444,-0.0778 -1.866665,-0.15555 -0.222222,-0.0222 -0.533333,-0.0111 -0.6,-0.31111 -0.08889,-0.3 0.111111,-0.57778 0.333333,-0.72222 2.088887,-1.31111 3.388886,-4.58889 6.166661,-5.48889 0.444444,-0.16666 0.844444,-0.17777 1.288888,0.0333 l 1.733331,0.86666 c 2.177776,1.03333 4.666662,2.03333 6.955549,3.3 0.61111,0.21111 1.266665,0 1.666665,-0.52222 0.499999,-0.65556 0.61111,-1.48889 0.277777,-2.02222 -0.222222,-0.17778 -0.51111,-0.26667 -0.777777,-0.26667 -1.666665,-0.0222 -3.122219,-0.75555 -4.622217,-1.34444 -0.766666,-0.3 -1.544443,-0.61111 -2.077776,-1.34445 -0.81111,-1.13333 -3.388886,-1.88888 -4.666662,-1.36666 -2.911108,1.2 -5.333328,3.35555 -7.455548,5.98888 -1.667842,2.1221 -3.140496,4.39058 -4.399996,6.77777 -2.333331,4.16667 -2.944441,11.48888 -4.95555,8.65555 -5.544439,-7.83333 -19.58887,-25.74442 -17.944427,-36.37774 1.733332,-11.1111 14.433319,-20.88887 19.366647,-24.355535 1.388888,-0.98889 0.688889,-4.22222 -1.52222,-4.42222 z m 18.066648,16.077765 c -0.129411,0.0147 -0.254311,0.0563 -0.366666,0.12222 -0.477777,0.24445 -0.422222,0.73334 -0.288889,1.22222 0.155556,0.55556 0.677778,1.6 0.999999,2.25556 1.033333,2.05555 1.855554,3.95555 3.722219,5.47777 1.422221,1.16667 3.266663,2.68889 7.533326,2.83333 3.53333,0.11111 7.588881,-1.77778 12.366648,-3.46666 1.13334,-0.5 2.32222,-0.62222 3.82222,-0.81111 0.5,-0.63334 2.62222,-1.63334 2.05556,-1.94445 -0.95033,-0.17015 -1.92159,-0.18891 -2.87778,-0.0556 -2.16666,0.33333 -4.155547,1.05555 -6.277767,1.61111 -1.61111,0.41111 -7.755549,0.87778 -11.188879,-0.46667 -3.444441,-1.35555 -7.588881,-5.37777 -8.566658,-6.33333 -0.277778,-0.26666 -0.577777,-0.47777 -0.933333,-0.44444 z m 31.488857,6.76666 c -0.6,0.25556 -1.23333,0.47778 -1.8,0.81111 -0.96667,0.56667 -1.06667,1.17778 -0.47778,2.13333 0.47778,0.77778 0.94445,1.54445 1.36667,2.34444 1.64444,3.28889 2.22222,7.72222 3.34444,11.59999 0.1,0.37778 0.36667,0.5 0.64444,0.53334 0.66667,0.0111 1.22222,-0.37778 1.51111,-0.96667 0.22222,-0.91111 0.62222,-2.14444 0.38889,-3.23333 -1.28889,-3.22222 -2.04444,-6.49999 -3.16666,-10.07777 -0.34445,-0.94444 -0.76667,-2.73333 -1.81111,-3.14444 z m 10.15554,39.62218 c -0.7,0.0778 -1.11111,0.22223 -1.71111,0.66667 -0.88888,0.64444 -1.02222,1.16666 -0.55555,2.57777 1.74444,5.25555 2.07777,10.61111 4.31111,16.36665 0.22222,0.67778 0.86666,2.4 1.31111,3.64445 h 3.14444 c -0.30171,-0.81394 -0.59064,-1.63256 -0.86667,-2.45556 -1.98889,-6.64444 -3.36666,-13.22221 -4.88888,-19.98887 -0.0889,-0.41111 -0.22222,-0.85555 -0.74445,-0.81111 z m -12.65554,15.17777 c -0.55555,-0.0444 -1.05555,0.52222 -0.73333,1.38888 0.81501,2.1985 1.53786,4.43007 2.16666,6.68889 h 2.14444 c -0.74278,-2.4828 -1.62946,-4.92026 -2.65555,-7.3 -0.22222,-0.52222 -0.57778,-0.75555 -0.92222,-0.77777 z m -43.56662,0.42222 c -0.533333,0.0555 -1.199999,0.51111 -1.199999,0.51111 l -0.777777,2.75555 -1.333332,4.38889 h 3.844441 c 0.111111,-1.15556 0.166666,-2.28889 0.144444,-3.36667 0.07778,-1.5 0.111111,-2.89999 -0.02222,-3.77777 -0.06667,-0.44445 -0.333333,-0.55556 -0.666666,-0.51111 z"
         style="display:inline;stroke-width:1.11111111;stroke-dasharray:none"
         sodipodi:nodetypes="cccccccccccccccccccccccccccccccccccccccccscccccccccccccccccccsscccccccccccccccccccccccccccccccccccscccccccccccccccccccccccccccccccccccccccccccccssccccccccccccccccccccccccccccccccccccccccccccccccc" />
      <path
         id="Augen_und_Nase"
         fill-rule="evenodd"
         d="m 92.208599,63.098599 c 3.09,-0.02 4.9,1.58 5.46,4.13 0.28,1.3 0.63,2.59 0.97,3.87 0.06,0.2 0.2,0.4 0.34,0.56 0.45,0.46 0.36,0.96 0.11,1.45 -0.25,0.5 -0.7,0.63 -1.23,0.48 a 0.64,0.64 0 0 0 -0.58,0.1 l -1.64,1.13 a 5.22,5.22 0 0 1 -3.61,0.99 c -1.77,-0.22 -4.74,-0.87 -5.66,-4.93 -0.25,-2.04 0.13,-4.5 1.79,-6 1.24,-1.1 2.7,-1.84 4.05,-1.78 z m 29.600001,0.02 c -1.7,-0.25 -2.64,0.68 -2.9,2.6 -0.28,1.91 -1.34,5.55 -1.56,6.86 -0.14,0.8 -0.4,2.52 0.69,3 0.84,0.38 2,0.44 3.13,0.2 2.49,-0.54 4.13,-3.83 4.17,-6.13 -0.04,-2.35 -2.12,-6.52 -3.52,-6.53 z m -15.08,18.94 c -0.69,0.14 -1.42,0.22 -1.8,0.94 a 3.1,3.1 0 0 0 -0.28,2.44 c 0.54,1.79 1.73,3.16 2.84,4.6 0.4,0.5 0.84,0.63 1.43,0.4 0.26,-0.1 0.55,-0.12 0.84,-0.04 0.7,0.19 1.19,-0.18 1.65,-0.64 1.25,-1.26 1.9,-2.87 2.63,-4.44 0.45,-0.98 0,-2.26 -0.94,-2.71 -2.07,-0.8 -4.36,-0.74 -6.37,-0.55 z"
         style="display:inline" />
      <path
         id="Spiegel._Aug_l"
         fill="#ffffff"
         d="m 92.55,66.9 c -0.3,0.26 -0.89,0.71 -1.35,1.2 -0.36,0.38 -0.67,0.83 -0.75,1.05 -0.1,0.3 -0.17,0.6 -0.36,0.65 -0.2,0.05 -0.34,-0.17 -0.47,-0.48 -0.12,-0.31 -0.1,-1.14 0.46,-2.27 0.28,-0.56 0.61,-0.85 0.83,-1.06 0.32,-0.3 0.75,-0.03 1.04,0.14 0.3,0.17 0.84,0.55 0.6,0.77 z"
         style="display:inline" />
      <path
         id="Spiegel._Nase"
         fill="#ffffff"
         d="m 107.33,83.92 c 0,0 0,-0.85 0.8,-0.43 0,0 0.57,0.04 0.43,0.7 -0.14,0.64 -0.17,0.77 -0.25,0.97 -0.07,0.2 -0.35,0.14 -0.45,-0.06"
         style="display:inline" />
      <path
         id="Spiegel._Aug_r"
         fill="#ffffff"
         d="m 121.12,70.3 c -0.37,0.22 -0.7,0.03 -0.54,-0.41 0.17,-0.44 0.3,-1.6 0.4,-2 0.1,-0.4 0.35,-0.74 0.65,-0.74 0.3,0 0.49,0.6 0.51,0.8 0,0 0.14,1.67 -1.02,2.34 z"
         style="display:inline" />
      <path
         id="Blitzer_Auge_neu"
         d="m 123.35,63.69 a 5.49,5.49 0 0 0 -1,-0.33 c 0.57,0.56 3.05,3.12 3.07,6.49 a 6.29,6.29 0 0 1 -1.81,4.51 c -1.22,1.07 -2.13,1.57 -3.6,1.6 l 0.04,0.02 0.74,0.47 c 1.1,-0.04 2.2,-0.76 3.18,-1.74 a 6.79,6.79 0 0 0 1.95,-4.87 c -0.02,-2.8 -1.58,-5.02 -2.57,-6.15 z"
         style="display:inline;fill-rule:evenodd" />
      <g
         id="Angl_u"
         style="display:inline">
        <linearGradient
           id="SVGID_1_"
           x1="198.22"
           x2="186.96001"
           y1="58.900002"
           y2="69.309998"
           gradientUnits="userSpaceOnUse">
          <stop
             id="stop28"
             offset="0"
             stop-color="#fff"
             stop-opacity="0" />
          <stop
             id="stop30"
             offset=".99"
             stop-color="#f39200" />
        </linearGradient>
      </g>
      <g
         id="Angl_o"
         style="display:inline">
        <linearGradient
           id="SVGID_2_"
           x1="210.7"
           x2="191.82001"
           y1="43.950001"
           y2="60.029999"
           gradientTransform="matrix(0.9,0,0,0.9,30,-25)"
           gradientUnits="userSpaceOnUse">
          <stop
             id="stop38"
             offset="0"
             stop-color="#fff"
             stop-opacity="0" />
          <stop
             id="stop40"
             offset="1"
             stop-color="#f5a329" />
        </linearGradient>
        <g
           id="schwert-orange"
           style="display:inline">
          <path
             id="path22"
             fill-rule="evenodd"
             d="m 143.18,102.68 c -14.55,13.83 -32.5,30.24 -32.92,30.63 0.48,0.5 3.57,3.55 4.07,3.77 1.03,1.1 43.17,-38.5 72.08,-65.71 l -0.88,-2.24 -0.03,-1.53 c -11.98,9.65 -40.46,33.3 -42.32,35.08 z"
             style="display:inline;opacity:0.47767" />
          <path
             id="path32"
             fill-rule="evenodd"
             d="M 184.34,73.44 198.8,59.58 197.61,58.48 182.68,71.9 Z"
             style="display:inline;opacity:0.48932" />
          <path
             id="path35"
             d="m 189.8,59.73 c -16.89,15.42 -37.34,34.02 -46.82,43.14 0,0 37.42,-31.01 39.8,-32.9 0.75,-0.6 4.55,-4 9.44,-8.39 z"
             style="display:inline;opacity:0.269903" />
          <path
             id="schwert_spitze"
             d="m 218.6,13.76 -7.63,6.44 -10.2,8.6 0.06,0.07 c 0.96,0.96 1.57,1.46 2.08,1.64 l 2.8,-2.51 v -0.01 l 3.54,-3.2 2.75,-2.48 8.4,-7.6 z"
             transform="matrix(1.11111,0,0,1.11111,-33.33,27.78)"
             style="opacity:0.240777" />
        </g>
      </g>
      <path
         id="Schwert_mit_Hand"
         d="m 88.2,163.2 a 2.37,2.37 0 0 1 -1.45,3.3 c -1.09,0.36 -2.2,0.5 -3.15,0.5 a 7.9,7.9 0 0 1 -5.79,-1.98 c -2.45,-2.06 -3.01,-4.68 -2.38,-7.69 0.2,-0.97 0.5,-1.89 1.29,-2.6 0.27,-0.24 0.55,-0.4 0.87,-0.47 a 5.55,5.55 0 0 1 2.24,0.04 c 0.62,0.13 1.05,0.32 1.67,-0.04 0.44,-0.27 1.36,0.3 1.6,0.81 0.06,0.14 0.11,0.3 -0.01,0.4 -0.4,0.32 -0.55,0.9 -1.02,1.14 -0.37,0.2 -0.3,0.37 -0.1,0.64 0.94,1.3 2.1,2.38 3.42,3.28 0.31,0.21 0.6,0.36 1.04,0.31 0.89,-0.1 1.33,0.72 0.93,1.69 -0.11,0.26 -0.07,0.32 0.12,0.46 0.16,0.11 0.24,0.36 0.44,0.02 0.07,-0.12 0.17,-0.06 0.28,0.18 z m -0.52,-2.21 c 0.12,1.06 0.86,1.61 1.65,1.15 0.51,-0.3 0.98,-0.72 1.3,-1.23 0.29,-0.49 0.45,-1.05 -0.11,-1.46 a 1.75,1.75 0 0 0 -1.88,-0.15 c -0.87,0.58 -1,0.68 -0.96,1.69 z m 31.7,-29.46 c -0.5,0.46 -1.06,1.01 -1.49,1.42 -0.53,0.5 -1.38,1.05 -1.31,1.87 0.03,0.36 -2,2.03 -2.27,1.79 -1.4,-1.23 -3.43,-3.12 -4.75,-4.43 0,0 27.21,-26.13 30.27,-29 13.95,-13.29 13.88,-12.71 26.5,-24.68 4,-3.84 8.3,-8 11.96,-11.56 0.8,-0.79 6.48,-6.18 7.26,-6.99 0.25,-0.22 -0.29,-0.78 -0.64,-0.49 -1.78,1.6 -8.46,7.8 -10.22,9.43 -22.51,20.68 -32.3,29.89 -52.11,48.14 0,-0.3 -0.03,-0.47 0,-0.65 0.34,-2.03 0.19,-4.06 -0.1,-6.08 a 24.03,24.03 0 0 0 -2.27,-6.87 c -0.1,-0.2 -0.24,-0.4 -0.48,-0.52 -0.83,-0.48 -1.54,-0.1 -2.26,0.27 -0.53,0.27 -0.64,0.62 -0.34,1.18 0.36,0.69 1.04,1.07 1.42,1.72 1.45,2.46 1.89,5.23 2.56,7.94 0.27,1.1 0.24,2.28 0.77,3.32 0.1,0.19 0.02,0.3 -0.1,0.43 -4.55,4.38 -8.83,8.7 -12.93,12.82 -0.12,0.13 -0.3,0.5 -0.49,0.19 -0.56,-0.97 -1.61,-1.38 -2.33,-2.17 -0.82,-0.9 -1.82,-0.82 -2.63,0.1 -1.15,1.45 -2.28,3.4 -2.43,5 -0.08,1.01 -0.31,2.03 -0.23,3.07 0.03,0.46 -0.38,0.6 -0.68,0.75 -0.46,0.03 -0.68,-0.31 -0.97,-0.58 -2.5,-1.71 -5.17,-2.4 -8.13,-1.31 -0.24,0.03 -0.5,0.05 -0.54,0.36 -0.01,0.52 0.22,0.62 0.59,0.82 0.82,0.54 1.84,0.4 2.73,0.76 1.12,0.46 2.38,0.61 3.3,1.53 0.1,0.1 0.31,0.16 0.3,0.35 -0.02,0.22 -0.25,0.23 -0.42,0.28 -0.65,0.16 -1.23,0.41 -1.75,0.88 -0.41,0.37 -0.73,0.81 -1.14,1.18 -1.73,1.54 -1.49,2.92 -0.47,4.5 a 7.54,7.54 0 0 0 4,2.9 c 1.82,0.64 3.72,0.97 5.56,1.54 0.4,0.13 0.8,0.27 1.24,0.26 0.23,0 0.52,-0.03 0.57,0.3 -0.14,0.6 -0.5,0.58 -0.95,0.72 -0.83,-0.14 -1.43,0.23 -2,0.78 l -0.9,0.9 c -0.33,0.35 -0.7,0.5 -1.2,0.36 -0.4,-0.12 -0.88,-0.2 -1.23,0 -0.87,0.5 -1.74,1.02 -2.16,2.04 -0.35,0.85 -1.08,1.16 -1.97,1.1 a 2.95,2.95 0 0 1 -1.61,-0.66 c -0.4,-0.31 -0.82,-0.42 -1.35,-0.38 a 5,5 0 0 1 -1.93,-0.13 c -0.66,-0.2 -1.34,-0.32 -2.02,-0.39 a 1.76,1.76 0 0 1 -1.3,-0.68 c -0.28,-0.35 -0.6,-0.66 -0.95,-0.94 -0.52,-0.41 -1.17,-0.36 -1.43,0.09 -0.05,1.52 0.75,2.6 1.93,3.36 1.19,0.76 2.67,0.47 3.98,0.84 0.53,0.15 1,0.28 1.46,0.6 0.5,0.37 0.79,0.98 1.41,1.19 1.26,0.42 2.44,0.03 3.5,-0.58 0.9,-0.51 1.37,-1.48 1.94,-2.33 0.14,-0.2 0.26,-0.36 0.52,-0.28 0.74,0.21 1.5,0.16 2.23,0.08 0.88,-0.1 1.86,-0.24 2.24,-1.24 0.28,-0.76 0.75,-1.1 1.54,-1.18 1.28,-0.13 2.37,-0.6 2.94,-1.88 0.48,-1.1 0.12,-3.05 -1.69,-3.53 l 2.08,-1.92 c 0,0 0.85,0.06 1.4,0.03 2.01,-0.2 4.03,-0.36 5.93,-1.07 1.12,-0.41 2.28,-0.7 3.3,-1.4 1.1,-0.76 0.9,-2.82 -0.05,-3.78 -0.95,-0.95 -2.79,-2.53 -2.55,-2.8 0.6,-0.5 25.22,-24.07 28.46,-27.08 C 162,94.5 164.49,92.77 180.7,77.6 l 4.84,-4.5 c 0.38,-0.37 -0.61,-1.36 -1.03,-1.03 -0.73,0.57 -5.6,4.8 -6.41,5.52 -24.24,22.45 -37.73,34.35 -58.73,53.94 z m -16.1,16.5 c -2.77,-0.8 -4.27,-1.44 -6.34,-3.3 -0.3,-0.28 -0.34,-0.43 0.06,-0.57 0.29,-0.1 0.6,-0.16 0.84,-0.32 0.72,-0.49 1.23,-1.2 1.78,-1.85 0.2,-0.23 0.14,-0.6 0.03,-0.88 -0.18,-0.41 -0.1,-0.52 0.3,-0.36 0.58,-0.2 0.61,0.15 0.72,0.58 a 5.78,5.78 0 0 0 1.72,2.95 c 0.97,0.9 1.43,1.52 2.72,1.9 0.14,0.23 -1.66,1.89 -1.82,1.86 z m 1.37,-5.7 a 6.25,6.25 0 0 1 -2,-3.83 l 6.67,6.3 c -2.39,-0.09 -3.32,-1.23 -4.67,-2.47 z m 9.15,1.6 c -0.08,0.23 -0.87,0.5 -1.19,0.17 -0.28,-0.26 -7.46,-6.68 -8.83,-7.99 -0.78,-0.74 -0.91,-0.93 -0.29,-1.54 0.29,-0.18 0.46,0.12 0.61,0.26 1.1,1 2.17,2.01 3.24,3.02 2.34,2.19 3.81,3.36 6.14,5.55 0.16,0.15 0.41,0.3 0.32,0.53 z m 2.36,-2.53 c 0.43,0.43 0.78,0.54 0.4,0.95 -0.41,0.42 -0.8,0.24 -1.18,-0.11 a 482.23,482.23 0 0 1 -9.65,-9.21 c -0.52,-0.56 -1.16,-1.1 -0.92,-1.68 0.22,-0.52 0.41,-0.79 1.4,0.43 3.48,3.67 6.35,6.08 9.95,9.62 z"
         style="display:inline" />
    </g>
  </g>
</svg>
